<?xml version="1.0" standalone="no"?>
<!DOCTYPE svg PUBLIC "-//W3C//DTD SVG 1.1//EN" "http://www.w3.org/Graphics/SVG/1.1/DTD/svg11.dtd" >
<svg xmlns="http://www.w3.org/2000/svg" xmlns:xlink="http://www.w3.org/1999/xlink" version="1.1">
<metadata>
Created by FontForge 20161013 at Thu Jul 16 13:59:53 2009
 By ,,,
Copyright (c) 2009 by Eduardo Manso. All rights reserved.
</metadata>
<defs>
<font id="Geogrotesque-LightItalic" horiz-adv-x="519" >
  <font-face 
    font-family="Geogrotesque Lg It"
    font-weight="300"
    font-style="italic"
    font-stretch="normal"
    units-per-em="1000"
    panose-1="0 0 0 0 0 0 0 0 0 0"
    ascent="750"
    descent="-250"
    x-height="493"
    cap-height="680"
    bbox="-84.2667 -218 1424 964"
    underline-thickness="50"
    underline-position="-200"
    unicode-range="U+0020-FB04"
  />
<missing-glyph horiz-adv-x="862" 
d="M717 94q-104 -102 -249 -102q-144 0 -246 102q-103 101 -103 247q0 144 103 247q102 102 246 102q147 0 249 -102q103 -103 103 -247t-103 -247zM705 106q99 99 99 235t-99 235q-98 98 -237 98q-136 0 -234 -98q-99 -99 -99 -235q0 -137 99 -235q98 -98 234 -98
q139 0 237 98zM592 188l-123 123l-122 -122q-5 -5 -8 -5t-8 5l-15 15q-4 4 -4 8t4 8l122 122l-121 122q-5 5 -5 9t4 8l14 14q5 5 9 5t8 -4l122 -123l123 122q5 5 9 5t8 -4l15 -14q4 -4 4 -9q0 -4 -4 -8l-123 -123l122 -123q5 -5 5 -9q0 -3 -5 -8l-14 -14q-5 -5 -9 -5
q-3 0 -8 5z" />
    <glyph glyph-name="ff" unicode="ff" horiz-adv-x="604" 
d="M162 491h10l12 89q8 59 52 91t141 32h6q11 0 10 -12l-2 -20q-1 -12 -14 -12h-5q-127 0 -137 -83l-11 -85h238l12 89q8 59 52 91t141 32h6q12 0 11 -12l-3 -20q-1 -12 -14 -12h-4q-128 0 -138 -83l-10 -85h116q12 0 11 -11l-3 -20q-1 -11 -13 -11h-116l-80 -645
q-2 -12 -13 -12h-28q-13 0 -11 12l80 645h-238l-80 -645q-2 -12 -13 -12h-29q-12 0 -10 12l80 645h-65q-12 0 -11 11l2 16q1 12 13 12z" />
    <glyph glyph-name="fi" unicode="fi" horiz-adv-x="524" 
d="M512 479l-58 -467q-2 -12 -12 -12h-29q-13 0 -11 12l54 436h-238l-80 -643q-1 -13 -13 -13h-28q-12 0 -11 13l80 643h-65q-11 0 -10 12l1 16q1 12 13 12l56 3h10l10 85q14 123 191 123h131q11 0 10 -12l-2 -21q-1 -12 -13 -12h-128q-128 0 -138 -83l-9 -80h278
q12 0 11 -12z" />
    <glyph glyph-name="fl" unicode="fl" horiz-adv-x="539" 
d="M537 687l-83 -675q-2 -12 -12 -12h-29q-13 0 -11 12l79 642h-111q-128 0 -138 -83l-9 -80h115q12 0 11 -11l-3 -20q-1 -12 -12 -12h-116l-80 -643q-1 -13 -13 -13h-28q-12 0 -11 13l80 643h-65q-11 0 -10 12l1 16q1 11 13 12l56 3h10l10 85q15 123 191 123h154
q12 0 11 -12z" />
    <glyph glyph-name="ffi" unicode="ffi" horiz-adv-x="811" 
d="M162 491h10l12 89q8 59 52 91t141 32h6q11 0 10 -12l-2 -20q-1 -12 -14 -12h-5q-127 0 -137 -83l-11 -85h239l11 85q15 123 191 123h130q12 0 11 -12l-2 -20q-2 -12 -13 -12h-128q-128 0 -138 -83l-10 -81h278q12 0 11 -12l-58 -467q-2 -12 -12 -12h-29q-11 0 -10 12
l53 437h-238l-80 -645q-2 -12 -12 -12h-29q-13 0 -11 12l80 645h-238l-80 -645q-2 -12 -13 -12h-29q-12 0 -10 12l80 645h-65q-12 0 -11 11l2 16q1 12 13 12z" />
    <glyph glyph-name="ffl" unicode="ffl" horiz-adv-x="831" 
d="M830 687l-84 -675q-2 -12 -12 -12h-29q-11 0 -10 12l79 643h-111q-128 0 -138 -83l-10 -81h116q11 0 10 -11l-2 -20q-1 -11 -13 -11h-116l-80 -645q-2 -12 -12 -12h-29q-13 0 -11 12l80 645h-239l-79 -645q-2 -12 -13 -12h-29q-12 0 -10 12l79 645h-65q-12 0 -11 11l3 16
q3 12 13 12l55 3h10l11 89q15 123 193 123h6q12 0 11 -12l-2 -20q-1 -12 -14 -12h-5q-127 0 -137 -83l-11 -85h239l11 85q15 123 191 123h153q13 0 12 -12z" />
    <glyph glyph-name=".notdef" horiz-adv-x="862" 
d="M717 94q-104 -102 -249 -102q-144 0 -246 102q-103 101 -103 247q0 144 103 247q102 102 246 102q147 0 249 -102q103 -103 103 -247t-103 -247zM705 106q99 99 99 235t-99 235q-98 98 -237 98q-136 0 -234 -98q-99 -99 -99 -235q0 -137 99 -235q98 -98 234 -98
q139 0 237 98zM592 188l-123 123l-122 -122q-5 -5 -8 -5t-8 5l-15 15q-4 4 -4 8t4 8l122 122l-121 122q-5 5 -5 9t4 8l14 14q5 5 9 5t8 -4l122 -123l123 122q5 5 9 5t8 -4l15 -14q4 -4 4 -9q0 -4 -4 -8l-123 -123l122 -123q5 -5 5 -9q0 -3 -5 -8l-14 -14q-5 -5 -9 -5
q-3 0 -8 5z" />
    <glyph glyph-name=".null" horiz-adv-x="0" 
 />
    <glyph glyph-name="nonmarkingreturn" horiz-adv-x="333" 
 />
    <glyph glyph-name="space" unicode=" " horiz-adv-x="232" 
 />
    <glyph glyph-name="exclam" unicode="!" horiz-adv-x="248" 
d="M200 390l-33 -221q-1 -12 -14 -12h-20q-11 0 -10 12l22 221l33 278q2 12 14 12h31q11 0 10 -12zM161 89l-10 -77q-1 -12 -13 -12h-29q-12 0 -11 12l10 77q2 12 14 12h29q11 0 10 -12z" />
    <glyph glyph-name="quotedbl" unicode="&#x22;" horiz-adv-x="350" 
d="M218 668l-26 -173q-2 -13 -12 -13h-20q-12 0 -11 13l17 173q2 12 13 12h30q11 0 9 -12zM346 668l-26 -173q-2 -13 -12 -13h-20q-12 0 -11 13l17 173q2 12 13 12h29q12 0 10 -12z" />
    <glyph glyph-name="numbersign" unicode="#" horiz-adv-x="646" 
d="M131 270h85l48 119h-78q-12 0 -10 12l1 16q1 12 14 12h89l40 101q5 12 17 12h22q11 0 7 -12l-41 -101h161l41 101q5 12 16 12h23q10 0 6 -12l-40 -101h67q13 0 11 -12l-2 -16q-2 -12 -14 -12h-78l-48 -119h71q12 0 11 -12l-1 -16q-1 -12 -14 -12h-83l-40 -99
q-5 -12 -15 -12h-23q-13 0 -8 12l40 99h-160l-40 -99q-5 -12 -15 -12h-24q-12 0 -7 12l40 99h-74q-12 0 -10 12l1 16q1 12 14 12zM310 389l-48 -119h160l49 119h-161z" />
    <glyph glyph-name="dollar" unicode="$" horiz-adv-x="527" 
d="M453 454l3 23q1 8 1 19q0 25 -28 42t-84 17q-120 0 -128 -68l-4 -30q-1 -7 -1 -12q0 -39 48 -54l152 -47q73 -24 73 -79q0 -1 -2 -19l-6 -56q-6 -44 -46 -72t-118 -32l-9 -74q-2 -12 -12 -12h-28q-12 0 -11 12l9 73q-69 4 -103.5 30.5t-34.5 64.5q0 6 1 16l3 25
q1 11 13 11h27q9 0 8 -11l-2 -23q-1 -9 -1 -13q0 -60 118 -60q128 0 138 69l5 43q1 10 1 15q0 32 -55 50l-148 48q-30 9 -50 32t-20 52q0 7 1 15l5 39q11 97 157 105l9 75q2 12 14 12h28q10 0 9 -12l-10 -75q65 -5 98 -31.5t33 -63.5q0 -8 -1 -18l-3 -26q-1 -11 -13 -11h-26
q-12 0 -10 11z" />
    <glyph glyph-name="percent" unicode="%" horiz-adv-x="751" 
d="M146 489l12 106q10 91 140 91q120 0 120 -76q0 -12 -1 -21l-13 -105q-6 -44 -37.5 -67t-101.5 -23q-121 0 -121 76q0 7 2 19zM415 87l12 106q10 91 140 91q120 0 120 -76q0 -12 -1 -21l-13 -105q-6 -44 -37.5 -67t-101.5 -23q-121 0 -121 76q0 7 2 19zM628 83l13 104
q1 10 1 13q0 46 -79 46q-84 0 -91 -54l-12 -100l-2 -18q0 -46 80 -46q83 0 90 55zM359 485l13 104q1 10 1 13q0 46 -79 46q-84 0 -91 -54l-12 -100l-2 -18q0 -46 80 -46q83 0 90 55zM629 668l-379 -656q-8 -12 -18 -12h-28q-11 0 -4 12l378 656q7 12 19 12h27q13 0 5 -12z
" />
    <glyph glyph-name="ampersand" unicode="&#x26;" horiz-adv-x="665" 
d="M337 385h319q12 0 10 -12l-2 -22q-1 -11 -14 -11h-78l-26 -209q-18 -139 -235 -139q-204 0 -204 122q0 11 1 18l14 115q6 49 30 76.5t82 39.5q-79 18 -79 89q0 8 2 24l9 74q8 66 53 102t152 36q177 0 177 -114v-12l-3 -32q-1 -12 -13 -12h-29q-12 0 -10 12l2 25v10
q0 78 -128 78q-67 0 -105 -22t-45 -78l-7 -60q-2 -18 -2 -23q0 -38 28.5 -56.5t100.5 -18.5zM315 37q166 0 179 100l26 203h-194q-83 0 -114.5 -24t-37.5 -75l-13 -103q-1 -7 -1 -15q0 -86 155 -86z" />
    <glyph glyph-name="quotesingle" unicode="'" horiz-adv-x="222" 
d="M218 668l-26 -173q-2 -13 -12 -13h-20q-12 0 -11 13l17 173q2 12 13 12h30q11 0 9 -12z" />
    <glyph glyph-name="parenleft" unicode="(" horiz-adv-x="353" 
d="M81 -91l84 676q7 62 49 92.5t139 30.5h11q11 0 10 -12l-2 -21q-2 -12 -13 -12h-5q-70 0 -100.5 -21.5t-35.5 -61.5l-82 -665q-2 -16 -2 -17q0 -35 26.5 -53t90.5 -18h5q12 0 10 -12l-3 -21q-1 -12 -12 -12h-5q-166 0 -166 108q0 9 1 19z" />
    <glyph glyph-name="parenright" unicode=")" horiz-adv-x="353" 
d="M330 581l-83 -676q-8 -62 -50 -92.5t-139 -30.5h-10q-11 0 -10 12l2 21q2 12 13 12h5q126 0 136 83l82 665q0 4 0.5 8t1 6.5t0.5 4.5q0 69 -118 69h-4q-12 0 -10 12l2 21q1 12 13 12h5q166 0 166 -108q0 -5 -2 -19z" />
    <glyph glyph-name="asterisk" unicode="*" horiz-adv-x="502" 
d="M288 368q-11 0 -10 13l20 131l-122 -74q-12 -7 -16 4l-6 15q-3 10 7 16l122 65l-106 66q-9 5 -3 15l8 14q6 11 18 4l104 -73l13 134q1 12 13 12h16q12 0 10 -12l-21 -134l120 74q11 6 16 -4l7 -14q6 -10 -6 -16l-123 -66l107 -66q8 -6 2 -15l-8 -14q-8 -12 -18 -4
l-103 72l-12 -130q-1 -13 -13 -13h-16z" />
    <glyph glyph-name="plus" unicode="+" horiz-adv-x="584" 
d="M308 144v173h-172q-12 0 -12 11v22q0 12 12 12h172v173q0 12 12 12h20q12 0 12 -12v-173h175q12 0 12 -12v-22q0 -11 -12 -11h-175v-173q0 -12 -12 -12h-20q-12 0 -12 12z" />
    <glyph glyph-name="comma" unicode="," horiz-adv-x="224" 
d="M94 30l8 59q2 12 13 12h30q11 0 10 -12l-8 -61q-5 -43 -29 -70.5t-73 -43.5q-11 -4 -14 7l-5 21q-2 10 9 15q31 14 43.5 30.5t15.5 42.5z" />
    <glyph glyph-name="hyphen" unicode="-" horiz-adv-x="462" 
d="M129 311h269q12 0 12 -11v-21q0 -12 -12 -12h-269q-12 0 -12 12v21q0 11 12 11z" />
    <glyph glyph-name="period" unicode="." horiz-adv-x="213" 
d="M143 89l-9 -77q-1 -12 -13 -12h-29q-12 0 -11 12l9 77q2 12 13 12h31q10 0 9 -12z" />
    <glyph glyph-name="slash" unicode="/" horiz-adv-x="370" 
d="M407 687l-321 -823q-4 -12 -17 -12h-32q-12 0 -7 12l321 823q5 12 15 12h33q13 0 8 -12z" />
    <glyph glyph-name="zero" unicode="0" horiz-adv-x="536" 
d="M85 135l51 412q4 32 15 55.5t34 44t64.5 31t100.5 10.5q185 0 185 -119q0 -8 -2 -24l-50 -412q-8 -66 -55.5 -103.5t-159.5 -37.5q-185 0 -185 117q0 10 2 26zM430 141l49 396q1 10 1 21q0 41 -30.5 62.5t-103.5 21.5q-82 0 -117 -26.5t-41 -76.5l-47 -387q-3 -27 -3 -31
q0 -40 30.5 -61.5t103.5 -21.5q82 0 117 26.5t41 76.5z" />
    <glyph glyph-name="one" unicode="1" horiz-adv-x="536" 
d="M164 628l214 54q4 1 7.5 -1.5t2.5 -8.5l-77 -626h165q12 0 11 -12l-3 -22q-1 -12 -13 -12h-385q-11 0 -10 12l3 22q1 12 12 12h166l73 582l-171 -47q-5 -2 -8.5 1t-2.5 10l2 22q1 11 14 14z" />
    <glyph glyph-name="two" unicode="2" horiz-adv-x="536" 
d="M145 46h321q12 0 11 -12l-2 -22q-1 -12 -14 -12h-363q-12 0 -10 12l25 196q8 66 97 91l189 55q65 20 71 73l14 111q1 11 1 22q0 40 -29.5 61.5t-102.5 21.5q-82 0 -115.5 -26t-40.5 -77l-6 -49q-1 -13 -13 -13h-29q-12 0 -10 13l7 56q4 32 15 55.5t33.5 44t63.5 31
t99 10.5q182 0 182 -117q0 -10 -2 -26l-14 -118q-10 -88 -102 -115l-177 -50q-74 -22 -80 -69z" />
    <glyph glyph-name="three" unicode="3" horiz-adv-x="536" 
d="M220 385h87q82 0 113.5 24t37.5 74l7 60q1 8 1 19q0 39 -28.5 60t-98.5 21q-78 0 -112.5 -26t-38.5 -74l-1 -13q-1 -12 -13 -12h-28q-12 0 -11 12l2 19q7 65 53 102t154 37q176 0 176 -115q0 -6 -2 -26l-9 -72q-6 -47 -27.5 -73.5t-74.5 -38.5q82 -19 82 -92q0 -9 -2 -27
l-14 -114q-8 -66 -54 -102t-156 -36q-183 0 -183 118q0 10 1 21l2 19q1 12 14 12h28q12 0 10 -12l-1 -13q-1 -7 -1 -19q0 -81 133 -81q80 0 115 25.5t41 74.5l12 104q2 20 2 23q0 38 -28.5 57t-99.5 19h-93q-13 0 -11 11l2 22q2 12 14 12z" />
    <glyph glyph-name="four" unicode="4" horiz-adv-x="536" 
d="M336 668l-195 -398h286l49 398q2 12 13 12h30q11 0 10 -12l-80 -656q-1 -12 -13 -12h-30q-12 0 -11 12l27 212h-332q-12 0 -11 11l3 20q0 3 8 22l192 391q6 12 17 12h31q13 0 6 -12z" />
    <glyph glyph-name="five" unicode="5" horiz-adv-x="536" 
d="M188 680h324q11 0 10 -12l-2 -22q-1 -12 -13 -12h-283l-28 -225h119q85 0 131.5 -29.5t46.5 -82.5q0 -10 -2 -24l-18 -142q-6 -44 -22.5 -72t-62 -47.5t-120.5 -19.5q-97 0 -135.5 30.5t-38.5 86.5q0 14 1 22l2 19q1 12 13 12h29q11 0 10 -12l-1 -12q-1 -6 -1 -22
q0 -39 27 -59t99 -20q80 0 111 24.5t37 75.5l15 129q2 20 2 21q0 77 -128 77h-161q-11 0 -10 12l36 292q1 12 13 12z" />
    <glyph glyph-name="six" unicode="6" horiz-adv-x="536" 
d="M91 133l52 420q7 61 52 98t155 37q177 0 177 -115q0 -8 -1 -20l-2 -16q-2 -12 -13 -12h-29q-12 0 -10 12l1 10q0 1 0.5 7t0.5 8q0 81 -128 81q-140 0 -151 -96l-25 -200q38 55 155 55q175 0 175 -117q0 -10 -2 -26l-15 -126q-5 -43 -23 -72t-65.5 -49t-123.5 -20
q-182 0 -182 116q0 9 2 25zM431 139l13 116q2 16 2 20q0 40 -30 61t-103 21q-143 0 -154 -93l-14 -122q-2 -18 -2 -23q0 -40 29.5 -61t102.5 -21q81 0 115.5 26t40.5 76z" />
    <glyph glyph-name="seven" unicode="7" horiz-adv-x="536" 
d="M149 680h404q11 0 10 -12l-2 -20q-1 -6 -5 -14l-336 -622q-7 -12 -16 -12h-36q-13 0 -7 12l337 622h-353q-13 0 -12 12l3 22q1 12 13 12z" />
    <glyph glyph-name="eight" unicode="8" horiz-adv-x="536" 
d="M138 484l7 63q4 33 13.5 55.5t30.5 43.5t61 31.5t98 10.5q97 0 136 -30.5t39 -84.5q0 -8 -2 -26l-8 -65q-7 -50 -30 -78t-80 -40q90 -20 90 -97q0 -7 -2 -23l-13 -111q-8 -67 -53.5 -104t-157.5 -37q-180 0 -180 117q0 14 1 24l14 113q6 49 31.5 77.5t83.5 40.5
q-81 18 -81 93q0 7 2 27zM426 139l12 98q1 8 1 22q0 41 -29 62t-102 21q-81 0 -114.5 -26t-39.5 -77l-12 -100q-2 -16 -2 -21q0 -40 29 -60.5t102 -20.5q81 0 115 26t40 76zM462 489l7 52q2 18 2 22q0 40 -27.5 60t-99.5 20q-80 0 -110 -25.5t-37 -76.5l-7 -52q-1 -9 -1 -23
q0 -40 26.5 -60t97.5 -20q81 0 111.5 25.5t37.5 77.5z" />
    <glyph glyph-name="nine" unicode="9" horiz-adv-x="536" 
d="M526 547l-51 -420q-3 -28 -13 -50t-31.5 -42.5t-62 -31.5t-98.5 -11q-180 0 -180 115q0 8 1 20l2 16q1 12 13 12h29q11 0 10 -12l-1 -10q0 -2 -0.5 -7.5t-0.5 -7.5q0 -81 130 -81q79 0 112 26t38 70l25 200q-40 -55 -155 -55q-175 0 -175 117q0 10 2 26l15 126
q8 67 54 104t157 37q182 0 182 -116q0 -9 -2 -25zM187 541l-14 -116q-2 -16 -2 -20q0 -40 30 -61t103 -21q143 0 154 93l14 122q2 18 2 23q0 40 -29 61t-102 21q-82 0 -116 -26t-40 -76z" />
    <glyph glyph-name="colon" unicode=":" horiz-adv-x="213" 
d="M143 89l-9 -77q-1 -12 -14 -12h-29q-11 0 -10 12l9 77q2 12 14 12h29q11 0 10 -12zM191 480l-9 -77q-2 -12 -13 -12h-30q-11 0 -10 12l10 77q1 13 13 13h29q11 0 10 -13z" />
    <glyph glyph-name="semicolon" unicode=";" horiz-adv-x="264" 
d="M243 480l-9 -77q-2 -12 -13 -12h-30q-11 0 -10 12l9 77q1 13 14 13h29q11 0 10 -13zM135 30l7 59q1 12 13 12h31q10 0 9 -12l-8 -61q-11 -86 -101 -114q-10 -3 -13 6l-6 22q-3 10 9 15q53 24 59 73z" />
    <glyph glyph-name="less" unicode="&#x3c;" horiz-adv-x="544" 
d="M486 478l-310 -138l310 -137q12 -5 12 -14v-29q0 -14 -12 -9l-351 160q-11 5 -11 14v31q0 9 11 14l351 160q12 5 12 -9v-29q0 -10 -12 -14z" />
    <glyph glyph-name="equal" unicode="=" horiz-adv-x="590" 
d="M124 442h397q12 0 12 -12v-21q0 -12 -12 -12h-397q-12 0 -12 12v21q0 12 12 12zM124 271h397q12 0 12 -12v-21q0 -12 -12 -12h-397q-12 0 -12 12v21q0 12 12 12z" />
    <glyph glyph-name="greater" unicode="&#x3e;" horiz-adv-x="543" 
d="M425 340l-310 138q-12 4 -12 13v30q0 16 12 10l351 -161q11 -5 11 -13v-32q0 -9 -11 -14l-351 -161q-12 -6 -12 10v29q0 9 12 14z" />
    <glyph glyph-name="question" unicode="?" horiz-adv-x="568" 
d="M268 169l11 81q9 64 78 97l67 32q57 27 65 82l10 79q1 8 1 19q0 84 -139 84q-81 0 -117.5 -26.5t-43.5 -76.5l-7 -49q-1 -13 -12 -13h-29q-11 0 -10 13l7 56q8 66 56.5 103.5t160.5 37.5q187 0 187 -121q0 -14 -1 -22l-10 -84q-11 -83 -95 -121l-55 -26q-54 -26 -61 -75
l-10 -70q-1 -12 -13 -12h-29q-11 0 -11 12zM311 89l-9 -77q-1 -12 -13 -12h-30q-11 0 -10 12l9 76q1 13 14 13h30q10 0 9 -12z" />
    <glyph glyph-name="at" unicode="@" horiz-adv-x="824" 
d="M583 -113h-185q-164 0 -231 37.5t-67 103.5q0 10 3 37l48 390q9 76 81.5 118.5t252.5 42.5q113 0 181.5 -19.5t93 -49t24.5 -71.5q0 -4 -2 -26l-36 -294q-15 -123 -129 -123q-41 0 -65.5 17t-29.5 48q-85 -65 -169 -65q-104 0 -104 86q0 20 4 36l40 180q14 61 47.5 92.5
t100.5 31.5q72 0 139 -59l10 39q3 12 14 12h24q13 0 10 -12l-63 -275q-4 -16 -4 -36q0 -55 53 -55q60 0 72 89l35 286q2 14 2 20q0 50 -57.5 77.5t-194.5 27.5q-147 0 -209.5 -31t-69.5 -88l-49 -392q-2 -16 -2 -26q0 -52 56 -78.5t195 -26.5h186q12 0 10 -12l-1 -21
q-2 -11 -14 -11zM343 327l-37 -164q-4 -20 -4 -27q0 -56 74 -56q68 0 144 55q0 2 3 20l45 201q-56 56 -119 56q-88 0 -106 -85z" />
    <glyph glyph-name="A" unicode="A" 
d="M327 680h31q12 0 13 -12l122 -656q3 -12 -9 -12h-31q-11 0 -13 12l-37 194h-241l-83 -194q-6 -12 -15 -12h-29q-13 0 -8 12l283 656q6 12 17 12zM397 249l-51 268l-12 107q-1 -3 -8 -26t-14.5 -45t-12.5 -34l-118 -270h216z" />
    <glyph glyph-name="B" unicode="B" horiz-adv-x="579" 
d="M305 0h-197q-12 0 -11 12l81 656q2 12 13 12h168q194 0 194 -120q0 -10 -1 -21l-7 -65q-9 -91 -110 -119q107 -22 107 -107q0 -13 -1 -20l-11 -90q-8 -65 -59.5 -101.5t-165.5 -36.5zM344 330h-154l-35 -285h153q157 0 170 101l10 79q1 7 1 18q0 87 -145 87zM356 635
h-129l-32 -262h139q146 0 158 101l7 59q1 10 1 18q0 84 -144 84z" />
    <glyph glyph-name="C" unicode="C" horiz-adv-x="547" 
d="M517 198l-8 -65q-8 -66 -58 -103.5t-163 -37.5q-189 0 -189 119q0 8 2 24l50 412q8 66 57 103.5t163 37.5q190 0 190 -120q0 -7 -2 -23l-6 -50q-1 -13 -12 -13h-29q-13 0 -11 13l6 42q1 6 1 19q0 86 -141 86q-83 0 -120 -26.5t-44 -76.5l-48 -396q-1 -7 -1 -20
q0 -85 139 -85q153 0 165 103l7 57q1 11 13 11h28q13 0 11 -11z" />
    <glyph glyph-name="D" unicode="D" horiz-adv-x="598" 
d="M307 0h-200q-11 0 -10 12l81 656q2 12 13 12h195q195 0 195 -122q0 -17 -1 -24l-48 -393q-18 -141 -225 -141zM382 634h-155l-72 -588h155q155 0 169 103l47 379q1 7 1 19q0 87 -145 87z" />
    <glyph glyph-name="E" unicode="E" horiz-adv-x="527" 
d="M462 0h-354q-12 0 -11 12l81 656q2 12 13 12h342q11 0 10 -12l-3 -22q-1 -12 -13 -12h-300l-31 -254h282q11 0 10 -12l-2 -21q-2 -12 -14 -12h-281l-36 -289h311q12 0 11 -12l-3 -22q-1 -12 -12 -12z" />
    <glyph glyph-name="F" unicode="F" horiz-adv-x="531" 
d="M191 680h368q11 0 10 -12l-3 -22q-1 -12 -13 -12h-326l-32 -256h308q11 0 10 -12l-2 -22q-1 -12 -13 -12h-307l-41 -320q-2 -12 -12 -12h-30q-12 0 -11 12l81 656q2 12 13 12z" />
    <glyph glyph-name="G" unicode="G" horiz-adv-x="563" 
d="M336 319h184q12 0 10 -12l-21 -174q-16 -141 -221 -141q-189 0 -189 119q0 8 2 24l50 412q8 66 57 103.5t163 37.5q190 0 190 -121q0 -7 -2 -23l-6 -47q-1 -12 -12 -12h-29q-12 0 -10 12l5 42q1 10 1 18q0 85 -140 85q-83 0 -121 -26.5t-44 -76.5l-48 -396q-2 -18 -2 -20
q0 -85 139 -85q84 0 121 26t44 75l17 134h-143q-11 0 -10 12l2 22q1 12 13 12z" />
    <glyph glyph-name="H" unicode="H" horiz-adv-x="610" 
d="M231 668l-34 -282h311l34 282q2 12 14 12h30q12 0 10 -12l-81 -656q-1 -12 -12 -12h-30q-13 0 -11 12l41 328h-312l-41 -328q-2 -12 -12 -12h-30q-12 0 -11 12l81 656q2 12 13 12h30q11 0 10 -12z" />
    <glyph glyph-name="I" unicode="I" horiz-adv-x="245" 
d="M231 668l-81 -656q-2 -12 -12 -12h-30q-12 0 -11 12l81 656q2 12 13 12h30q11 0 10 -12z" />
    <glyph glyph-name="J" unicode="J" horiz-adv-x="491" 
d="M107 174l-4 -32q-2 -14 -2 -23q0 -40 27 -60.5t94 -20.5q74 0 104.5 26t37.5 77l65 527q1 12 13 12h30q12 0 10 -12l-65 -535q-9 -67 -52 -104t-147 -37q-170 0 -170 118q0 9 2 27l4 37q1 12 14 12h29q11 0 10 -12z" />
    <glyph glyph-name="K" unicode="K" horiz-adv-x="539" 
d="M271 345l248 -333q3 -4 0.5 -8t-7.5 -4h-38q-10 0 -19 12l-231 308h-36l-38 -308q-2 -12 -12 -12h-30q-12 0 -11 12l80 656q1 12 14 12h30q11 0 10 -12l-37 -307h32l285 308q9 11 21 11h34q14 0 4 -12z" />
    <glyph glyph-name="L" unicode="L" horiz-adv-x="493" 
d="M231 668l-76 -622h295q12 0 11 -12l-3 -22q-1 -12 -13 -12h-338q-11 0 -10 12l81 656q2 12 13 12h30q11 0 10 -12z" />
    <glyph glyph-name="M" unicode="M" horiz-adv-x="720" 
d="M705 668l-80 -656q-1 -12 -12 -12h-29q-12 0 -11 12l68 554q-9 -25 -24 -53l-214 -397q-6 -12 -17 -12h-27q-12 0 -15 12l-120 404q-4 15 -9 45l-68 -553q-1 -12 -12 -12h-27q-12 0 -11 12l80 656q2 12 13 12h26q9 0 10 -7l141 -467q10 -31 12 -47q6 16 22 46l253 469
q3 6 12 6h30q10 0 9 -12z" />
    <glyph glyph-name="N" unicode="N" horiz-adv-x="609" 
d="M593 668l-80 -656q-1 -12 -13 -12h-25q-8 0 -11 6l-224 509q-10 25 -23 61l-70 -564q-1 -12 -12 -12h-27q-12 0 -11 12l80 656q1 12 14 12h24q8 0 10 -5l226 -513q20 -47 23 -57l69 563q1 12 14 12h26q11 0 10 -12z" />
    <glyph glyph-name="O" unicode="O" horiz-adv-x="587" 
d="M101 135l50 412q16 141 224 141q195 0 195 -122q0 -14 -1 -21l-51 -412q-16 -141 -225 -141q-194 0 -194 120q0 7 2 23zM466 141l49 396q1 6 1 18q0 87 -145 87q-154 0 -168 -103l-48 -396q-2 -16 -2 -18q0 -87 144 -87q155 0 169 103z" />
    <glyph glyph-name="P" unicode="P" horiz-adv-x="563" 
d="M336 269h-154l-32 -257q-2 -12 -12 -12h-30q-12 0 -11 12l81 656q2 12 13 12h193q193 0 193 -126q0 -14 -1 -23l-15 -125q-8 -66 -59 -101.5t-166 -35.5zM381 634h-154l-39 -319h153q84 0 123 25t45 74l14 111q1 7 1 19q0 90 -143 90z" />
    <glyph glyph-name="Q" unicode="Q" horiz-adv-x="586" 
d="M101 135l50 412q16 141 224 141q195 0 195 -122q0 -14 -1 -21l-51 -412q-14 -121 -169 -138l127 -131q7 -8 -1 -16l-18 -17q-9 -9 -16 -1l-155 162q-187 3 -187 120q0 7 2 23zM466 141l49 396q1 6 1 18q0 87 -145 87q-154 0 -168 -103l-48 -396q-2 -16 -2 -18
q0 -87 144 -87q155 0 169 103z" />
    <glyph glyph-name="R" unicode="R" horiz-adv-x="587" 
d="M337 282h-153l-34 -270q-2 -12 -12 -12h-30q-12 0 -11 12l81 656q2 12 13 12h192q102 0 148.5 -34.5t46.5 -92.5q0 -13 -1 -21l-14 -113q-14 -109 -144 -131l102 -276q5 -12 -11 -12h-30q-10 0 -14 12l-99 271q-10 -1 -30 -1zM381 634h-154l-38 -307h153q158 0 169 99
l12 99q1 10 1 18q0 91 -143 91z" />
    <glyph glyph-name="S" unicode="S" horiz-adv-x="563" 
d="M494 498l5 43q1 8 1 18q0 84 -138 84q-82 0 -118.5 -26t-42.5 -75l-5 -40q-1 -6 -1 -14q0 -46 54 -68l181 -73q87 -36 87 -112q0 -7 -1 -18l-9 -84q-14 -141 -224 -141q-193 0 -193 121q0 4 2 22l6 50q1 13 12 13h29q12 0 11 -13l-6 -44q-1 -7 -1 -19q0 -85 143 -85
q155 0 168 102l10 73q1 7 1 13q0 48 -73 78l-168 68q-82 34 -82 107q0 11 1 18l6 51q8 66 56 103.5t161 37.5q187 0 187 -120q0 -14 -1 -21l-6 -49q-2 -12 -13 -12h-29q-11 0 -10 12z" />
    <glyph glyph-name="T" unicode="T" horiz-adv-x="480" 
d="M114 680h415q12 0 11 -12l-2 -22q-1 -12 -14 -12h-181l-77 -622q-2 -12 -12 -12h-30q-12 0 -11 12l77 622h-181q-12 0 -11 12l2 22q1 12 14 12z" />
    <glyph glyph-name="U" unicode="U" horiz-adv-x="598" 
d="M224 668l-64 -521q-2 -18 -2 -22q0 -87 144 -87q155 0 169 103l65 527q2 12 12 12h30q12 0 11 -12l-66 -535q-16 -141 -225 -141q-194 0 -194 122q0 9 2 23l65 531q1 12 13 12h30q11 0 10 -12z" />
    <glyph glyph-name="V" unicode="V" 
d="M275 0h-31q-12 0 -14 12l-123 656q-3 12 11 12h32q12 0 13 -12l94 -505q7 -33 10 -95q22 67 34 93l219 507q4 12 15 12h32q12 0 7 -12l-283 -656q-5 -12 -16 -12z" />
    <glyph glyph-name="W" unicode="W" horiz-adv-x="791" 
d="M507 668l67 -506q6 -50 6 -73q1 7 25 73l191 506q4 12 16 12h27q12 0 8 -12l-247 -656q-4 -12 -16 -12h-30q-12 0 -14 12l-66 514q-6 51 -6 64q-1 -3 -5 -17t-8.5 -26.5t-7.5 -20.5l-194 -514q-5 -12 -16 -12h-30q-13 0 -14 12l-86 656q-1 12 11 12h30q12 0 13 -12
l67 -506q6 -38 6 -71q3 17 25 71l192 506q4 12 15 12h29q11 0 12 -12z" />
    <glyph glyph-name="X" unicode="X" horiz-adv-x="546" 
d="M343 344l156 -332q5 -12 -7 -12h-34q-13 0 -18 12l-135 285l-200 -285q-8 -12 -18 -12h-34q-14 0 -5 13l235 333l-151 321q-6 13 7 13h35q11 0 16 -12l131 -277l192 277q9 12 20 12h34q13 0 4 -12z" />
    <glyph glyph-name="Y" unicode="Y" horiz-adv-x="509" 
d="M161 668l123 -308q7 -19 10 -33q2 7 18 33l201 308q9 12 17 12h31q15 0 7 -12l-252 -386l-33 -270q-1 -12 -13 -12h-30q-12 0 -11 12l33 264l-158 392q-5 12 10 12h34q8 0 13 -12z" />
    <glyph glyph-name="Z" unicode="Z" horiz-adv-x="504" 
d="M168 680h348q11 0 10 -12l-2 -21q-1 -7 -7 -16l-390 -585h326q12 0 11 -12l-3 -22q-1 -12 -13 -12h-380q-7 0 -10 2.5t-2 8.5l3 22q1 6 6 13l391 588h-293q-12 0 -11 12l3 22q1 12 13 12z" />
    <glyph glyph-name="bracketleft" unicode="[" horiz-adv-x="358" 
d="M68 -199l110 886q1 12 13 12h174q11 0 10 -12l-2 -22q-1 -12 -13 -12h-133l-102 -818h134q11 0 10 -12l-2 -22q-1 -12 -13 -12h-175q-12 0 -11 12z" />
    <glyph glyph-name="backslash" unicode="\" horiz-adv-x="370" 
d="M249 -136l-118 823q-2 12 10 12h30q13 0 14 -12l118 -822q2 -13 -10 -13h-31q-12 0 -13 12z" />
    <glyph glyph-name="bracketright" unicode="]" horiz-adv-x="358" 
d="M348 687l-109 -886q-1 -12 -13 -12h-174q-12 0 -11 12l3 22q1 12 13 12h133l101 818h-133q-11 0 -10 12l2 22q1 12 13 12h174q12 0 11 -12z" />
    <glyph glyph-name="asciicircum" unicode="^" horiz-adv-x="551" 
d="M451 317l-138 310l-137 -310q-5 -12 -14 -12h-29q-14 0 -9 12l160 352q6 11 13 11h32q9 0 14 -11l160 -352q5 -12 -9 -12h-29q-9 0 -14 12z" />
    <glyph glyph-name="underscore" unicode="_" horiz-adv-x="427" 
d="M19 -88h356q12 0 12 -11v-21q0 -12 -12 -12h-356q-12 0 -12 12v21q0 11 12 11z" />
    <glyph glyph-name="grave" unicode="`" horiz-adv-x="336" 
d="M254 577l-66 119q-6 12 8 12h30q10 0 15 -10l57 -117q6 -11 -7 -11h-23q-10 0 -14 7z" />
    <glyph glyph-name="a" unicode="a" horiz-adv-x="520" 
d="M386 12l3 41q-85 -61 -180 -61q-61 0 -93 27.5t-32 75.5q0 6 2 20l33 263q15 123 151 123q97 0 167 -62l7 41q3 13 13 13h26q11 0 10 -13l-58 -468q-1 -12 -13 -12h-26q-10 0 -10 12zM170 371l-32 -250q-1 -5 -1 -14q0 -68 90 -68q85 0 167 59l37 296q-70 60 -153 60
q-49 0 -76 -23t-32 -60z" />
    <glyph glyph-name="b" unicode="b" horiz-adv-x="520" 
d="M121 0h-25q-12 0 -10 12l82 675q1 12 14 12h29q11 0 9 -12l-30 -247q85 61 179 61q61 0 93 -28t32 -77q0 -12 -1 -18l-33 -263q-15 -123 -152 -123q-95 0 -167 61l-6 -41q-1 -12 -14 -12zM409 121l31 250q1 6 1 14q0 69 -89 69q-85 0 -168 -60l-36 -296q66 -59 153 -59
q97 0 108 82z" />
    <glyph glyph-name="c" unicode="c" horiz-adv-x="475" 
d="M308 501q162 0 162 -105q0 -12 -1 -20l-3 -18q-1 -12 -13 -12h-27q-12 0 -10 11l2 17q1 7 1 16q0 67 -115 67q-69 0 -99 -21.5t-35 -61.5l-32 -251q-1 -7 -1 -19q0 -68 115 -68q69 0 99 21t36 62l3 24q1 12 13 12h27q12 0 10 -12l-4 -28q-7 -59 -49.5 -91t-139.5 -32
q-163 0 -163 104q0 12 1 19l33 262q7 60 50 92t140 32z" />
    <glyph glyph-name="d" unicode="d" horiz-adv-x="520" 
d="M386 12l3 41q-85 -61 -180 -61q-61 0 -93 27.5t-32 75.5q0 6 2 20l33 263q15 123 150 123q95 0 167 -61l30 247q2 12 13 12h29q12 0 10 -12l-83 -675q-1 -12 -13 -12h-26q-12 0 -10 12zM170 371l-31 -248q-2 -14 -2 -16q0 -31 22.5 -49.5t67.5 -18.5q85 0 167 59l36 296
q-67 60 -152 60q-50 0 -76.5 -23t-31.5 -60z" />
    <glyph glyph-name="e" unicode="e" horiz-adv-x="490" 
d="M472 377l-16 -124q-2 -11 -12 -11h-292l-15 -121q-2 -14 -2 -17q0 -70 118 -70q127 0 137 82l3 23q1 12 14 12h25q12 0 10 -12l-3 -24q-7 -59 -49.5 -91t-140.5 -32q-165 0 -165 105q0 12 1 18l33 262q7 59 51 91.5t140 32.5q164 0 164 -105q0 -13 -1 -19zM169 376
l-12 -94h253l12 91q1 5 1 16q0 70 -117 70q-127 0 -137 -83z" />
    <glyph glyph-name="f" unicode="f" horiz-adv-x="314" 
d="M160 491h10l11 89q15 123 194 123h6q11 0 10 -12l-2 -21q-1 -12 -14 -12h-4q-128 0 -138 -83l-11 -84h116q7 0 10 -2.5t2 -8.5l-3 -20q-1 -12 -13 -12h-116l-80 -643q-1 -13 -13 -13h-29q-11 0 -10 13l80 643h-65q-12 0 -11 12l2 16q1 12 13 12z" />
    <glyph glyph-name="g" unicode="g" horiz-adv-x="520" 
d="M210 -8q-62 0 -94 28t-32 77q0 6 2 18l33 263q15 123 151 123q97 0 167 -62l7 41q3 13 13 13h26q12 0 10 -13l-69 -564q-7 -60 -51.5 -92t-142.5 -32h-135q-13 0 -11 12l3 21q1 12 13 12h135q127 0 137 83l16 132q-83 -60 -178 -60zM170 371l-31 -247q-2 -12 -2 -16
q0 -69 90 -69q85 0 167 59l37 296q-70 60 -153 60q-50 0 -76.5 -23t-31.5 -60z" />
    <glyph glyph-name="h" unicode="h" horiz-adv-x="525" 
d="M221 687l-31 -247q81 61 179 61q61 0 93 -28t32 -75q0 -7 -1 -17l-45 -369q-2 -12 -13 -12h-29q-12 0 -10 12l44 359q1 8 1 14q0 69 -89 69q-88 0 -167 -60l-47 -382q-2 -12 -13 -12h-29q-11 0 -10 12l83 675q1 12 13 12h29q11 0 10 -12z" />
    <glyph glyph-name="i" unicode="i" horiz-adv-x="221" 
d="M196 480l-58 -468q-2 -12 -13 -12h-29q-11 0 -10 12l58 468q2 13 13 13h28q12 0 11 -13zM221 687l-12 -95q-1 -12 -13 -12h-29q-11 0 -10 12l12 95q1 12 13 12h29q11 0 10 -12z" />
    <glyph glyph-name="j" unicode="j" horiz-adv-x="220" 
d="M220 687l-13 -95q-1 -12 -12 -12h-28q-13 0 -11 12l12 95q2 12 12 12h29q13 0 11 -12zM194 480l-70 -564q-7 -60 -51 -92t-140 -32h-6q-13 0 -11 12l3 21q1 12 13 12h5q126 0 136 83l69 560q2 13 13 13h29q12 0 10 -13z" />
    <glyph glyph-name="k" unicode="k" horiz-adv-x="450" 
d="M433 0h-33q-9 0 -18 12l-177 245h-38l-30 -245q-1 -12 -13 -12h-29q-12 0 -10 12l83 675q2 12 13 12h29q12 0 10 -12l-48 -389h34l206 183q14 12 20 12h35q7 0 8 -4t-3 -8l-223 -201l191 -268q3 -4 0.5 -8t-7.5 -4z" />
    <glyph glyph-name="l" unicode="l" horiz-adv-x="221" 
d="M220 687l-82 -675q-2 -12 -13 -12h-29q-12 0 -10 12l82 675q2 12 14 12h29q11 0 9 -12z" />
    <glyph glyph-name="m" unicode="m" horiz-adv-x="823" 
d="M157 493h25q12 0 11 -12l-4 -41q80 61 174 61q49 0 80.5 -18.5t40.5 -50.5q88 69 183 69q61 0 93.5 -28t32.5 -74q0 -7 -1 -18l-46 -369q-2 -12 -13 -12h-29q-11 0 -10 12l44 357q2 14 2 15q0 32 -22 51t-67 19q-89 0 -164 -61v-22l-45 -359q-2 -12 -12 -12h-30
q-11 0 -10 12l44 353q2 16 2 19q0 32 -22 51t-67 19q-86 0 -162 -60l-47 -382q-2 -12 -12 -12h-30q-11 0 -10 12l58 469q2 12 13 12z" />
    <glyph glyph-name="n" unicode="n" horiz-adv-x="525" 
d="M157 493h25q12 0 11 -12l-3 -42q80 62 179 62q61 0 93.5 -28t32.5 -75q0 -9 -1 -19l-46 -367q-2 -12 -13 -12h-29q-11 0 -10 12l44 357q2 14 2 15q0 70 -89 70t-168 -60l-47 -382q-2 -12 -13 -12h-29q-11 0 -10 12l58 469q2 12 13 12z" />
    <glyph glyph-name="o" unicode="o" horiz-adv-x="508" 
d="M85 115l33 262q15 124 195 124q168 0 168 -106q0 -9 -1 -18l-33 -262q-15 -123 -195 -123q-168 0 -168 106q0 11 1 17zM396 119l32 255q1 8 1 12q0 71 -120 71q-129 0 -139 -83l-32 -255q-1 -5 -1 -13q0 -35 27.5 -52.5t92.5 -17.5q129 0 139 83z" />
    <glyph glyph-name="p" unicode="p" horiz-adv-x="520" 
d="M182 493q12 0 11 -13l-4 -41q86 62 180 62q61 0 93 -28t32 -76q0 -9 -1 -19l-33 -263q-15 -123 -150 -123q-99 0 -167 60l-30 -247q-1 -13 -13 -13h-29q-11 0 -10 13l83 675q1 13 13 13h25zM409 121l31 249q1 9 1 15q0 69 -89 69q-87 0 -167 -60l-36 -296q62 -59 152 -59
q97 0 108 82z" />
    <glyph glyph-name="q" unicode="q" horiz-adv-x="520" 
d="M437 439l7 41q3 13 13 13h26q12 0 10 -13l-83 -675q-1 -13 -13 -13h-29q-12 0 -10 13l30 247q-83 -60 -178 -60q-62 0 -94 28t-32 77q0 6 2 18l33 263q15 123 151 123q97 0 167 -62zM170 371l-31 -247q-2 -14 -2 -16q0 -69 90 -69q85 0 167 59l37 296q-70 60 -153 60
q-50 0 -76.5 -23t-31.5 -60z" />
    <glyph glyph-name="r" unicode="r" horiz-adv-x="337" 
d="M366 500q12 0 11 -12l-3 -25q-2 -11 -14 -11q-51 -1 -98.5 -23t-77.5 -46l-46 -371q-2 -12 -13 -12h-29q-11 0 -10 12l58 469q2 12 13 12h25q12 0 11 -12l-4 -54q90 73 177 73z" />
    <glyph glyph-name="s" unicode="s" horiz-adv-x="464" 
d="M400 361l3 23q1 8 1 19q0 25 -28 42t-84 17q-120 0 -128 -68l-4 -30q-1 -7 -1 -12q0 -39 48 -54l152 -47q73 -24 73 -79q0 -1 -2 -19l-6 -56q-6 -47 -52.5 -76t-136.5 -29q-81 0 -122.5 26.5t-41.5 68.5q0 6 1 16l3 25q1 11 13 11h27q9 0 8 -11l-2 -23q-1 -9 -1 -13
q0 -60 118 -60q128 0 138 69l5 43q1 10 1 15q0 32 -55 50l-148 48q-30 9 -50 32t-20 52q0 7 1 15l5 39q13 106 180 106q79 0 118.5 -27.5t39.5 -68.5q0 -8 -1 -18l-3 -26q-1 -11 -13 -11h-26q-12 0 -10 11z" />
    <glyph glyph-name="t" unicode="t" horiz-adv-x="343" 
d="M210 448l-39 -318q-1 -6 -1 -16q0 -69 116 -69h16q13 0 11 -12l-2 -21q-1 -12 -14 -12h-22q-85 0 -121.5 26t-36.5 75q0 15 1 22l40 325h-64q-12 0 -10 12l2 16q1 12 14 12l62 3h1l14 108q1 13 13 13h29q10 0 10 -13l-14 -108h119q12 0 10 -11l-2 -21q-1 -11 -14 -11
h-118z" />
    <glyph glyph-name="u" unicode="u" 
d="M385 12l3 40q-76 -60 -173 -60q-61 0 -93 28t-32 74q0 8 1 17l45 369q1 13 14 13h28q11 0 10 -13l-44 -358q-1 -8 -1 -15q0 -68 89 -68q84 0 162 59l46 382q1 13 13 13h29q11 0 10 -13l-58 -468q-2 -12 -12 -12h-26q-12 0 -11 12z" />
    <glyph glyph-name="v" unicode="v" horiz-adv-x="421" 
d="M226 0h-33q-8 0 -11 11l-103 469q-4 13 11 13h30q9 0 12 -12l79 -361q4 -17 7 -53q6 26 20 53l168 361q5 12 15 12h28q15 0 10 -12l-219 -470q-6 -11 -14 -11z" />
    <glyph glyph-name="w" unicode="w" horiz-adv-x="639" 
d="M641 493h26q12 0 8 -12l-188 -470q-4 -11 -15 -11h-33q-10 0 -12 11l-52 366q-4 32 -4 46l-8 -20q-8 -20 -10 -27l-148 -365q-5 -11 -15 -11h-33q-9 0 -11 11l-69 470q-2 12 12 12h29q10 0 12 -12l54 -372q4 -32 4 -40q3 17 13 40l149 372q5 12 15 12h33q10 0 12 -12
l52 -372q4 -32 4 -38q4 15 13 38l147 372q5 12 15 12z" />
    <glyph glyph-name="x" unicode="x" horiz-adv-x="460" 
d="M415 0h-32q-10 0 -16 12l-114 200l-160 -200q-10 -12 -20 -12h-30q-6 0 -7.5 4t2.5 8l193 239l-129 229q-6 13 7 13h33q8 0 15 -13l112 -192l150 192q9 13 20 13h31q13 0 4 -13l-185 -232l133 -235q2 -3 2 -6t-2 -5t-7 -2z" />
    <glyph glyph-name="y" unicode="y" horiz-adv-x="421" 
d="M132 481l79 -361q6 -30 8 -52q9 26 20 50l168 363q5 12 15 12h27q16 0 10 -12l-314 -677q-5 -12 -15 -12h-24q-14 0 -8 12l88 194l-107 483q-3 12 11 12h30q9 0 12 -12z" />
    <glyph glyph-name="z" unicode="z" horiz-adv-x="456" 
d="M141 493h299q12 0 10 -11l-2 -20q0 -2 -6 -13l-318 -405h273q12 0 11 -12l-2 -20q-2 -12 -14 -12h-324q-12 0 -11 12l3 20q1 8 8 16l314 401h-247q-11 0 -10 12l2 20q1 12 14 12z" />
    <glyph glyph-name="braceleft" unicode="{" horiz-adv-x="447" 
d="M230 354l28 231q15 123 191 123h8q12 0 10 -12l-2 -21q-1 -12 -13 -12h-5q-70 0 -100.5 -21.5t-35.5 -61.5l-29 -230q-10 -83 -98 -102q75 -16 75 -84q0 -6 -3 -27l-27 -218q-2 -14 -2 -23q0 -69 117 -69h5q12 0 10 -12l-3 -21q-1 -12 -12 -12h-4q-167 0 -167 107
q0 13 2 27l27 217q3 21 3 25q0 68 -108 68h-1q-12 0 -10 12l2 21q2 12 13 12h2q117 0 127 83z" />
    <glyph glyph-name="bar" unicode="|" horiz-adv-x="245" 
d="M168 687v-886q0 -12 -11 -12h-30q-12 0 -12 12v886q0 12 12 12h30q11 0 11 -12z" />
    <glyph glyph-name="braceright" unicode="}" horiz-adv-x="447" 
d="M330 576l-26 -214q-2 -20 -2 -22q0 -69 107 -69h1q10 0 10 -12l-1 -21q0 -12 -14 -12h-1q-117 0 -127 -83l-29 -238q-15 -123 -191 -123h-8q-10 0 -10 12l1 21q0 12 14 12h6q125 0 135 83l29 237q10 83 99 101q-75 16 -75 85q0 7 3 28l26 213q2 18 2 21q0 68 -117 68h-5
q-10 0 -10 12l2 21q1 12 13 12h5q165 0 165 -107q0 -9 -2 -25z" />
    <glyph glyph-name="asciitilde" unicode="~" horiz-adv-x="481" 
d="M183 292q-19 0 -25 -10.5t-7 -42.5v-10q0 -11 -13 -11h-16q-12 0 -10 14l1 21q4 85 66 85q24 0 49 -15l84 -46q30 -15 41 -15q19 0 24 10.5t7 43.5v9q0 11 13 11h16q11 0 10 -13l-1 -22q-4 -85 -64 -85q-25 0 -54 16l-85 47q-23 13 -36 13z" />
    <glyph glyph-name="exclamdown" unicode="&#xa1;" horiz-adv-x="248" 
d="M107 103l33 221q2 12 14 12h20q12 0 10 -12l-22 -221l-33 -278q-1 -12 -14 -12h-31q-12 0 -10 12zM146 404l10 77q1 12 13 12h29q12 0 11 -12l-10 -77q-1 -12 -14 -12h-29q-12 0 -10 12z" />
    <glyph glyph-name="cent" unicode="&#xa2;" horiz-adv-x="525" 
d="M369 668l-9 -75q135 -8 135 -104q0 -12 -1 -20l-3 -18q-1 -12 -13 -12h-27q-12 0 -10 11l2 17q1 7 1 16q0 67 -115 67q-69 0 -99 -21.5t-35 -61.5l-32 -251q-1 -7 -1 -19q0 -68 115 -68q69 0 99 21t36 62l3 24q1 12 13 12h27q11 0 10 -12l-4 -28q-7 -55 -44 -86.5
t-120 -35.5l-9 -74q-2 -12 -12 -12h-29q-13 0 -11 12l9 73q-136 8 -136 104q0 12 1 19l33 262q7 56 44 87.5t121 35.5l9 75q1 12 13 12h29q11 0 10 -12z" />
    <glyph glyph-name="sterling" unicode="&#xa3;" horiz-adv-x="655" 
d="M256 364h166q12 0 10 -11l-2 -21q-1 -12 -14 -12h-166l-34 -275h208q47 0 79.5 26.5t33.5 92.5v5q1 12 13 12h27q12 0 10 -12v-5q-4 -164 -157 -164h-332q-12 0 -10 12l2 21q1 12 13 12h60l34 275h-59q-12 0 -10 12l2 21q1 11 13 11h59l24 190q8 67 51 100.5t154 33.5
q97 0 137.5 -28t40.5 -81q0 -11 -2 -25l-4 -27q-1 -12 -13 -12h-28q-12 0 -10 13l3 19q1 8 1 22q0 37 -28.5 55t-100.5 18q-81 0 -111.5 -22.5t-37.5 -72.5z" />
    <glyph glyph-name="currency" unicode="&#xa4;" horiz-adv-x="557" 
d="M90 299h75l10 83h-76q-11 0 -10 12l1 13q1 11 14 11h75l16 129q8 66 57 103.5t163 37.5q190 0 190 -120q0 -7 -2 -23l-6 -50q-1 -13 -12 -13h-29q-13 0 -11 13l6 42q1 6 1 19q0 86 -141 86q-83 0 -120 -26.5t-44 -76.5l-15 -121h146q12 0 11 -11l-1 -13q-1 -12 -14 -12
h-146l-10 -83h146q11 0 10 -12l-1 -13q-1 -11 -13 -11h-147l-14 -120q-1 -7 -1 -20q0 -85 139 -85q153 0 165 103l7 57q1 11 13 11h28q13 0 11 -11l-8 -65q-8 -66 -58 -103.5t-163 -37.5q-189 0 -189 119q0 8 2 24l15 128h-74q-12 0 -11 11l1 13q1 12 14 12z" />
    <glyph glyph-name="yen" unicode="&#xa5;" horiz-adv-x="514" 
d="M110 309h140l-33 83h-96q-12 0 -11 11l1 13q1 12 14 12h77l-96 240q-5 12 10 12h34q8 0 13 -12l123 -308q7 -19 10 -33q2 6 18 33l201 308q9 12 17 12h31q15 0 7 -12l-157 -240h80q12 0 11 -12l-1 -13q-1 -11 -14 -11h-100l-54 -83h143q12 0 11 -12l-1 -13
q-2 -12 -14 -12h-157l-32 -260q-1 -12 -13 -12h-30q-12 0 -11 12l32 260h-157q-12 0 -10 12l1 13q1 12 13 12z" />
    <glyph glyph-name="brokenbar" unicode="&#xa6;" horiz-adv-x="221" 
d="M165 668v-342q0 -12 -12 -12h-28q-12 0 -12 12v342q0 12 12 12h28q12 0 12 -12zM165 143v-342q0 -12 -12 -12h-28q-12 0 -12 12v342q0 12 12 12h28q12 0 12 -12z" />
    <glyph glyph-name="section" unicode="&#xa7;" horiz-adv-x="548" 
d="M463 164q-1 -12 -13 -12h-26q-12 0 -10 12l12 92q1 7 1 22q0 42 -53 58l-133 40q-87 25 -87 93q0 8 2 24l9 73q15 122 192 122q165 0 165 -104q0 -1 -2 -21l-1 -11q-1 -12 -13 -12h-26q-11 0 -10 13l1 9q0 3 0.5 7t1 6t0.5 5q0 70 -118 70q-128 0 -138 -82l-9 -72
q-2 -14 -2 -19q0 -41 64 -60l132 -39q30 -8 52.5 -30.5t22.5 -59.5q0 -15 -1 -23zM129 210l13 100q1 12 13 12h25q12 0 11 -12l-11 -91q-2 -14 -2 -22q0 -43 53 -59l133 -40q87 -25 87 -92q0 -8 -2 -24l-9 -73q-15 -122 -192 -122q-165 0 -165 103q0 8 2 22l1 11q1 12 13 12
h26q11 0 10 -13l-1 -9q-2 -12 -2 -18q0 -71 119 -71q127 0 137 83l9 72q2 14 2 19q0 42 -64 60l-132 39q-30 8 -52.5 30.5t-22.5 59.5q0 15 1 23z" />
    <glyph glyph-name="dieresis" unicode="&#xa8;" horiz-adv-x="308" 
d="M209 690l-12 -98q-1 -12 -13 -12h-18q-12 0 -10 12l12 98q2 12 13 12h18q11 0 10 -12zM307 690l-12 -98q-1 -12 -13 -12h-18q-12 0 -10 12l12 98q2 12 13 12h18q11 0 10 -12z" />
    <glyph glyph-name="copyright" unicode="&#xa9;" horiz-adv-x="714" 
d="M634 525v-369q0 -36 -10.5 -63t-37 -51.5t-80.5 -37t-133 -12.5t-133 12.5t-80.5 37t-37 51.5t-10.5 63v369q0 36 10.5 62.5t37 51t80.5 37t133 12.5t133 -12.5t80.5 -37t37 -51t10.5 -62.5zM593 150v381q0 57 -49.5 89t-170.5 32q-122 0 -171 -32t-49 -90v-380
q0 -58 49 -90t171 -32t171 32t49 90zM373 551q80 0 108.5 -30t28.5 -91v-17q0 -12 -12 -12h-23q-12 0 -12 12v16q0 43 -17.5 63.5t-72.5 20.5t-72 -20.5t-17 -63.5v-179q0 -42 17 -62.5t72 -20.5t72.5 20.5t17.5 62.5v24q0 12 12 12h23q12 0 12 -12v-25q0 -61 -28.5 -91
t-108.5 -30q-79 0 -108 30.5t-29 90.5v181q0 60 29 90.5t108 30.5z" />
    <glyph glyph-name="ordfeminine" unicode="&#xaa;" horiz-adv-x="351" 
d="M303 394l1 25q-50 -37 -107 -37q-37 0 -57.5 17t-20.5 45q0 10 1 18l19 152q10 74 94 74q58 0 100 -37l5 22q3 10 9 10h22q8 0 6 -8l-34 -281q-1 -7 -8 -7h-24q-6 0 -6 7zM179 608l-17 -135q-1 -10 -1 -20q0 -39 50 -39q49 0 97 37l20 167q-41 37 -87 37q-57 0 -62 -47z
" />
    <glyph glyph-name="guillemotleft" unicode="&#xab;" horiz-adv-x="603" 
d="M350 245l139 -115q11 -9 10 -17l-4 -32q-1 -6 -5 -7.5t-7 1.5l-169 141q-10 8 -9 16l4 27q1 9 13 17l202 140q3 2 6 2.5t4.5 -2t1.5 -6.5l-5 -32q-1 -10 -13 -18zM151 245l139 -115q11 -9 10 -17l-4 -32q-1 -6 -5 -7.5t-7 1.5l-169 141q-10 8 -9 16l4 27q1 9 13 17
l202 140q3 2 6 2.5t4.5 -2t1.5 -6.5l-5 -32q-1 -10 -13 -18z" />
    <glyph glyph-name="logicalnot" unicode="&#xac;" horiz-adv-x="373" 
d="M77 313q0 45 31.5 77t76.5 32q46 0 78 -32t32 -77q0 -46 -32 -77.5t-78 -31.5q-45 0 -76.5 31.5t-31.5 77.5z" />
    <glyph glyph-name="uni00AD" unicode="&#xad;" horiz-adv-x="462" 
d="M129 311h269q12 0 12 -11v-21q0 -12 -12 -12h-269q-12 0 -12 12v21q0 11 12 11z" />
    <glyph glyph-name="registered" unicode="&#xae;" horiz-adv-x="616" 
d="M565 558v-177q0 -130 -211 -130q-213 0 -213 130v177q0 130 213 130q211 0 211 -130zM527 377v184q0 92 -173 92q-175 0 -175 -92v-183q0 -93 175 -93q173 0 173 92zM459 503q0 -51 -51 -65l40 -96q4 -9 -8 -9h-22q-5 0 -9 9l-38 90h-72v-90q0 -9 -8 -9h-22q-8 0 -8 9
v247q0 9 8 9h94q96 0 96 -71v-24zM360 568h-61v-106h61q30 0 45.5 12.5t15.5 30.5v20q0 18 -15 30.5t-46 12.5z" />
    <glyph glyph-name="macron" unicode="&#xaf;" horiz-adv-x="419" 
d="M160 646h256q13 0 11 -11l-2 -19q-1 -12 -14 -12h-256q-13 0 -11 12l2 18q2 12 14 12z" />
    <glyph glyph-name="degree" unicode="&#xb0;" horiz-adv-x="397" 
d="M128 506l11 90q6 44 37 67t105 23q122 0 122 -78q0 -10 -1 -19l-11 -90q-6 -44 -37.5 -67t-104.5 -23q-122 0 -122 77q0 14 1 20zM345 501l11 87q1 8 1 13q0 49 -80 49q-86 0 -93 -55l-10 -89q-1 -9 -1 -14q0 -46 80 -46q85 0 92 55z" />
    <glyph glyph-name="plusminus" unicode="&#xb1;" horiz-adv-x="584" 
d="M283 227v131h-173q-12 0 -12 12v21q0 11 12 11h173v131q0 12 11 12h21q12 0 12 -12v-131h174q12 0 12 -11v-21q0 -12 -12 -12h-174v-131q0 -13 -12 -13h-21q-11 0 -11 13zM110 153h391q12 0 12 -12v-21q0 -12 -12 -12h-391q-12 0 -12 12v21q0 12 12 12z" />
    <glyph glyph-name="twosuperior" unicode="&#xb2;" horiz-adv-x="370" 
d="M147 310h190q8 0 7 -9l-2 -17q-1 -9 -9 -9h-223q-8 0 -7 9l15 114q5 38 56 55l115 36q38 13 41 42l7 57q2 16 2 17q0 49 -76 49q-47 0 -64.5 -14.5t-21.5 -44.5l-4 -28q-1 -9 -10 -9h-24q-9 0 -7 9l4 34q11 87 130 87q114 0 114 -76q0 -9 -1 -19l-8 -61q-7 -53 -63 -71
l-108 -34q-39 -12 -42 -35z" />
    <glyph glyph-name="threesuperior" unicode="&#xb3;" horiz-adv-x="369" 
d="M195 509h49q47 0 65.5 13.5t20.5 42.5l2 28q0 1 0.5 7t0.5 8q0 23 -15.5 35t-54.5 12q-45 0 -62.5 -14t-21.5 -43l-1 -7q-1 -8 -10 -8h-23q-9 0 -8 8l1 12q7 86 130 86q109 0 109 -71q0 -1 -2 -21l-4 -38q-3 -28 -16 -43.5t-44 -22.5q47 -13 47 -55q0 -8 -2 -22l-7 -61
q-9 -84 -131 -84q-113 0 -113 72v11l1 15q0 8 10 8h23q8 0 8 -8v-17q0 -47 75 -47q78 0 86 57l7 51q1 7 1 18q0 23 -16 33.5t-56 10.5h-53q-8 0 -8 9l1 16q0 9 11 9z" />
    <glyph glyph-name="acute" unicode="&#xb4;" horiz-adv-x="336" 
d="M317 696l-94 -119q-7 -7 -15 -7h-26q-13 0 -5 11l87 117q7 10 16 10h33q14 0 4 -12z" />
    <glyph glyph-name="uni00B5" unicode="&#xb5;" 
d="M387 12l3 41q-76 -61 -168 -61q-73 0 -92 38l-24 -226q-2 -12 -12 -12h-29q-13 0 -11 12l84 676q1 13 13 13h28q12 0 11 -13l-43 -345q-3 -19 -3 -28q0 -70 90 -70q82 0 161 60l47 383q1 13 13 13h28q11 0 10 -13l-57 -468q-1 -12 -13 -12h-26q-11 0 -10 12z" />
    <glyph glyph-name="paragraph" unicode="&#xb6;" horiz-adv-x="631" 
d="M471 669l-106 -864q-1 -13 -14 -13h-29q-11 0 -10 13l58 477h-51q-178 0 -178 112q0 12 2 26l16 129q8 63 53.5 97t155.5 34h93q12 0 10 -11zM613 668l-106 -863q-1 -13 -13 -13h-30q-11 0 -10 13l106 863q2 12 13 12h30q12 0 10 -12z" />
    <glyph glyph-name="periodcentered" unicode="&#xb7;" horiz-adv-x="213" 
d="M168 300l-9 -77q-1 -12 -13 -12h-29q-12 0 -11 12l9 77q1 12 13 12h31q11 0 9 -12z" />
    <glyph glyph-name="cedilla" unicode="&#xb8;" horiz-adv-x="164" 
d="M75 -54h39q30 0 51 -17t21 -51q0 -47 -27 -68t-65 -21h-117q-12 0 -10 12l1 11q2 12 13 12h111q54 0 54 50q0 37 -43 37h-59q-20 0 -14 15l31 78q5 11 15 10l14 -2q11 -1 6 -15z" />
    <glyph glyph-name="onesuperior" unicode="&#xb9;" horiz-adv-x="376" 
d="M152 656l132 31q4 1 6.5 -1t1.5 -7l-45 -367h95q9 0 8 -8l-2 -17q-1 -9 -10 -9h-233q-9 0 -8 9l2 16q1 9 11 9h95l41 334l-96 -24q-5 -2 -8 -0.5t-2 6.5l2 18q1 8 10 10z" />
    <glyph glyph-name="ordmasculine" unicode="&#xba;" horiz-adv-x="354" 
d="M122 473l17 138q10 77 121 77q106 0 106 -66q0 -6 -2 -20l-18 -144q-10 -76 -121 -76q-105 0 -105 66q0 11 2 25zM305 462l18 141q1 9 1 14q0 39 -67 39q-72 0 -77 -46l-17 -136q-2 -18 -2 -20q0 -40 67 -40q70 0 77 48z" />
    <glyph glyph-name="guillemotright" unicode="&#xbb;" horiz-adv-x="609" 
d="M498 253l-139 115q-11 9 -10 17l4 32q1 6 5 7.5t7 -1.5l169 -141q10 -8 9 -16l-4 -27q-1 -9 -13 -17l-202 -140q-3 -2 -6 -2.5t-4.5 2t-1.5 6.5l5 32q1 10 13 18zM293 253l-139 115q-11 9 -10 17l4 32q1 6 5 7.5t7 -1.5l169 -141q10 -8 9 -16l-4 -27q-1 -9 -13 -17
l-202 -140q-3 -2 -6 -2.5t-4.5 2t-1.5 6.5l5 32q1 10 13 18z" />
    <glyph glyph-name="onequarter" unicode="&#xbc;" horiz-adv-x="819" 
d="M686 399l-111 -234h159l29 234q1 9 10 9h24q10 0 8 -9l-48 -390q-1 -9 -10 -9h-25q-10 0 -8 9l16 122h-196q-8 0 -8 8l1 12q0 3 5 16l112 232q4 9 12 9h26q8 0 4 -9zM644 720l-295 -760q-3 -9 -11 -9h-26q-10 0 -6 9l295 760q4 9 11 9h27q8 0 5 -9zM181 656l132 31
q4 1 6.5 -1t1.5 -7l-45 -367h95q9 0 8 -8l-2 -17q-1 -9 -10 -9h-233q-10 0 -8 9l2 16q1 9 11 9h95l41 334l-96 -24q-5 -2 -8 -0.5t-2 6.5l2 18q1 8 10 10z" />
    <glyph glyph-name="onehalf" unicode="&#xbd;" horiz-adv-x="838" 
d="M640 720l-296 -760q-3 -9 -11 -9h-25q-10 0 -6 9l295 760q4 9 11 9h27q8 0 5 -9zM611 35h190q8 0 7 -9l-2 -17q-1 -9 -9 -9h-223q-8 0 -7 9l15 114q5 38 56 55l115 36q38 13 41 42l7 57q2 16 2 17q0 49 -76 49q-47 0 -64.5 -14.5t-21.5 -44.5l-4 -28q-1 -9 -10 -9h-24
q-9 0 -7 9l4 34q11 87 130 87q114 0 114 -76q0 -9 -1 -19l-8 -61q-7 -53 -63 -71l-108 -34q-39 -12 -42 -35zM181 656l132 31q4 1 6.5 -1t1.5 -7l-45 -367h95q9 0 8 -8l-2 -17q-1 -9 -10 -9h-233q-10 0 -8 9l2 16q1 9 11 9h95l41 334l-96 -24q-5 -2 -8 -0.5t-2 6.5l2 18
q1 8 10 10z" />
    <glyph glyph-name="threequarters" unicode="&#xbe;" horiz-adv-x="818" 
d="M685 399l-111 -234h159l28 234q1 9 11 9h23q10 0 8 -9l-47 -390q-1 -9 -11 -9h-24q-9 0 -8 9l15 122h-195q-9 0 -8 8l1 12q0 3 5 16l112 232q5 9 12 9h25q10 0 5 -9zM640 720l-295 -760q-3 -9 -11 -9h-26q-9 0 -5 9l295 760q4 9 11 9h26q8 0 5 -9zM224 509h49
q47 0 65.5 13.5t20.5 42.5l2 28q0 1 0.5 7t0.5 8q0 23 -15.5 35t-54.5 12q-45 0 -62.5 -14t-21.5 -43l-1 -7q-1 -8 -10 -8h-23q-9 0 -8 8l1 12q7 86 130 86q109 0 109 -71q0 -1 -2 -21l-4 -38q-3 -28 -16 -43.5t-44 -22.5q47 -13 47 -55q0 -8 -2 -22l-7 -61q-9 -84 -131 -84
q-113 0 -113 72v11l1 15q0 8 10 8h23q8 0 8 -8v-17q0 -47 75 -47q78 0 86 57l7 51q1 7 1 18q0 23 -16 33.5t-56 10.5h-53q-8 0 -8 9l1 16q0 9 11 9z" />
    <glyph glyph-name="questiondown" unicode="&#xbf;" horiz-adv-x="568" 
d="M359 324l-11 -81q-9 -64 -78 -97l-67 -32q-57 -27 -65 -82l-10 -79q-1 -8 -1 -19q0 -84 139 -84q81 0 117.5 26.5t43.5 76.5l7 49q1 13 12 13h29q11 0 10 -13l-7 -56q-8 -66 -56.5 -103.5t-160.5 -37.5q-187 0 -187 121q0 14 1 22l10 84q11 83 95 121l55 26q54 26 61 75
l10 70q1 12 13 12h29q11 0 11 -12zM316 404l9 77q1 12 13 12h30q11 0 10 -12l-9 -76q-1 -13 -14 -13h-30q-11 0 -9 12z" />
    <glyph glyph-name="Agrave" unicode="&#xc0;" 
d="M327 680h31q12 0 13 -12l122 -656q3 -12 -9 -12h-31q-11 0 -13 12l-37 194h-241l-83 -194q-6 -12 -15 -12h-29q-13 0 -8 12l283 656q6 12 17 12zM397 249l-51 268l-12 107q-1 -3 -8 -26t-14.5 -45t-12.5 -34l-118 -270h216zM308 747l-65 119q-6 12 7 12h31q10 0 15 -10
l56 -117q6 -11 -6 -11h-23q-11 0 -15 7z" />
    <glyph glyph-name="Aacute" unicode="&#xc1;" 
d="M327 680h31q12 0 13 -12l122 -656q3 -12 -9 -12h-31q-11 0 -13 12l-37 194h-241l-83 -194q-6 -12 -15 -12h-29q-13 0 -8 12l283 656q6 12 17 12zM397 249l-51 268l-12 107q-1 -3 -8 -26t-14.5 -45t-12.5 -34l-118 -270h216zM464 866l-94 -119q-7 -7 -15 -7h-26
q-11 0 -4 11l86 117q7 10 16 10h33q14 0 4 -12z" />
    <glyph glyph-name="Acircumflex" unicode="&#xc2;" 
d="M327 680h31q12 0 13 -12l122 -656q3 -12 -9 -12h-31q-11 0 -13 12l-37 194h-241l-83 -194q-6 -12 -15 -12h-29q-13 0 -8 12l283 656q6 12 17 12zM397 249l-51 268l-12 107q-1 -3 -8 -26t-14.5 -45t-12.5 -34l-118 -270h216zM354 844l-72 -92q-10 -12 -17 -12h-24
q-14 0 -5 12l91 114q10 12 21 12h19q10 0 17 -11l65 -115q7 -12 -8 -12h-22q-10 0 -16 12z" />
    <glyph glyph-name="Atilde" unicode="&#xc3;" 
d="M327 680h31q12 0 13 -12l122 -656q3 -12 -9 -12h-31q-11 0 -13 12l-37 194h-241l-83 -194q-6 -12 -15 -12h-29q-13 0 -8 12l283 656q6 12 17 12zM397 249l-51 268l-12 107q-1 -3 -8 -26t-14.5 -45t-12.5 -34l-118 -270h216zM278 828q-18 0 -25 -10.5t-11 -38.5l-2 -14
q-3 -11 -14 -11h-16q-11 0 -9 14l4 20q13 81 74 81q28 0 52 -21l40 -36q18 -16 32 -16q18 0 25 11t12 43l1 9q1 11 14 11h16q11 0 9 -13l-3 -20q-13 -82 -75 -82q-27 0 -52 22l-41 36q-19 15 -31 15z" />
    <glyph glyph-name="Adieresis" unicode="&#xc4;" 
d="M327 680h31q12 0 13 -12l122 -656q3 -12 -9 -12h-31q-11 0 -13 12l-37 194h-241l-83 -194q-6 -12 -15 -12h-29q-13 0 -8 12l283 656q6 12 17 12zM397 249l-51 268l-12 107q-1 -3 -8 -26t-14.5 -45t-12.5 -34l-118 -270h216zM329 857l-12 -98q-1 -12 -13 -12h-18
q-12 0 -10 12l11 98q1 12 14 12h18q11 0 10 -12zM427 857l-12 -98q-1 -12 -13 -12h-18q-12 0 -10 12l11 98q1 12 14 12h18q11 0 10 -12z" />
    <glyph glyph-name="Aring" unicode="&#xc5;" 
d="M327 680h31q12 0 13 -12l122 -656q3 -12 -9 -12h-31q-11 0 -13 12l-37 194h-241l-83 -194q-6 -12 -15 -12h-29q-13 0 -8 12l283 656q6 12 17 12zM397 249l-51 268l-12 107q-1 -3 -8 -26t-14.5 -45t-12.5 -34l-118 -270h216zM440 808l-2 -21q-7 -64 -96 -64
q-41 0 -62.5 16t-21.5 41q0 7 1 17l2 22q5 65 97 65q40 0 61.5 -16.5t21.5 -42.5q0 -6 -1 -17zM406 792l1 11q1 8 1 16q0 35 -53 35q-59 0 -62 -40l-1 -12q-1 -9 -1 -14q0 -35 52 -35q60 0 63 39z" />
    <glyph glyph-name="AE" unicode="&#xc6;" horiz-adv-x="840" 
d="M511 680h336q12 0 11 -11l-3 -22q-1 -11 -13 -11h-300l-31 -256h281q12 0 11 -12l-3 -20q-2 -12 -13 -12h-282l-36 -291h312q13 0 11 -12l-3 -21q-1 -12 -13 -12h-347q-8 0 -12 3t-3 11l24 192h-221l-135 -194q-8 -12 -17 -12h-29q-16 0 -8 12l461 656q7 12 22 12z
M445 530l-196 -281h195l41 341q-20 -32 -40 -60z" />
    <glyph glyph-name="Ccedilla" unicode="&#xc7;" horiz-adv-x="547" 
d="M263 -54h39q30 0 51 -17t21 -51q0 -47 -27 -68t-65 -21h-117q-12 0 -10 12l1 11q2 12 13 12h111q54 0 54 50q0 37 -43 37h-59q-20 0 -14 15l27 68q-146 12 -146 117q0 8 2 24l50 412q8 66 57 103.5t163 37.5q190 0 190 -120q0 -7 -2 -23l-6 -50q-1 -13 -12 -13h-29
q-13 0 -11 13l6 42q1 6 1 19q0 86 -141 86q-83 0 -120 -26.5t-44 -76.5l-48 -396q-1 -7 -1 -20q0 -85 139 -85q153 0 165 103l7 57q1 11 13 11h28q13 0 11 -11l-8 -65q-8 -66 -58 -103.5t-163 -37.5h-6z" />
    <glyph glyph-name="Egrave" unicode="&#xc8;" horiz-adv-x="527" 
d="M337 747l-65 119q-6 12 7 12h31q10 0 15 -10l56 -117q5 -11 -6 -11h-23q-12 0 -15 7zM462 0h-354q-12 0 -11 12l81 656q2 12 13 12h342q11 0 10 -12l-3 -22q-1 -12 -13 -12h-300l-31 -254h282q11 0 10 -12l-2 -21q-2 -12 -14 -12h-281l-36 -289h311q12 0 11 -12l-3 -22
q-1 -12 -12 -12z" />
    <glyph glyph-name="Eacute" unicode="&#xc9;" horiz-adv-x="527" 
d="M462 0h-354q-12 0 -11 12l81 656q2 12 13 12h342q11 0 10 -12l-3 -22q-1 -12 -13 -12h-300l-31 -254h282q11 0 10 -12l-2 -21q-2 -12 -14 -12h-281l-36 -289h311q12 0 11 -12l-3 -22q-1 -12 -12 -12zM478 866l-94 -119q-7 -7 -15 -7h-26q-11 0 -4 11l86 117q7 10 16 10
h33q14 0 4 -12z" />
    <glyph glyph-name="Ecircumflex" unicode="&#xca;" horiz-adv-x="527" 
d="M377 844l-72 -92q-10 -12 -17 -12h-24q-14 0 -5 12l91 114q10 12 21 12h19q10 0 17 -11l65 -115q7 -12 -8 -12h-22q-10 0 -16 12zM462 0h-354q-12 0 -11 12l81 656q2 12 13 12h342q11 0 10 -12l-3 -22q-1 -12 -13 -12h-300l-31 -254h282q11 0 10 -12l-2 -21
q-2 -12 -14 -12h-281l-36 -289h311q12 0 11 -12l-3 -22q-1 -12 -12 -12z" />
    <glyph glyph-name="Edieresis" unicode="&#xcb;" horiz-adv-x="527" 
d="M462 0h-354q-12 0 -11 12l81 656q2 12 13 12h342q11 0 10 -12l-3 -22q-1 -12 -13 -12h-300l-31 -254h282q11 0 10 -12l-2 -21q-2 -12 -14 -12h-281l-36 -289h311q12 0 11 -12l-3 -22q-1 -12 -12 -12zM357 857l-12 -98q-1 -12 -13 -12h-18q-12 0 -10 12l11 98q1 12 14 12
h18q11 0 10 -12zM455 857l-12 -98q-1 -12 -13 -12h-18q-12 0 -10 12l11 98q1 12 14 12h18q11 0 10 -12z" />
    <glyph glyph-name="Igrave" unicode="&#xcc;" horiz-adv-x="245" 
d="M231 668l-81 -656q-2 -12 -12 -12h-30q-12 0 -11 12l81 656q2 12 13 12h30q11 0 10 -12zM184 747l-65 119q-6 12 7 12h31q10 0 15 -10l56 -117q6 -11 -6 -11h-23q-11 0 -15 7z" />
    <glyph glyph-name="Iacute" unicode="&#xcd;" horiz-adv-x="245" 
d="M231 668l-81 -656q-2 -12 -12 -12h-30q-12 0 -11 12l81 656q2 12 13 12h30q11 0 10 -12zM332 866l-94 -119q-7 -7 -15 -7h-26q-11 0 -4 11l86 117q7 10 16 10h33q14 0 4 -12z" />
    <glyph glyph-name="Icircumflex" unicode="&#xce;" horiz-adv-x="245" 
d="M231 668l-81 -656q-2 -12 -12 -12h-30q-12 0 -11 12l81 656q2 12 13 12h30q11 0 10 -12zM223 844l-72 -92q-10 -12 -17 -12h-24q-14 0 -5 12l91 114q10 12 21 12h19q10 0 17 -11l65 -115q7 -12 -8 -12h-22q-10 0 -16 12z" />
    <glyph glyph-name="Idieresis" unicode="&#xcf;" horiz-adv-x="245" 
d="M231 668l-81 -656q-2 -12 -12 -12h-30q-12 0 -11 12l81 656q2 12 13 12h30q11 0 10 -12zM200 857l-12 -98q-2 -12 -13 -12h-18q-11 0 -10 12l11 98q2 12 14 12h18q12 0 10 -12zM298 857l-12 -98q-2 -12 -13 -12h-18q-11 0 -10 12l11 98q2 12 14 12h18q12 0 10 -12z" />
    <glyph glyph-name="Eth" unicode="&#xd0;" horiz-adv-x="599" 
d="M307 0h-200q-11 0 -10 12l38 312h-75q-11 0 -10 12l2 18q1 11 14 11h74l38 303q2 12 13 12h195q195 0 195 -122q0 -17 -1 -24l-48 -393q-18 -141 -225 -141zM382 634h-155l-33 -269h140q10 0 10 -11l-1 -18q-1 -12 -14 -12h-140l-34 -278h155q155 0 169 103l47 379
q1 7 1 19q0 87 -145 87z" />
    <glyph glyph-name="Ntilde" unicode="&#xd1;" horiz-adv-x="609" 
d="M593 668l-80 -656q-1 -12 -13 -12h-25q-8 0 -11 6l-224 509q-10 25 -23 61l-70 -564q-1 -12 -12 -12h-27q-12 0 -11 12l80 656q1 12 14 12h24q8 0 10 -5l226 -513l23 -57l69 563q1 12 14 12h26q11 0 10 -12zM339 828q-18 0 -25 -10.5t-11 -38.5l-2 -14q-3 -11 -14 -11
h-16q-11 0 -9 14l4 20q7 44 25.5 62.5t48.5 18.5q28 0 52 -21l40 -36q18 -16 32 -16q18 0 25 11t12 43l1 9q1 11 14 11h16q11 0 9 -13l-3 -20q-13 -82 -75 -82q-27 0 -52 22l-41 36q-19 15 -31 15z" />
    <glyph glyph-name="Ograve" unicode="&#xd2;" horiz-adv-x="587" 
d="M356 747l-65 119q-6 12 7 12h31q10 0 15 -10l56 -117q6 -11 -6 -11h-23q-11 0 -15 7zM101 135l50 412q16 141 224 141q195 0 195 -122q0 -14 -1 -21l-51 -412q-16 -141 -225 -141q-194 0 -194 120q0 7 2 23zM466 141l49 396q1 6 1 18q0 87 -145 87q-154 0 -168 -103
l-48 -396q-2 -16 -2 -18q0 -87 144 -87q155 0 169 103z" />
    <glyph glyph-name="Oacute" unicode="&#xd3;" horiz-adv-x="587" 
d="M499 866l-94 -119q-7 -7 -15 -7h-26q-11 0 -4 11l86 117q7 10 16 10h33q14 0 4 -12zM101 135l50 412q16 141 224 141q195 0 195 -122q0 -14 -1 -21l-51 -412q-16 -141 -225 -141q-194 0 -194 120q0 7 2 23zM466 141l49 396q1 6 1 18q0 87 -145 87q-154 0 -168 -103
l-48 -396q-2 -16 -2 -18q0 -87 144 -87q155 0 169 103z" />
    <glyph glyph-name="Ocircumflex" unicode="&#xd4;" horiz-adv-x="587" 
d="M393 844l-72 -92q-10 -12 -17 -12h-24q-14 0 -5 12l91 114q10 12 21 12h19q10 0 17 -11l65 -115q7 -12 -8 -12h-22q-10 0 -16 12zM101 135l50 412q16 141 224 141q195 0 195 -122q0 -14 -1 -21l-51 -412q-16 -141 -225 -141q-194 0 -194 120q0 7 2 23zM466 141l49 396
q1 6 1 18q0 87 -145 87q-154 0 -168 -103l-48 -396q-2 -16 -2 -18q0 -87 144 -87q155 0 169 103z" />
    <glyph glyph-name="Otilde" unicode="&#xd5;" horiz-adv-x="587" 
d="M101 135l50 412q16 141 224 141q195 0 195 -122q0 -14 -1 -21l-51 -412q-16 -141 -225 -141q-194 0 -194 120q0 7 2 23zM466 141l49 396q1 6 1 18q0 87 -145 87q-154 0 -168 -103l-48 -396q-2 -16 -2 -18q0 -87 144 -87q155 0 169 103zM327 828q-18 0 -25 -10.5
t-11 -38.5l-2 -14q-3 -11 -14 -11h-16q-11 0 -9 14l4 20q7 44 25.5 62.5t48.5 18.5q28 0 52 -21l40 -36q18 -16 32 -16q18 0 25 11t12 43l1 9q1 11 14 11h16q11 0 9 -13l-3 -20q-13 -82 -75 -82q-27 0 -52 22l-41 36q-19 15 -31 15z" />
    <glyph glyph-name="Odieresis" unicode="&#xd6;" horiz-adv-x="587" 
d="M101 135l50 412q16 141 224 141q195 0 195 -122q0 -14 -1 -21l-51 -412q-16 -141 -225 -141q-194 0 -194 120q0 7 2 23zM466 141l49 396q1 6 1 18q0 87 -145 87q-154 0 -168 -103l-48 -396q-2 -16 -2 -18q0 -87 144 -87q155 0 169 103zM368 857l-12 -98q-2 -12 -13 -12
h-18q-11 0 -10 12l11 98q2 12 14 12h18q12 0 10 -12zM466 857l-12 -98q-2 -12 -13 -12h-18q-11 0 -10 12l11 98q2 12 14 12h18q12 0 10 -12z" />
    <glyph glyph-name="multiply" unicode="&#xd7;" horiz-adv-x="545" 
d="M381 158l-86 150l-150 -86q-3 -2 -8 -2t-9 7l-10 18q-2 4 -2 6q0 6 7 10l149 86l-86 150q-2 3 -2 7t6 9l18 11q4 2 6 2q6 0 10 -7l86 -150l152 87q3 2 7 2q3 0 8 -6l11 -18q2 -3 2 -7q0 -6 -7 -10l-150 -87l86 -149q3 -5 3 -8q0 -4 -8 -9l-17 -10q-3 -2 -7 -2q-6 0 -9 6z
" />
    <glyph glyph-name="Oslash" unicode="&#xd8;" horiz-adv-x="587" 
d="M101 134l50 412q16 141 224 141q86 0 134 -25l18 31q8 12 16 12h15q10 0 4 -12l-28 -47q36 -32 36 -81q0 -14 -1 -21l-51 -412q-18 -141 -225 -141q-84 0 -134 24l-16 -28q-9 -14 -17 -14h-15q-12 0 -3 14l26 44q-35 29 -35 80q0 7 2 23zM466 140l49 396q1 6 1 18
q0 24 -12 42l-318 -536q35 -23 111 -23q155 0 169 103zM153 124q0 -26 11 -42l318 535q-37 24 -111 24q-156 0 -168 -103l-48 -396q-2 -12 -2 -18z" />
    <glyph glyph-name="Ugrave" unicode="&#xd9;" horiz-adv-x="599" 
d="M360 747l-65 119q-6 12 7 12h31q10 0 15 -10l56 -117q6 -11 -6 -11h-23q-11 0 -15 7zM224 668l-64 -521q-2 -18 -2 -22q0 -87 144 -87q155 0 169 103l65 527q2 12 12 12h30q12 0 11 -12l-66 -535q-16 -141 -225 -141q-194 0 -194 122q0 9 2 23l65 531q1 12 13 12h30
q11 0 10 -12z" />
    <glyph glyph-name="Uacute" unicode="&#xda;" horiz-adv-x="599" 
d="M224 668l-64 -521q-2 -18 -2 -22q0 -87 144 -87q155 0 169 103l65 527q2 12 12 12h30q12 0 11 -12l-66 -535q-16 -141 -225 -141q-194 0 -194 122q0 9 2 23l65 531q1 12 13 12h30q11 0 10 -12zM504 866l-94 -119q-7 -7 -15 -7h-26q-11 0 -4 11l86 117q7 10 16 10h33
q14 0 4 -12z" />
    <glyph glyph-name="Ucircumflex" unicode="&#xdb;" horiz-adv-x="599" 
d="M399 844l-72 -92q-10 -12 -17 -12h-24q-14 0 -5 12l91 114q10 12 21 12h19q10 0 17 -11l65 -115q7 -12 -8 -12h-22q-10 0 -16 12zM224 668l-64 -521q-2 -18 -2 -22q0 -87 144 -87q155 0 169 103l65 527q2 12 12 12h30q12 0 11 -12l-66 -535q-16 -141 -225 -141
q-194 0 -194 122q0 9 2 23l65 531q1 12 13 12h30q11 0 10 -12z" />
    <glyph glyph-name="Udieresis" unicode="&#xdc;" horiz-adv-x="599" 
d="M224 668l-64 -521q-2 -18 -2 -22q0 -87 144 -87q155 0 169 103l65 527q2 12 12 12h30q12 0 11 -12l-66 -535q-16 -141 -225 -141q-194 0 -194 122q0 9 2 23l65 531q1 12 13 12h30q11 0 10 -12zM371 857l-12 -98q-1 -12 -13 -12h-18q-12 0 -10 12l11 98q1 12 14 12h18
q11 0 10 -12zM469 857l-12 -98q-1 -12 -13 -12h-18q-12 0 -10 12l11 98q1 12 14 12h18q11 0 10 -12z" />
    <glyph glyph-name="Yacute" unicode="&#xdd;" horiz-adv-x="509" 
d="M161 668l123 -308q7 -19 10 -33q2 6 18 33l201 308q9 12 17 12h31q15 0 7 -12l-252 -386l-33 -270q-1 -12 -13 -12h-30q-12 0 -11 12l33 264l-158 392q-5 12 10 12h34q8 0 13 -12zM463 866l-94 -119q-7 -7 -15 -7h-26q-11 0 -4 11l86 117q7 10 16 10h33q14 0 4 -12z" />
    <glyph glyph-name="Thorn" unicode="&#xde;" horiz-adv-x="563" 
d="M231 668l-21 -175h151q102 0 148 -33.5t46 -88.5q0 -13 -1 -20l-13 -106q-8 -66 -59 -103.5t-166 -37.5h-154l-12 -92q-2 -12 -12 -12h-30q-12 0 -11 12l80 656q1 12 14 12h30q11 0 10 -12zM357 448h-153l-37 -299h153q157 0 169 104l11 91q1 6 1 16q0 88 -144 88z" />
    <glyph glyph-name="germandbls" unicode="&#xdf;" horiz-adv-x="592" 
d="M229 582l-69 -570q-2 -12 -14 -12h-29q-11 0 -10 12l54 436h-65q-11 0 -10 10l2 18q1 12 13 12l64 3h1l12 94q15 123 201 123q172 0 172 -107q0 -2 -2 -24l-3 -29q-4 -37 -31.5 -57.5t-57.5 -28.5l-65 -17q-20 -5 -30 -9t-21 -15t-13 -27l-1 -10v-6q0 -32 52 -53l114 -44
q81 -32 81 -86q0 -7 -1 -18l-7 -63q-7 -60 -45 -91t-131 -31q-81 0 -114 24.5t-33 72.5q0 6 1 21l1 15q1 12 14 12h20q11 0 10 -12l-1 -14q-1 -12 -1 -17q0 -32 23 -48.5t82 -16.5q66 0 93 21t32 61l6 52q2 20 2 21q0 17 -14 30.5t-22 17t-25 9.5l-111 41q-27 10 -50 31.5
t-23 54.5q0 9 1 16l2 11q11 62 88 82l58 15q63 16 68 59l3 24q1 10 1 20q0 73 -126 73q-136 0 -146 -86z" />
    <glyph glyph-name="agrave" unicode="&#xe0;" horiz-adv-x="520" 
d="M386 12l3 41q-85 -61 -180 -61q-61 0 -93 27.5t-32 75.5q0 6 2 20l33 263q15 123 151 123q97 0 167 -62l7 41q3 13 13 13h26q11 0 10 -13l-58 -468q-1 -12 -13 -12h-26q-10 0 -10 12zM170 371l-32 -250q-1 -5 -1 -14q0 -68 90 -68q85 0 167 59l37 296q-70 60 -153 60
q-49 0 -76 -23t-32 -60zM296 577l-66 119q-6 12 8 12h30q10 0 15 -10l57 -117q6 -11 -7 -11h-23q-10 0 -14 7z" />
    <glyph glyph-name="aacute" unicode="&#xe1;" horiz-adv-x="520" 
d="M386 12l3 41q-85 -61 -180 -61q-61 0 -93 27.5t-32 75.5q0 6 2 20l33 263q15 123 151 123q97 0 167 -62l7 41q3 13 13 13h26q11 0 10 -13l-58 -468q-1 -12 -13 -12h-26q-10 0 -10 12zM170 371l-32 -250q-1 -5 -1 -14q0 -68 90 -68q85 0 167 59l37 296q-70 60 -153 60
q-49 0 -76 -23t-32 -60zM429 696l-94 -119q-7 -7 -15 -7h-26q-13 0 -5 11l87 117q7 10 16 10h33q14 0 4 -12z" />
    <glyph glyph-name="acircumflex" unicode="&#xe2;" horiz-adv-x="520" 
d="M386 12l3 41q-85 -61 -180 -61q-61 0 -93 27.5t-32 75.5q0 6 2 20l33 263q15 123 151 123q97 0 167 -62l7 41q3 13 13 13h26q11 0 10 -13l-58 -468q-1 -12 -13 -12h-26q-10 0 -10 12zM170 371l-32 -250q-1 -5 -1 -14q0 -68 90 -68q85 0 167 59l37 296q-70 60 -153 60
q-49 0 -76 -23t-32 -60zM324 674l-72 -92q-10 -12 -17 -12h-24q-15 0 -6 12l92 114q9 12 20 12h20q10 0 17 -11l64 -115q7 -12 -7 -12h-22q-10 0 -16 12z" />
    <glyph glyph-name="atilde" unicode="&#xe3;" horiz-adv-x="520" 
d="M386 12l3 41q-85 -61 -180 -61q-61 0 -93 27.5t-32 75.5q0 6 2 20l33 263q15 123 151 123q97 0 167 -62l7 41q3 13 13 13h26q11 0 10 -13l-58 -468q-1 -12 -13 -12h-26q-10 0 -10 12zM170 371l-32 -250q-1 -5 -1 -14q0 -68 90 -68q85 0 167 59l37 296q-70 60 -153 60
q-49 0 -76 -23t-32 -60zM257 654q-18 0 -25 -10.5t-11 -39.5l-2 -13q-1 -11 -14 -11h-16q-11 0 -9 13l4 20q14 82 74 82q27 0 52 -22l40 -36q20 -16 32 -16q18 0 25 11t12 43l1 9q1 11 14 11h16q12 0 9 -13l-3 -19q-12 -82 -74 -82q-27 0 -53 21l-41 36q-20 16 -31 16z" />
    <glyph glyph-name="adieresis" unicode="&#xe4;" horiz-adv-x="520" 
d="M386 12l3 41q-85 -61 -180 -61q-61 0 -93 27.5t-32 75.5q0 6 2 20l33 263q15 123 151 123q97 0 167 -62l7 41q3 13 13 13h26q11 0 10 -13l-58 -468q-1 -12 -13 -12h-26q-10 0 -10 12zM170 371l-32 -250q-1 -5 -1 -14q0 -68 90 -68q85 0 167 59l37 296q-70 60 -153 60
q-49 0 -76 -23t-32 -60zM298 690l-12 -98q-2 -12 -13 -12h-18q-11 0 -10 12l12 98q1 12 13 12h18q12 0 10 -12zM396 690l-12 -98q-2 -12 -13 -12h-18q-11 0 -10 12l12 98q1 12 13 12h18q12 0 10 -12z" />
    <glyph glyph-name="aring" unicode="&#xe5;" horiz-adv-x="520" 
d="M386 12l3 41q-85 -61 -180 -61q-61 0 -93 27.5t-32 75.5q0 6 2 20l33 263q15 123 151 123q97 0 167 -62l7 41q3 13 13 13h26q11 0 10 -13l-58 -468q-1 -12 -13 -12h-26q-10 0 -10 12zM170 371l-32 -250q-1 -5 -1 -14q0 -68 90 -68q85 0 167 59l37 296q-70 60 -153 60
q-49 0 -76 -23t-32 -60zM422 641l-2 -21q-7 -64 -96 -64q-41 0 -62.5 16t-21.5 41q0 7 1 17l2 22q5 65 97 65q40 0 61.5 -16.5t21.5 -42.5q0 -6 -1 -17zM388 625l1 11q1 8 1 16q0 35 -53 35q-59 0 -62 -40l-1 -12q-1 -9 -1 -14q0 -35 52 -35q60 0 63 39z" />
    <glyph glyph-name="ae" unicode="&#xe6;" horiz-adv-x="789" 
d="M770 377l-15 -124q-2 -11 -12 -11h-292l-15 -119q-2 -16 -2 -19q0 -70 118 -70q127 0 137 82l3 23q2 12 13 12h25q12 0 10 -12l-3 -25q-7 -59 -49.5 -90.5t-139.5 -31.5q-137 0 -158 72q-89 -72 -185 -72q-58 0 -93.5 26t-35.5 73q0 8 1 17l6 47q6 50 42 81.5t97 31.5
h181l12 101q2 16 2 21q0 70 -114 70q-70 0 -100.5 -21.5t-34.5 -60.5l-2 -18q-1 -12 -13 -12h-25q-12 0 -11 12l2 18q7 59 49.5 91t138.5 32q115 0 142 -59q40 59 160 59q162 0 162 -105q0 -9 -1 -19zM216 35q79 0 167 68l15 124h-174q-40 0 -63.5 -22t-27.5 -57l-3 -25
q-2 -18 -2 -19q0 -69 88 -69zM467 376l-12 -94h254l12 94q1 8 1 13q0 70 -117 70q-128 0 -138 -83z" />
    <glyph glyph-name="ccedilla" unicode="&#xe7;" horiz-adv-x="476" 
d="M234 -54h39q30 0 51 -17t21 -51q0 -47 -27 -68t-65 -21h-117q-12 0 -10 12l1 11q1 12 13 12h111q54 0 54 50q0 37 -43 37h-59q-20 0 -14 15l26 67q-131 10 -131 103q0 12 1 19l33 262q7 60 50 92t140 32q162 0 162 -105q0 -12 -1 -20l-3 -18q-1 -12 -13 -12h-27
q-12 0 -10 11l2 17q1 7 1 16q0 67 -115 67q-69 0 -99 -21.5t-35 -61.5l-32 -251q-1 -7 -1 -19q0 -68 115 -68q69 0 99 21t36 62l3 24q1 12 13 12h27q12 0 10 -12l-4 -28q-7 -58 -48.5 -90t-134.5 -33z" />
    <glyph glyph-name="egrave" unicode="&#xe8;" horiz-adv-x="490" 
d="M472 377l-16 -124q-2 -11 -12 -11h-292l-15 -121q-2 -14 -2 -17q0 -70 118 -70q127 0 137 82l3 23q1 12 14 12h25q12 0 10 -12l-3 -24q-7 -59 -49.5 -91t-140.5 -32q-165 0 -165 105q0 12 1 18l33 262q7 59 51 91.5t140 32.5q164 0 164 -105q0 -13 -1 -19zM169 376
l-12 -94h253l12 91q1 5 1 16q0 70 -117 70q-127 0 -137 -83zM294 577l-66 119q-6 12 8 12h30q10 0 15 -10l57 -117q6 -11 -7 -11h-23q-10 0 -14 7z" />
    <glyph glyph-name="eacute" unicode="&#xe9;" horiz-adv-x="490" 
d="M433 696l-94 -119q-7 -7 -15 -7h-26q-13 0 -5 11l87 117q7 10 16 10h33q14 0 4 -12zM472 377l-16 -124q-2 -11 -12 -11h-292l-15 -121q-2 -14 -2 -17q0 -70 118 -70q127 0 137 82l3 23q1 12 14 12h25q12 0 10 -12l-3 -24q-7 -59 -49.5 -91t-140.5 -32q-165 0 -165 105
q0 12 1 18l33 262q7 59 51 91.5t140 32.5q164 0 164 -105q0 -13 -1 -19zM169 376l-12 -94h253l12 91q1 5 1 16q0 70 -117 70q-127 0 -137 -83z" />
    <glyph glyph-name="ecircumflex" unicode="&#xea;" horiz-adv-x="490" 
d="M327 674l-72 -92q-10 -12 -17 -12h-24q-15 0 -6 12l92 114q9 12 20 12h20q10 0 17 -11l64 -115q7 -12 -7 -12h-22q-10 0 -16 12zM472 377l-16 -124q-2 -11 -12 -11h-292l-15 -121q-2 -14 -2 -17q0 -70 118 -70q127 0 137 82l3 23q1 12 14 12h25q12 0 10 -12l-3 -24
q-7 -59 -49.5 -91t-140.5 -32q-165 0 -165 105q0 12 1 18l33 262q7 59 51 91.5t140 32.5q164 0 164 -105q0 -13 -1 -19zM169 376l-12 -94h253l12 91q1 5 1 16q0 70 -117 70q-127 0 -137 -83z" />
    <glyph glyph-name="edieresis" unicode="&#xeb;" horiz-adv-x="490" 
d="M297 690l-12 -98q-1 -12 -13 -12h-18q-12 0 -10 12l12 98q2 12 13 12h18q11 0 10 -12zM395 690l-12 -98q-1 -12 -13 -12h-18q-12 0 -10 12l12 98q2 12 13 12h18q11 0 10 -12zM472 377l-16 -124q-2 -11 -12 -11h-292l-15 -121q-2 -14 -2 -17q0 -70 118 -70q127 0 137 82
l3 23q1 12 14 12h25q12 0 10 -12l-3 -24q-7 -59 -49.5 -91t-140.5 -32q-165 0 -165 105q0 12 1 18l33 262q7 59 51 91.5t140 32.5q164 0 164 -105q0 -13 -1 -19zM169 376l-12 -94h253l12 91q1 5 1 16q0 70 -117 70q-127 0 -137 -83z" />
    <glyph glyph-name="igrave" unicode="&#xec;" horiz-adv-x="221" 
d="M196 481l-58 -469q-2 -12 -13 -12h-29q-11 0 -10 12l58 469q2 12 13 12h28q13 0 11 -12zM152 577l-66 119q-6 12 8 12h30q10 0 15 -10l57 -117q6 -11 -7 -11h-23q-10 0 -14 7z" />
    <glyph glyph-name="iacute" unicode="&#xed;" horiz-adv-x="221" 
d="M299 696l-94 -119q-7 -7 -15 -7h-26q-13 0 -5 11l87 117q7 10 16 10h33q14 0 4 -12zM196 481l-58 -469q-2 -12 -13 -12h-29q-11 0 -10 12l58 469q2 12 13 12h28q13 0 11 -12z" />
    <glyph glyph-name="icircumflex" unicode="&#xee;" horiz-adv-x="221" 
d="M192 674l-72 -92q-10 -12 -17 -12h-24q-15 0 -6 12l92 114q9 12 20 12h20q10 0 17 -11l64 -115q7 -12 -7 -12h-22q-10 0 -16 12zM196 481l-58 -469q-2 -12 -13 -12h-29q-11 0 -10 12l58 469q2 12 13 12h28q13 0 11 -12z" />
    <glyph glyph-name="idieresis" unicode="&#xef;" horiz-adv-x="221" 
d="M168 690l-12 -98q-2 -12 -13 -12h-18q-11 0 -10 12l12 98q1 12 13 12h18q12 0 10 -12zM266 690l-12 -98q-2 -12 -13 -12h-18q-11 0 -10 12l12 98q1 12 13 12h18q12 0 10 -12zM196 481l-58 -469q-2 -12 -13 -12h-29q-11 0 -10 12l58 469q2 12 13 12h28q13 0 11 -12z" />
    <glyph glyph-name="eth" unicode="&#xf0;" horiz-adv-x="552" 
d="M350 607l88 35q-25 27 -102 27h-87q-11 0 -10 11l1 16q1 12 14 12h87q107 0 142 -43l57 24q10 4 14 -4l4 -8q5 -10 -8 -15l-52 -23q6 -15 6 -33q0 -14 -1 -21l-58 -470q-7 -59 -51 -91t-141 -32q-168 0 -168 105q0 12 1 18l31 263q15 123 152 123q94 0 166 -61l17 136
q0 2 0.5 6t0.5 6q0 13 -5 26l-87 -35q-13 -6 -16 5l-2 8q-4 11 7 15zM396 119l34 276q-67 60 -153 60q-50 0 -76.5 -23t-31.5 -60l-31 -253q-1 -5 -1 -13q0 -71 120 -71q129 0 139 84z" />
    <glyph glyph-name="ntilde" unicode="&#xf1;" horiz-adv-x="525" 
d="M157 493h25q12 0 11 -12l-3 -42q80 62 179 62q61 0 93.5 -28t32.5 -75q0 -9 -1 -19l-46 -367q-2 -12 -13 -12h-29q-11 0 -10 12l44 357q2 14 2 15q0 70 -89 70t-168 -60l-47 -382q-2 -12 -13 -12h-29q-11 0 -10 12l58 469q2 12 13 12zM276 654q-18 0 -25 -10.5t-11 -39.5
l-2 -13q-1 -11 -14 -11h-16q-11 0 -9 13l4 20q14 82 74 82q27 0 52 -22l40 -36q20 -16 32 -16q18 0 25 11t12 43l1 9q1 11 14 11h16q12 0 9 -13l-3 -19q-12 -82 -74 -82q-27 0 -53 21l-41 36q-20 16 -31 16z" />
    <glyph glyph-name="ograve" unicode="&#xf2;" horiz-adv-x="508" 
d="M85 115l33 262q15 124 195 124q168 0 168 -106q0 -9 -1 -18l-33 -262q-15 -123 -195 -123q-168 0 -168 106q0 11 1 17zM396 119l32 255q1 8 1 12q0 71 -120 71q-129 0 -139 -83l-32 -255q-1 -5 -1 -13q0 -35 27.5 -52.5t92.5 -17.5q129 0 139 83zM289 577l-66 119
q-6 12 8 12h30q10 0 15 -10l57 -117q5 -11 -7 -11h-23q-11 0 -14 7z" />
    <glyph glyph-name="oacute" unicode="&#xf3;" horiz-adv-x="508" 
d="M436 696l-94 -119q-7 -7 -15 -7h-26q-13 0 -5 11l87 117q7 10 16 10h33q14 0 4 -12zM85 115l33 262q15 124 195 124q168 0 168 -106q0 -9 -1 -18l-33 -262q-15 -123 -195 -123q-168 0 -168 106q0 11 1 17zM396 119l32 255q1 8 1 12q0 71 -120 71q-129 0 -139 -83
l-32 -255q-1 -5 -1 -13q0 -35 27.5 -52.5t92.5 -17.5q129 0 139 83z" />
    <glyph glyph-name="ocircumflex" unicode="&#xf4;" horiz-adv-x="508" 
d="M333 674l-72 -92q-10 -12 -17 -12h-24q-15 0 -6 12l92 114q9 12 20 12h20q10 0 17 -11l64 -115q7 -12 -7 -12h-22q-10 0 -16 12zM85 115l33 262q15 124 195 124q168 0 168 -106q0 -9 -1 -18l-33 -262q-15 -123 -195 -123q-168 0 -168 106q0 11 1 17zM396 119l32 255
q1 8 1 12q0 71 -120 71q-129 0 -139 -83l-32 -255q-1 -5 -1 -13q0 -35 27.5 -52.5t92.5 -17.5q129 0 139 83z" />
    <glyph glyph-name="otilde" unicode="&#xf5;" horiz-adv-x="508" 
d="M85 115l33 262q15 124 195 124q168 0 168 -106q0 -9 -1 -18l-33 -262q-15 -123 -195 -123q-168 0 -168 106q0 11 1 17zM396 119l32 255q1 8 1 12q0 71 -120 71q-129 0 -139 -83l-32 -255q-1 -5 -1 -13q0 -35 27.5 -52.5t92.5 -17.5q129 0 139 83zM258 654
q-18 0 -25 -10.5t-11 -39.5l-2 -13q-1 -11 -14 -11h-16q-11 0 -9 13l4 20q14 82 74 82q27 0 52 -22l40 -36q20 -16 32 -16q18 0 25 11t12 43l1 9q1 11 14 11h16q12 0 9 -13l-3 -19q-12 -82 -74 -82q-27 0 -53 21l-41 36q-20 16 -31 16z" />
    <glyph glyph-name="odieresis" unicode="&#xf6;" horiz-adv-x="508" 
d="M303 690l-12 -98q-1 -12 -13 -12h-18q-12 0 -10 12l12 98q2 12 13 12h18q11 0 10 -12zM401 690l-12 -98q-1 -12 -13 -12h-18q-12 0 -10 12l12 98q2 12 13 12h18q11 0 10 -12zM85 115l33 262q15 124 195 124q168 0 168 -106q0 -9 -1 -18l-33 -262q-15 -123 -195 -123
q-168 0 -168 106q0 11 1 17zM396 119l32 255q1 8 1 12q0 71 -120 71q-129 0 -139 -83l-32 -255q-1 -5 -1 -13q0 -35 27.5 -52.5t92.5 -17.5q129 0 139 83z" />
    <glyph glyph-name="divide" unicode="&#xf7;" horiz-adv-x="590" 
d="M133 348h399q12 0 12 -11v-21q0 -12 -12 -12h-398q-12 0 -12 12v21q0 11 11 11zM359 202v-77q0 -12 -11 -12h-30q-12 0 -12 12v77q0 12 12 12h30q11 0 11 -12zM359 531v-78q0 -12 -11 -12h-30q-12 0 -12 12v78q0 11 12 11h30q11 0 11 -11z" />
    <glyph glyph-name="oslash" unicode="&#xf8;" horiz-adv-x="508" 
d="M85 115l33 262q15 124 195 124q71 0 113 -21l20 29q8 12 16 12h15q11 0 3 -12l-30 -44q31 -27 31 -70q0 -12 -1 -18l-33 -262q-15 -123 -195 -123q-71 0 -115 21l-18 -27q-9 -12 -17 -12h-14q-10 0 -3 12l29 42q-30 26 -30 70q0 11 1 17zM396 119l31 252q2 10 2 15
q0 18 -10 35l-254 -368q29 -17 92 -17q129 0 139 83zM137 106q0 -21 8 -33l253 367q-29 17 -89 17q-129 0 -139 -83l-32 -255q-1 -5 -1 -13z" />
    <glyph glyph-name="ugrave" unicode="&#xf9;" 
d="M385 12l3 40q-76 -60 -173 -60q-61 0 -93 28t-32 74q0 8 1 17l45 369q1 13 14 13h28q11 0 10 -13l-44 -358q-1 -8 -1 -15q0 -68 89 -68q84 0 162 59l46 382q1 13 13 13h29q11 0 10 -13l-58 -468q-2 -12 -12 -12h-26q-12 0 -11 12zM297 577l-66 119q-6 12 8 12h30
q10 0 15 -10l57 -117q5 -11 -7 -11h-23q-11 0 -14 7z" />
    <glyph glyph-name="uacute" unicode="&#xfa;" 
d="M435 696l-94 -119q-7 -7 -15 -7h-26q-13 0 -5 11l87 117q7 10 16 10h33q14 0 4 -12zM385 12l3 40q-76 -60 -173 -60q-61 0 -93 28t-32 74q0 8 1 17l45 369q1 13 14 13h28q11 0 10 -13l-44 -358q-1 -8 -1 -15q0 -68 89 -68q84 0 162 59l46 382q1 13 13 13h29q11 0 10 -13
l-58 -468q-2 -12 -12 -12h-26q-12 0 -11 12z" />
    <glyph glyph-name="ucircumflex" unicode="&#xfb;" 
d="M332 674l-72 -92q-10 -12 -17 -12h-24q-15 0 -6 12l92 114q9 12 20 12h20q10 0 17 -11l64 -115q7 -12 -7 -12h-22q-10 0 -16 12zM385 12l3 40q-76 -60 -173 -60q-61 0 -93 28t-32 74q0 8 1 17l45 369q1 13 14 13h28q11 0 10 -13l-44 -358q-1 -8 -1 -15q0 -68 89 -68
q84 0 162 59l46 382q1 13 13 13h29q11 0 10 -13l-58 -468q-2 -12 -12 -12h-26q-12 0 -11 12z" />
    <glyph glyph-name="udieresis" unicode="&#xfc;" 
d="M308 690l-12 -98q-2 -12 -13 -12h-18q-11 0 -10 12l12 98q1 12 13 12h18q12 0 10 -12zM406 690l-12 -98q-2 -12 -13 -12h-18q-11 0 -10 12l12 98q1 12 13 12h18q12 0 10 -12zM385 12l3 40q-76 -60 -173 -60q-61 0 -93 28t-32 74q0 8 1 17l45 369q1 13 14 13h28
q11 0 10 -13l-44 -358q-1 -8 -1 -15q0 -68 89 -68q84 0 162 59l46 382q1 13 13 13h29q11 0 10 -13l-58 -468q-2 -12 -12 -12h-26q-12 0 -11 12z" />
    <glyph glyph-name="yacute" unicode="&#xfd;" horiz-adv-x="421" 
d="M132 481l79 -361q6 -30 8 -52q9 26 20 50l168 363q5 12 15 12h27q16 0 10 -12l-314 -677q-5 -12 -15 -12h-24q-14 0 -8 12l88 194l-107 483q-3 12 11 12h30q9 0 12 -12zM390 696l-94 -119q-7 -7 -15 -7h-26q-13 0 -5 11l87 117q7 10 16 10h33q14 0 4 -12z" />
    <glyph glyph-name="thorn" unicode="&#xfe;" horiz-adv-x="520" 
d="M221 687l-31 -247q85 61 179 61q61 0 93 -28t32 -75q0 -10 -2 -26l-32 -257q-15 -123 -151 -123q-99 0 -167 60l-30 -248q-2 -12 -12 -12h-29q-12 0 -11 12l109 883q1 12 13 12h28q12 0 11 -12zM409 121l30 245q2 16 2 20q0 69 -89 69q-87 0 -167 -60l-37 -298
q66 -59 152 -59q50 0 77 23t32 60z" />
    <glyph glyph-name="ydieresis" unicode="&#xff;" horiz-adv-x="421" 
d="M132 481l79 -361q6 -30 8 -52q9 26 20 50l168 363q5 12 15 12h27q16 0 10 -12l-314 -677q-5 -12 -15 -12h-24q-14 0 -8 12l88 194l-107 483q-3 12 11 12h30q9 0 12 -12zM256 690l-12 -98q-2 -12 -13 -12h-18q-11 0 -10 12l12 98q1 12 13 12h18q12 0 10 -12zM354 690
l-12 -98q-2 -12 -13 -12h-18q-11 0 -10 12l12 98q1 12 13 12h18q12 0 10 -12z" />
    <glyph glyph-name="Amacron" unicode="&#x100;" 
d="M327 680h31q12 0 13 -12l122 -656q3 -12 -9 -12h-31q-11 0 -13 12l-37 194h-241l-83 -194q-6 -12 -15 -12h-29q-13 0 -8 12l283 656q6 12 17 12zM397 249l-51 268l-12 107q-1 -3 -8 -26t-14.5 -45t-12.5 -34l-118 -270h216zM215 820h256q6 0 9 -2.5t2 -7.5l-2 -19
q-2 -12 -13 -12h-257q-12 0 -11 12l2 18q1 11 14 11z" />
    <glyph glyph-name="amacron" unicode="&#x101;" horiz-adv-x="520" 
d="M386 12l3 41q-85 -61 -180 -61q-61 0 -93 27.5t-32 75.5q0 6 2 20l33 263q15 123 151 123q97 0 167 -62l7 41q3 13 13 13h26q11 0 10 -13l-58 -468q-1 -12 -13 -12h-26q-10 0 -10 12zM170 371l-32 -250q-1 -5 -1 -14q0 -68 90 -68q85 0 167 59l37 296q-70 60 -153 60
q-49 0 -76 -23t-32 -60zM197 646h256q13 0 11 -11l-2 -19q-2 -12 -14 -12h-256q-12 0 -11 12l2 18q1 12 14 12z" />
    <glyph glyph-name="Abreve" unicode="&#x102;" 
d="M327 680h31q12 0 13 -12l122 -656q3 -12 -9 -12h-31q-11 0 -13 12l-37 194h-241l-83 -194q-6 -12 -15 -12h-29q-13 0 -8 12l283 656q6 12 17 12zM397 249l-51 268l-12 107q-1 -3 -8 -26t-14.5 -45t-12.5 -34l-118 -270h216zM279 871l-2 -19q-1 -9 -1 -19
q0 -28 14.5 -40.5t52.5 -12.5q44 0 61 19.5t20 58.5l1 13q1 11 13 11h17q12 0 10 -11l-1 -12q-5 -57 -32 -85.5t-92 -28.5q-105 0 -105 85q0 3 2 23l2 18q1 11 12 11h18q11 0 10 -11z" />
    <glyph glyph-name="abreve" unicode="&#x103;" horiz-adv-x="520" 
d="M386 12l3 41q-85 -61 -180 -61q-61 0 -93 27.5t-32 75.5q0 6 2 20l33 263q15 123 151 123q97 0 167 -62l7 41q3 13 13 13h26q11 0 10 -13l-58 -468q-1 -12 -13 -12h-26q-10 0 -10 12zM170 371l-32 -250q-1 -5 -1 -14q0 -68 90 -68q85 0 167 59l37 296q-70 60 -153 60
q-49 0 -76 -23t-32 -60zM252 683l-2 -19q-1 -9 -1 -19q0 -28 15 -41t52 -13q44 0 61 20t20 59l1 13q1 11 13 11h17q12 0 10 -11l-1 -12q-5 -57 -32 -85.5t-92 -28.5q-105 0 -105 85q0 3 2 23l2 18q1 11 12 11h18q11 0 10 -11z" />
    <glyph glyph-name="Aogonek" unicode="&#x104;" 
d="M327 680h30q11 0 14 -12l122 -656q3 -12 -9 -12h-11q-35 -6 -51.5 -27t-16.5 -44q0 -40 56 -40h26q12 0 12 -12l-1 -14q-1 -12 -14 -12h-35q-85 0 -85 70q0 25 17.5 53.5t55.5 48.5l-34 183h-241l-84 -194q-6 -12 -14 -12h-29q-13 0 -8 12l283 656q6 12 17 12zM397 249
l-51 268q-12 78 -12 106q-20 -67 -36 -104l-117 -270h216z" />
    <glyph glyph-name="aogonek" unicode="&#x105;" horiz-adv-x="520" 
d="M420 -149h-23q-87 0 -87 70q0 28 21.5 55t55.5 44l2 33q-85 -61 -180 -61q-61 0 -93 27.5t-32 75.5q0 6 2 20l33 263q15 123 151 123q94 0 167 -62l7 41q3 13 13 13h26q11 0 10 -13l-58 -468q-1 -12 -13 -12h-2q-31 -6 -49.5 -27.5t-18.5 -42.5q0 -41 57 -41h15
q14 0 12 -12l-2 -14q-1 -12 -14 -12zM170 371l-32 -250q-1 -5 -1 -14q0 -68 90 -68q85 0 167 59l37 296q-70 60 -153 60q-49 0 -76 -23t-32 -60z" />
    <glyph glyph-name="Cacute" unicode="&#x106;" horiz-adv-x="547" 
d="M517 198l-8 -65q-8 -66 -58 -103.5t-163 -37.5q-189 0 -189 119q0 8 2 24l50 412q8 66 57 103.5t163 37.5q190 0 190 -120q0 -7 -2 -23l-6 -50q-1 -13 -12 -13h-29q-13 0 -11 13l6 42q1 6 1 19q0 86 -141 86q-83 0 -120 -26.5t-44 -76.5l-48 -396q-1 -7 -1 -20
q0 -85 139 -85q153 0 165 103l7 57q1 11 13 11h28q13 0 11 -11zM496 866l-94 -119q-7 -7 -15 -7h-26q-11 0 -4 11l86 117q7 10 16 10h33q14 0 4 -12z" />
    <glyph glyph-name="cacute" unicode="&#x107;" horiz-adv-x="476" 
d="M429 696l-94 -119q-7 -7 -15 -7h-26q-13 0 -5 11l87 117q7 10 16 10h33q14 0 4 -12zM308 501q162 0 162 -105q0 -12 -1 -20l-3 -18q-1 -12 -13 -12h-27q-12 0 -10 11l2 17q1 7 1 16q0 67 -115 67q-69 0 -99 -21.5t-35 -61.5l-32 -251q-1 -7 -1 -19q0 -68 115 -68
q69 0 99 21t36 62l3 24q1 12 13 12h27q12 0 10 -12l-4 -28q-7 -59 -49.5 -91t-139.5 -32q-163 0 -163 104q0 12 1 19l33 262q7 60 50 92t140 32z" />
    <glyph glyph-name="Ccircumflex" unicode="&#x108;" horiz-adv-x="547" 
d="M517 198l-8 -65q-8 -66 -58 -103.5t-163 -37.5q-189 0 -189 119q0 8 2 24l50 412q8 66 57 103.5t163 37.5q190 0 190 -120q0 -7 -2 -23l-6 -50q-1 -13 -12 -13h-29q-13 0 -11 13l6 42q1 6 1 19q0 86 -141 86q-83 0 -120 -26.5t-44 -76.5l-48 -396q-1 -7 -1 -20
q0 -85 139 -85q153 0 165 103l7 57q1 11 13 11h28q13 0 11 -11zM386 844l-72 -92q-10 -12 -17 -12h-24q-14 0 -5 12l91 114q10 12 21 12h19q10 0 17 -11l65 -115q7 -12 -8 -12h-22q-10 0 -16 12z" />
    <glyph glyph-name="ccircumflex" unicode="&#x109;" horiz-adv-x="476" 
d="M322 674l-72 -92q-10 -12 -17 -12h-24q-15 0 -6 12l92 114q9 12 20 12h20q10 0 17 -11l64 -115q7 -12 -7 -12h-22q-10 0 -16 12zM308 501q162 0 162 -105q0 -12 -1 -20l-3 -18q-1 -12 -13 -12h-27q-12 0 -10 11l2 17q1 7 1 16q0 67 -115 67q-69 0 -99 -21.5t-35 -61.5
l-32 -251q-1 -7 -1 -19q0 -68 115 -68q69 0 99 21t36 62l3 24q1 12 13 12h27q12 0 10 -12l-4 -28q-7 -59 -49.5 -91t-139.5 -32q-163 0 -163 104q0 12 1 19l33 262q7 60 50 92t140 32z" />
    <glyph glyph-name="Cdotaccent" unicode="&#x10a;" horiz-adv-x="547" 
d="M416 838l-9 -77q-1 -11 -13 -11h-29q-12 0 -11 11l9 77q1 12 13 12h30q11 0 10 -12zM517 198l-8 -65q-8 -66 -58 -103.5t-163 -37.5q-189 0 -189 119q0 8 2 24l50 412q8 66 57 103.5t163 37.5q190 0 190 -120q0 -7 -2 -23l-6 -50q-1 -13 -12 -13h-29q-13 0 -11 13l6 42
q1 6 1 19q0 86 -141 86q-83 0 -120 -26.5t-44 -76.5l-48 -396q-1 -7 -1 -20q0 -85 139 -85q153 0 165 103l7 57q1 11 13 11h28q13 0 11 -11z" />
    <glyph glyph-name="cdotaccent" unicode="&#x10b;" horiz-adv-x="476" 
d="M308 501q162 0 162 -105q0 -12 -1 -20l-3 -18q-1 -12 -13 -12h-27q-12 0 -10 11l2 17q1 7 1 16q0 67 -115 67q-69 0 -99 -21.5t-35 -61.5l-32 -251q-1 -7 -1 -19q0 -68 115 -68q69 0 99 21t36 62l3 24q1 12 13 12h27q12 0 10 -12l-4 -28q-7 -59 -49.5 -91t-139.5 -32
q-163 0 -163 104q0 12 1 19l33 262q7 60 50 92t140 32z" />
    <glyph glyph-name="Ccaron" unicode="&#x10c;" horiz-adv-x="547" 
d="M517 198l-8 -65q-8 -66 -58 -103.5t-163 -37.5q-189 0 -189 119q0 8 2 24l50 412q8 66 57 103.5t163 37.5q190 0 190 -120q0 -7 -2 -23l-6 -50q-1 -13 -12 -13h-29q-13 0 -11 13l6 42q1 6 1 19q0 86 -141 86q-83 0 -120 -26.5t-44 -76.5l-48 -396q-1 -7 -1 -20
q0 -85 139 -85q153 0 165 103l7 57q1 11 13 11h28q13 0 11 -11zM328 866l49 -92l72 92q10 12 18 12h24q14 0 5 -12l-93 -115q-9 -11 -19 -11h-19q-11 0 -18 12l-64 114q-7 12 8 12h23q8 0 14 -12z" />
    <glyph glyph-name="ccaron" unicode="&#x10d;" horiz-adv-x="476" 
d="M269 696l49 -92l72 92q10 12 18 12h24q14 0 4 -12l-92 -115q-9 -11 -20 -11h-19q-10 0 -17 12l-65 114q-7 12 8 12h23q8 0 15 -12zM308 501q162 0 162 -105q0 -12 -1 -20l-3 -18q-1 -12 -13 -12h-27q-12 0 -10 11l2 17q1 7 1 16q0 67 -115 67q-69 0 -99 -21.5t-35 -61.5
l-32 -251q-1 -7 -1 -19q0 -68 115 -68q69 0 99 21t36 62l3 24q1 12 13 12h27q12 0 10 -12l-4 -28q-7 -59 -49.5 -91t-139.5 -32q-163 0 -163 104q0 12 1 19l33 262q7 60 50 92t140 32z" />
    <glyph glyph-name="Dcaron" unicode="&#x10e;" horiz-adv-x="599" 
d="M307 0h-200q-11 0 -10 12l81 656q2 12 13 12h195q195 0 195 -122q0 -17 -1 -24l-48 -393q-18 -141 -225 -141zM382 634h-155l-72 -588h155q155 0 169 103l47 379q1 7 1 19q0 87 -145 87zM329 866l49 -92l72 92q10 12 18 12h24q14 0 5 -12l-93 -115q-9 -11 -19 -11h-19
q-11 0 -18 12l-64 114q-7 12 8 12h23q8 0 14 -12z" />
    <glyph glyph-name="dcaron" unicode="&#x10f;" horiz-adv-x="554" 
d="M598 674l4 27q2 12 13 12h22q11 0 10 -12l-3 -29q-5 -48 -51 -114q-6 -9 -16 -6l-17 5q-10 3 -3 15q35 58 41 102zM386 12l3 41q-85 -61 -180 -61q-61 0 -93 27.5t-32 75.5q0 6 2 20l33 263q15 123 150 123q95 0 167 -61l30 247q2 12 13 12h29q12 0 10 -12l-83 -675
q-1 -12 -13 -12h-26q-12 0 -10 12zM170 371l-31 -248q-2 -14 -2 -16q0 -31 22.5 -49.5t67.5 -18.5q85 0 167 59l36 296q-67 60 -152 60q-50 0 -76.5 -23t-31.5 -60z" />
    <glyph glyph-name="Dcroat" unicode="&#x110;" horiz-adv-x="599" 
d="M307 0h-200q-11 0 -10 12l38 312h-75q-11 0 -10 12l2 18q1 11 14 11h74l38 303q2 12 13 12h195q195 0 195 -122q0 -17 -1 -24l-48 -393q-18 -141 -225 -141zM382 634h-155l-33 -269h140q11 0 10 -11l-1 -18q-3 -12 -14 -12h-140l-34 -278h155q155 0 169 103l47 379
q1 7 1 19q0 87 -145 87z" />
    <glyph glyph-name="dcroat" unicode="&#x111;" horiz-adv-x="520" 
d="M386 12l3 41q-85 -61 -180 -61q-61 0 -93 27.5t-32 75.5q0 6 2 20l33 263q15 123 150 123q95 0 167 -61l15 124h-165q-13 0 -12 12l2 15q2 12 13 12h167l10 84q2 12 13 12h29q12 0 10 -12l-10 -84h44q12 0 11 -12l-2 -15q-1 -12 -13 -12h-45l-68 -552q-1 -12 -13 -12h-26
q-12 0 -10 12zM170 371l-31 -248q-2 -14 -2 -16q0 -31 22.5 -49.5t67.5 -18.5q85 0 167 59l36 296q-67 60 -152 60q-50 0 -76.5 -23t-31.5 -60z" />
    <glyph glyph-name="Emacron" unicode="&#x112;" horiz-adv-x="527" 
d="M462 0h-354q-12 0 -11 12l81 656q2 12 13 12h342q11 0 10 -12l-3 -22q-1 -12 -13 -12h-300l-31 -254h282q11 0 10 -12l-2 -21q-2 -12 -14 -12h-281l-36 -289h311q12 0 11 -12l-3 -22q-1 -12 -12 -12zM238 820h256q6 0 9 -2.5t2 -7.5l-2 -19q-1 -12 -13 -12h-257
q-13 0 -11 12l2 18q1 11 14 11z" />
    <glyph glyph-name="emacron" unicode="&#x113;" horiz-adv-x="490" 
d="M472 377l-16 -124q-2 -11 -12 -11h-292l-15 -121q-2 -14 -2 -17q0 -70 118 -70q127 0 137 82l3 23q1 12 14 12h25q12 0 10 -12l-3 -24q-7 -59 -49.5 -91t-140.5 -32q-165 0 -165 105q0 12 1 18l33 262q7 59 51 91.5t140 32.5q164 0 164 -105q0 -13 -1 -19zM169 376
l-12 -94h253l12 91q1 5 1 16q0 70 -117 70q-127 0 -137 -83zM193 646h256q13 0 11 -11l-2 -19q-2 -12 -14 -12h-256q-12 0 -11 12l2 18q1 12 14 12z" />
    <glyph glyph-name="Ebreve" unicode="&#x114;" horiz-adv-x="527" 
d="M462 0h-354q-12 0 -11 12l81 656q2 12 13 12h342q11 0 10 -12l-3 -22q-1 -12 -13 -12h-300l-31 -254h282q11 0 10 -12l-2 -21q-2 -12 -14 -12h-281l-36 -289h311q12 0 11 -12l-3 -22q-1 -12 -12 -12zM300 871l-2 -19q-1 -9 -1 -19q0 -28 14.5 -40.5t52.5 -12.5
q44 0 61 19.5t20 58.5l1 13q1 11 13 11h17q12 0 10 -11l-1 -12q-5 -57 -32 -85.5t-92 -28.5q-105 0 -105 85q0 3 2 23l2 18q1 11 12 11h18q11 0 10 -11z" />
    <glyph glyph-name="ebreve" unicode="&#x115;" horiz-adv-x="490" 
d="M472 377l-16 -124q-2 -11 -12 -11h-292l-15 -121q-2 -14 -2 -17q0 -70 118 -70q127 0 137 82l3 23q1 12 14 12h25q12 0 10 -12l-3 -24q-7 -59 -49.5 -91t-140.5 -32q-165 0 -165 105q0 12 1 18l33 262q7 59 51 91.5t140 32.5q164 0 164 -105q0 -13 -1 -19zM169 376
l-12 -94h253l12 91q1 5 1 16q0 70 -117 70q-127 0 -137 -83zM251 683l-2 -19q-1 -9 -1 -19q0 -28 15 -41t52 -13q44 0 61 20t20 59l1 13q1 11 13 11h17q12 0 10 -11l-1 -12q-5 -57 -32 -85.5t-92 -28.5q-105 0 -105 85q0 3 2 23l2 18q1 11 12 11h18q11 0 10 -11z" />
    <glyph glyph-name="Edotaccent" unicode="&#x116;" horiz-adv-x="527" 
d="M398 838l-9 -77q-1 -11 -13 -11h-29q-12 0 -11 11l9 77q1 12 13 12h30q11 0 10 -12zM462 0h-354q-12 0 -11 12l81 656q2 12 13 12h342q11 0 10 -12l-3 -22q-1 -12 -13 -12h-300l-31 -254h282q11 0 10 -12l-2 -21q-2 -12 -14 -12h-281l-36 -289h311q12 0 11 -12l-3 -22
q-1 -12 -12 -12z" />
    <glyph glyph-name="edotaccent" unicode="&#x117;" horiz-adv-x="490" 
d="M472 377l-16 -124q-2 -11 -12 -11h-292l-15 -121q-2 -14 -2 -17q0 -70 118 -70q127 0 137 82l3 23q1 12 14 12h25q12 0 10 -12l-3 -24q-7 -59 -49.5 -91t-140.5 -32q-165 0 -165 105q0 12 1 18l33 262q7 59 51 91.5t140 32.5q164 0 164 -105q0 -13 -1 -19zM169 376
l-12 -94h253l12 91q1 5 1 16q0 70 -117 70q-127 0 -137 -83z" />
    <glyph glyph-name="Eogonek" unicode="&#x118;" horiz-adv-x="527" 
d="M462 0h-27q-35 0 -53 -20.5t-18 -47.5q0 -43 56 -43h30q14 0 12 -12l-2 -14q0 -12 -14 -12h-38q-38 0 -62 17.5t-24 54.5q0 46 39 77h-253q-12 0 -11 12l81 656q2 12 13 12h342q11 0 10 -12l-3 -22q-1 -12 -13 -12h-300l-31 -254h282q11 0 10 -12l-2 -21q-2 -12 -14 -12
h-281l-36 -289h311q12 0 11 -12l-3 -22q0 -12 -12 -12z" />
    <glyph glyph-name="eogonek" unicode="&#x119;" horiz-adv-x="490" 
d="M472 377l-16 -124q-2 -11 -12 -11h-292l-15 -121q-2 -14 -2 -17q0 -70 118 -70q127 0 137 82l3 23q1 12 14 12h25q12 0 10 -12l-3 -24q-7 -57 -51 -91q-18 -14 -27 -22.5t-20 -27t-11 -38.5q0 -47 61 -47h30q13 0 12 -12l-1 -14q-1 -12 -15 -12h-39q-39 0 -64 18.5
t-25 56.5q0 39 26 71q-32 -5 -66 -5q-165 0 -165 105q0 12 1 18l33 262q7 59 51 91.5t140 32.5q164 0 164 -105q0 -13 -1 -19zM169 376l-12 -94h253l12 91q1 5 1 16q0 70 -117 70q-127 0 -137 -83z" />
    <glyph glyph-name="Ecaron" unicode="&#x11a;" horiz-adv-x="527" 
d="M462 0h-354q-12 0 -11 12l81 656q2 12 13 12h342q11 0 10 -12l-3 -22q-1 -12 -13 -12h-300l-31 -254h282q11 0 10 -12l-2 -21q-2 -12 -14 -12h-281l-36 -289h311q12 0 11 -12l-3 -22q-1 -12 -12 -12zM315 866l49 -92l72 92q10 12 18 12h24q14 0 5 -12l-93 -115
q-9 -11 -19 -11h-19q-11 0 -18 12l-64 114q-7 12 8 12h23q8 0 14 -12z" />
    <glyph glyph-name="ecaron" unicode="&#x11b;" horiz-adv-x="490" 
d="M263 696l49 -92l72 92q10 12 18 12h24q14 0 4 -12l-92 -115q-9 -11 -20 -11h-19q-10 0 -17 12l-65 114q-7 12 8 12h23q8 0 15 -12zM472 377l-16 -124q-2 -11 -12 -11h-292l-15 -121q-2 -14 -2 -17q0 -70 118 -70q127 0 137 82l3 23q1 12 14 12h25q12 0 10 -12l-3 -24
q-7 -59 -49.5 -91t-140.5 -32q-165 0 -165 105q0 12 1 18l33 262q7 59 51 91.5t140 32.5q164 0 164 -105q0 -13 -1 -19zM169 376l-12 -94h253l12 91q1 5 1 16q0 70 -117 70q-127 0 -137 -83z" />
    <glyph glyph-name="Gcircumflex" unicode="&#x11c;" horiz-adv-x="563" 
d="M391 844l-72 -92q-10 -12 -17 -12h-24q-14 0 -5 12l91 114q10 12 21 12h19q10 0 17 -11l65 -115q7 -12 -8 -12h-22q-10 0 -16 12zM336 319h184q12 0 10 -12l-21 -174q-16 -141 -221 -141q-189 0 -189 119q0 8 2 24l50 412q8 66 57 103.5t163 37.5q190 0 190 -121
q0 -7 -2 -23l-6 -47q-1 -12 -12 -12h-29q-12 0 -10 12l5 42q1 10 1 18q0 85 -140 85q-83 0 -121 -26.5t-44 -76.5l-48 -396q-2 -18 -2 -20q0 -85 139 -85q84 0 121 26t44 75l17 134h-143q-11 0 -10 12l2 22q1 12 13 12z" />
    <glyph glyph-name="gcircumflex" unicode="&#x11d;" horiz-adv-x="520" 
d="M335 674l-72 -92q-10 -12 -17 -12h-24q-15 0 -6 12l92 114q9 12 20 12h20q10 0 17 -11l64 -115q7 -12 -7 -12h-22q-10 0 -16 12zM210 -8q-62 0 -94 28t-32 77q0 6 2 18l33 263q15 123 151 123q97 0 167 -62l7 41q3 13 13 13h26q12 0 10 -13l-69 -564q-7 -60 -51.5 -92
t-142.5 -32h-135q-13 0 -11 12l3 21q1 12 13 12h135q127 0 137 83l16 132q-83 -60 -178 -60zM170 371l-31 -247q-2 -12 -2 -16q0 -69 90 -69q85 0 167 59l37 296q-70 60 -153 60q-50 0 -76.5 -23t-31.5 -60z" />
    <glyph glyph-name="Gbreve" unicode="&#x11e;" horiz-adv-x="563" 
d="M336 319h184q12 0 10 -12l-21 -174q-16 -141 -221 -141q-189 0 -189 119q0 8 2 24l50 412q8 66 57 103.5t163 37.5q190 0 190 -121q0 -7 -2 -23l-6 -47q-1 -12 -12 -12h-29q-12 0 -10 12l5 42q1 10 1 18q0 85 -140 85q-83 0 -121 -26.5t-44 -76.5l-48 -396q-2 -18 -2 -20
q0 -85 139 -85q84 0 121 26t44 75l17 134h-143q-11 0 -10 12l2 22q1 12 13 12zM310 871l-2 -19q-1 -9 -1 -19q0 -28 14.5 -40.5t52.5 -12.5q44 0 61 19.5t20 58.5l1 13q1 11 13 11h17q12 0 10 -11l-1 -12q-5 -57 -32 -85.5t-92 -28.5q-105 0 -105 85q0 3 2 23l2 18
q1 11 12 11h18q11 0 10 -11z" />
    <glyph glyph-name="gbreve" unicode="&#x11f;" horiz-adv-x="520" 
d="M210 -8q-62 0 -94 28t-32 77q0 6 2 18l33 263q15 123 151 123q97 0 167 -62l7 41q3 13 13 13h26q12 0 10 -13l-69 -564q-7 -60 -51.5 -92t-142.5 -32h-135q-13 0 -11 12l3 21q1 12 13 12h135q127 0 137 83l16 132q-83 -60 -178 -60zM170 371l-31 -247q-2 -12 -2 -16
q0 -69 90 -69q85 0 167 59l37 296q-70 60 -153 60q-50 0 -76.5 -23t-31.5 -60zM254 683l-2 -19q-1 -9 -1 -19q0 -28 15 -41t52 -13q44 0 61 20t20 59l1 13q1 11 13 11h17q12 0 10 -11l-1 -12q-5 -57 -32 -85.5t-92 -28.5q-105 0 -105 85q0 3 2 23l2 18q1 11 12 11h18
q11 0 10 -11z" />
    <glyph glyph-name="Gdotaccent" unicode="&#x120;" horiz-adv-x="563" 
d="M402 838l-9 -77q-1 -11 -13 -11h-29q-12 0 -11 11l9 77q1 12 13 12h30q11 0 10 -12zM336 319h184q12 0 10 -12l-21 -174q-16 -141 -221 -141q-189 0 -189 119q0 8 2 24l50 412q8 66 57 103.5t163 37.5q190 0 190 -121q0 -7 -2 -23l-6 -47q-1 -12 -12 -12h-29
q-12 0 -10 12l5 42q1 10 1 18q0 85 -140 85q-83 0 -121 -26.5t-44 -76.5l-48 -396q-2 -18 -2 -20q0 -85 139 -85q84 0 121 26t44 75l17 134h-143q-11 0 -10 12l2 22q1 12 13 12z" />
    <glyph glyph-name="gdotaccent" unicode="&#x121;" horiz-adv-x="520" 
d="M210 -8q-62 0 -94 28t-32 77q0 6 2 18l33 263q15 123 151 123q97 0 167 -62l7 41q3 13 13 13h26q12 0 10 -13l-69 -564q-7 -60 -51.5 -92t-142.5 -32h-135q-13 0 -11 12l3 21q1 12 13 12h135q127 0 137 83l16 132q-83 -60 -178 -60zM170 371l-31 -247q-2 -12 -2 -16
q0 -69 90 -69q85 0 167 59l37 296q-70 60 -153 60q-50 0 -76.5 -23t-31.5 -60z" />
    <glyph glyph-name="Gcommaaccent" unicode="&#x122;" horiz-adv-x="563" 
d="M259 -89l4 27q1 12 13 12h22q12 0 10 -12l-3 -29q-5 -48 -51 -114q-6 -9 -16 -6l-17 5q-10 3 -3 15q35 58 41 102zM336 319h184q12 0 10 -12l-21 -174q-16 -141 -221 -141q-189 0 -189 119q0 8 2 24l50 412q8 66 57 103.5t163 37.5q190 0 190 -121q0 -7 -2 -23l-6 -47
q-1 -12 -12 -12h-29q-12 0 -10 12l5 42q1 10 1 18q0 85 -140 85q-83 0 -121 -26.5t-44 -76.5l-48 -396q-2 -18 -2 -20q0 -85 139 -85q84 0 121 26t44 75l17 134h-143q-11 0 -10 12l2 22q1 12 13 12z" />
    <glyph glyph-name="gcommaaccent" unicode="&#x123;" horiz-adv-x="520" 
d="M338 612l-4 -27q-2 -12 -13 -12h-22q-11 0 -10 12l3 29q5 48 51 114q6 9 16 6l17 -5q10 -3 3 -15q-35 -58 -41 -102zM210 -8q-62 0 -94 28t-32 77q0 6 2 18l33 263q15 123 151 123q97 0 167 -62l7 41q3 13 13 13h26q12 0 10 -13l-69 -564q-7 -60 -51.5 -92t-142.5 -32
h-135q-13 0 -11 12l3 21q1 12 13 12h135q127 0 137 83l16 132q-83 -60 -178 -60zM170 371l-31 -247q-2 -12 -2 -16q0 -69 90 -69q85 0 167 59l37 296q-70 60 -153 60q-50 0 -76.5 -23t-31.5 -60z" />
    <glyph glyph-name="Hcircumflex" unicode="&#x124;" horiz-adv-x="610" 
d="M231 668l-34 -282h311l34 282q2 12 14 12h30q12 0 10 -12l-81 -656q-1 -12 -12 -12h-30q-13 0 -11 12l41 328h-312l-41 -328q-2 -12 -12 -12h-30q-12 0 -11 12l81 656q2 12 13 12h30q11 0 10 -12zM402 844l-72 -92q-10 -12 -17 -12h-24q-14 0 -5 12l91 114q10 12 21 12
h19q10 0 17 -11l65 -115q7 -12 -8 -12h-22q-10 0 -16 12z" />
    <glyph glyph-name="hcircumflex" unicode="&#x125;" horiz-adv-x="525" 
d="M221 687l-31 -247q81 61 179 61q61 0 93 -28t32 -75q0 -7 -1 -17l-45 -369q-2 -12 -13 -12h-29q-12 0 -10 12l44 359q1 8 1 14q0 69 -89 69q-88 0 -167 -60l-47 -382q-2 -12 -13 -12h-29q-11 0 -10 12l83 675q1 12 13 12h29q11 0 10 -12zM212 844l-72 -92
q-10 -12 -17 -12h-24q-14 0 -5 12l91 114q10 12 21 12h19q10 0 17 -11l65 -115q7 -12 -8 -12h-22q-10 0 -16 12z" />
    <glyph glyph-name="Hbar" unicode="&#x126;" horiz-adv-x="610" 
d="M231 668l-16 -128h311l16 128q2 12 14 12h30q12 0 10 -12l-16 -128h38q12 0 11 -12l-2 -15q0 -12 -12 -12h-40l-60 -489q-1 -12 -12 -12h-30q-13 0 -11 12l41 328h-312l-41 -328q-2 -12 -12 -12h-30q-12 0 -11 12l60 489h-36q-12 0 -12 12l2 15q1 12 13 12h38l16 128
q2 12 13 12h30q11 0 10 -12zM197 386h311l14 115h-311z" />
    <glyph glyph-name="hbar" unicode="&#x127;" horiz-adv-x="525" 
d="M221 687l-11 -84h165q12 0 11 -11l-2 -16q-2 -12 -12 -12h-167l-15 -124q81 61 179 61q61 0 93 -28t32 -75q0 -7 -1 -17l-45 -369q-2 -12 -13 -12h-29q-12 0 -10 12l44 359q1 8 1 14q0 69 -89 69q-88 0 -167 -60l-47 -382q-2 -12 -13 -12h-29q-11 0 -10 12l68 552h-45
q-13 0 -11 12l1 16q1 11 13 11h47l10 84q1 12 13 12h29q11 0 10 -12z" />
    <glyph glyph-name="Itilde" unicode="&#x128;" horiz-adv-x="245" 
d="M231 668l-81 -656q-2 -12 -12 -12h-30q-12 0 -11 12l81 656q2 12 13 12h30q11 0 10 -12zM154 828q-18 0 -25 -10.5t-11 -38.5l-2 -14q-3 -11 -14 -11h-16q-11 0 -9 14l4 20q13 81 74 81q28 0 52 -21l40 -36q18 -16 32 -16q18 0 25 11t12 43l1 9q1 11 14 11h16q11 0 9 -13
l-3 -20q-13 -82 -75 -82q-27 0 -52 22l-41 36q-19 15 -31 15z" />
    <glyph glyph-name="itilde" unicode="&#x129;" horiz-adv-x="221" 
d="M196 481l-58 -469q-2 -12 -13 -12h-29q-11 0 -10 12l58 469q2 12 13 12h28q13 0 11 -12zM122 654q-18 0 -25 -10.5t-11 -39.5l-2 -13q-1 -11 -14 -11h-16q-11 0 -9 13l4 20q14 82 74 82q27 0 52 -22l40 -36q20 -16 32 -16q18 0 25 11t12 43l1 9q1 11 14 11h16q12 0 9 -13
l-3 -19q-12 -82 -74 -82q-27 0 -53 21l-41 36q-20 16 -31 16z" />
    <glyph glyph-name="Imacron" unicode="&#x12a;" horiz-adv-x="245" 
d="M231 668l-81 -656q-2 -12 -12 -12h-30q-12 0 -11 12l81 656q2 12 13 12h30q11 0 10 -12zM92 820h256q6 0 9 -2.5t2 -7.5l-2 -19q-1 -12 -13 -12h-257q-13 0 -11 12l2 18q1 11 14 11z" />
    <glyph glyph-name="imacron" unicode="&#x12b;" horiz-adv-x="221" 
d="M196 481l-58 -469q-2 -12 -13 -12h-29q-11 0 -10 12l58 469q2 12 13 12h28q13 0 11 -12zM64 646h256q13 0 11 -11l-2 -19q-1 -12 -14 -12h-256q-13 0 -11 12l2 18q2 12 14 12z" />
    <glyph glyph-name="Ibreve" unicode="&#x12c;" horiz-adv-x="245" 
d="M231 668l-81 -656q-2 -12 -12 -12h-30q-12 0 -11 12l81 656q2 12 13 12h30q11 0 10 -12zM150 871l-2 -19q-1 -9 -1 -19q0 -28 14.5 -40.5t52.5 -12.5q44 0 61 19.5t20 58.5l1 13q1 11 13 11h17q12 0 10 -11l-1 -12q-5 -57 -32 -85.5t-92 -28.5q-105 0 -105 85q0 3 2 23
l2 18q1 11 12 11h18q11 0 10 -11z" />
    <glyph glyph-name="ibreve" unicode="&#x12d;" horiz-adv-x="221" 
d="M196 481l-58 -469q-2 -12 -13 -12h-29q-11 0 -10 12l58 469q2 12 13 12h28q13 0 11 -12zM118 683l-2 -19q-1 -9 -1 -19q0 -28 15 -41t52 -13q44 0 61 20t20 59l1 13q1 11 13 11h17q12 0 10 -11l-1 -12q-5 -57 -32 -85.5t-92 -28.5q-105 0 -105 85q0 3 2 23l2 18
q1 11 12 11h18q11 0 10 -11z" />
    <glyph glyph-name="Iogonek" unicode="&#x12e;" horiz-adv-x="245" 
d="M231 668l-81 -656q-2 -12 -12 -12h-6q-34 -6 -52 -27t-18 -44q0 -40 56 -40h22q14 0 12 -12l-1 -14q-1 -12 -14 -12h-31q-37 0 -61.5 16.5t-24.5 52.5q0 68 79 104l79 644q2 12 13 12h30q11 0 10 -12z" />
    <glyph glyph-name="iogonek" unicode="&#x12f;" horiz-adv-x="221" 
d="M196 480l-58 -468q-2 -12 -13 -12h-4q-35 -6 -53.5 -27.5t-18.5 -44.5q0 -39 57 -39h22q14 0 12 -12l-2 -14q-1 -12 -14 -12h-30q-37 0 -61.5 16.5t-24.5 52.5q0 32 21.5 59.5t58.5 45.5l56 455q2 13 13 13h28q12 0 11 -13zM221 687l-12 -95q-1 -12 -13 -12h-29
q-11 0 -10 12l12 95q1 12 13 12h29q11 0 10 -12z" />
    <glyph glyph-name="Idotaccent" unicode="&#x130;" horiz-adv-x="245" 
d="M231 668l-81 -656q-2 -12 -12 -12h-30q-12 0 -11 12l81 656q2 12 13 12h30q11 0 10 -12zM252 838l-9 -77q-1 -11 -13 -11h-29q-12 0 -11 11l9 77q1 12 13 12h30q11 0 10 -12z" />
    <glyph glyph-name="dotlessi" unicode="&#x131;" horiz-adv-x="221" 
d="M196 481l-58 -469q-2 -12 -13 -12h-29q-11 0 -10 12l58 469q2 12 13 12h28q13 0 11 -12z" />
    <glyph glyph-name="IJ" unicode="&#x132;" horiz-adv-x="737" 
d="M231 668l-81 -656q-2 -12 -12 -12h-30q-12 0 -11 12l81 656q2 12 13 12h30q11 0 10 -12zM352 174l-4 -32q-2 -14 -2 -23q0 -40 27 -60.5t94 -20.5q74 0 104.5 26t37.5 77l65 527q2 12 13 12h30q11 0 10 -12l-65 -535q-9 -67 -52 -104t-147 -37q-170 0 -170 118q0 9 2 27
l4 37q1 12 14 12h29q12 0 10 -12z" />
    <glyph glyph-name="ij" unicode="&#x133;" horiz-adv-x="441" 
d="M196 480l-58 -468q-2 -12 -13 -12h-29q-11 0 -10 12l58 468q2 13 13 13h28q12 0 11 -13zM221 687l-12 -95q-1 -12 -13 -12h-29q-11 0 -10 12l12 95q1 12 13 12h29q11 0 10 -12zM441 687l-13 -95q-2 -12 -12 -12h-28q-12 0 -11 12l12 95q1 12 12 12h29q12 0 11 -12z
M415 480l-70 -564q-7 -60 -51 -92t-140 -32h-6q-12 0 -11 12l3 21q2 12 13 12h5q126 0 136 83l69 560q2 13 13 13h29q12 0 10 -13z" />
    <glyph glyph-name="Jcircumflex" unicode="&#x134;" horiz-adv-x="492" 
d="M107 174l-4 -32q-2 -14 -2 -23q0 -40 27 -60.5t94 -20.5q74 0 104.5 26t37.5 77l65 527q1 12 13 12h30q12 0 10 -12l-65 -535q-9 -67 -52 -104t-147 -37q-170 0 -170 118q0 9 2 27l4 37q1 12 14 12h29q11 0 10 -12zM471 844l-72 -92q-10 -12 -17 -12h-24q-14 0 -5 12
l91 114q10 12 21 12h19q10 0 17 -11l65 -115q7 -12 -8 -12h-22q-10 0 -16 12z" />
    <glyph glyph-name="jcircumflex" unicode="&#x135;" horiz-adv-x="220" 
d="M194 481l-70 -566q-7 -60 -51 -91.5t-140 -31.5h-7q-11 0 -10 12l2 20q2 12 13 12h5q127 0 137 83l69 562q2 12 13 12h29q12 0 10 -12zM184 674l-72 -92q-10 -12 -17 -12h-24q-15 0 -6 12l92 114q9 12 20 12h20q10 0 17 -11l64 -115q7 -12 -7 -12h-22q-10 0 -16 12z" />
    <glyph glyph-name="Kcommaaccent" unicode="&#x136;" horiz-adv-x="539" 
d="M239 -89l4 27q1 12 13 12h22q12 0 10 -12l-3 -29q-5 -48 -51 -114q-6 -9 -16 -6l-17 5q-10 3 -3 15q35 58 41 102zM271 345l248 -333q3 -4 0.5 -8t-7.5 -4h-38q-10 0 -19 12l-231 308h-36l-38 -308q-2 -12 -12 -12h-30q-12 0 -11 12l80 656q1 12 14 12h30q11 0 10 -12
l-37 -307h32l285 308q9 11 21 11h34q14 0 4 -12z" />
    <glyph glyph-name="kcommaaccent" unicode="&#x137;" horiz-adv-x="450" 
d="M209 -89l4 27q1 12 13 12h22q12 0 10 -12l-3 -29q-5 -48 -51 -114q-6 -9 -16 -6l-17 5q-10 3 -3 15q35 58 41 102zM433 0h-33q-9 0 -18 12l-177 245h-38l-30 -245q-1 -12 -13 -12h-29q-12 0 -10 12l83 675q2 12 13 12h29q12 0 10 -12l-48 -389h34l206 183q14 12 20 12h35
q7 0 8 -4t-3 -8l-223 -201l191 -268q3 -4 0.5 -8t-7.5 -4z" />
    <glyph glyph-name="kgreenlandic" unicode="&#x138;" horiz-adv-x="450" 
d="M433 0h-33q-9 0 -18 12l-177 245h-38l-30 -245q-1 -12 -13 -12h-29q-12 0 -10 12l58 469q1 12 14 12h28q12 0 10 -12l-23 -183h34l206 183q14 12 20 12h35q7 0 8 -4t-3 -8l-223 -201l191 -268q3 -4 0.5 -8t-7.5 -4z" />
    <glyph glyph-name="Lacute" unicode="&#x139;" horiz-adv-x="494" 
d="M333 866l-94 -119q-7 -7 -15 -7h-26q-11 0 -4 11l86 117q7 10 16 10h33q14 0 4 -12zM231 668l-76 -622h295q12 0 11 -12l-3 -22q-1 -12 -13 -12h-338q-11 0 -10 12l81 656q2 12 13 12h30q11 0 10 -12z" />
    <glyph glyph-name="lacute" unicode="&#x13a;" horiz-adv-x="221" 
d="M321 866l-94 -119q-7 -7 -15 -7h-26q-11 0 -4 11l86 117q7 10 16 10h33q14 0 4 -12zM220 687l-82 -675q-2 -12 -13 -12h-29q-12 0 -10 12l82 675q2 12 14 12h29q11 0 9 -12z" />
    <glyph glyph-name="Lcommaaccent" unicode="&#x13b;" horiz-adv-x="494" 
d="M237 -89l4 27q1 12 13 12h22q12 0 10 -12l-3 -29q-5 -48 -51 -114q-6 -9 -16 -6l-17 5q-10 3 -3 15q35 58 41 102zM231 668l-76 -622h295q12 0 11 -12l-3 -22q-1 -12 -13 -12h-338q-11 0 -10 12l81 656q2 12 13 12h30q11 0 10 -12z" />
    <glyph glyph-name="lcommaaccent" unicode="&#x13c;" horiz-adv-x="221" 
d="M76 -89l4 27q2 12 13 12h22q11 0 10 -12l-3 -29q-5 -48 -51 -114q-6 -9 -16 -6l-17 5q-10 3 -3 15q35 58 41 102zM220 687l-82 -675q-2 -12 -13 -12h-29q-12 0 -10 12l82 675q2 12 14 12h29q11 0 9 -12z" />
    <glyph glyph-name="Lcaron" unicode="&#x13d;" horiz-adv-x="494" 
d="M398 659l4 27q2 12 13 12h22q11 0 10 -12l-3 -29q-5 -48 -51 -114q-6 -9 -16 -6l-17 5q-10 3 -3 15q35 58 41 102zM231 668l-76 -622h295q12 0 11 -12l-3 -22q-1 -12 -13 -12h-338q-11 0 -10 12l81 656q2 12 13 12h30q11 0 10 -12z" />
    <glyph glyph-name="lcaron" unicode="&#x13e;" horiz-adv-x="255" 
d="M300 674l4 27q2 12 13 12h22q11 0 10 -12l-3 -29q-5 -48 -51 -114q-6 -9 -16 -6l-17 5q-10 3 -3 15q35 58 41 102zM220 687l-82 -675q-2 -12 -13 -12h-29q-12 0 -10 12l82 675q2 12 14 12h29q11 0 9 -12z" />
    <glyph glyph-name="Ldot" unicode="&#x13f;" horiz-adv-x="494" 
d="M231 668l-76 -622h295q12 0 11 -12l-3 -22q-1 -12 -13 -12h-338q-11 0 -10 12l81 656q2 12 13 12h30q11 0 10 -12zM435 393l-9 -77q-1 -12 -13 -12h-29q-12 0 -11 12l9 77q2 12 13 12h31q10 0 9 -12z" />
    <glyph glyph-name="ldot" unicode="&#x140;" horiz-adv-x="282" 
d="M220 687l-82 -675q-2 -12 -13 -12h-29q-12 0 -10 12l82 675q2 12 14 12h29q11 0 9 -12zM316 393l-9 -77q-1 -12 -13 -12h-29q-12 0 -11 12l9 77q1 12 13 12h31q11 0 9 -12z" />
    <glyph glyph-name="Lslash" unicode="&#x141;" horiz-adv-x="494" 
d="M231 668l-37 -297l68 26q9 3 14 -6l4 -12q3 -10 -9 -15l-81 -32l-35 -286h295q12 0 11 -12l-3 -22q-1 -12 -13 -12h-338q-11 0 -10 12l37 298l-65 -25q-11 -3 -14 7l-4 10q-3 11 8 16l79 31l40 319q2 12 13 12h30q11 0 10 -12z" />
    <glyph glyph-name="lslash" unicode="&#x142;" horiz-adv-x="221" 
d="M220 687l-39 -316l67 26q11 4 14 -6l4 -12q3 -10 -9 -15l-80 -31l-39 -321q-2 -12 -13 -12h-29q-12 0 -10 12l36 299l-67 -26q-11 -3 -14 7l-3 11q-3 10 8 15l81 31l41 338q2 12 14 12h29q11 0 9 -12z" />
    <glyph glyph-name="Nacute" unicode="&#x143;" horiz-adv-x="609" 
d="M512 866l-94 -119q-7 -7 -15 -7h-26q-11 0 -4 11l86 117q7 10 16 10h33q14 0 4 -12zM593 668l-80 -656q-1 -12 -13 -12h-25q-8 0 -11 6l-224 509q-10 25 -23 61l-70 -564q-1 -12 -12 -12h-27q-12 0 -11 12l80 656q1 12 14 12h24q8 0 10 -5l226 -513q20 -47 23 -57l69 563
q1 12 14 12h26q11 0 10 -12z" />
    <glyph glyph-name="nacute" unicode="&#x144;" horiz-adv-x="525" 
d="M466 696l-94 -119q-7 -7 -15 -7h-26q-13 0 -5 11l87 117q7 10 16 10h33q14 0 4 -12zM157 493h25q12 0 11 -12l-3 -42q80 62 179 62q61 0 93.5 -28t32.5 -75q0 -9 -1 -19l-46 -367q-2 -12 -13 -12h-29q-11 0 -10 12l44 357q2 14 2 15q0 70 -89 70t-168 -60l-47 -382
q-2 -12 -13 -12h-29q-11 0 -10 12l58 469q2 12 13 12z" />
    <glyph glyph-name="Ncommaaccent" unicode="&#x145;" horiz-adv-x="609" 
d="M276 -89l4 27q2 12 13 12h22q11 0 10 -12l-3 -29q-5 -48 -51 -114q-6 -9 -16 -6l-17 5q-10 3 -3 15q35 58 41 102zM593 668l-80 -656q-1 -12 -13 -12h-25q-8 0 -11 6l-224 509q-10 25 -23 61l-70 -564q-1 -12 -12 -12h-27q-12 0 -11 12l80 656q1 12 14 12h24q8 0 10 -5
l226 -513q20 -47 23 -57l69 563q1 12 14 12h26q11 0 10 -12z" />
    <glyph glyph-name="ncommaaccent" unicode="&#x146;" horiz-adv-x="525" 
d="M234 -89l4 27q2 12 13 12h22q11 0 10 -12l-3 -29q-5 -48 -51 -114q-6 -9 -16 -6l-17 5q-10 3 -3 15q35 58 41 102zM157 493h25q12 0 11 -12l-3 -42q80 62 179 62q61 0 93.5 -28t32.5 -75q0 -9 -1 -19l-46 -367q-2 -12 -13 -12h-29q-11 0 -10 12l44 357q2 14 2 15
q0 70 -89 70t-168 -60l-47 -382q-2 -12 -13 -12h-29q-11 0 -10 12l58 469q2 12 13 12z" />
    <glyph glyph-name="Ncaron" unicode="&#x147;" horiz-adv-x="609" 
d="M593 668l-80 -656q-1 -12 -13 -12h-25q-8 0 -11 6l-224 509q-10 25 -23 61l-70 -564q-1 -12 -12 -12h-27q-12 0 -11 12l80 656q1 12 14 12h24q8 0 10 -5l226 -513l23 -57l69 563q1 12 14 12h26q11 0 10 -12zM341 866l49 -92l72 92q10 12 18 12h24q14 0 5 -12l-93 -115
q-9 -11 -19 -11h-19q-11 0 -18 12l-64 114q-7 12 8 12h23q8 0 14 -12z" />
    <glyph glyph-name="ncaron" unicode="&#x148;" horiz-adv-x="525" 
d="M290 696l49 -92l72 92q10 12 18 12h24q14 0 4 -12l-92 -115q-9 -11 -20 -11h-19q-10 0 -17 12l-65 114q-7 12 8 12h23q8 0 15 -12zM157 493h25q12 0 11 -12l-3 -42q80 62 179 62q61 0 93.5 -28t32.5 -75q0 -9 -1 -19l-46 -367q-2 -12 -13 -12h-29q-11 0 -10 12l44 357
q2 14 2 15q0 70 -89 70t-168 -60l-47 -382q-2 -12 -13 -12h-29q-11 0 -10 12l58 469q2 12 13 12z" />
    <glyph glyph-name="napostrophe" unicode="&#x149;" horiz-adv-x="525" 
d="M163 674l4 27q1 12 13 12h22q12 0 10 -12l-3 -29q-5 -48 -51 -114q-6 -9 -16 -6l-17 5q-10 3 -3 15q35 58 41 102zM157 493h25q12 0 11 -12l-3 -42q80 62 179 62q61 0 93.5 -28t32.5 -75q0 -9 -1 -19l-46 -367q-2 -12 -13 -12h-29q-11 0 -10 12l44 357q2 14 2 15
q0 70 -89 70t-168 -60l-47 -382q-2 -12 -13 -12h-29q-11 0 -10 12l58 469q2 12 13 12z" />
    <glyph glyph-name="Eng" unicode="&#x14a;" horiz-adv-x="609" 
d="M593 668l-93 -753q-7 -60 -51 -91.5t-140 -31.5h-6q-12 0 -11 12l3 20q1 12 13 12h5q128 0 138 83l11 91l-222 505q-10 25 -23 61l-70 -564q-1 -12 -12 -12h-27q-12 0 -11 12l80 656q1 12 14 12h24q8 0 10 -5l226 -513q22 -51 23 -57l69 563q1 12 14 12h26q11 0 10 -12z
" />
    <glyph glyph-name="eng" unicode="&#x14b;" horiz-adv-x="525" 
d="M493 380l-57 -465q-7 -60 -51 -91.5t-140 -31.5h-6q-12 0 -11 12l2 20q2 12 13 12h5q127 0 137 83l55 451q1 5 1 15q0 70 -88 70q-89 0 -168 -60l-47 -383q-2 -12 -13 -12h-29q-11 0 -10 12l58 469q2 12 12 12h26q12 0 11 -12l-4 -42q83 62 180 62q61 0 93.5 -28
t32.5 -74q0 -7 -2 -19z" />
    <glyph glyph-name="Omacron" unicode="&#x14c;" horiz-adv-x="587" 
d="M101 135l50 412q16 141 224 141q195 0 195 -122q0 -14 -1 -21l-51 -412q-16 -141 -225 -141q-194 0 -194 120q0 7 2 23zM466 141l49 396q1 6 1 18q0 87 -145 87q-154 0 -168 -103l-48 -396q-2 -16 -2 -18q0 -87 144 -87q155 0 169 103zM264 820h256q6 0 9 -2.5t2 -7.5
l-2 -19q-1 -12 -13 -12h-257q-13 0 -11 12l2 18q1 11 14 11z" />
    <glyph glyph-name="omacron" unicode="&#x14d;" horiz-adv-x="508" 
d="M203 646h256q13 0 11 -11l-2 -19q-2 -12 -14 -12h-256q-12 0 -11 12l2 18q1 12 14 12zM85 115l33 262q15 124 195 124q168 0 168 -106q0 -9 -1 -18l-33 -262q-15 -123 -195 -123q-168 0 -168 106q0 11 1 17zM396 119l32 255q1 8 1 12q0 71 -120 71q-129 0 -139 -83
l-32 -255q-1 -5 -1 -13q0 -35 27.5 -52.5t92.5 -17.5q129 0 139 83z" />
    <glyph glyph-name="Obreve" unicode="&#x14e;" horiz-adv-x="587" 
d="M101 135l50 412q16 141 224 141q195 0 195 -122q0 -14 -1 -21l-51 -412q-16 -141 -225 -141q-194 0 -194 120q0 7 2 23zM466 141l49 396q1 6 1 18q0 87 -145 87q-154 0 -168 -103l-48 -396q-2 -16 -2 -18q0 -87 144 -87q155 0 169 103zM330 871l-2 -19q-1 -9 -1 -19
q0 -28 14.5 -40.5t52.5 -12.5q44 0 61 19.5t20 58.5l1 13q1 11 13 11h17q12 0 10 -11l-1 -12q-5 -57 -32 -85.5t-92 -28.5q-105 0 -105 85q0 3 2 23l2 18q1 11 12 11h18q11 0 10 -11z" />
    <glyph glyph-name="obreve" unicode="&#x14f;" horiz-adv-x="508" 
d="M85 115l33 262q15 124 195 124q168 0 168 -106q0 -9 -1 -18l-33 -262q-15 -123 -195 -123q-168 0 -168 106q0 11 1 17zM396 119l32 255q1 8 1 12q0 71 -120 71q-129 0 -139 -83l-32 -255q-1 -5 -1 -13q0 -35 27.5 -52.5t92.5 -17.5q129 0 139 83zM262 683l-2 -19
q-1 -9 -1 -19q0 -28 15 -41t52 -13q44 0 61 20t20 59l1 13q1 11 13 11h17q12 0 10 -11l-1 -12q-5 -57 -32 -85.5t-92 -28.5q-105 0 -105 85q0 3 2 23l2 18q1 11 12 11h18q11 0 10 -11z" />
    <glyph glyph-name="Ohungarumlaut" unicode="&#x150;" horiz-adv-x="587" 
d="M546 866l-93 -116q-8 -10 -18 -10h-23q-13 0 -4 12l87 114q10 12 19 12h27q14 0 5 -12zM442 866l-77 -114q-9 -12 -18 -12h-22q-12 0 -5 12l72 114q7 12 18 12h26q15 0 6 -12zM101 135l50 412q16 141 224 141q195 0 195 -122q0 -14 -1 -21l-51 -412q-16 -141 -225 -141
q-194 0 -194 120q0 7 2 23zM466 141l49 396q1 6 1 18q0 87 -145 87q-154 0 -168 -103l-48 -396q-2 -16 -2 -18q0 -87 144 -87q155 0 169 103z" />
    <glyph glyph-name="ohungarumlaut" unicode="&#x151;" horiz-adv-x="508" 
d="M482 696l-93 -116q-7 -10 -18 -10h-22q-6 0 -7.5 4t2.5 8l87 114q9 12 20 12h27q13 0 4 -12zM380 696l-79 -114q-7 -12 -17 -12h-22q-6 0 -7.5 4t1.5 8l73 114q7 12 17 12h27q16 0 7 -12zM85 115l33 262q15 124 195 124q168 0 168 -106q0 -9 -1 -18l-33 -262
q-15 -123 -195 -123q-168 0 -168 106q0 11 1 17zM396 119l32 255q1 8 1 12q0 71 -120 71q-129 0 -139 -83l-32 -255q-1 -5 -1 -13q0 -35 27.5 -52.5t92.5 -17.5q129 0 139 83z" />
    <glyph glyph-name="OE" unicode="&#x152;" horiz-adv-x="880" 
d="M101 135l50 412q16 141 219 141q109 0 157 -45l3 25q3 12 14 12h341q11 0 11 -11l-3 -22q-1 -12 -13 -12h-300l-31 -255h281q11 0 11 -11l-3 -21q0 -12 -13 -12h-282l-36 -291h312q11 0 11 -11l-3 -22q-1 -12 -13 -12h-354q-12 0 -10 12l3 25q-58 -45 -161 -45
q-193 0 -193 120q0 7 2 23zM465 139l17 136l34 278v3q0 87 -145 87q-155 0 -167 -103l-49 -397q-1 -7 -1 -19q0 -87 143 -87q156 0 168 102z" />
    <glyph glyph-name="oe" unicode="&#x153;" horiz-adv-x="800" 
d="M560 -8q-115 0 -150 51q-41 -51 -157 -51q-168 0 -168 105q0 12 1 18l32 263q15 123 193 123q117 0 148 -56q44 56 161 56q163 0 163 -105q0 -12 -1 -18l-15 -123q-2 -11 -12 -11h-292l-16 -127q-1 -7 -1 -14q0 -70 118 -70q69 0 99 21.5t37 60.5l4 24q1 11 13 11h25
q11 0 10 -11l-4 -25q-9 -59 -50 -90.5t-138 -31.5zM396 119l32 255v13q0 71 -119 71q-129 0 -139 -84l-32 -255q-1 -5 -1 -14q0 -70 120 -70q129 0 139 84zM721 281l12 95q1 4 1 13q0 71 -118 71q-127 0 -137 -84l-12 -95h254z" />
    <glyph glyph-name="Racute" unicode="&#x154;" horiz-adv-x="588" 
d="M337 282h-153l-34 -270q-2 -12 -12 -12h-30q-12 0 -11 12l81 656q2 12 13 12h192q102 0 148.5 -34.5t46.5 -92.5q0 -13 -1 -21l-14 -113q-14 -109 -144 -131l102 -276q5 -12 -11 -12h-30q-10 0 -14 12l-99 271q-10 -1 -30 -1zM381 634h-154l-38 -307h153q158 0 169 99
l12 99q1 10 1 18q0 91 -143 91zM477 866l-94 -119q-7 -7 -15 -7h-26q-11 0 -4 11l86 117q7 10 16 10h33q14 0 4 -12z" />
    <glyph glyph-name="racute" unicode="&#x155;" horiz-adv-x="337" 
d="M366 696l-94 -119q-7 -7 -15 -7h-26q-13 0 -5 11l87 117q7 10 16 10h33q14 0 4 -12zM366 500q12 0 11 -12l-3 -25q-2 -11 -14 -11q-51 -1 -98.5 -23t-77.5 -46l-46 -371q-2 -12 -13 -12h-29q-11 0 -10 12l58 469q2 12 13 12h25q12 0 11 -12l-4 -54q90 73 177 73z" />
    <glyph glyph-name="Rcommaaccent" unicode="&#x156;" horiz-adv-x="588" 
d="M263 -89l4 27q1 12 13 12h22q12 0 10 -12l-3 -29q-5 -48 -51 -114q-6 -9 -16 -6l-17 5q-10 3 -3 15q35 58 41 102zM337 282h-153l-34 -270q-2 -12 -12 -12h-30q-12 0 -11 12l81 656q2 12 13 12h192q102 0 148.5 -34.5t46.5 -92.5q0 -13 -1 -21l-14 -113
q-14 -109 -144 -131l102 -276q5 -12 -11 -12h-30q-10 0 -14 12l-99 271q-10 -1 -30 -1zM381 634h-154l-38 -307h153q158 0 169 99l12 99q1 10 1 18q0 91 -143 91z" />
    <glyph glyph-name="rcommaaccent" unicode="&#x157;" horiz-adv-x="337" 
d="M76 -89l4 27q2 12 13 12h22q11 0 10 -12l-3 -29q-5 -48 -51 -114q-6 -9 -16 -6l-17 5q-10 3 -3 15q35 58 41 102zM366 500q12 0 11 -12l-3 -25q-2 -11 -14 -11q-51 -1 -98.5 -23t-77.5 -46l-46 -371q-2 -12 -13 -12h-29q-11 0 -10 12l58 469q2 12 13 12h25q12 0 11 -12
l-4 -54q90 73 177 73z" />
    <glyph glyph-name="Rcaron" unicode="&#x158;" horiz-adv-x="588" 
d="M337 282h-153l-34 -270q-2 -12 -12 -12h-30q-12 0 -11 12l81 656q2 12 13 12h192q102 0 148.5 -34.5t46.5 -92.5q0 -13 -1 -21l-14 -113q-14 -109 -144 -131l102 -276q5 -12 -11 -12h-30q-10 0 -14 12l-99 271q-10 -1 -30 -1zM381 634h-154l-38 -307h153q158 0 169 99
l12 99q1 10 1 18q0 91 -143 91zM314 866l49 -92l72 92q10 12 18 12h24q14 0 5 -12l-93 -115q-9 -11 -19 -11h-19q-11 0 -18 12l-64 114q-7 12 8 12h23q8 0 14 -12z" />
    <glyph glyph-name="rcaron" unicode="&#x159;" horiz-adv-x="337" 
d="M200 696l49 -92l72 92q10 12 18 12h24q14 0 4 -12l-92 -115q-9 -11 -20 -11h-19q-10 0 -17 12l-65 114q-7 12 8 12h23q8 0 15 -12zM366 500q12 0 11 -12l-3 -25q-2 -11 -14 -11q-51 -1 -98.5 -23t-77.5 -46l-46 -371q-2 -12 -13 -12h-29q-11 0 -10 12l58 469q2 12 13 12
h25q12 0 11 -12l-4 -54q90 73 177 73z" />
    <glyph glyph-name="Sacute" unicode="&#x15a;" horiz-adv-x="563" 
d="M494 498l5 43q1 8 1 18q0 84 -138 84q-82 0 -118.5 -26t-42.5 -75l-5 -40q-1 -6 -1 -14q0 -46 54 -68l181 -73q87 -36 87 -112q0 -7 -1 -18l-9 -84q-14 -141 -224 -141q-193 0 -193 121q0 4 2 22l6 50q1 13 12 13h29q12 0 11 -13l-6 -44q-1 -7 -1 -19q0 -85 143 -85
q155 0 168 102l10 73q1 7 1 13q0 48 -73 78l-168 68q-82 34 -82 107q0 11 1 18l6 51q8 66 56 103.5t161 37.5q187 0 187 -120q0 -14 -1 -21l-6 -49q-2 -12 -13 -12h-29q-11 0 -10 12zM487 866l-94 -119q-7 -7 -15 -7h-26q-11 0 -4 11l86 117q7 10 16 10h33q14 0 4 -12z" />
    <glyph glyph-name="sacute" unicode="&#x15b;" horiz-adv-x="464" 
d="M412 696l-94 -119q-7 -7 -15 -7h-26q-13 0 -5 11l87 117q7 10 16 10h33q14 0 4 -12zM400 361l3 23q1 8 1 19q0 25 -28 42t-84 17q-120 0 -128 -68l-4 -30q-1 -7 -1 -12q0 -39 48 -54l152 -47q73 -24 73 -79q0 -1 -2 -19l-6 -56q-6 -47 -52.5 -76t-136.5 -29
q-81 0 -122.5 26.5t-41.5 68.5q0 6 1 16l3 25q1 11 13 11h27q9 0 8 -11l-2 -23q-1 -9 -1 -13q0 -60 118 -60q128 0 138 69l5 43q1 10 1 15q0 32 -55 50l-148 48q-30 9 -50 32t-20 52q0 7 1 15l5 39q13 106 180 106q79 0 118.5 -27.5t39.5 -68.5q0 -8 -1 -18l-3 -26
q-1 -11 -13 -11h-26q-12 0 -10 11z" />
    <glyph glyph-name="Scircumflex" unicode="&#x15c;" horiz-adv-x="563" 
d="M494 498l5 43q1 8 1 18q0 84 -138 84q-82 0 -118.5 -26t-42.5 -75l-5 -40q-1 -6 -1 -14q0 -46 54 -68l181 -73q87 -36 87 -112q0 -7 -1 -18l-9 -84q-14 -141 -224 -141q-193 0 -193 121q0 4 2 22l6 50q1 13 12 13h29q12 0 11 -13l-6 -44q-1 -7 -1 -19q0 -85 143 -85
q155 0 168 102l10 73q1 7 1 13q0 48 -73 78l-168 68q-82 34 -82 107q0 11 1 18l6 51q8 66 56 103.5t161 37.5q187 0 187 -120q0 -14 -1 -21l-6 -49q-2 -12 -13 -12h-29q-11 0 -10 12zM378 844l-72 -92q-10 -12 -17 -12h-24q-14 0 -5 12l91 114q10 12 21 12h19q10 0 17 -11
l65 -115q7 -12 -8 -12h-22q-10 0 -16 12z" />
    <glyph glyph-name="scircumflex" unicode="&#x15d;" horiz-adv-x="464" 
d="M306 674l-72 -92q-10 -12 -17 -12h-24q-15 0 -6 12l92 114q9 12 20 12h20q10 0 17 -11l64 -115q7 -12 -7 -12h-22q-10 0 -16 12zM400 361l3 23q1 8 1 19q0 25 -28 42t-84 17q-120 0 -128 -68l-4 -30q-1 -7 -1 -12q0 -39 48 -54l152 -47q73 -24 73 -79q0 -1 -2 -19l-6 -56
q-6 -47 -52.5 -76t-136.5 -29q-81 0 -122.5 26.5t-41.5 68.5q0 6 1 16l3 25q1 11 13 11h27q9 0 8 -11l-2 -23q-1 -9 -1 -13q0 -60 118 -60q128 0 138 69l5 43q1 10 1 15q0 32 -55 50l-148 48q-30 9 -50 32t-20 52q0 7 1 15l5 39q13 106 180 106q79 0 118.5 -27.5t39.5 -68.5
q0 -8 -1 -18l-3 -26q-1 -11 -13 -11h-26q-12 0 -10 11z" />
    <glyph glyph-name="Scedilla" unicode="&#x15e;" horiz-adv-x="563" 
d="M271 -54h39q30 0 51 -17t21 -51q0 -47 -27 -68t-65 -21h-117q-12 0 -10 12l1 11q2 12 13 12h111q54 0 54 50q0 37 -43 37h-59q-20 0 -14 15l26 67q-162 10 -162 120q0 4 2 22l6 50q1 13 12 13h29q12 0 11 -13l-6 -44q-1 -7 -1 -19q0 -85 143 -85q155 0 168 102l10 73
q1 7 1 13q0 48 -73 78l-168 68q-82 34 -82 107q0 11 1 18l6 51q8 66 56 103.5t161 37.5q187 0 187 -120q0 -14 -1 -21l-6 -49q-2 -12 -13 -12h-29q-11 0 -10 12l5 43q1 8 1 18q0 84 -138 84q-82 0 -118.5 -26t-42.5 -75l-5 -40q-1 -6 -1 -14q0 -46 54 -68l181 -73
q87 -36 87 -112q0 -7 -1 -18l-9 -84q-14 -138 -217 -141z" />
    <glyph glyph-name="scedilla" unicode="&#x15f;" horiz-adv-x="464" 
d="M227 -54h39q30 0 51 -17t21 -51q0 -47 -27 -68t-65 -21h-117q-12 0 -10 12l1 11q2 12 13 12h111q54 0 54 50q0 37 -43 37h-59q-20 0 -14 15l26 67q-68 4 -102.5 30t-34.5 64q0 6 1 16l3 25q1 11 13 11h27q9 0 8 -11l-2 -23q-1 -9 -1 -13q0 -60 118 -60q128 0 138 69l5 43
q1 10 1 15q0 32 -55 50l-148 48q-30 9 -50 32t-20 52q0 7 1 15l5 39q13 106 180 106q79 0 118.5 -27.5t39.5 -68.5q0 -8 -1 -18l-3 -26q-1 -11 -13 -11h-26q-12 0 -10 11l3 23q1 8 1 19q0 25 -28 42t-84 17q-120 0 -128 -68l-4 -30q-1 -7 -1 -12q0 -39 48 -54l152 -47
q73 -24 73 -79q0 -1 -2 -19l-6 -56q-6 -46 -49.5 -74.5t-128.5 -30.5z" />
    <glyph glyph-name="Scaron" unicode="&#x160;" horiz-adv-x="563" 
d="M494 498l5 43q1 8 1 18q0 84 -138 84q-82 0 -118.5 -26t-42.5 -75l-5 -40q-1 -6 -1 -14q0 -46 54 -68l181 -73q87 -36 87 -112q0 -7 -1 -18l-9 -84q-14 -141 -224 -141q-193 0 -193 121q0 4 2 22l6 50q1 13 12 13h29q12 0 11 -13l-6 -44q-1 -7 -1 -19q0 -85 143 -85
q155 0 168 102l10 73q1 7 1 13q0 48 -73 78l-168 68q-82 34 -82 107q0 11 1 18l6 51q8 66 56 103.5t161 37.5q187 0 187 -120q0 -14 -1 -21l-6 -49q-2 -12 -13 -12h-29q-11 0 -10 12zM317 866l49 -92l72 92q10 12 18 12h24q14 0 5 -12l-93 -115q-9 -11 -19 -11h-19
q-11 0 -18 12l-64 114q-7 12 8 12h23q8 0 14 -12z" />
    <glyph glyph-name="scaron" unicode="&#x161;" horiz-adv-x="464" 
d="M243 696l49 -92l72 92q10 12 18 12h24q14 0 4 -12l-92 -115q-9 -11 -20 -11h-19q-10 0 -17 12l-65 114q-7 12 8 12h23q8 0 15 -12zM400 361l3 23q1 8 1 19q0 25 -28 42t-84 17q-120 0 -128 -68l-4 -30q-1 -7 -1 -12q0 -39 48 -54l152 -47q73 -24 73 -79q0 -1 -2 -19
l-6 -56q-6 -47 -52.5 -76t-136.5 -29q-81 0 -122.5 26.5t-41.5 68.5q0 6 1 16l3 25q1 11 13 11h27q9 0 8 -11l-2 -23q-1 -9 -1 -13q0 -60 118 -60q128 0 138 69l5 43q1 10 1 15q0 32 -55 50l-148 48q-30 9 -50 32t-20 52q0 7 1 15l5 39q13 106 180 106q79 0 118.5 -27.5
t39.5 -68.5q0 -8 -1 -18l-3 -26q-1 -11 -13 -11h-26q-12 0 -10 11z" />
    <glyph glyph-name="Tcommaaccent" unicode="&#x162;" horiz-adv-x="480" 
d="M203 -89l4 27q1 12 13 12h22q12 0 10 -12l-3 -29q-5 -48 -51 -114q-6 -9 -16 -6l-17 5q-10 3 -3 15q35 58 41 102zM114 680h415q12 0 11 -12l-2 -22q-1 -12 -14 -12h-181l-77 -622q-2 -12 -12 -12h-30q-12 0 -11 12l77 622h-181q-12 0 -11 12l2 22q1 12 14 12z" />
    <glyph glyph-name="tcommaaccent" unicode="&#x163;" horiz-adv-x="343" 
d="M105 -89l4 27q1 12 13 12h22q12 0 10 -12l-3 -29q-5 -48 -51 -114q-6 -9 -16 -6l-17 5q-10 3 -3 15q35 58 41 102zM210 448l-39 -318q-1 -6 -1 -16q0 -69 116 -69h16q13 0 11 -12l-2 -21q-1 -12 -14 -12h-22q-85 0 -121.5 26t-36.5 75q0 15 1 22l40 325h-64q-12 0 -10 12
l2 16q1 12 14 12l62 3h1l14 108q1 13 13 13h29q10 0 10 -13l-14 -108h119q12 0 10 -11l-2 -21q-1 -11 -14 -11h-118z" />
    <glyph glyph-name="Tcaron" unicode="&#x164;" horiz-adv-x="480" 
d="M114 680h415q12 0 11 -12l-2 -22q-1 -12 -14 -12h-181l-77 -622q-2 -12 -12 -12h-30q-12 0 -11 12l77 622h-181q-12 0 -11 12l2 22q1 12 14 12zM279 866l49 -92l72 92q10 12 18 12h24q14 0 5 -12l-93 -115q-9 -11 -19 -11h-19q-11 0 -18 12l-64 114q-7 12 8 12h23
q8 0 14 -12z" />
    <glyph glyph-name="tcaron" unicode="&#x165;" horiz-adv-x="352" 
d="M322 674l4 27q2 12 13 12h22q11 0 10 -12l-3 -29q-5 -48 -51 -114q-6 -9 -16 -6l-17 5q-10 3 -3 15q35 58 41 102zM210 448l-39 -318q-1 -6 -1 -16q0 -69 116 -69h16q13 0 11 -12l-2 -21q-1 -12 -14 -12h-22q-85 0 -121.5 26t-36.5 75q0 15 1 22l40 325h-64q-12 0 -10 12
l2 16q1 12 14 12l62 3h1l14 108q1 13 13 13h29q10 0 10 -13l-14 -108h119q12 0 10 -11l-2 -21q-1 -11 -14 -11h-118z" />
    <glyph glyph-name="Tbar" unicode="&#x166;" horiz-adv-x="480" 
d="M114 680h415q12 0 11 -12l-2 -22q-1 -12 -14 -12h-181l-22 -180h155q12 0 11 -11l-2 -16q-1 -12 -13 -12h-156l-50 -403q-2 -12 -12 -12h-30q-12 0 -11 12l50 403h-152q-12 0 -12 12l2 16q1 11 13 11h154l22 180h-181q-12 0 -11 12l2 22q1 12 14 12z" />
    <glyph glyph-name="tbar" unicode="&#x167;" horiz-adv-x="343" 
d="M210 448l-14 -114h118q7 0 10 -2.5t2 -8.5l-2 -16q-2 -12 -13 -12h-120l-20 -165q-1 -6 -1 -16q0 -69 116 -69h16q13 0 11 -12l-2 -21q-1 -12 -14 -12h-22q-85 0 -121.5 26t-36.5 75q0 15 1 22l21 172h-62q-13 0 -11 12l2 16q1 11 13 11h63l14 114h-64q-12 0 -10 12l2 16
q1 12 14 12l62 3h1l14 108q1 13 13 13h29q10 0 10 -13l-14 -108h119q12 0 10 -11l-2 -21q-1 -11 -14 -11h-118z" />
    <glyph glyph-name="Utilde" unicode="&#x168;" horiz-adv-x="599" 
d="M224 668l-64 -521q-2 -18 -2 -22q0 -87 144 -87q155 0 169 103l65 527q2 12 12 12h30q12 0 11 -12l-66 -535q-16 -141 -225 -141q-194 0 -194 122q0 9 2 23l65 531q1 12 13 12h30q11 0 10 -12zM330 828q-18 0 -25 -10.5t-11 -38.5l-2 -14q-3 -11 -14 -11h-16q-11 0 -9 14
l4 20q13 81 74 81q28 0 52 -21l40 -36q18 -16 32 -16q18 0 25 11t12 43l1 9q1 11 14 11h16q11 0 9 -13l-3 -20q-13 -82 -75 -82q-27 0 -52 22l-41 36q-19 15 -31 15z" />
    <glyph glyph-name="utilde" unicode="&#x169;" 
d="M385 12l3 40q-76 -60 -173 -60q-61 0 -93 28t-32 74q0 8 1 17l45 369q1 13 14 13h28q11 0 10 -13l-44 -358q-1 -8 -1 -15q0 -68 89 -68q84 0 162 59l46 382q1 13 13 13h29q11 0 10 -13l-58 -468q-2 -12 -12 -12h-26q-12 0 -11 12zM265 654q-18 0 -25 -10.5t-11 -39.5
l-2 -13q-1 -11 -14 -11h-16q-11 0 -9 13l4 20q14 82 74 82q27 0 52 -22l40 -36q20 -16 32 -16q18 0 25 11t12 43l1 9q1 11 14 11h16q12 0 9 -13l-3 -19q-12 -82 -74 -82q-27 0 -53 21l-41 36q-20 16 -31 16z" />
    <glyph glyph-name="Umacron" unicode="&#x16a;" horiz-adv-x="599" 
d="M224 668l-64 -521q-2 -18 -2 -22q0 -87 144 -87q155 0 169 103l65 527q2 12 12 12h30q12 0 11 -12l-66 -535q-16 -141 -225 -141q-194 0 -194 122q0 9 2 23l65 531q1 12 13 12h30q11 0 10 -12zM266 820h256q6 0 9 -2.5t2 -7.5l-2 -19q-1 -12 -13 -12h-257q-13 0 -11 12
l2 18q1 11 14 11z" />
    <glyph glyph-name="umacron" unicode="&#x16b;" 
d="M385 12l3 40q-76 -60 -173 -60q-61 0 -93 28t-32 74q0 8 1 17l45 369q1 13 14 13h28q11 0 10 -13l-44 -358q-1 -8 -1 -15q0 -68 89 -68q84 0 162 59l46 382q1 13 13 13h29q11 0 10 -13l-58 -468q-2 -12 -12 -12h-26q-12 0 -11 12zM199 646h256q13 0 11 -11l-2 -19
q-2 -12 -14 -12h-256q-12 0 -11 12l2 18q1 12 14 12z" />
    <glyph glyph-name="Ubreve" unicode="&#x16c;" horiz-adv-x="599" 
d="M224 668l-64 -521q-2 -18 -2 -22q0 -87 144 -87q155 0 169 103l65 527q2 12 12 12h30q12 0 11 -12l-66 -535q-16 -141 -225 -141q-194 0 -194 122q0 9 2 23l65 531q1 12 13 12h30q11 0 10 -12zM327 871l-2 -19q-1 -9 -1 -19q0 -28 14.5 -40.5t52.5 -12.5q44 0 61 19.5
t20 58.5l1 13q1 11 13 11h17q12 0 10 -11l-1 -12q-5 -57 -32 -85.5t-92 -28.5q-105 0 -105 85q0 3 2 23l2 18q1 11 12 11h18q11 0 10 -11z" />
    <glyph glyph-name="ubreve" unicode="&#x16d;" 
d="M385 12l3 40q-76 -60 -173 -60q-61 0 -93 28t-32 74q0 8 1 17l45 369q1 13 14 13h28q11 0 10 -13l-44 -358q-1 -8 -1 -15q0 -68 89 -68q84 0 162 59l46 382q1 13 13 13h29q11 0 10 -13l-58 -468q-2 -12 -12 -12h-26q-12 0 -11 12zM260 683l-2 -19q-1 -9 -1 -19
q0 -28 15 -41t52 -13q44 0 61 20t20 59l1 13q1 11 13 11h17q12 0 10 -11l-1 -12q-5 -57 -32 -85.5t-92 -28.5q-105 0 -105 85q0 3 2 23l2 18q1 11 12 11h18q11 0 10 -11z" />
    <glyph glyph-name="Uring" unicode="&#x16e;" horiz-adv-x="599" 
d="M484 808l-2 -21q-7 -64 -96 -64q-41 0 -62.5 16t-21.5 41q0 7 1 17l2 22q5 65 97 65q40 0 61.5 -16.5t21.5 -42.5q0 -6 -1 -17zM450 792l1 11q1 8 1 16q0 35 -53 35q-59 0 -62 -40l-1 -12q-1 -9 -1 -14q0 -35 52 -35q60 0 63 39zM224 668l-64 -521q-2 -18 -2 -22
q0 -87 144 -87q155 0 169 103l65 527q2 12 12 12h30q12 0 11 -12l-66 -535q-16 -141 -225 -141q-194 0 -194 122q0 9 2 23l65 531q1 12 13 12h30q11 0 10 -12z" />
    <glyph glyph-name="uring" unicode="&#x16f;" 
d="M418 641l-2 -21q-7 -64 -96 -64q-41 0 -62.5 16t-21.5 41q0 7 1 17l2 22q5 65 97 65q40 0 61.5 -16.5t21.5 -42.5q0 -6 -1 -17zM384 625l1 11q1 8 1 16q0 35 -53 35q-59 0 -62 -40l-1 -12q-1 -9 -1 -14q0 -35 52 -35q60 0 63 39zM385 12l3 40q-76 -60 -173 -60
q-61 0 -93 28t-32 74q0 8 1 17l45 369q1 13 14 13h28q11 0 10 -13l-44 -358q-1 -8 -1 -15q0 -68 89 -68q84 0 162 59l46 382q1 13 13 13h29q11 0 10 -13l-58 -468q-2 -12 -12 -12h-26q-12 0 -11 12z" />
    <glyph glyph-name="Uhungarumlaut" unicode="&#x170;" horiz-adv-x="599" 
d="M548 866l-93 -116q-8 -10 -18 -10h-23q-13 0 -4 12l87 114q10 12 19 12h27q14 0 5 -12zM444 866l-77 -114q-9 -12 -18 -12h-22q-12 0 -5 12l72 114q7 12 18 12h26q15 0 6 -12zM224 668l-64 -521q-2 -18 -2 -22q0 -87 144 -87q155 0 169 103l65 527q2 12 12 12h30
q12 0 11 -12l-66 -535q-16 -141 -225 -141q-194 0 -194 122q0 9 2 23l65 531q1 12 13 12h30q11 0 10 -12z" />
    <glyph glyph-name="uhungarumlaut" unicode="&#x171;" 
d="M385 12l3 40q-76 -60 -173 -60q-61 0 -93 28t-32 74q0 8 1 17l45 369q1 13 14 13h28q11 0 10 -13l-44 -358q-1 -8 -1 -15q0 -68 89 -68q84 0 162 59l46 382q1 13 13 13h29q11 0 10 -13l-58 -468q-2 -12 -12 -12h-26q-12 0 -11 12zM476 696l-93 -116q-7 -10 -18 -10h-22
q-6 0 -7.5 4t2.5 8l87 114q9 12 20 12h27q13 0 4 -12zM374 696l-79 -114q-7 -12 -17 -12h-22q-6 0 -7.5 4t1.5 8l73 114q7 12 17 12h27q16 0 7 -12z" />
    <glyph glyph-name="Uogonek" unicode="&#x172;" horiz-adv-x="599" 
d="M224 668l-64 -521q-2 -18 -2 -22q0 -87 144 -87q155 0 169 103l65 527q0 12 12 12h30q12 0 11 -12l-66 -535q-6 -59 -43 -90q-3 -3 -22.5 -19t-28 -25t-18 -27.5t-9.5 -38.5q0 -44 59 -44h35q12 0 12 -12l-2 -14q0 -12 -14 -12h-43q-89 0 -89 72q0 42 30 78
q-45 -9 -92 -9q-194 0 -194 122q0 9 2 23l65 531q1 12 13 12h30q11 0 10 -12z" />
    <glyph glyph-name="uogonek" unicode="&#x173;" 
d="M420 -149h-24q-86 0 -86 70q0 28 20.5 55t55.5 43l2 33q-76 -60 -173 -60q-61 0 -93 28t-32 74q0 11 1 17l45 369q1 13 14 13h28q11 0 10 -13l-44 -358q-1 -6 -1 -15q0 -68 89 -68q84 0 162 59l46 382q1 13 13 13h29q11 0 10 -13l-58 -468q-2 -12 -12 -12h-2
q-32 -6 -50.5 -27.5t-18.5 -43.5q0 -40 58 -40h14q13 0 12 -12l-1 -14q0 -12 -14 -12z" />
    <glyph glyph-name="Wcircumflex" unicode="&#x174;" horiz-adv-x="791" 
d="M507 668l67 -506q6 -50 6 -72q1 5 25 72l191 506q4 12 16 12h27q12 0 8 -12l-247 -656q-4 -12 -16 -12h-30q-12 0 -14 12l-66 514q-6 51 -6 64q-1 -3 -5 -17t-8.5 -26.5t-7.5 -20.5l-194 -514q-5 -12 -16 -12h-30q-13 0 -14 12l-86 656q-1 12 11 12h30q12 0 13 -12
l67 -506q6 -38 6 -70q2 14 25 70l192 506q4 12 15 12h29q11 0 12 -12zM492 844l-72 -92q-10 -12 -17 -12h-24q-14 0 -5 12l91 114q10 12 21 12h19q10 0 17 -11l65 -115q7 -12 -8 -12h-22q-10 0 -16 12z" />
    <glyph glyph-name="wcircumflex" unicode="&#x175;" horiz-adv-x="639" 
d="M640 493h26q12 0 8 -12l-188 -470q-4 -11 -15 -11h-33q-10 0 -12 11l-52 366q-4 32 -4 45l-18 -46l-148 -365q-5 -11 -15 -11h-33q-9 0 -11 11l-69 470q-2 12 12 12h29q10 0 12 -12l54 -372q4 -30 4 -39q3 15 13 39l149 372q5 12 15 12h33q10 0 12 -12l52 -372
q4 -32 4 -38q4 15 13 38l147 372q5 12 15 12zM393 674l-72 -92q-10 -12 -17 -12h-24q-15 0 -6 12l92 114q9 12 20 12h20q10 0 17 -11l64 -115q7 -12 -7 -12h-22q-10 0 -16 12z" />
    <glyph glyph-name="Ycircumflex" unicode="&#x176;" horiz-adv-x="509" 
d="M161 668l123 -308q7 -19 10 -33q2 6 18 33l201 308q9 12 17 12h31q15 0 7 -12l-252 -386l-33 -270q-1 -12 -13 -12h-30q-12 0 -11 12l33 264l-158 392q-5 12 10 12h34q8 0 13 -12zM353 844l-72 -92q-10 -12 -17 -12h-24q-14 0 -5 12l91 114q10 12 21 12h19q10 0 17 -11
l65 -115q7 -12 -8 -12h-22q-10 0 -16 12z" />
    <glyph glyph-name="ycircumflex" unicode="&#x177;" horiz-adv-x="421" 
d="M132 481l79 -361q6 -30 8 -52q9 26 20 50l168 363q5 12 15 12h27q16 0 10 -12l-314 -677q-5 -12 -15 -12h-24q-14 0 -8 12l88 194l-107 483q-3 12 11 12h30q9 0 12 -12zM285 674l-72 -92q-10 -12 -17 -12h-24q-15 0 -6 12l92 114q9 12 20 12h20q10 0 17 -11l64 -115
q7 -12 -7 -12h-22q-10 0 -16 12z" />
    <glyph glyph-name="Ydieresis" unicode="&#x178;" horiz-adv-x="509" 
d="M161 668l123 -308q7 -19 10 -33q2 6 18 33l201 308q9 12 17 12h31q15 0 7 -12l-252 -386l-33 -270q-1 -12 -13 -12h-30q-12 0 -11 12l33 264l-158 392q-5 12 10 12h34q8 0 13 -12zM420 857l-12 -98q-2 -12 -13 -12h-18q-11 0 -10 12l11 98q2 12 14 12h18q12 0 10 -12z
M322 857l-12 -98q-2 -12 -13 -12h-18q-11 0 -10 12l11 98q2 12 14 12h18q12 0 10 -12z" />
    <glyph glyph-name="Zacute" unicode="&#x179;" horiz-adv-x="505" 
d="M168 680h348q11 0 10 -12l-2 -21q-1 -7 -7 -16l-390 -585h326q12 0 11 -12l-3 -22q-1 -12 -13 -12h-380q-7 0 -10 2.5t-2 8.5l3 22q1 6 6 13l391 588h-293q-12 0 -11 12l3 22q1 12 13 12zM455 866l-94 -119q-7 -7 -15 -7h-26q-11 0 -4 11l86 117q7 10 16 10h33
q14 0 4 -12z" />
    <glyph glyph-name="zacute" unicode="&#x17a;" horiz-adv-x="456" 
d="M401 696l-94 -119q-7 -7 -15 -7h-26q-13 0 -5 11l87 117q7 10 16 10h33q14 0 4 -12zM136 493h299q12 0 10 -11l-2 -20q0 -2 -6 -13l-318 -405h273q12 0 11 -12l-2 -20q-1 -12 -14 -12h-324q-13 0 -11 12l3 20q1 8 8 16l314 401h-247q-11 0 -10 12l2 20q2 12 14 12z" />
    <glyph glyph-name="Zdotaccent" unicode="&#x17b;" horiz-adv-x="505" 
d="M379 838l-9 -77q-1 -11 -13 -11h-29q-12 0 -11 11l9 77q2 12 13 12h30q11 0 10 -12zM168 680h348q11 0 10 -12l-2 -21q-1 -7 -7 -16l-390 -585h326q12 0 11 -12l-3 -22q-1 -12 -13 -12h-380q-7 0 -10 2.5t-2 8.5l3 22q1 6 6 13l391 588h-293q-12 0 -11 12l3 22
q1 12 13 12z" />
    <glyph glyph-name="zdotaccent" unicode="&#x17c;" horiz-adv-x="456" 
d="M136 493h299q12 0 10 -11l-2 -20q0 -2 -6 -13l-318 -405h273q12 0 11 -12l-2 -20q-1 -12 -14 -12h-324q-13 0 -11 12l3 20q1 8 8 16l314 401h-247q-11 0 -10 12l2 20q2 12 14 12z" />
    <glyph glyph-name="Zcaron" unicode="&#x17d;" horiz-adv-x="505" 
d="M168 680h348q11 0 10 -12l-2 -21q-1 -7 -7 -16l-390 -585h326q12 0 11 -12l-3 -22q-1 -12 -13 -12h-380q-7 0 -10 2.5t-2 8.5l3 22q1 6 6 13l391 588h-293q-12 0 -11 12l3 22q1 12 13 12zM295 866l49 -92l72 92q10 12 18 12h24q14 0 5 -12l-93 -115q-9 -11 -19 -11h-19
q-11 0 -18 12l-64 114q-7 12 8 12h23q8 0 14 -12z" />
    <glyph glyph-name="zcaron" unicode="&#x17e;" horiz-adv-x="456" 
d="M236 696l49 -92l72 92q10 12 18 12h24q14 0 4 -12l-92 -115q-9 -11 -20 -11h-19q-10 0 -17 12l-65 114q-7 12 8 12h23q8 0 15 -12zM136 493h299q12 0 10 -11l-2 -20q0 -2 -6 -13l-318 -405h273q12 0 11 -12l-2 -20q-1 -12 -14 -12h-324q-13 0 -11 12l3 20q1 8 8 16
l314 401h-247q-11 0 -10 12l2 20q2 12 14 12z" />
    <glyph glyph-name="longs" unicode="&#x17f;" horiz-adv-x="314" 
d="M235 576l-95 -772q-2 -12 -13 -12h-29q-12 0 -10 12l80 645h-65q-12 0 -11 11l2 16q1 12 13 12l55 3h10l12 89q15 123 193 123h6q11 0 10 -12l-2 -20q-1 -12 -14 -12h-5q-127 0 -137 -83z" />
    <glyph glyph-name="florin" unicode="&#x192;" horiz-adv-x="545" 
d="M561 663h-9q-127 0 -147 -83l-42 -169h103q12 0 10 -12l-2 -20q-2 -12 -13 -12h-108l-112 -459q-15 -59 -61.5 -91.5t-140.5 -32.5h-10q-11 0 -10 12l3 20q1 13 12 13h9q127 0 147 83l111 455h-97q-12 0 -11 12l2 20q1 12 13 12h103l42 174q14 59 61 91t142 32h10
q11 0 10 -12l-2 -21q-2 -12 -13 -12z" />
    <glyph glyph-name="Aringacute" unicode="&#x1fa;" 
d="M327 680h31q12 0 13 -12l122 -656q3 -12 -9 -12h-31q-11 0 -13 12l-37 194h-241l-83 -194q-6 -12 -15 -12h-29q-13 0 -8 12l283 656q6 12 17 12zM397 249l-51 268l-12 107q-1 -3 -8 -26t-14.5 -45t-12.5 -34l-118 -270h216zM439 808l-2 -21q-7 -64 -96 -64
q-41 0 -62.5 16t-21.5 41q0 7 1 17l2 22q5 58 82 64l53 71q7 10 17 10h32q14 0 4 -12l-59 -71q51 -12 51 -56q0 -6 -1 -17zM405 792l1 11q1 8 1 16q0 35 -53 35q-59 0 -62 -40l-1 -12q-1 -9 -1 -14q0 -35 52 -35q60 0 63 39z" />
    <glyph glyph-name="aringacute" unicode="&#x1fb;" horiz-adv-x="520" 
d="M386 12l3 41q-85 -61 -180 -61q-61 0 -93 27.5t-32 75.5q0 6 2 20l33 263q15 123 151 123q97 0 167 -62l7 41q3 13 13 13h26q11 0 10 -13l-58 -468q-1 -12 -13 -12h-26q-10 0 -10 12zM170 371l-32 -250q-1 -5 -1 -14q0 -68 90 -68q85 0 167 59l37 296q-70 60 -153 60
q-49 0 -76 -23t-32 -60zM421 641l-2 -21q-7 -64 -96 -64q-41 0 -62.5 16t-21.5 41q0 7 1 17l2 22q5 58 82 64l75 101q7 10 16 10h33q14 0 4 -12l-80 -102q50 -12 50 -55q0 -6 -1 -17zM387 625l1 11q1 8 1 16q0 35 -53 35q-59 0 -62 -40l-1 -12q-1 -9 -1 -14q0 -35 52 -35
q60 0 63 39z" />
    <glyph glyph-name="AEacute" unicode="&#x1fc;" horiz-adv-x="840" 
d="M511 680h336q12 0 11 -11l-3 -22q-1 -11 -13 -11h-300l-31 -256h281q12 0 11 -12l-3 -20q-2 -12 -13 -12h-282l-36 -291h312q13 0 11 -12l-3 -21q-1 -12 -13 -12h-347q-8 0 -12 3t-3 11l24 192h-221l-135 -194q-8 -12 -17 -12h-29q-16 0 -8 12l461 656q7 12 22 12z
M445 530l-196 -281h195l41 341q-20 -32 -40 -60zM677 866l-94 -119q-7 -7 -15 -7h-26q-11 0 -4 11l86 117q7 10 16 10h33q14 0 4 -12z" />
    <glyph glyph-name="aeacute" unicode="&#x1fd;" horiz-adv-x="789" 
d="M589 696l-94 -119q-7 -7 -15 -7h-26q-13 0 -5 11l87 117q7 10 16 10h33q14 0 4 -12zM770 377l-15 -124q-2 -11 -12 -11h-292l-15 -119q-2 -16 -2 -19q0 -70 118 -70q127 0 137 82l3 23q2 12 13 12h25q12 0 10 -12l-3 -25q-7 -59 -49.5 -90.5t-139.5 -31.5q-137 0 -158 72
q-89 -72 -185 -72q-58 0 -93.5 26t-35.5 73q0 8 1 17l6 47q6 50 42 81.5t97 31.5h181l12 101q2 16 2 21q0 70 -114 70q-70 0 -100.5 -21.5t-34.5 -60.5l-2 -18q-1 -12 -13 -12h-25q-12 0 -11 12l2 18q7 59 49.5 91t138.5 32q115 0 142 -59q40 59 160 59q162 0 162 -105
q0 -9 -1 -19zM216 35q79 0 167 68l15 124h-174q-40 0 -63.5 -22t-27.5 -57l-3 -25q-2 -18 -2 -19q0 -69 88 -69zM467 376l-12 -94h254l12 94q1 8 1 13q0 70 -117 70q-128 0 -138 -83z" />
    <glyph glyph-name="Oslashacute" unicode="&#x1fe;" horiz-adv-x="587" 
d="M101 134l50 412q16 141 224 141q86 0 134 -25l18 31q8 12 16 12h15q10 0 4 -12l-28 -47q36 -32 36 -81q0 -14 -1 -21l-51 -412q-18 -141 -225 -141q-84 0 -134 24l-16 -28q-9 -14 -17 -14h-15q-12 0 -3 14l26 44q-35 29 -35 80q0 7 2 23zM466 140l49 396q1 6 1 18
q0 24 -12 42l-318 -536q35 -23 111 -23q155 0 169 103zM153 124q0 -26 11 -42l318 535q-37 24 -111 24q-156 0 -168 -103l-48 -396q-2 -12 -2 -18zM505 866l-94 -119q-7 -7 -15 -7h-26q-11 0 -4 11l86 117q7 10 16 10h33q14 0 4 -12z" />
    <glyph glyph-name="oslashacute" unicode="&#x1ff;" horiz-adv-x="508" 
d="M85 115l33 262q15 124 195 124q71 0 113 -21l20 29q8 12 16 12h15q11 0 3 -12l-30 -44q31 -27 31 -70q0 -12 -1 -18l-33 -262q-15 -123 -195 -123q-71 0 -115 21l-18 -27q-9 -12 -17 -12h-14q-10 0 -3 12l29 42q-30 26 -30 70q0 11 1 17zM396 119l31 252q2 10 2 15
q0 18 -10 35l-254 -368q29 -17 92 -17q129 0 139 83zM137 106q0 -21 8 -33l253 367q-29 17 -89 17q-129 0 -139 -83l-32 -255q-1 -5 -1 -13zM435 696l-94 -119q-7 -7 -15 -7h-26q-13 0 -5 11l87 117q7 10 16 10h33q14 0 4 -12z" />
    <glyph glyph-name="Scommaaccent" unicode="&#x218;" horiz-adv-x="563" 
d="M260 -89l4 27q2 12 13 12h22q11 0 10 -12l-3 -29q-5 -48 -51 -114q-6 -9 -16 -6l-17 5q-10 3 -3 15q35 58 41 102zM494 498l5 43q1 8 1 18q0 84 -138 84q-82 0 -118.5 -26t-42.5 -75l-5 -40q-1 -6 -1 -14q0 -46 54 -68l181 -73q87 -36 87 -112q0 -7 -1 -18l-9 -84
q-14 -141 -224 -141q-193 0 -193 121q0 4 2 22l6 50q1 13 12 13h29q12 0 11 -13l-6 -44q-1 -7 -1 -19q0 -85 143 -85q155 0 168 102l10 73q1 7 1 13q0 48 -73 78l-168 68q-82 34 -82 107q0 11 1 18l6 51q8 66 56 103.5t161 37.5q187 0 187 -120q0 -14 -1 -21l-6 -49
q-2 -12 -13 -12h-29q-11 0 -10 12z" />
    <glyph glyph-name="scommaaccent" unicode="&#x219;" horiz-adv-x="464" 
d="M213 -88l4 27q1 12 13 12h22q12 0 10 -12l-3 -29q-5 -48 -51 -114q-6 -9 -16 -6l-17 5q-10 3 -3 15q35 58 41 102zM400 361l3 23q1 8 1 19q0 25 -28 42t-84 17q-120 0 -128 -68l-4 -30q-1 -7 -1 -12q0 -39 48 -54l152 -47q73 -24 73 -79q0 -1 -2 -19l-6 -56
q-6 -47 -52.5 -76t-136.5 -29q-81 0 -122.5 26.5t-41.5 68.5q0 6 1 16l3 25q1 11 13 11h27q9 0 8 -11l-2 -23q-1 -9 -1 -13q0 -60 118 -60q128 0 138 69l5 43q1 10 1 15q0 32 -55 50l-148 48q-30 9 -50 32t-20 52q0 7 1 15l5 39q13 106 180 106q79 0 118.5 -27.5t39.5 -68.5
q0 -8 -1 -18l-3 -26q-1 -11 -13 -11h-26q-12 0 -10 11z" />
    <glyph glyph-name="dotlessj" unicode="&#x237;" horiz-adv-x="220" 
d="M194 481l-70 -566q-7 -60 -51 -91.5t-140 -31.5h-7q-11 0 -10 12l2 20q2 12 13 12h5q127 0 137 83l69 562q2 12 13 12h29q12 0 10 -12z" />
    <glyph glyph-name="circumflex" unicode="&#x2c6;" horiz-adv-x="345" 
d="M254 674l-72 -92q-10 -12 -17 -12h-24q-15 0 -6 12l92 114q9 12 20 12h20q10 0 17 -11l64 -115q7 -12 -7 -12h-22q-10 0 -16 12z" />
    <glyph glyph-name="caron" unicode="&#x2c7;" horiz-adv-x="345" 
d="M196 696l49 -92l72 92q10 12 18 12h24q14 0 4 -12l-92 -115q-9 -11 -20 -11h-19q-10 0 -17 12l-65 114q-7 12 8 12h23q8 0 15 -12z" />
    <glyph glyph-name="breve" unicode="&#x2d8;" horiz-adv-x="394" 
d="M189 683l-2 -19q-1 -9 -1 -19q0 -28 15 -41t52 -13q44 0 61 20t20 59l1 13q1 11 13 11h17q12 0 10 -11l-1 -12q-5 -57 -32 -85.5t-92 -28.5q-105 0 -105 85q0 3 2 23l2 18q1 11 12 11h18q11 0 10 -11z" />
    <glyph glyph-name="dotaccent" unicode="&#x2d9;" horiz-adv-x="237" 
d="M228 675l-9 -77q-1 -12 -13 -12h-29q-12 0 -11 12l9 77q1 12 13 12h30q12 0 10 -12z" />
    <glyph glyph-name="ring" unicode="&#x2da;" horiz-adv-x="326" 
d="M314 641l-2 -21q-7 -64 -96 -64q-41 0 -62.5 16t-21.5 41q0 7 1 17l2 22q5 65 97 65q40 0 61.5 -16.5t21.5 -42.5q0 -6 -1 -17zM280 625l1 11q1 8 1 16q0 35 -53 35q-59 0 -62 -40l-1 -12q-1 -9 -1 -14q0 -35 52 -35q60 0 63 39z" />
    <glyph glyph-name="ogonek" unicode="&#x2db;" horiz-adv-x="225" 
d="M158 -156h-41q-37 0 -59.5 17t-22.5 49q0 64 77 111q10 7 17 3l16 -9q11 -7 1 -14q-64 -37 -64 -81q0 -35 49 -35h31q15 0 12 -12l-3 -17q-1 -12 -13 -12z" />
    <glyph glyph-name="tilde" unicode="&#x2dc;" horiz-adv-x="426" 
d="M226 654q-18 0 -25 -10.5t-11 -39.5l-2 -13q-1 -11 -14 -11h-16q-11 0 -9 13l4 20q14 82 74 82q27 0 52 -22l40 -36q20 -16 32 -16q18 0 25 11t12 43l1 9q1 11 14 11h16q12 0 9 -13l-3 -19q-12 -82 -74 -82q-27 0 -53 21l-41 36q-20 16 -31 16z" />
    <glyph glyph-name="hungarumlaut" unicode="&#x2dd;" horiz-adv-x="356" 
d="M368 696l-93 -116q-7 -10 -18 -10h-22q-6 0 -7.5 4t2.5 8l87 114q9 12 20 12h27q13 0 4 -12zM266 696l-79 -114q-8 -12 -17 -12h-22q-6 0 -7.5 4t1.5 8l73 114q7 12 17 12h27q16 0 7 -12z" />
    <glyph glyph-name="Delta" unicode="&#x394;" horiz-adv-x="373" 
d="M108 414h157q21 0 21 -22v-157q0 -21 -21 -21h-157q-22 0 -22 21v157q0 22 22 22z" />
    <glyph glyph-name="Omega" unicode="&#x3a9;" horiz-adv-x="373" 
d="M68 313q0 48 34.5 83t82.5 35q49 0 84 -35t35 -83q0 -49 -35 -83.5t-84 -34.5q-48 0 -82.5 34.5t-34.5 83.5zM85 313q0 -42 29 -71t71 -29t71.5 29t29.5 71q0 41 -29.5 71t-71.5 30t-71 -29.5t-29 -71.5z" />
    <glyph glyph-name="mu" unicode="&#x3bc;" 
d="M387 12l3 41q-76 -61 -173 -61q-68 0 -86 41l-25 -229q-2 -12 -12 -12h-29q-13 0 -11 12l84 677q2 12 13 12h28q12 0 11 -12l-43 -346q-3 -19 -3 -28q0 -69 90 -69q83 0 161 59l47 384q2 12 13 12h29q12 0 10 -12l-58 -469q-2 -12 -13 -12h-25q-12 0 -11 12z" />
    <glyph glyph-name="pi" unicode="&#x3c0;" horiz-adv-x="373" 
d="M66 427h238q7 0 10 -5t2 -12t-5 -14l-110 -179q-6 -9 -15.5 -9t-14.5 9l-111 179q-4 7 -5.5 14t1.5 12t10 5z" />
    <glyph glyph-name="Wgrave" unicode="&#x1e80;" horiz-adv-x="791" 
d="M507 668l67 -506q6 -50 6 -72q1 5 25 72l191 506q4 12 16 12h27q12 0 8 -12l-247 -656q-4 -12 -16 -12h-30q-12 0 -14 12l-66 514q-6 51 -6 64q-1 -3 -5 -17t-8.5 -26.5t-7.5 -20.5l-194 -514q-5 -12 -16 -12h-30q-13 0 -14 12l-86 656q-1 12 11 12h30q12 0 13 -12
l67 -506q6 -38 6 -70q2 14 25 70l192 506q4 12 15 12h29q11 0 12 -12zM454 747l-65 119q-6 12 7 12h31q10 0 15 -10l56 -117q6 -11 -6 -11h-23q-11 0 -15 7z" />
    <glyph glyph-name="wgrave" unicode="&#x1e81;" horiz-adv-x="639" 
d="M641 493h26q12 0 8 -12l-188 -470q-4 -11 -15 -11h-33q-10 0 -12 11l-52 366q-4 32 -4 45l-18 -46l-148 -365q-5 -11 -15 -11h-33q-9 0 -11 11l-69 470q-2 12 12 12h29q10 0 12 -12l54 -372q4 -30 4 -39q3 15 13 39l149 372q5 12 15 12h33q10 0 12 -12l52 -372
q4 -32 4 -38q4 15 13 38l147 372q5 12 15 12zM354 577l-66 119q-6 12 8 12h30q10 0 15 -10l57 -117q6 -11 -7 -11h-23q-10 0 -14 7z" />
    <glyph glyph-name="Wacute" unicode="&#x1e82;" horiz-adv-x="791" 
d="M507 668l67 -506q6 -50 6 -72q1 5 25 72l191 506q4 12 16 12h27q12 0 8 -12l-247 -656q-4 -12 -16 -12h-30q-12 0 -14 12l-66 514q-6 51 -6 64q-1 -3 -5 -17t-8.5 -26.5t-7.5 -20.5l-194 -514q-5 -12 -16 -12h-30q-13 0 -14 12l-86 656q-1 12 11 12h30q12 0 13 -12
l67 -506q6 -38 6 -70q2 14 25 70l192 506q4 12 15 12h29q11 0 12 -12zM606 866l-94 -119q-7 -7 -15 -7h-26q-11 0 -4 11l86 117q7 10 16 10h33q14 0 4 -12z" />
    <glyph glyph-name="wacute" unicode="&#x1e83;" horiz-adv-x="639" 
d="M641 493h26q12 0 8 -12l-188 -470q-4 -11 -15 -11h-33q-10 0 -12 11l-52 366q-4 32 -4 45l-18 -46l-148 -365q-5 -11 -15 -11h-33q-9 0 -11 11l-69 470q-2 12 12 12h29q10 0 12 -12l54 -372q4 -30 4 -39q3 15 13 39l149 372q5 12 15 12h33q10 0 12 -12l52 -372
q4 -32 4 -38q4 15 13 38l147 372q5 12 15 12zM506 696l-94 -119q-7 -7 -15 -7h-26q-13 0 -5 11l87 117q7 10 16 10h33q14 0 4 -12z" />
    <glyph glyph-name="Wdieresis" unicode="&#x1e84;" horiz-adv-x="791" 
d="M507 668l67 -506q6 -50 6 -72q1 5 25 72l191 506q4 12 16 12h27q12 0 8 -12l-247 -656q-4 -12 -16 -12h-30q-12 0 -14 12l-66 514q-6 51 -6 64q-1 -3 -5 -17t-8.5 -26.5t-7.5 -20.5l-194 -514q-5 -12 -16 -12h-30q-13 0 -14 12l-86 656q-1 12 11 12h30q12 0 13 -12
l67 -506q6 -38 6 -70q2 14 25 70l192 506q4 12 15 12h29q11 0 12 -12zM563 857l-12 -98q-1 -12 -13 -12h-18q-12 0 -10 12l11 98q1 12 14 12h18q11 0 10 -12zM465 857l-12 -98q-1 -12 -13 -12h-18q-12 0 -10 12l11 98q1 12 14 12h18q11 0 10 -12z" />
    <glyph glyph-name="wdieresis" unicode="&#x1e85;" horiz-adv-x="639" 
d="M641 493h26q12 0 8 -12l-188 -470q-4 -11 -15 -11h-33q-10 0 -12 11l-52 366q-4 32 -4 45l-18 -46l-148 -365q-5 -11 -15 -11h-33q-9 0 -11 11l-69 470q-2 12 12 12h29q10 0 12 -12l54 -372q4 -30 4 -39q3 15 13 39l149 372q5 12 15 12h33q10 0 12 -12l52 -372
q4 -32 4 -38q4 15 13 38l147 372q5 12 15 12zM367 690l-12 -98q-1 -12 -13 -12h-18q-12 0 -10 12l12 98q2 12 13 12h18q11 0 10 -12zM465 690l-12 -98q-1 -12 -13 -12h-18q-12 0 -10 12l12 98q2 12 13 12h18q11 0 10 -12z" />
    <glyph glyph-name="Ygrave" unicode="&#x1ef2;" horiz-adv-x="509" 
d="M161 668l123 -308q7 -19 10 -33q2 6 18 33l201 308q9 12 17 12h31q15 0 7 -12l-252 -386l-33 -270q-1 -12 -13 -12h-30q-12 0 -11 12l33 264l-158 392q-5 12 10 12h34q8 0 13 -12zM312 747l-65 119q-6 12 7 12h31q10 0 15 -10l56 -117q6 -11 -6 -11h-23q-11 0 -15 7z" />
    <glyph glyph-name="ygrave" unicode="&#x1ef3;" horiz-adv-x="421" 
d="M132 481l79 -361q6 -30 8 -52q9 26 20 50l168 363q5 12 15 12h27q16 0 10 -12l-314 -677q-5 -12 -15 -12h-24q-14 0 -8 12l88 194l-107 483q-3 12 11 12h30q9 0 12 -12zM243 577l-66 119q-6 12 8 12h30q10 0 15 -10l57 -117q5 -11 -7 -11h-23q-11 0 -14 7z" />
    <glyph glyph-name="endash" unicode="&#x2013;" horiz-adv-x="550" 
d="M129 311h357q12 0 12 -11v-21q0 -12 -12 -12h-357q-12 0 -12 12v21q0 11 12 11z" />
    <glyph glyph-name="emdash" unicode="&#x2014;" horiz-adv-x="858" 
d="M129 311h666q12 0 12 -11v-21q0 -12 -12 -12h-666q-12 0 -12 12v21q0 11 12 11z" />
    <glyph glyph-name="quoteleft" unicode="&#x2018;" horiz-adv-x="224" 
d="M205 606l-8 -59q-1 -12 -13 -12h-30q-12 0 -10 12l8 61q5 43 29 70.5t73 43.5q11 4 14 -7l5 -21q2 -10 -9 -15q-31 -14 -43.5 -30.5t-15.5 -42.5z" />
    <glyph glyph-name="quoteright" unicode="&#x2019;" horiz-adv-x="224" 
d="M174 651l8 59q2 12 13 12h30q11 0 10 -12l-8 -61q-5 -43 -29 -70.5t-73 -43.5q-11 -4 -14 7l-5 21q-2 10 9 15q31 14 43.5 30.5t15.5 42.5z" />
    <glyph glyph-name="quotesinglbase" unicode="&#x201a;" horiz-adv-x="224" 
d="M94 30l8 59q2 12 13 12h30q11 0 10 -12l-8 -61q-5 -43 -29 -70.5t-73 -43.5q-11 -4 -14 7l-5 21q-2 10 9 15q31 14 43.5 30.5t15.5 42.5z" />
    <glyph glyph-name="quotedblleft" unicode="&#x201c;" horiz-adv-x="365" 
d="M346 606l-8 -59q-2 -12 -13 -12h-30q-11 0 -10 12l8 61q5 43 29 70.5t73 43.5q11 4 14 -7l5 -21q2 -10 -9 -15q-31 -14 -43.5 -30.5t-15.5 -42.5zM205 606l-8 -59q-1 -12 -13 -12h-30q-12 0 -10 12l8 61q5 43 29 70.5t73 43.5q11 4 14 -7l5 -21q2 -10 -9 -15
q-31 -14 -43.5 -30.5t-15.5 -42.5z" />
    <glyph glyph-name="quotedblright" unicode="&#x201d;" horiz-adv-x="365" 
d="M315 651l8 59q1 12 13 12h30q12 0 10 -12l-8 -61q-5 -43 -29 -70.5t-73 -43.5q-11 -4 -14 7l-5 21q-2 10 9 15q31 14 43.5 30.5t15.5 42.5zM174 651l8 59q2 12 13 12h30q11 0 10 -12l-8 -61q-5 -43 -29 -70.5t-73 -43.5q-11 -4 -14 7l-5 21q-2 10 9 15q31 14 43.5 30.5
t15.5 42.5z" />
    <glyph glyph-name="quotedblbase" unicode="&#x201e;" horiz-adv-x="365" 
d="M235 30l8 59q1 12 13 12h30q12 0 10 -12l-8 -61q-5 -43 -29 -70.5t-73 -43.5q-11 -4 -14 7l-5 21q-2 10 9 15q31 14 43.5 30.5t15.5 42.5zM94 30l8 59q2 12 13 12h30q11 0 10 -12l-8 -61q-5 -43 -29 -70.5t-73 -43.5q-11 -4 -14 7l-5 21q-2 10 9 15q31 14 43.5 30.5
t15.5 42.5z" />
    <glyph glyph-name="dagger" unicode="&#x2020;" horiz-adv-x="553" 
d="M386 687l-82 -675q-2 -12 -14 -12h-28q-12 0 -10 12l82 675q2 12 14 12h28q12 0 10 -12zM167 498h111q12 0 11 -12l-2 -21q-1 -12 -12 -12h-112q-13 0 -11 12l3 21q1 12 12 12zM393 498h112q13 0 11 -12l-3 -21q-1 -12 -13 -12h-110q-11 0 -11 12l1 21q0 12 13 12z" />
    <glyph glyph-name="daggerdbl" unicode="&#x2021;" horiz-adv-x="553" 
d="M387 687l-83 -675q-2 -12 -13 -12h-29q-12 0 -10 12l83 675q1 12 13 12h29q11 0 10 -12zM155 486q1 12 13 12h111q13 0 11 -12l-2 -21q-2 -12 -13 -12h-111q-12 0 -11 12zM516 486l-2 -21q-2 -12 -13 -12h-111q-12 0 -11 12l2 21q1 12 13 12h111q13 0 11 -12zM124 235
q0 11 13 11h111q12 0 11 -11l-3 -21q-1 -13 -12 -13h-111q-12 0 -11 13zM485 235l-2 -21q-1 -13 -13 -13h-111q-12 0 -11 13l2 21q1 11 13 11h111q12 0 11 -11z" />
    <glyph glyph-name="bullet" unicode="&#x2022;" horiz-adv-x="245" 
d="M188 322l-16 -125q-1 -11 -13 -11h-29q-11 0 -10 11l15 125q1 12 13 12h30q12 0 10 -12z" />
    <glyph glyph-name="ellipsis" unicode="&#x2026;" horiz-adv-x="708" 
d="M143 89l-9 -77q-1 -12 -13 -12h-29q-12 0 -11 12l9 77q2 12 13 12h31q10 0 9 -12zM638 89l-9 -77q-1 -12 -13 -12h-29q-12 0 -11 12l9 77q1 12 13 12h31q11 0 9 -12zM391 89l-9 -77q-1 -12 -13 -12h-29q-12 0 -11 12l9 77q2 12 13 12h31q10 0 9 -12z" />
    <glyph glyph-name="perthousand" unicode="&#x2030;" horiz-adv-x="1065" 
d="M415 87l12 106q10 91 140 91q120 0 120 -76q0 -12 -1 -21l-13 -105q-6 -44 -37.5 -67t-101.5 -23q-121 0 -121 76q0 7 2 19zM729 87l12 106q10 91 140 91q120 0 120 -76q0 -12 -1 -21l-13 -105q-6 -44 -37.5 -67t-101.5 -23q-121 0 -121 76q0 7 2 19zM146 489l12 106
q10 91 140 91q120 0 120 -76q0 -12 -1 -21l-13 -105q-6 -44 -37.5 -67t-101.5 -23q-121 0 -121 76q0 7 2 19zM628 83l13 104q1 10 1 13q0 46 -79 46q-84 0 -91 -54l-12 -100l-2 -18q0 -46 80 -46q83 0 90 55zM942 83l13 104q1 10 1 13q0 46 -79 46q-84 0 -91 -54l-12 -100
q0 -3 -0.5 -7t-1 -6.5t-0.5 -4.5q0 -46 80 -46q83 0 90 55zM359 485l13 104q1 10 1 13q0 46 -79 46q-84 0 -91 -54l-12 -100l-2 -18q0 -46 80 -46q83 0 90 55zM629 668l-379 -656q-8 -12 -18 -12h-28q-11 0 -4 12l378 656q7 12 19 12h27q13 0 5 -12z" />
    <glyph glyph-name="guilsinglleft" unicode="&#x2039;" horiz-adv-x="404" 
d="M151 245l139 -115q11 -9 10 -17l-4 -32q-1 -6 -5 -7.5t-7 1.5l-169 141q-10 8 -9 16l4 27q1 9 13 17l202 140q3 2 6 2.5t4.5 -2t1.5 -6.5l-5 -32q-1 -10 -13 -18z" />
    <glyph glyph-name="guilsinglright" unicode="&#x203a;" horiz-adv-x="404" 
d="M293 246l-139 115q-11 9 -10 17l4 32q1 6 5 7.5t7 -1.5l169 -141q10 -8 9 -16l-4 -27q-1 -9 -13 -17l-202 -140q-3 -2 -6 -2.5t-4.5 2t-1.5 6.5l5 32q1 10 13 18z" />
    <glyph glyph-name="fraction" unicode="&#x2044;" horiz-adv-x="435" 
d="M474 668l-379 -656q-7 -12 -18 -12h-28q-11 0 -4 12l378 656q7 12 19 12h27q13 0 5 -12z" />
    <glyph glyph-name="Euro" unicode="&#x20ac;" horiz-adv-x="557" 
d="M90 299h75l10 83h-76q-11 0 -10 12l1 13q1 11 14 11h75l16 129q8 66 57 103.5t163 37.5q190 0 190 -120q0 -7 -2 -23l-6 -50q-1 -13 -12 -13h-29q-13 0 -11 13l6 42q1 6 1 19q0 86 -141 86q-83 0 -120 -26.5t-44 -76.5l-15 -121h146q12 0 11 -11l-1 -13q-1 -12 -14 -12
h-146l-10 -83h146q11 0 10 -12l-1 -13q-1 -11 -13 -11h-147l-14 -120q-1 -7 -1 -20q0 -85 139 -85q153 0 165 103l7 57q1 11 13 11h28q13 0 11 -11l-8 -65q-8 -66 -58 -103.5t-163 -37.5q-189 0 -189 119q0 8 2 24l15 128h-74q-12 0 -11 11l1 13q1 12 14 12z" />
    <glyph glyph-name="afii61289" unicode="&#x2113;" horiz-adv-x="512" 
d="M160 121l14 119q-66 -32 -120 -50q-11 -4 -14 5l-7 22q-3 12 7 16q89 33 141 59l31 249q8 66 45 103.5t118 37.5q73 0 105.5 -31t32.5 -82q0 -9 -2 -29q-17 -144 -281 -274l-16 -131q-2 -14 -2 -18q0 -73 115 -73h93q11 0 10 -12l-2 -20q-2 -12 -13 -12h-93
q-163 0 -163 106q0 10 1 15zM263 536l-27 -218q213 113 225 220q2 16 2 25q0 75 -91 75q-55 0 -78.5 -25.5t-30.5 -76.5z" />
    <glyph glyph-name="trademark" unicode="&#x2122;" horiz-adv-x="887" 
d="M845 670l-48 -388q-1 -10 -10 -10h-25q-10 0 -9 10l38 309q-7 -16 -13 -26l-127 -221q-7 -10 -15 -10h-19q-10 0 -13 10l-76 223q0 1 -5 26l-38 -311q-1 -10 -10 -10h-24q-10 0 -9 10l48 388q1 10 11 10h23q6 0 8 -7l93 -264q5 -18 6 -26q2 5 14 25l155 266q3 6 11 6h26
q9 0 8 -10zM162 680h270q10 0 9 -9l-2 -20q-1 -9 -11 -9h-113l-44 -360q-1 -10 -11 -10h-26q-10 0 -9 10l44 360h-111q-6 0 -8.5 2t-1.5 7l2 20q1 9 12 9z" />
    <glyph glyph-name="uni2126" unicode="&#x2126;" horiz-adv-x="373" 
d="M68 313q0 48 34.5 83t82.5 35q49 0 84 -35t35 -83q0 -49 -35 -83.5t-84 -34.5q-48 0 -82.5 34.5t-34.5 83.5zM85 313q0 -42 29 -71.5t71 -29.5t71.5 29.5t29.5 71.5q0 41 -29.5 70.5t-71.5 29.5t-71 -29.5t-29 -70.5z" />
    <glyph glyph-name="estimated" unicode="&#x212e;" horiz-adv-x="833" 
d="M798 340q0 -16 -16 -16h-587v-180q43 -60 110.5 -95.5t145.5 -35.5q143 0 247 113q5 5 10 5q8 0 8 -9q0 -6 -7 -15q-46 -53 -114 -84t-144 -31q-145 0 -246.5 101t-101.5 247q0 144 102 246t246 102q143 0 245 -102t102 -246zM451 666q-78 0 -145 -35.5t-111 -95.5v-191
h513v188q-45 61 -112.5 97.5t-144.5 36.5z" />
    <glyph glyph-name="partialdiff" unicode="&#x2202;" horiz-adv-x="373" 
d="M87 197v237q0 11 10.5 13t20.5 -5l179 -111q9 -6 9 -15.5t-9 -14.5l-179 -111q-10 -7 -20.5 -5.5t-10.5 12.5z" />
    <glyph glyph-name="uni2206" unicode="&#x2206;" horiz-adv-x="373" 
d="M108 413h157q21 0 21 -21v-157q0 -22 -21 -22h-157q-22 0 -22 22v157q0 21 22 21z" />
    <glyph glyph-name="product" unicode="&#x220f;" horiz-adv-x="373" 
d="M306 205h-238q-7 0 -10 5t-2 11.5t5 13.5l110 180q5 9 15 8.5t15 -8.5l111 -180q4 -7 5.5 -13.5t-1.5 -11.5t-10 -5z" />
    <glyph glyph-name="summation" unicode="&#x2211;" horiz-adv-x="373" 
d="M285 434v-237q0 -11 -10 -12.5t-20 5.5l-179 111q-9 5 -9 14.5t9 15.5l179 111q7 4 13.5 5t11.5 -2.5t5 -10.5z" />
    <glyph glyph-name="minus" unicode="&#x2212;" horiz-adv-x="590" 
d="M136 358h397q11 0 11 -12v-21q0 -12 -11 -12h-397q-12 0 -12 12v21q0 12 12 12z" />
    <glyph glyph-name="radical" unicode="&#x221a;" horiz-adv-x="373" 
d="M108 422h157q30 0 30 -30v-157q0 -30 -30 -30h-157q-30 0 -30 30v157q0 16 7 23t23 7zM265 405h-157q-13 0 -13 -13v-157q0 -13 13 -13h157q13 0 13 13v157q0 13 -13 13z" />
    <glyph glyph-name="infinity" unicode="&#x221e;" horiz-adv-x="373" 
d="M54 335l111 111q13 11 21 11q9 0 22 -11l111 -111q10 -11 10 -21q0 -11 -10 -22l-111 -111q-13 -11 -22 -11q-8 0 -21 11l-111 111q-12 14 -12 22q0 7 12 21zM178 434l-112 -112q-4 -4 -4 -9t4 -8l112 -112q3 -4 8 -4t9 4l112 112q4 4 4 8q0 3 -4 9l-112 112q-6 4 -9 4
q-4 0 -8 -4z" />
    <glyph glyph-name="integral" unicode="&#x222b;" horiz-adv-x="373" 
d="M31 313q0 65 45 110.5t109 45.5q65 0 111 -45.5t46 -110.5t-46 -110t-111 -45t-109.5 45t-44.5 110z" />
    <glyph glyph-name="approxequal" unicode="&#x2248;" horiz-adv-x="481" 
d="M183 407q-19 0 -25 -10.5t-7 -42.5v-10q0 -11 -13 -11h-16q-12 0 -10 14l1 21q4 85 66 85q24 0 49 -15l84 -46q30 -15 41 -15q19 0 24 10.5t7 43.5v9q0 11 13 11h16q11 0 10 -13l-1 -22q-4 -85 -64 -85q-25 0 -54 16l-85 47q-23 13 -36 13zM183 256q-19 0 -25 -10.5
t-7 -42.5v-10q0 -11 -13 -11h-16q-12 0 -10 14l1 21q4 85 66 85q24 0 49 -15l84 -46q30 -15 41 -15q19 0 24 10.5t7 43.5v9q0 11 13 11h16q11 0 10 -13l-1 -22q-4 -85 -64 -85q-25 0 -54 16l-85 47q-23 13 -36 13z" />
    <glyph glyph-name="notequal" unicode="&#x2260;" horiz-adv-x="590" 
d="M124 442h215l28 72q5 12 16 12h26q13 0 8 -12l-28 -72h132q12 0 12 -12v-21q0 -12 -12 -12h-150l-49 -126h199q12 0 12 -12v-21q0 -12 -12 -12h-216l-28 -72q-5 -12 -17 -12h-26q-12 0 -7 12l28 72h-131q-12 0 -12 12v21q0 12 12 12h148l49 126h-197q-12 0 -12 12v21
q0 12 12 12z" />
    <glyph glyph-name="lessequal" unicode="&#x2264;" horiz-adv-x="544" 
d="M463 519l-310 -118l310 -117q12 -4 12 -14v-29q0 -14 -12 -9l-351 140q-11 5 -11 14v31q0 9 11 14l351 140q12 5 12 -9v-29q0 -9 -12 -14zM114 167h349q12 0 12 -11v-21q0 -11 -12 -11h-349q-12 0 -12 11v21q0 11 12 11z" />
    <glyph glyph-name="greaterequal" unicode="&#x2265;" horiz-adv-x="543" 
d="M422 401l-310 118q-12 5 -12 14v29q0 14 12 10l351 -140q11 -5 11 -15v-31q0 -9 -11 -14l-351 -141q-12 -5 -12 10v30q0 9 12 13zM112 168h350q12 0 12 -12v-22q0 -11 -12 -11h-350q-12 0 -12 11v22q0 12 12 12z" />
    <glyph glyph-name="lozenge" unicode="&#x25ca;" horiz-adv-x="373" 
d="M60 329l111 111q8 7 15 7q8 0 15 -7l111 -111q8 -8 8 -15q0 -8 -8 -15l-111 -111q-7 -9 -15 -9q-6 0 -15 9l-111 111q-8 8 -8 15q0 5 8 15z" />
    <glyph glyph-name="CR" horiz-adv-x="0" 
 />
    <glyph glyph-name="commaaccent" horiz-adv-x="235" 
d="M99 62l4 27q1 12 13 12h22q12 0 10 -12l-3 -29q-5 -48 -51 -114q-6 -9 -16 -6l-17 5q-10 3 -3 15q35 58 41 102z" />
    <glyph glyph-name="acute.case" horiz-adv-x="233" 
d="M185 866l-94 -119q-7 -7 -15 -7h-26q-11 0 -4 11l86 117q7 10 16 10h33q14 0 4 -12z" />
    <glyph glyph-name="macron.case" horiz-adv-x="233" 
d="M-9 820h256q6 0 9 -2.5t2 -7.5l-2 -19q-2 -12 -13 -12h-257q-12 0 -11 12l2 18q1 11 14 11z" />
    <glyph glyph-name="breve.case" horiz-adv-x="233" 
d="M44 871l-2 -19q-1 -9 -1 -19q0 -28 14.5 -40.5t52.5 -12.5q44 0 61 19.5t20 58.5l1 13q1 11 13 11h17q12 0 10 -11l-1 -12q-5 -57 -32 -85.5t-92 -28.5q-105 0 -105 85q0 3 2 23l2 18q1 11 12 11h18q11 0 10 -11z" />
    <glyph glyph-name="caron.case" horiz-adv-x="233" 
d="M54 866l49 -92l72 92q10 12 18 12h24q14 0 5 -12l-93 -115q-9 -11 -19 -11h-19q-11 0 -18 12l-64 114q-7 12 8 12h23q8 0 14 -12z" />
    <glyph glyph-name="ring.case" horiz-adv-x="233" 
d="M207 808l-2 -21q-7 -64 -96 -64q-41 0 -62.5 16t-21.5 41q0 7 1 17l2 22q5 65 97 65q40 0 61.5 -16.5t21.5 -42.5q0 -6 -1 -17zM173 792l1 11q1 8 1 16q0 35 -53 35q-59 0 -62 -40l-1 -12q-1 -9 -1 -14q0 -35 52 -35q60 0 63 39z" />
    <glyph glyph-name="circumflex.case" horiz-adv-x="233" 
d="M128 844l-72 -92q-10 -12 -17 -12h-24q-14 0 -5 12l91 114q10 12 21 12h19q10 0 17 -11l65 -115q7 -12 -8 -12h-22q-10 0 -16 12z" />
    <glyph glyph-name="tilde.case" horiz-adv-x="233" 
d="M54 828q-18 0 -25 -10.5t-11 -38.5l-2 -14q-3 -11 -14 -11h-16q-11 0 -9 14l4 20q13 81 74 81q28 0 52 -21l40 -36q18 -16 32 -16q18 0 25 11t12 43l1 9q1 11 14 11h16q11 0 9 -13l-3 -20q-13 -82 -75 -82q-27 0 -52 22l-41 36q-19 15 -31 15z" />
    <glyph glyph-name="dieresis.case" horiz-adv-x="233" 
d="M94 857l-12 -98q-2 -12 -13 -12h-18q-11 0 -10 12l11 98q2 12 14 12h18q12 0 10 -12zM192 857l-12 -98q-2 -12 -13 -12h-18q-11 0 -10 12l11 98q2 12 14 12h18q12 0 10 -12z" />
    <glyph glyph-name="dotaccent.case" horiz-adv-x="233" 
d="M148 838l-9 -77q-1 -11 -13 -11h-29q-12 0 -11 11l9 77q1 12 13 12h30q11 0 10 -12z" />
    <glyph glyph-name="grave.case" horiz-adv-x="233" 
d="M127 747l-65 119q-6 12 7 12h31q10 0 15 -10l56 -117q5 -11 -6 -11h-23q-12 0 -15 7z" />
    <glyph glyph-name="hungarumlaut.case" horiz-adv-x="233" 
d="M229 866l-93 -116q-8 -10 -18 -10h-23q-13 0 -4 12l87 114q10 12 19 12h27q14 0 5 -12zM125 866l-77 -114q-9 -12 -18 -12h-22q-12 0 -5 12l72 114q7 12 18 12h26q15 0 6 -12z" />
    <glyph glyph-name="apple" horiz-adv-x="1489" 
d="M719 320q17 0 28.5 -13.5t11.5 -37.5q0 -68 -87 -68v-40l3 -32q-24 -8 -32 -8q-11 0 -11 8v75l-25 -3v-3q0 -79 -68 -79q-21 0 -31 10.5t-10 23.5q0 36 70 53v42q-17 -48 -46 -48q-28 0 -28 31v3q-19 -33 -53 -33q-29 0 -29 30v101l-29 -2v4q0 20 12 20h17l-3 30
q24 8 32 8q11 0 11 -8v-29h47v-3q0 -21 -12 -21h-35v-86q0 -16 13 -16q9 0 19 8t10 18v25l-3 33q24 8 32 8q11 0 11 -9v-66q0 -15 7 -15t16.5 17t9.5 31l-2 34q24 8 31 8q11 0 11 -9v-99l25 3v61l-3 36q24 8 32 8q11 0 11 -9v-40q17 48 47 48zM388 289v-49l3 -32
q-24 -8 -31 -8q-11 0 -11 8v66q0 16 -8 16q-7 0 -16.5 -17.5t-9.5 -30.5l2 -34q-24 -8 -31 -8q-11 0 -11 8v66q0 16 -8 16q-7 0 -16.5 -17.5t-9.5 -30.5l3 -34q-24 -8 -32 -8q-11 0 -11 8v69l-3 36q24 8 32 8q11 0 11 -9v-40q3 9 7.5 19t15 20t22.5 10q29 0 29 -32v-17
q14 49 45 49q28 0 28 -32zM1221 332l-29 -2v4q0 20 12 20h17l-3 30q24 8 32 8q11 0 11 -8v-29h47v-3q0 -21 -12 -21h-35v-90q0 -15 16 -15q11 0 38.5 5.5t46.5 5.5q17 0 39.5 -6t22.5 -18q0 -14 -9.5 -21t-17.5 -7q-2 0 -26.5 12t-44.5 12q-7 0 -32 -4t-44 -4t-23 12.5
t-5 65.5q0 32 -1 53zM77 529v8h1338v-8h-1338zM77 0v8h1338v-8h-1338zM1079 289v-49l2 -32q-24 -8 -31 -8q-11 0 -11 8v67q0 15 -8 15q-7 0 -16.5 -17.5t-9.5 -30.5l3 -34q-24 -8 -32 -8q-11 0 -11 8v69l-3 36q24 8 32 8q11 0 11 -9v-40q18 49 45 49q29 0 29 -32zM158 258
q-16 -6 -44 -6q2 -22 26 -22q17 0 32 9q8 -5 8 -16q0 -4 -2.5 -8.5t-14 -9.5t-30.5 -5q-28 0 -44 14.5t-16 38.5q0 27 18.5 47.5t50.5 20.5q19 0 30 -9.5t11 -21.5q0 -24 -25 -32zM857 258q-16 -6 -44 -6q2 -22 26 -22q17 0 32 9q8 -5 8 -16q0 -4 -2.5 -8.5t-14 -9.5
t-30.5 -5q-28 0 -44 14.5t-16 38.5q0 27 18.5 47.5t50.5 20.5q19 0 30 -9.5t11 -21.5q0 -24 -25 -32zM1180 258q-16 -6 -44 -6q2 -22 26 -22q17 0 32 9q8 -5 8 -16q0 -4 -2.5 -8.5t-14 -9.5t-30.5 -5q-28 0 -44 14.5t-16 38.5q0 27 18.5 47.5t50.5 20.5q19 0 30 -9.5
t11 -21.5q0 -24 -25 -32zM672 219q45 6 45 51q0 20 -13 20t-22.5 -18.5t-9.5 -29.5v-23zM922 250q11 0 18.5 -7t7.5 -17t-7.5 -16.5t-18.5 -6.5t-18 6.5t-7 16.5t7 17t18 7zM567 194q-41 -9 -41 -32q0 -14 14 -14q25 0 27 46zM113 264q37 0 37 21q0 13 -13 13q-20 0 -24 -34
zM1135 264q37 0 37 21q0 13 -13 13q-20 0 -24 -34zM812 264q37 0 37 21q0 13 -13 13q-20 0 -24 -34z" />
    </font>
</defs>
</svg>
