<?xml version="1.0" standalone="no"?>
<!DOCTYPE svg PUBLIC "-//W3C//DTD SVG 1.1//EN" "http://www.w3.org/Graphics/SVG/1.1/DTD/svg11.dtd" >
<svg xmlns="http://www.w3.org/2000/svg" xmlns:xlink="http://www.w3.org/1999/xlink" version="1.1">
<metadata>
Created by FontForge 20161013 at Thu Jul 16 13:59:49 2009
 By ,,,
Copyright (c) 2009 by Eduardo Manso. All rights reserved.
</metadata>
<defs>
<font id="Geogrotesque-MediumItalic" horiz-adv-x="531" >
  <font-face 
    font-family="Geogrotesque Md It"
    font-weight="500"
    font-style="italic"
    font-stretch="normal"
    units-per-em="1000"
    panose-1="0 0 0 0 0 0 0 0 0 0"
    ascent="750"
    descent="-250"
    x-height="496"
    cap-height="680"
    bbox="-82.3913 -237.562 1420 964"
    underline-thickness="50"
    underline-position="-200"
    unicode-range="U+0020-FB04"
  />
<missing-glyph horiz-adv-x="854" 
d="M712 94q-104 -102 -249 -102q-144 0 -246 102q-103 101 -103 247q0 144 103 247q102 102 246 102q147 0 249 -102q103 -103 103 -247t-103 -247zM700 106q99 99 99 235t-99 235q-98 98 -237 98q-136 0 -234 -98q-99 -99 -99 -235q0 -137 99 -235q98 -98 234 -98
q139 0 237 98zM575 177l-110 110l-110 -110q-7 -7 -14 -7t-13 7l-29 30q-7 9 -7 13q0 6 7 13l110 110l-109 110q-8 10 -8 14q0 6 6 12l29 30q6 7 14 7q7 0 14 -7l110 -111l110 110q8 8 15 8q6 0 12 -6l29 -29q7 -7 7 -14t-7 -14l-111 -110l111 -111q7 -7 7 -14q0 -6 -7 -13
l-30 -29q-7 -7 -13 -7q-5 0 -13 8z" />
    <glyph glyph-name="ff" unicode="ff" horiz-adv-x="632" 
d="M159 494h6l10 73q18 136 212 136h10q20 0 17 -19l-5 -40q-3 -19 -22 -19h-7q-103 0 -111 -68l-8 -63h203l9 73q17 136 213 136h10q20 0 17 -19l-5 -40q-3 -19 -22 -19h-7q-103 0 -111 -68l-8 -63h98q20 0 17 -18l-5 -39q-3 -19 -21 -19h-98l-75 -603q-3 -19 -20 -19h-58
q-20 0 -17 19l75 603h-204l-75 -603q-3 -19 -20 -19h-58q-20 0 -17 19l75 603h-59q-20 0 -17 19l4 34q3 18 21 19z" />
    <glyph glyph-name="fi" unicode="fi" horiz-adv-x="567" 
d="M553 475l-56 -455q-3 -20 -20 -20h-59q-19 0 -16 20l49 396h-204l-75 -600q-3 -20 -20 -20h-58q-20 0 -17 20l75 600h-59q-10 0 -13.5 4.5t-2.5 15.5l3 35q1 18 21 19l53 4h7l8 68q17 137 209 137h169q10 0 14 -4t3 -15l-5 -42q-1 -20 -21 -20h-163q-104 0 -112 -66
l-7 -58h280q20 0 17 -19z" />
    <glyph glyph-name="fl" unicode="fl" horiz-adv-x="567" 
d="M578 680l-81 -660q-3 -20 -20 -20h-59q-19 0 -16 20l74 598h-101q-104 0 -112 -66l-7 -58h97q19 0 18 -18l-5 -40q-3 -20 -21 -20h-98l-75 -600q-3 -20 -20 -20h-58q-20 0 -17 20l75 600h-59q-10 0 -13.5 4.5t-2.5 15.5l3 35q1 18 21 19l53 4h7l8 68q17 137 209 137h183
q20 0 17 -19z" />
    <glyph glyph-name="ffi" unicode="ffi" horiz-adv-x="858" 
d="M159 494h6l10 73q18 136 212 136h10q20 0 17 -19l-5 -40q-3 -19 -22 -19h-7q-103 0 -111 -68l-8 -63h204l8 69q15 136 209 136h169q20 0 17 -19l-5 -40q-3 -19 -21 -19h-163q-102 0 -111 -68l-8 -59h280q20 0 17 -19l-56 -456q-3 -19 -20 -19h-59q-19 0 -16 19l49 399
h-204l-75 -603q-2 -11 -6 -15t-14 -4h-58q-20 0 -17 19l75 603h-204l-75 -603q-3 -19 -20 -19h-58q-20 0 -17 19l75 603h-59q-20 0 -17 19l4 34q3 18 21 19z" />
    <glyph glyph-name="ffl" unicode="ffl" horiz-adv-x="871" 
d="M882 680l-81 -661q-3 -19 -20 -19h-59q-19 0 -16 19l74 602h-101q-105 0 -111 -68l-8 -59h98q18 0 17 -18l-5 -39q-1 -19 -21 -19h-98l-75 -603q-2 -11 -6 -15t-14 -4h-58q-20 0 -17 19l75 603h-205l-74 -603q-3 -19 -21 -19h-58q-20 0 -17 19l75 603h-59q-20 0 -17 19
l5 34q3 18 20 19l53 4h7l9 73q17 136 212 136h10q20 0 17 -19l-5 -40q-3 -19 -21 -19h-8q-103 0 -111 -68l-8 -63h205l8 69q17 136 209 136h183q20 0 17 -19z" />
    <glyph glyph-name=".notdef" horiz-adv-x="854" 
d="M712 94q-104 -102 -249 -102q-144 0 -246 102q-103 101 -103 247q0 144 103 247q102 102 246 102q147 0 249 -102q103 -103 103 -247t-103 -247zM700 106q99 99 99 235t-99 235q-98 98 -237 98q-136 0 -234 -98q-99 -99 -99 -235q0 -137 99 -235q98 -98 234 -98
q139 0 237 98zM575 177l-110 110l-110 -110q-7 -7 -14 -7t-13 7l-29 30q-7 9 -7 13q0 6 7 13l110 110l-109 110q-8 10 -8 14q0 6 6 12l29 30q6 7 14 7q7 0 14 -7l110 -111l110 110q8 8 15 8q6 0 12 -6l29 -29q7 -7 7 -14t-7 -14l-111 -110l111 -111q7 -7 7 -14q0 -6 -7 -13
l-30 -29q-7 -7 -13 -7q-5 0 -13 8z" />
    <glyph glyph-name=".null" horiz-adv-x="0" 
 />
    <glyph glyph-name="nonmarkingreturn" horiz-adv-x="333" 
 />
    <glyph glyph-name="space" unicode=" " horiz-adv-x="211" 
 />
    <glyph glyph-name="exclam" unicode="!" horiz-adv-x="264" 
d="M230 390l-35 -200q-3 -19 -21 -19h-43q-17 0 -16 19l15 200l33 270q3 20 21 20h62q19 0 16 -20zM192 99l-10 -80q-3 -19 -21 -19h-60q-20 0 -17 19l10 80q3 19 21 19h61q19 0 16 -19z" />
    <glyph glyph-name="quotedbl" unicode="&#x22;" horiz-adv-x="392" 
d="M245 660l-28 -167q-3 -20 -21 -20h-41q-17 0 -16 20l12 167q1 20 21 20h58q18 0 15 -20zM401 660l-29 -167q-3 -20 -20 -20h-41q-18 0 -17 20l13 167q1 20 21 20h57q19 0 16 -20z" />
    <glyph glyph-name="numbersign" unicode="#" horiz-adv-x="663" 
d="M127 271h76l39 94h-58q-18 0 -17 19l3 32q1 18 22 18h78l36 88q8 20 26 20h43q18 0 11 -20l-36 -88h140l36 88q8 20 26 20h43q18 0 11 -20l-36 -88h52q18 0 17 -18l-3 -32q-1 -19 -22 -19h-71l-39 -94h54q18 0 17 -18l-3 -32q-1 -19 -22 -19h-73l-36 -87q-8 -20 -25 -20
h-44q-19 0 -11 20l35 87h-140l-35 -87q-8 -20 -25 -20h-44q-20 0 -12 20l36 87h-57q-17 0 -16 19l3 32q1 18 21 18zM323 365l-39 -94h140l39 94h-140z" />
    <glyph glyph-name="dollar" unicode="$" horiz-adv-x="532" 
d="M430 449l2 17q1 7 1 16q0 45 -88 45q-92 0 -99 -49l-2 -15q-1 -9 -1 -11q0 -31 35 -43l145 -50q38 -13 58 -36.5t20 -51.5q0 -6 -2 -24l-5 -50q-5 -44 -42.5 -73.5t-111.5 -37.5l-8 -66q-3 -20 -20 -20h-58q-20 0 -17 20l8 66q-65 8 -98 36.5t-33 66.5q0 6 1 16l3 24
q3 18 20 18h53q15 0 14 -18l-2 -19q-1 -7 -1 -13q0 -20 25.5 -31.5t69.5 -11.5q103 0 110 51l3 23q1 11 1 17q0 24 -47 41l-138 49q-72 25 -72 94q0 5 1 16l4 34q11 102 149 115l8 66q3 20 22 20h58q18 0 15 -20l-9 -68q59 -9 89 -38t30 -67q0 -6 -1 -17l-2 -21
q-1 -18 -20 -18h-53q-17 0 -15 18z" />
    <glyph glyph-name="percent" unicode="%" horiz-adv-x="815" 
d="M462 96l12 101q6 50 41.5 76.5t112.5 26.5q67 0 101 -23t34 -63q0 -13 -1 -20l-13 -101q-6 -50 -41.5 -76t-111.5 -26q-136 0 -136 87q0 6 2 18zM671 97l10 87q2 14 2 17q0 34 -61 34q-64 0 -69 -40l-11 -88q0 -4 -0.5 -7.5t-1 -6t-0.5 -3.5q0 -35 62 -35q64 0 69 42z
M344 484l10 87q2 14 2 17q0 34 -61 34q-64 0 -69 -40l-11 -88q0 -4 -0.5 -7.5t-1 -6t-0.5 -3.5q0 -35 62 -35q65 0 69 42zM135 483l12 101q6 50 41.5 76.5t112.5 26.5q67 0 101 -23t34 -63q0 -13 -1 -20l-13 -101q-6 -50 -41.5 -76t-111.5 -26q-136 0 -136 87q0 6 2 18z
M688 660l-389 -640q-11 -20 -29 -20h-54q-6 0 -8.5 3.5t-2 8t3.5 8.5l388 640q13 20 30 20h54q9 0 10.5 -6t-3.5 -14z" />
    <glyph glyph-name="ampersand" unicode="&#x26;" horiz-adv-x="682" 
d="M344 396h328q19 0 17 -19l-5 -43q-1 -19 -21 -19h-68l-21 -170q-21 -153 -258 -153q-118 0 -171.5 36.5t-53.5 96.5q0 13 1 21l13 97q6 46 29 73.5t75 41.5q-71 20 -71 86q0 8 2 22l9 72q8 70 57 110t166 40q94 0 144.5 -33.5t50.5 -95.5v-16l-3 -34q-3 -19 -21 -19h-59
q-18 0 -16 19l2 20v12q0 66 -105 66q-56 0 -86.5 -19t-35.5 -66l-5 -42q-2 -18 -2 -19q0 -65 108 -65zM325 73q144 0 155 85l19 157h-172q-67 0 -94.5 -20t-33.5 -64l-9 -72q-1 -8 -1 -15q0 -71 136 -71z" />
    <glyph glyph-name="quotesingle" unicode="'" horiz-adv-x="236" 
d="M245 660l-28 -167q-3 -20 -21 -20h-41q-17 0 -16 20l12 167q1 20 21 20h58q18 0 15 -20z" />
    <glyph glyph-name="parenleft" unicode="(" horiz-adv-x="355" 
d="M66 -74l80 645q9 72 54 104.5t149 32.5h19q20 0 17 -19l-5 -42q-3 -20 -22 -20h-7q-55 0 -79.5 -16.5t-28.5 -49.5l-78 -629q-2 -8 -2 -13q0 -56 94 -56h7q20 0 17 -20l-5 -42q-3 -19 -21 -19h-7q-90 0 -137 33t-47 91q0 6 2 20z" />
    <glyph glyph-name="parenright" unicode=")" horiz-adv-x="355" 
d="M347 564l-79 -645q-9 -72 -54.5 -104.5t-149.5 -32.5h-18q-20 0 -17 19l4 42q3 20 22 20h7q101 0 109 66l77 629q2 12 2 14q0 55 -94 55h-7q-19 0 -16 20l5 42q1 19 21 19h6q91 0 137.5 -33t46.5 -91q0 -6 -2 -20z" />
    <glyph glyph-name="asterisk" unicode="*" horiz-adv-x="523" 
d="M286 322q-19 0 -16 20l22 125l-118 -72q-17 -10 -25 8l-11 28q-7 17 11 26l115 55l-101 57q-15 9 -5 25l16 27q11 19 28 7l101 -71l10 133q1 19 21 19h32q18 0 15 -19l-23 -131l114 70q18 11 25 -6l13 -29q7 -16 -11 -25l-117 -57l103 -56q16 -8 5 -25l-17 -28
q-12 -18 -27 -7l-99 69l-9 -123q-1 -20 -20 -20h-32z" />
    <glyph glyph-name="plus" unicode="+" horiz-adv-x="571" 
d="M282 143v155h-155q-19 0 -19 19v43q0 19 19 19h155v155q0 20 18 20h42q19 0 19 -20v-155h157q19 0 19 -19v-43q0 -19 -19 -19h-157v-155q0 -19 -19 -19h-42q-18 0 -18 19z" />
    <glyph glyph-name="comma" unicode="," horiz-adv-x="258" 
d="M96 35l8 64q3 19 21 19h60q19 0 16 -19l-9 -69q-13 -103 -135 -133q-18 -4 -22 12l-10 41q-4 17 16 24q28 11 40 25t15 36z" />
    <glyph glyph-name="hyphen" unicode="-" horiz-adv-x="448" 
d="M121 328h268q19 0 19 -18v-42q0 -18 -19 -18h-268q-19 0 -19 18v42q0 18 19 18z" />
    <glyph glyph-name="period" unicode="." horiz-adv-x="233" 
d="M176 99l-10 -80q-3 -19 -20 -19h-60q-19 0 -16 19l9 80q1 19 21 19h61q18 0 15 -19z" />
    <glyph glyph-name="slash" unicode="/" horiz-adv-x="368" 
d="M423 679l-308 -807q-7 -20 -25 -20h-66q-19 0 -11 20l307 807q8 20 24 20h66q21 0 13 -20z" />
    <glyph glyph-name="zero" unicode="0" horiz-adv-x="550" 
d="M75 150l47 384q19 154 232 154q105 0 154.5 -37t49.5 -96q0 -7 -2 -25l-46 -384q-19 -154 -233 -154q-106 0 -155 36.5t-49 95.5q0 10 2 26zM413 162l44 351q1 8 1 20q0 72 -110 72q-119 0 -130 -87l-43 -347q-2 -16 -2 -24q0 -72 111 -72q118 0 129 87z" />
    <glyph glyph-name="one" unicode="1" horiz-adv-x="550" 
d="M167 636l234 49q8 2 12.5 -2t3.5 -16l-72 -584h147q20 0 17 -18l-5 -46q-3 -19 -22 -19h-394q-19 0 -16 19l5 46q3 18 21 18h149l62 499l-152 -30q-9 -2 -13.5 2.5t-3.5 14.5l5 46q1 16 22 21z" />
    <glyph glyph-name="two" unicode="2" horiz-adv-x="550" 
d="M182 83h304q19 0 17 -18l-5 -46q-3 -19 -22 -19h-383q-19 0 -16 19l24 193q3 28 19.5 47.5t30 26.5t37.5 16l203 73q53 19 58 64l10 76q1 8 1 22q0 69 -109 69q-64 0 -93 -21.5t-35 -65.5l-6 -43q-3 -20 -20 -20h-59q-18 0 -16 20l7 58q4 33 16.5 59t37.5 48.5t69.5 34.5
t105.5 12q105 0 153 -36.5t48 -95.5q0 -10 -2 -26l-11 -92q-13 -104 -108 -136l-178 -62q-19 -7 -29.5 -11.5t-22 -17.5t-13.5 -32z" />
    <glyph glyph-name="three" unicode="3" horiz-adv-x="550" 
d="M236 396h76q65 0 93 20.5t34 63.5l6 42q1 8 1 17q0 68 -105 68q-117 0 -123 -85l-1 -13q-1 -19 -21 -19h-58q-18 0 -16 19l2 26q11 153 227 153q194 0 194 -129q0 -7 -2 -27l-9 -68q-5 -43 -26 -68t-68 -38q76 -24 76 -95q0 -9 -2 -27l-12 -95q-8 -69 -59.5 -109
t-169.5 -40q-106 0 -154 36t-48 96q0 13 1 21l3 26q3 19 21 19h58q18 0 16 -19l-1 -13q-1 -7 -1 -17q0 -68 111 -68q118 0 129 85l9 73q1 10 1 19q0 65 -107 65h-85q-19 0 -17 19l5 43q3 19 22 19z" />
    <glyph glyph-name="four" unicode="4" horiz-adv-x="550" 
d="M352 660l-173 -375h232l46 375q3 20 22 20h61q18 0 15 -20l-78 -640q-3 -20 -20 -20h-61q-20 0 -17 20l23 182h-317q-20 0 -17 18l5 42q1 13 7 25l173 373q9 20 26 20h62q19 0 11 -20z" />
    <glyph glyph-name="five" unicode="5" horiz-adv-x="550" 
d="M184 680h347q20 0 17 -19l-5 -45q-3 -19 -21 -19h-267l-22 -172h91q97 0 147 -35t50 -94q0 -5 -2 -25l-15 -127q-9 -71 -59.5 -112t-168.5 -41q-197 0 -197 132q0 14 1 21l3 26q1 20 20 20h59q17 0 16 -20l-1 -11q0 -1 -0.5 -8t-0.5 -11q0 -68 107 -68q63 0 90.5 21
t33.5 65l12 95q2 13 2 24q0 67 -107 67h-170q-18 0 -16 20l36 296q3 20 20 20z" />
    <glyph glyph-name="six" unicode="6" horiz-adv-x="550" 
d="M81 146l48 392q18 150 225 150q103 0 148.5 -36.5t45.5 -92.5q0 -10 -1 -21l-3 -22q-1 -19 -20 -19h-59q-19 0 -16 19l1 8q1 4 1 15q0 68 -104 68q-113 0 -123 -83l-20 -156q44 42 134 42q93 0 138 -37t45 -95q0 -9 -2 -27l-12 -105q-4 -33 -16.5 -59t-37.5 -48.5
t-69.5 -34.5t-105.5 -12q-104 0 -151.5 36t-47.5 95q0 9 2 23zM411 159l10 83q2 16 2 18q0 69 -109 69q-114 0 -124 -79l-10 -86q-2 -18 -2 -22q0 -69 107 -69q64 0 92 21.5t34 64.5z" />
    <glyph glyph-name="seven" unicode="7" horiz-adv-x="550" 
d="M150 680h420q21 0 18 -19l-5 -38q-2 -15 -14 -37l-315 -566q-11 -20 -25 -20h-72q-22 0 -11 20l321 577h-326q-21 0 -18 19l6 45q3 19 21 19z" />
    <glyph glyph-name="eight" unicode="8" horiz-adv-x="550" 
d="M128 473l7 61q8 72 54 113t163 41q191 0 191 -130q0 -8 -2 -24l-8 -65q-5 -45 -27 -71t-71 -40q81 -24 81 -96q0 -5 -2 -21l-11 -95q-9 -71 -59 -112.5t-168 -41.5q-105 0 -151.5 36.5t-46.5 95.5q0 12 1 22l12 100q5 44 30 71t76 41q-71 22 -71 91q0 6 2 24zM408 159
l9 68q1 8 1 21q0 69 -107 69q-63 0 -91 -21t-34 -65l-9 -72q-1 -8 -1 -18q0 -68 106 -68q64 0 92 21.5t34 64.5zM440 484l5 37q1 9 1 19q0 34 -22.5 50.5t-77.5 16.5q-62 0 -86.5 -21t-30.5 -65l-5 -37q-1 -9 -1 -19q0 -35 21.5 -51.5t76.5 -16.5q62 0 87.5 21.5t31.5 65.5z
" />
    <glyph glyph-name="nine" unicode="9" horiz-adv-x="550" 
d="M550 534l-47 -392q-18 -150 -223 -150q-104 0 -150.5 36.5t-46.5 92.5q0 10 1 21l3 22q3 19 21 19h58q19 0 16 -19l-1 -8q-1 -7 -1 -15q0 -68 105 -68q62 0 89.5 21.5t32.5 61.5l20 156q-44 -42 -133 -42q-94 0 -139 37t-45 95q0 9 2 27l13 105q9 71 59.5 112.5
t167.5 41.5q104 0 152 -36.5t48 -94.5q0 -9 -2 -23zM220 521l-10 -83q-1 -8 -1 -17q0 -70 108 -70q114 0 124 79l10 86q2 18 2 22q0 69 -106 69q-64 0 -92.5 -21.5t-34.5 -64.5z" />
    <glyph glyph-name="colon" unicode=":" horiz-adv-x="233" 
d="M176 99l-9 -80q-3 -19 -21 -19h-60q-19 0 -16 19l9 80q3 19 22 19h60q18 0 15 -19zM223 476l-10 -80q-1 -19 -21 -19h-60q-17 0 -16 19l10 80q3 20 21 20h60q10 0 13.5 -4.5t2.5 -15.5z" />
    <glyph glyph-name="semicolon" unicode=";" horiz-adv-x="278" 
d="M268 476l-9 -80q-1 -19 -21 -19h-60q-17 0 -16 19l9 80q3 20 22 20h60q18 0 15 -20zM117 35l8 64q3 19 21 19h61q18 0 15 -19l-9 -69q-13 -103 -134 -133q-18 -4 -22 12l-10 41q-5 18 15 24q28 10 40 24.5t15 36.5z" />
    <glyph glyph-name="less" unicode="&#x3c;" horiz-adv-x="532" 
d="M479 455l-278 -116l278 -114q19 -8 19 -22v-56q0 -11 -5 -16t-14 -1l-354 156q-18 9 -18 21v65q0 14 18 21l354 157q9 4 14 -1.5t5 -16.5v-56q0 -9 -4 -13t-15 -8z" />
    <glyph glyph-name="equal" unicode="=" horiz-adv-x="585" 
d="M114 462h405q19 0 19 -18v-43q0 -19 -19 -19h-405q-19 0 -19 19v43q0 18 19 18zM114 272h405q19 0 19 -18v-43q0 -19 -19 -19h-405q-19 0 -19 19v43q0 18 19 18z" />
    <glyph glyph-name="greater" unicode="&#x3e;" horiz-adv-x="532" 
d="M384 339l-278 114q-19 8 -19 22v58q0 11 5 16.5t14 1.5l354 -157q17 -7 17 -21v-67q0 -14 -17 -21l-354 -157q-9 -4 -14 1.5t-5 16.5v58q0 10 4 14t15 8z" />
    <glyph glyph-name="question" unicode="?" horiz-adv-x="566" 
d="M237 190l10 74q3 27 17.5 47t26.5 28t32 18l84 41q47 22 54 70l7 51q1 9 1 19q0 68 -113 68q-121 0 -132 -87l-6 -43q-3 -20 -20 -20h-59q-19 0 -16 20l7 58q21 154 233 154q105 0 154.5 -38.5t49.5 -97.5q0 -13 -1 -22l-8 -63q-11 -95 -104 -137l-58 -26
q-48 -22 -54 -64l-7 -50q-3 -19 -20 -19h-61q-19 0 -17 19zM324 99l-9 -80q-3 -19 -21 -19h-61q-10 0 -13.5 4t-2.5 15l9 79q3 20 21 20h62q17 0 15 -19z" />
    <glyph glyph-name="at" unicode="@" horiz-adv-x="895" 
d="M610 -134h-177q-81 0 -143 9t-100 24.5t-61.5 38t-32.5 46.5t-9 53q0 9 3 36l45 366q4 33 14.5 59.5t37 53t67.5 44.5t109 29t159 11q101 0 171 -13.5t107 -38t52.5 -53t15.5 -65.5q0 -8 -2 -30l-32 -259q-17 -144 -169 -144q-101 0 -121 63q-83 -63 -165 -63
q-55 0 -82.5 25t-27.5 70q0 24 4 41l34 153q15 67 50.5 101.5t101.5 34.5q71 0 136 -53l7 26q6 19 22 19h51q20 0 15 -19l-54 -236q-6 -30 -6 -43q0 -48 47 -48q55 0 66 86l30 242q1 7 1 20q0 52 -57.5 79t-201.5 27q-156 0 -218.5 -31t-69.5 -92l-45 -360q-2 -14 -2 -24
q0 -53 57.5 -79.5t202.5 -26.5h180q18 0 16 -19l-4 -41q-1 -19 -22 -19zM396 304l-26 -119q-4 -14 -4 -26q0 -40 59 -40q53 0 112 40q0 8 2 16l36 155q-46 43 -95 43q-68 0 -84 -69z" />
    <glyph glyph-name="A" unicode="A" horiz-adv-x="538" 
d="M320 680h62q18 0 21 -19l116 -642q3 -19 -16 -19h-62q-18 0 -21 19l-27 155h-211l-66 -155q-8 -19 -24 -19h-58q-20 0 -12 19l272 642q9 19 26 19zM381 252l-33 182q-4 19 -6.5 56t-3.5 64v28q0 -1 -8.5 -31t-18.5 -63.5t-18 -51.5l-79 -184h167z" />
    <glyph glyph-name="B" unicode="B" horiz-adv-x="587" 
d="M310 0h-209q-19 0 -17 20l79 640q3 20 21 20h174q110 0 161.5 -35.5t51.5 -94.5q0 -7 -2 -23l-7 -57q-10 -83 -98 -114q48 -13 74 -43t26 -67q0 -13 -1 -20l-10 -80q-18 -146 -243 -146zM346 311h-128l-28 -230h126q131 0 142 82l7 57q1 7 1 17q0 74 -120 74zM353 599
h-99l-27 -212h105q125 0 134 84l5 42q1 7 1 18q0 68 -119 68z" />
    <glyph glyph-name="C" unicode="C" horiz-adv-x="559" 
d="M537 209l-7 -63q-17 -154 -238 -154q-108 0 -157 37t-49 96q0 7 2 25l47 384q19 154 237 154q108 0 157 -36.5t49 -96.5q0 -7 -2 -25l-5 -45q-3 -20 -20 -20h-59q-19 0 -16 20l4 29q1 6 1 19q0 72 -115 72q-124 0 -135 -87l-43 -351q-1 -7 -1 -19q0 -73 114 -73
q126 0 136 87l5 47q1 19 21 19h58q18 0 16 -19z" />
    <glyph glyph-name="D" unicode="D" horiz-adv-x="607" 
d="M315 0h-216q-18 0 -15 20l79 640q3 20 21 20h204q111 0 163 -38t52 -98q0 -13 -2 -27l-44 -363q-19 -154 -242 -154zM383 597h-129l-64 -514h130q129 0 140 87l41 332q2 18 2 21q0 74 -120 74z" />
    <glyph glyph-name="E" unicode="E" horiz-adv-x="519" 
d="M454 0h-353q-20 0 -17 20l79 640q3 20 21 20h342q20 0 17 -19l-6 -45q-3 -19 -21 -19h-262l-25 -202h245q19 0 16 -19l-5 -43q-3 -19 -21 -19h-245l-29 -231h273q21 0 18 -18l-6 -46q-3 -19 -21 -19z" />
    <glyph glyph-name="F" unicode="F" horiz-adv-x="524" 
d="M184 680h367q20 0 17 -19l-6 -45q-3 -19 -21 -19h-287l-26 -203h270q20 0 17 -19l-6 -46q-3 -19 -21 -19h-269l-37 -290q-3 -20 -20 -20h-61q-20 0 -17 20l79 640q3 20 21 20z" />
    <glyph glyph-name="G" unicode="G" horiz-adv-x="573" 
d="M339 340h195q19 0 17 -18l-21 -176q-19 -154 -238 -154q-108 0 -157 37t-49 96q0 9 2 25l47 384q19 154 237 154q108 0 157 -37t49 -98q0 -6 -2 -24l-4 -39q-1 -19 -21 -19h-58q-18 0 -16 19l3 28q1 6 1 17q0 70 -114 70q-125 0 -136 -87l-43 -351q-2 -14 -2 -20
q0 -72 114 -72q125 0 136 86l12 96h-119q-17 0 -16 19l5 46q1 18 21 18z" />
    <glyph glyph-name="H" unicode="H" horiz-adv-x="618" 
d="M261 660l-32 -263h259l32 263q3 20 22 20h61q18 0 15 -20l-79 -640q-3 -20 -19 -20h-61q-20 0 -17 20l36 294h-259l-37 -294q-3 -20 -20 -20h-61q-20 0 -17 20l79 640q3 20 21 20h61q19 0 16 -20z" />
    <glyph glyph-name="I" unicode="I" horiz-adv-x="261" 
d="M261 660l-79 -640q-3 -20 -20 -20h-61q-20 0 -17 20l79 640q3 20 21 20h61q19 0 16 -20z" />
    <glyph glyph-name="J" unicode="J" horiz-adv-x="504" 
d="M142 197l-4 -32q-1 -6 -1 -22q0 -68 98 -68q57 0 81.5 21.5t30.5 65.5l62 498q3 20 21 20h61q19 0 16 -20l-63 -514q-9 -71 -56 -112.5t-159 -41.5q-99 0 -144.5 36.5t-45.5 95.5q0 12 2 30l5 43q3 20 22 20h59q18 0 15 -20z" />
    <glyph glyph-name="K" unicode="K" horiz-adv-x="564" 
d="M329 345l219 -326q5 -7 1.5 -13t-12.5 -6h-78q-13 0 -27 19l-189 283h-27l-35 -283q-3 -19 -20 -19h-61q-20 0 -17 19l79 642q3 19 21 19h61q19 0 16 -19l-35 -286h23l244 286q17 19 33 19h68q10 0 11.5 -5.5t-5.5 -13.5z" />
    <glyph glyph-name="L" unicode="L" horiz-adv-x="484" 
d="M261 660l-71 -577h256q20 0 17 -18l-6 -46q-3 -19 -21 -19h-337q-18 0 -15 20l79 640q3 20 21 20h61q19 0 16 -20z" />
    <glyph glyph-name="M" unicode="M" horiz-adv-x="734" 
d="M733 661l-79 -642q-3 -19 -19 -19h-59q-20 0 -17 19l57 460q-22 -56 -33 -75l-151 -281q-11 -20 -27 -20h-49q-18 0 -25 20l-87 293q-8 23 -12 61l-57 -458q-3 -19 -19 -19h-56q-20 0 -17 19l79 642q2 19 21 19h54q13 0 16 -11l124 -402q8 -26 15 -60q10 24 28 59
l219 405q5 9 19 9h60q18 0 15 -19z" />
    <glyph glyph-name="N" unicode="N" horiz-adv-x="618" 
d="M615 661l-79 -642q-3 -19 -20 -19h-52q-14 0 -18 9l-185 412q-14 29 -27 73l-59 -475q-3 -19 -19 -19h-56q-20 0 -17 19l79 642q3 19 21 19h52q13 0 16 -8l190 -421q18 -41 24 -64l58 474q3 19 21 19h55q19 0 16 -19z" />
    <glyph glyph-name="O" unicode="O" horiz-adv-x="597" 
d="M88 150l47 384q19 154 243 154q109 0 161 -37.5t52 -97.5q0 -15 -1 -23l-47 -384q-19 -154 -244 -154q-110 0 -161.5 37t-51.5 97q0 6 2 24zM446 162l44 351q2 14 2 18q0 74 -121 74q-129 0 -140 -87l-43 -351q-2 -14 -2 -18q0 -74 121 -74q128 0 139 87z" />
    <glyph glyph-name="P" unicode="P" horiz-adv-x="572" 
d="M338 253h-127l-29 -233q-3 -20 -20 -20h-61q-20 0 -17 20l79 640q3 20 21 20h200q109 0 160 -39t51 -102q0 -2 -2 -26l-12 -111q-8 -72 -63.5 -110.5t-179.5 -38.5zM379 597h-125l-32 -261h123q130 0 141 82l10 82q1 8 1 20q0 39 -27.5 58t-90.5 19z" />
    <glyph glyph-name="Q" unicode="Q" horiz-adv-x="596" 
d="M88 150l47 384q19 154 243 154q109 0 161 -37.5t52 -97.5q0 -15 -1 -23l-47 -384q-16 -123 -163 -148l109 -111q13 -13 -1 -26l-35 -33q-14 -14 -26 -1l-160 166q-93 6 -137 42t-44 91q0 6 2 24zM446 162l44 351q2 14 2 18q0 74 -121 74q-129 0 -140 -87l-43 -351
q-2 -14 -2 -18q0 -74 121 -74q128 0 139 87z" />
    <glyph glyph-name="R" unicode="R" horiz-adv-x="594" 
d="M213 269l-31 -249q-3 -20 -20 -20h-61q-19 0 -17 20l79 640q3 20 21 20h198q109 0 161 -39.5t52 -102.5q0 -14 -1 -22l-11 -99q-12 -106 -134 -137l87 -260q3 -9 -3 -14.5t-16 -5.5h-61q-12 0 -19 20l-83 249h-141zM379 597h-125l-31 -245h124q131 0 141 82l8 66
q1 7 1 18q0 79 -118 79z" />
    <glyph glyph-name="S" unicode="S" horiz-adv-x="568" 
d="M467 490l4 32q1 8 1 15q0 70 -112 70q-122 0 -131 -84l-3 -26q-1 -7 -1 -13q0 -20 10.5 -30t32.5 -19l170 -68q98 -39 98 -124q0 -15 -1 -23l-8 -74q-17 -154 -240 -154q-109 0 -159.5 37.5t-50.5 97.5q0 13 1 23l6 54q3 20 21 20h59q19 0 16 -20l-5 -41q-1 -9 -1 -19
q0 -71 119 -71q127 0 138 85l7 51q1 7 1 13q0 23 -19 37t-56 29l-142 57q-94 39 -94 118q0 12 1 21l6 50q6 45 26 77t71.5 54.5t133.5 22.5q107 0 155 -37t48 -96q0 -13 -1 -21l-5 -44q-1 -19 -21 -19h-59q-19 0 -16 19z" />
    <glyph glyph-name="T" unicode="T" horiz-adv-x="487" 
d="M116 680h418q20 0 17 -19l-5 -45q-3 -19 -21 -19h-160l-72 -577q-3 -20 -20 -20h-61q-20 0 -17 20l72 577h-160q-20 0 -17 19l5 45q3 19 21 19z" />
    <glyph glyph-name="U" unicode="U" horiz-adv-x="607" 
d="M253 660l-60 -484q-2 -24 -2 -27q0 -74 120 -74q129 0 140 87l62 498q3 20 20 20h61q20 0 17 -20l-64 -514q-19 -154 -242 -154q-108 0 -161 38t-53 98q0 10 2 26l63 506q3 20 20 20h61q19 0 16 -20z" />
    <glyph glyph-name="V" unicode="V" horiz-adv-x="538" 
d="M300 0h-62q-19 0 -22 19l-116 642q-3 19 17 19h66q17 0 20 -19l73 -415q8 -48 8 -122q17 68 39 120l176 417q8 19 25 19h62q21 0 12 -19l-273 -642q-7 -19 -25 -19z" />
    <glyph glyph-name="W" unicode="W" horiz-adv-x="817" 
d="M544 661l53 -416q6 -45 6 -88l3 11q3 11 6.5 23.5t8.5 28t9 25.5l156 416q8 19 25 19h55q19 0 12 -19l-241 -642q-7 -19 -26 -19h-60q-17 0 -20 19l-54 424q-5 40 -5 79q-1 -2 -5 -17t-9.5 -34t-8.5 -29l-160 -423q-7 -19 -25 -19h-60q-18 0 -21 19l-83 642q-3 19 17 19
h62q16 0 19 -19l54 -416q6 -54 6 -78q19 57 27 78l157 416q6 19 25 19h57q17 0 20 -19z" />
    <glyph glyph-name="X" unicode="X" horiz-adv-x="561" 
d="M374 347l152 -328q8 -19 -12 -19h-69q-17 0 -26 19l-113 242l-165 -242q-11 -19 -29 -19h-67q-20 0 -6 22l227 327l-143 310q-10 21 11 21h69q17 0 26 -19l107 -230l157 230q13 19 31 19h66q21 0 7 -19z" />
    <glyph glyph-name="Y" unicode="Y" horiz-adv-x="529" 
d="M204 661l93 -264q4 -13 10 -45q12 31 21 45l164 264q12 19 25 19h63q23 0 11 -19l-244 -391l-31 -251q-3 -19 -20 -19h-61q-20 0 -17 19l29 240l-148 402q-8 19 16 19h68q16 0 21 -19z" />
    <glyph glyph-name="Z" unicode="Z" horiz-adv-x="500" 
d="M163 680h352q20 0 17 -19l-5 -45q-1 -8 -9 -19l-345 -514h285q20 0 17 -18l-6 -46q-3 -19 -20 -19h-386q-21 0 -18 19l6 45q1 9 8 19l345 514h-251q-20 0 -17 19l6 45q3 19 21 19z" />
    <glyph glyph-name="bracketleft" unicode="[" horiz-adv-x="378" 
d="M52 -191l107 870q3 20 21 20h204q20 0 17 -19l-6 -45q-3 -19 -21 -19h-124l-93 -744h125q20 0 17 -19l-5 -45q-3 -19 -21 -19h-204q-20 0 -17 20z" />
    <glyph glyph-name="backslash" unicode="\" horiz-adv-x="368" 
d="M221 -128l-109 807q-3 20 17 20h62q18 0 21 -20l108 -807q3 -20 -17 -20h-62q-17 0 -20 20z" />
    <glyph glyph-name="bracketright" unicode="]" horiz-adv-x="378" 
d="M385 679l-108 -870q-3 -20 -20 -20h-204q-20 0 -17 19l6 45q3 19 20 19h125l92 744h-124q-20 0 -17 19l5 45q3 19 21 19h204q20 0 17 -20z" />
    <glyph glyph-name="asciicircum" unicode="^" horiz-adv-x="565" 
d="M434 308l-116 276l-114 -276q-8 -20 -21 -20h-57q-10 0 -15.5 5.5t-1.5 14.5l156 354q9 18 21 18h65q14 0 21 -18l157 -354q4 -9 -1.5 -14.5t-15.5 -5.5h-57q-13 0 -21 20z" />
    <glyph glyph-name="underscore" unicode="_" horiz-adv-x="443" 
d="M22 -80h361q19 0 19 -18v-43q0 -19 -19 -19h-361q-19 0 -19 19v43q0 18 19 18z" />
    <glyph glyph-name="grave" unicode="`" horiz-adv-x="324" 
d="M226 577l-63 112q-9 19 13 19h60q17 0 24 -18l45 -107q7 -18 -12 -18h-44q-17 0 -23 12z" />
    <glyph glyph-name="a" unicode="a" 
d="M371 20l2 30q-84 -58 -171 -58q-63 0 -96 30t-33 83q0 7 2 23l30 240q17 136 155 136q94 0 162 -60l6 32q4 20 21 20h53q19 0 16 -20l-56 -456q-3 -20 -21 -20h-54q-16 0 -16 20zM198 354l-27 -212q-1 -5 -1 -14q0 -51 68 -51q66 0 142 51l30 239q-61 52 -129 52
q-74 0 -83 -65z" />
    <glyph glyph-name="b" unicode="b" 
d="M143 0h-54q-18 0 -16 20l81 659q3 20 21 20h59q17 0 15 -20l-28 -232q80 57 168 57q62 0 95.5 -30.5t33.5 -84.5q0 -14 -1 -21l-30 -240q-17 -136 -157 -136q-91 0 -160 58l-6 -30q-4 -20 -21 -20zM393 142l27 212q1 6 1 13q0 52 -67 52q-70 0 -143 -52l-29 -239
q61 -51 129 -51q75 0 82 65z" />
    <glyph glyph-name="c" unicode="c" horiz-adv-x="484" 
d="M310 504q177 0 177 -118q0 -11 -1 -21l-2 -16q-3 -19 -21 -19h-54q-17 0 -16 18l1 12q1 8 1 15q0 51 -90 51q-55 0 -79 -16.5t-28 -49.5l-27 -214q-2 -16 -2 -22q0 -27 21 -40.5t70 -13.5q54 0 78 16.5t29 49.5l3 20q3 19 20 19h54q18 0 16 -19l-3 -27
q-15 -137 -206 -137q-178 0 -178 118q0 12 1 19l29 238q8 66 56 101.5t151 35.5z" />
    <glyph glyph-name="d" unicode="d" 
d="M371 20l1 30q-84 -58 -170 -58q-63 0 -96 30t-33 83q0 7 2 23l30 240q17 136 155 136q92 0 159 -57l28 232q3 20 21 20h59q19 0 16 -20l-81 -659q-3 -20 -21 -20h-54q-16 0 -16 20zM198 354l-26 -208q-2 -14 -2 -18q0 -51 68 -51q66 0 142 51l30 239q-61 52 -129 52
q-76 0 -83 -65z" />
    <glyph glyph-name="e" unicode="e" horiz-adv-x="495" 
d="M486 367l-15 -122q-1 -18 -20 -18h-272l-11 -85q-2 -20 -2 -21q0 -55 93 -55q100 0 108 64l2 16q3 19 22 19h50q18 0 16 -19l-2 -17q-8 -67 -53.5 -102t-148.5 -35q-180 0 -180 118q0 13 1 19l29 238q8 66 56 101.5t151 35.5q90 0 133.5 -31.5t43.5 -86.5q0 -13 -1 -19z
M196 363l-8 -65h200l8 60q1 5 1 16q0 56 -93 56q-100 0 -108 -67z" />
    <glyph glyph-name="f" unicode="f" horiz-adv-x="333" 
d="M155 494h6l9 72q17 137 213 137h10q20 0 17 -19l-5 -42q-3 -20 -22 -20h-7q-104 0 -112 -66l-8 -62h98q21 0 18 -18l-5 -40q-3 -20 -21 -20h-98l-75 -600q-3 -20 -20 -20h-59q-19 0 -16 20l75 600h-59q-20 0 -17 20l4 35q1 18 21 19z" />
    <glyph glyph-name="g" unicode="g" 
d="M203 -8q-63 0 -96.5 30.5t-33.5 83.5q0 8 2 22l30 240q17 136 155 136q94 0 162 -60l6 32q4 20 20 20h54q18 0 16 -20l-66 -543q-17 -137 -215 -137h-138q-21 0 -18 19l5 42q3 19 22 19h138q103 0 111 67l13 105q-81 -56 -167 -56zM198 354l-26 -206q-2 -14 -2 -19
q0 -52 68 -52q66 0 142 51l30 239q-61 52 -129 52q-76 0 -83 -65z" />
    <glyph glyph-name="h" unicode="h" horiz-adv-x="536" 
d="M249 679l-28 -231q75 56 168 56q60 0 94.5 -30.5t34.5 -80.5q0 -11 -1 -17l-43 -356q-3 -20 -22 -20h-57q-19 0 -16 20l40 333q1 6 1 15q0 51 -67 51q-70 0 -142 -51l-42 -348q-3 -20 -21 -20h-59q-19 0 -16 20l81 659q3 20 21 20h59q18 0 15 -20z" />
    <glyph glyph-name="i" unicode="i" horiz-adv-x="237" 
d="M225 476l-56 -456q-3 -20 -21 -20h-59q-19 0 -16 20l57 456q3 20 20 20h58q20 0 17 -20zM249 679l-11 -90q-3 -19 -20 -19h-59q-19 0 -16 19l11 90q3 20 21 20h59q18 0 15 -20z" />
    <glyph glyph-name="j" unicode="j" horiz-adv-x="236" 
d="M249 679l-11 -90q-1 -19 -20 -19h-58q-20 0 -17 19l11 90q3 20 21 20h58q19 0 16 -20zM224 476l-67 -543q-8 -67 -57.5 -102t-152.5 -35h-11q-20 0 -17 19l5 42q3 19 22 19h7q102 0 110 67l66 533q3 20 21 20h58q19 0 16 -20z" />
    <glyph glyph-name="k" unicode="k" horiz-adv-x="474" 
d="M457 0h-64q-15 0 -26 19l-143 223h-29l-27 -223q-3 -19 -21 -19h-59q-19 0 -16 19l81 661q3 19 21 19h59q18 0 15 -19l-44 -366h25l171 163q19 19 33 19h66q10 0 12 -6.5t-5 -13.5l-202 -195l165 -262q5 -7 1.5 -13t-13.5 -6z" />
    <glyph glyph-name="l" unicode="l" horiz-adv-x="237" 
d="M249 679l-80 -659q-3 -20 -21 -20h-59q-19 0 -16 20l81 659q3 20 21 20h59q18 0 15 -20z" />
    <glyph glyph-name="m" unicode="m" horiz-adv-x="830" 
d="M150 496h54q17 0 16 -19l-2 -31q73 58 165 58q46 0 78.5 -18.5t43.5 -49.5q79 68 177 68q60 0 95 -30t35 -79q0 -12 -1 -19l-44 -356q-3 -20 -21 -20h-58q-19 0 -16 20l40 328q2 16 2 19q0 52 -67 52q-74 0 -138 -52v-4v-9l-41 -334q-3 -20 -21 -20h-58q-19 0 -16 20
l40 330q2 16 2 17q0 52 -67 52q-68 0 -137 -51l-42 -348q-3 -20 -21 -20h-59q-19 0 -16 20l57 457q3 19 20 19z" />
    <glyph glyph-name="n" unicode="n" horiz-adv-x="536" 
d="M150 496h54q18 0 17 -19l-2 -32q76 59 170 59q60 0 94.5 -30.5t34.5 -80.5q0 -14 -1 -22l-43 -351q-3 -20 -22 -20h-57q-19 0 -16 20l40 328q2 14 2 19q0 52 -67 52q-71 0 -143 -51l-42 -348q-3 -20 -21 -20h-59q-19 0 -16 20l57 457q3 19 20 19z" />
    <glyph glyph-name="o" unicode="o" horiz-adv-x="520" 
d="M74 129l29 238q17 137 215 137q92 0 139 -31.5t47 -87.5q0 -12 -1 -18l-29 -238q-17 -137 -214 -137q-93 0 -140 32t-47 88q0 11 1 17zM380 137l28 222v10q0 57 -97 57q-105 0 -113 -67l-28 -222q-1 -4 -1 -11q0 -56 98 -56q105 0 113 67z" />
    <glyph glyph-name="p" unicode="p" 
d="M204 496q18 0 17 -20l-3 -31q86 59 171 59q63 0 96 -30.5t33 -83.5q0 -15 -1 -22l-30 -240q-17 -136 -155 -136q-94 0 -160 56l-28 -232q-3 -20 -21 -20h-58q-19 0 -17 20l82 660q3 20 20 20h54zM393 142l26 208q2 14 2 18q0 51 -67 51q-72 0 -142 -52l-30 -239
q61 -51 129 -51q75 0 82 65z" />
    <glyph glyph-name="q" unicode="q" 
d="M421 445l6 31q4 20 21 20h54q18 0 16 -20l-81 -660q-3 -20 -21 -20h-58q-18 0 -16 20l28 232q-81 -56 -167 -56q-63 0 -96.5 30.5t-33.5 83.5q0 8 2 22l30 240q17 136 155 136q91 0 161 -59zM198 354l-26 -206q-2 -14 -2 -19q0 -52 68 -52q66 0 142 51l30 239
q-61 52 -129 52q-76 0 -83 -65z" />
    <glyph glyph-name="r" unicode="r" horiz-adv-x="356" 
d="M382 503q21 0 18 -19l-6 -47q-3 -18 -22 -19q-88 -6 -162 -63l-41 -335q-3 -20 -21 -20h-59q-19 0 -16 20l57 457q3 19 20 19h54q18 0 17 -19l-3 -43q79 69 164 69z" />
    <glyph glyph-name="s" unicode="s" horiz-adv-x="468" 
d="M376 357l2 17q1 7 1 16q0 45 -88 45q-92 0 -99 -49l-2 -15q-1 -9 -1 -11q0 -31 35 -43l145 -50q38 -13 58 -36.5t20 -51.5q0 -6 -2 -24l-5 -50q-5 -50 -54 -81.5t-147 -31.5q-88 0 -133.5 30t-45.5 75q0 6 1 16l3 24q3 18 20 18h53q15 0 14 -18l-2 -19q-1 -7 -1 -13
q0 -20 25.5 -31.5t69.5 -11.5q103 0 110 51l3 23q1 11 1 17q0 24 -47 41l-138 49q-72 25 -72 94q0 5 1 16l4 34q13 117 191 117q85 0 128 -31.5t43 -77.5q0 -6 -1 -17l-2 -21q-1 -18 -20 -18h-53q-17 0 -15 18z" />
    <glyph glyph-name="t" unicode="t" horiz-adv-x="354" 
d="M241 416l-33 -264q-1 -7 -1 -17q0 -54 93 -54h19q19 0 17 -20l-4 -42q-1 -19 -22 -19h-33q-90 0 -128.5 27.5t-38.5 83.5q0 17 1 26l34 279h-55q-18 0 -16 20l4 35q1 17 21 19l55 4h1l13 101q3 20 21 20h58q19 0 16 -20l-13 -101h104q18 0 16 -18l-4 -41q-1 -19 -22 -19
h-103z" />
    <glyph glyph-name="u" unicode="u" horiz-adv-x="530" 
d="M369 19l2 30q-72 -57 -164 -57q-61 0 -95.5 30t-34.5 80q0 11 1 17l44 357q3 20 21 20h58q19 0 16 -20l-41 -333q-1 -6 -1 -16q0 -50 67 -50q66 0 137 50l42 349q3 20 21 20h59q19 0 16 -20l-57 -457q-3 -19 -21 -19h-53q-18 0 -17 19z" />
    <glyph glyph-name="v" unicode="v" horiz-adv-x="450" 
d="M257 0h-66q-9 0 -12.5 3.5t-5.5 14.5l-100 458q-2 9 3.5 14.5t16.5 5.5h59q15 0 18 -20l60 -287q8 -36 8 -73q14 49 25 72l134 288q8 20 24 20h56q25 0 16 -20l-214 -458q-8 -18 -22 -18z" />
    <glyph glyph-name="w" unicode="w" horiz-adv-x="681" 
d="M657 496h49q23 0 15 -20l-186 -458q-7 -18 -22 -18h-69q-15 0 -18 18l-38 295q-4 34 -4 49l-18 -49l-121 -295q-7 -18 -22 -18h-68q-9 0 -12 3.5t-5 14.5l-68 458q-3 20 20 20h56q16 0 19 -20l44 -311q4 -30 4 -43q1 9 15 43l125 311q8 20 23 20h59q17 0 19 -20l39 -311
l4 -44q0 1 5.5 17t9.5 27l122 311q8 20 23 20z" />
    <glyph glyph-name="x" unicode="x" horiz-adv-x="468" 
d="M431 0h-63q-14 0 -25 19l-93 165l-129 -165q-15 -19 -31 -19h-58q-9 0 -11 6t4 13l187 235l-123 222q-10 20 12 20h63q14 0 25 -20l90 -157l120 157q15 20 31 20h59q9 0 10.5 -6t-4.5 -14l-180 -227l128 -229q4 -8 1 -14t-13 -6z" />
    <glyph glyph-name="y" unicode="y" horiz-adv-x="450" 
d="M170 476l61 -289q8 -45 8 -69q9 32 26 67l134 291q9 20 24 20h54q25 0 16 -20l-307 -661q-10 -19 -23 -19h-45q-24 0 -15 19l78 177l-108 484q-2 9 4 14.5t16 5.5h58q14 0 19 -20z" />
    <glyph glyph-name="z" unicode="z" horiz-adv-x="451" 
d="M138 496h301q20 0 17 -18l-5 -41q-2 -10 -10 -20l-273 -339h236q20 0 17 -18l-5 -41q-3 -19 -22 -19h-332q-19 0 -16 19l5 41q2 11 10 21l271 336h-204q-20 0 -17 19l5 41q3 19 22 19z" />
    <glyph glyph-name="braceleft" unicode="{" horiz-adv-x="449" 
d="M213 356l26 215q17 137 209 137h13q19 0 17 -19l-5 -42q-1 -20 -21 -20h-7q-55 0 -80 -16.5t-29 -49.5l-27 -215q-5 -41 -25.5 -63.5t-58.5 -33.5q62 -21 62 -80q0 -6 -2 -24l-26 -204q-2 -20 -2 -25q0 -53 93 -53h8q18 0 16 -20l-5 -42q-3 -19 -21 -19h-5
q-91 0 -138 31.5t-47 90.5q0 14 2 28l26 204q2 16 2 20q0 53 -88 53h-1q-19 0 -17 19l5 41q3 20 21 20h2q95 0 103 67z" />
    <glyph glyph-name="bar" unicode="|" horiz-adv-x="261" 
d="M204 679v-870q0 -20 -18 -20h-61q-19 0 -19 20v870q0 20 19 20h61q18 0 18 -20z" />
    <glyph glyph-name="braceright" unicode="}" horiz-adv-x="449" 
d="M349 561l-25 -197q-2 -14 -2 -21q0 -54 88 -54h1q18 0 16 -20l-4 -41q-1 -19 -22 -19h-1q-95 0 -103 -67l-27 -223q-17 -137 -209 -137h-13q-19 0 -17 19l4 42q1 20 22 20h8q54 0 79 16.5t29 49.5l27 222q5 40 26 63t59 35q-62 18 -62 81q0 5 3 29l24 198q2 16 2 18
q0 52 -93 52h-8q-18 0 -16 20l5 42q3 19 21 19h7q91 0 136.5 -32t45.5 -90q0 -17 -1 -25z" />
    <glyph glyph-name="asciitilde" unicode="~" horiz-adv-x="494" 
d="M188 270q-13 0 -16.5 -7t-5.5 -28l-1 -9q-1 -17 -21 -17h-30q-18 0 -16 22l3 36q4 44 26.5 65.5t51.5 21.5q24 0 48 -11l90 -42q30 -14 43 -14q4 0 7 0.5t5 2.5t3 3.5t2 5.5t1.5 6.5t1 9t1.5 10.5l1 7q2 17 20 17h31q17 0 16 -22l-3 -36q-5 -46 -26.5 -67t-48.5 -21
q-30 0 -56 13l-92 43q-20 11 -35 11z" />
    <glyph glyph-name="exclamdown" unicode="&#xa1;" horiz-adv-x="264" 
d="M93 106l35 200q3 19 21 19h43q17 0 16 -19l-15 -200l-33 -270q-3 -20 -21 -20h-62q-19 0 -16 20zM131 397l10 80q3 19 21 19h60q20 0 17 -19l-10 -80q-3 -19 -21 -19h-61q-19 0 -16 19z" />
    <glyph glyph-name="cent" unicode="&#xa2;" horiz-adv-x="536" 
d="M394 660l-8 -67q128 -15 128 -115q0 -11 -1 -21l-2 -16q-3 -19 -21 -19h-54q-18 0 -16 18l1 12q1 8 1 15q0 51 -90 51q-55 0 -79 -16.5t-28 -49.5l-27 -214q-2 -16 -2 -22q0 -27 21 -40.5t70 -13.5q54 0 78 16.5t29 49.5l3 20q3 19 20 19h54q18 0 16 -19l-3 -27
q-14 -121 -161 -135l-8 -66q-3 -20 -20 -20h-58q-20 0 -17 20l8 66q-128 16 -128 116q0 12 1 19l29 238q15 121 160 135l9 66q3 20 21 20h58q19 0 16 -20z" />
    <glyph glyph-name="sterling" unicode="&#xa3;" horiz-adv-x="672" 
d="M296 378h135q19 0 17 -18l-5 -43q-1 -19 -22 -19h-134l-28 -217h177q37 0 63.5 24t26.5 73v7q0 20 21 20h55q18 0 16 -20v-7q0 -92 -48 -135t-119 -43h-357q-18 0 -16 19l5 43q1 19 21 19h57l28 217h-58q-17 0 -16 19l5 43q3 18 21 18h57l20 161q6 45 25 75.5t69 52
t130 21.5q102 0 148.5 -34.5t46.5 -91.5q0 -7 -2 -23l-4 -31q-3 -20 -20 -20h-57q-19 0 -16 20l2 14q1 7 1 19q0 33 -24.5 48.5t-81.5 15.5q-62 0 -88.5 -20t-32.5 -63z" />
    <glyph glyph-name="currency" unicode="&#xa4;" horiz-adv-x="600" 
d="M113 306h53l8 67h-53q-20 0 -17 19l3 25q1 18 21 18h53l13 99q19 154 237 154q108 0 157 -36.5t49 -96.5q0 -7 -2 -25l-5 -45q-3 -20 -20 -20h-59q-19 0 -16 20l4 29q1 6 1 19q0 72 -115 72q-124 0 -135 -87l-11 -83h118q19 0 18 -18l-3 -25q-3 -19 -22 -19h-118l-8 -67
h118q18 0 17 -18l-3 -25q-3 -19 -22 -19h-118l-9 -77q-1 -7 -1 -19q0 -73 114 -73q126 0 136 87l5 47q1 19 21 19h58q18 0 16 -19l-7 -63q-17 -154 -238 -154q-108 0 -157 37t-49 96q0 7 2 25l11 94h-53q-18 0 -17 19l3 25q3 18 22 18z" />
    <glyph glyph-name="yen" unicode="&#xa5;" horiz-adv-x="538" 
d="M112 312h119l-24 67h-86q-20 0 -17 19l3 25q3 18 21 18h56l-81 220q-8 19 16 19h68q16 0 21 -19l93 -264q4 -13 10 -45q12 31 21 45l164 264q12 19 25 19h63q23 0 11 -19l-138 -220h60q21 0 18 -18l-3 -25q-3 -19 -22 -19h-91l-42 -67h124q10 0 14 -4t3 -15l-2 -25
q-1 -18 -22 -18h-146l-28 -231q-3 -19 -20 -19h-61q-20 0 -17 19l28 231h-145q-20 0 -17 18l3 25q3 19 21 19z" />
    <glyph glyph-name="brokenbar" unicode="&#xa6;" horiz-adv-x="237" 
d="M211 660v-326q0 -20 -18 -20h-58q-19 0 -19 20v326q0 20 19 20h58q18 0 18 -20zM211 135v-326q0 -20 -18 -20h-58q-19 0 -19 20v326q0 20 19 20h58q18 0 18 -20z" />
    <glyph glyph-name="section" unicode="&#xa7;" horiz-adv-x="550" 
d="M479 186q-3 -19 -21 -19h-51q-20 0 -17 19l10 75q1 5 1 16q0 31 -42 45l-128 40q-36 12 -63.5 38t-27.5 68q0 7 2 21l8 64q17 135 207 135q180 0 180 -115q0 -3 -0.5 -8.5t-0.5 -7.5l-1 -14q-1 -19 -21 -19h-52q-17 0 -16 19l1 12q0 1 0.5 5.5t0.5 6.5q0 29 -21.5 42.5
t-72.5 13.5q-55 0 -80.5 -16t-29.5 -49l-8 -63q-1 -5 -1 -13q0 -34 52 -49l126 -39q78 -23 78 -97q0 -16 -1 -24zM119 208l10 86q3 19 21 19h51q20 0 17 -19l-9 -74q-1 -8 -1 -16q0 -32 41 -46l129 -40q35 -11 62.5 -37t27.5 -68q0 -14 -1 -21l-8 -64q-17 -135 -207 -135
q-181 0 -181 114q0 3 0.5 9t0.5 8l1 14q1 19 22 19h51q17 0 16 -20l-1 -11q-1 -9 -1 -12q0 -29 22 -43t73 -14q101 0 109 66l8 63q1 5 1 13q0 32 -52 49l-126 39q-78 24 -78 97q0 6 2 24z" />
    <glyph glyph-name="dieresis" unicode="&#xa8;" horiz-adv-x="348" 
d="M232 685l-12 -95q-3 -19 -20 -19h-35q-19 0 -16 19l11 95q3 19 22 19h34q19 0 16 -19zM353 685l-12 -95q-3 -19 -21 -19h-34q-19 0 -16 19l11 95q3 19 21 19h35q19 0 16 -19z" />
    <glyph glyph-name="copyright" unicode="&#xa9;" horiz-adv-x="749" 
d="M687 486v-291q0 -43 -10.5 -75t-39.5 -63.5t-90.5 -48t-152.5 -16.5t-152 16.5t-90 48t-39.5 63.5t-10.5 75v291q0 43 10.5 75t39.5 63t90 47.5t152 16.5q74 0 128 -12t85.5 -30t50 -46t24 -54t5.5 -60zM617 182v317q0 128 -223 128q-222 0 -222 -129v-316
q0 -128 222 -128q223 0 223 128zM395 548q87 0 121 -32.5t34 -98.5v-12q0 -19 -19 -19h-47q-19 0 -19 19v10q0 34 -15 50.5t-55 16.5t-54.5 -16t-14.5 -51v-150q0 -35 14.5 -51t54.5 -16t55 16.5t15 50.5v17q0 20 19 20h47q19 0 19 -20v-20q0 -66 -34 -98.5t-121 -32.5
q-86 0 -120.5 32.5t-34.5 98.5v155q0 66 34.5 98.5t120.5 32.5z" />
    <glyph glyph-name="ordfeminine" unicode="&#xaa;" horiz-adv-x="355" 
d="M294 396v19q-49 -36 -101 -36q-38 0 -61 19t-23 50q0 10 1 17l18 141q5 38 30.5 60t69.5 22q53 0 96 -35l4 17q3 13 14 13h44q12 0 10 -12l-33 -275q-1 -12 -13 -12h-46q-10 0 -10 12zM199 593l-14 -113q-1 -7 -1 -14q0 -31 38 -31q37 0 77 32l16 132q-32 32 -68 32
q-43 0 -48 -38z" />
    <glyph glyph-name="guillemotleft" unicode="&#xab;" horiz-adv-x="603" 
d="M384 244l115 -92q18 -15 16 -29l-8 -58q-1 -10 -7.5 -13.5t-12.5 2.5l-167 137q-15 11 -14 25l7 59q2 14 20 26l201 136q7 5 13 2t5 -13l-8 -62q-3 -17 -22 -29zM169 244l115 -92q18 -15 16 -29l-8 -58q-1 -10 -7.5 -13.5t-12.5 2.5l-167 137q-15 11 -14 25l7 59
q2 14 20 26l201 136q7 5 13 2t5 -13l-8 -62q-3 -17 -22 -29z" />
    <glyph glyph-name="logicalnot" unicode="&#xac;" horiz-adv-x="388" 
d="M75 317q0 49 34.5 83.5t83.5 34.5t83.5 -34.5t34.5 -83.5t-34.5 -83.5t-83.5 -34.5t-83.5 34.5t-34.5 83.5z" />
    <glyph glyph-name="uni00AD" unicode="&#xad;" horiz-adv-x="448" 
d="M121 328h268q19 0 19 -18v-42q0 -18 -19 -18h-268q-19 0 -19 18v42q0 18 19 18z" />
    <glyph glyph-name="registered" unicode="&#xae;" horiz-adv-x="632" 
d="M592 538v-181q0 -150 -234 -150q-235 0 -235 150v181q0 150 235 150q234 0 234 -150zM528 350v194q0 86 -170 86q-171 0 -171 -86v-193q0 -87 171 -87q170 0 170 86zM474 482q0 -50 -43 -68l36 -89q5 -14 -13 -14h-39q-7 0 -13 14l-33 79h-51v-79q0 -14 -13 -14h-39
q-13 0 -13 14v241q0 14 13 14h105q103 0 103 -78v-20zM364 531h-46v-78h46q19 0 31.5 8.5t12.5 22.5v15q0 32 -44 32z" />
    <glyph glyph-name="macron" unicode="&#xaf;" horiz-adv-x="412" 
d="M165 659h242q18 0 17 -17l-4 -37q-1 -18 -22 -18h-242q-18 0 -17 18l4 36q1 18 22 18z" />
    <glyph glyph-name="degree" unicode="&#xb0;" horiz-adv-x="418" 
d="M119 493l11 92q7 51 41.5 76.5t118.5 25.5q139 0 139 -88q0 -12 -1 -18l-11 -92q-7 -51 -41.5 -76.5t-117.5 -25.5q-140 0 -140 87q0 13 1 19zM336 493l11 85v8q0 37 -64 37q-67 0 -72 -41l-10 -86q-1 -4 -1 -9q0 -36 64 -36q68 0 72 42z" />
    <glyph glyph-name="plusminus" unicode="&#xb1;" horiz-adv-x="571" 
d="M255 231v110h-155q-19 0 -19 19v43q0 18 19 18h155v110q0 19 18 19h42q19 0 19 -19v-110h157q19 0 19 -18v-43q0 -19 -19 -19h-157v-110q0 -20 -19 -20h-42q-18 0 -18 20zM100 153h391q19 0 19 -19v-42q0 -20 -19 -20h-391q-19 0 -19 20v42q0 19 19 19z" />
    <glyph glyph-name="twosuperior" unicode="&#xb2;" horiz-adv-x="380" 
d="M177 336h177q13 0 12 -14l-4 -33q-1 -14 -15 -14h-238q-13 0 -12 14l14 110q4 38 49 54l126 48q28 10 31 36l4 33q2 14 2 19q0 39 -59 39q-60 0 -66 -47l-3 -24q-1 -15 -15 -15h-46q-14 0 -12 15l4 35q12 96 144 96q65 0 96 -25t31 -62q0 -8 -2 -24l-4 -38
q-7 -62 -68 -86l-112 -43q-25 -11 -27 -23z" />
    <glyph glyph-name="threesuperior" unicode="&#xb3;" horiz-adv-x="379" 
d="M205 517h42q34 0 50.5 10.5t17.5 35.5l1 17v9q0 21 -12 31t-42 10q-32 0 -45 -11t-17 -36l-1 -6q-1 -13 -15 -13h-46q-13 0 -12 13l2 17q12 95 143 95q64 0 93 -23t29 -58q0 -9 -1 -18l-4 -39q-3 -26 -15 -40t-39 -21q42 -16 42 -57q0 -7 -1 -18l-6 -52q-11 -92 -144 -92
q-66 0 -96.5 23t-30.5 58v14l1 17q1 13 16 13h44q13 0 13 -13v-12q0 -41 58 -41q61 0 67 47l4 31q1 5 1 12q0 38 -57 38h-47q-13 0 -12 13l3 32q1 14 16 14z" />
    <glyph glyph-name="acute" unicode="&#xb4;" horiz-adv-x="324" 
d="M329 689l-89 -112q-8 -12 -26 -12h-48q-20 0 -8 18l73 107q13 18 27 18h64q23 0 7 -19z" />
    <glyph glyph-name="uni00B5" unicode="&#xb5;" horiz-adv-x="530" 
d="M371 19l2 31q-76 -58 -153 -58q-48 0 -65 17l-18 -194q-1 -19 -20 -19h-59q-19 0 -16 19l82 661q3 20 21 20h57q20 0 17 -20l-40 -326q-2 -22 -2 -24q0 -52 67 -52t136 51l43 351q3 20 21 20h58q19 0 16 -20l-56 -457q-3 -19 -21 -19h-54q-17 0 -16 19z" />
    <glyph glyph-name="paragraph" unicode="&#xb6;" horiz-adv-x="665" 
d="M483 661l-104 -845q-3 -20 -21 -20h-61q-19 0 -16 20l57 466h-36q-178 0 -178 113q0 8 2 22l16 132q8 63 53 97t156 34h115q19 0 17 -19zM658 660l-104 -844q-3 -20 -21 -20h-61q-18 0 -16 20l104 844q3 20 21 20h61q18 0 16 -20z" />
    <glyph glyph-name="periodcentered" unicode="&#xb7;" horiz-adv-x="233" 
d="M201 310l-10 -80q-3 -19 -20 -19h-60q-19 0 -16 19l9 80q1 19 21 19h61q18 0 15 -19z" />
    <glyph glyph-name="cedilla" unicode="&#xb8;" horiz-adv-x="217" 
d="M96 -52h34q33 0 54.5 -18.5t21.5 -53.5q0 -44 -26.5 -65.5t-69.5 -21.5h-113q-17 0 -15 19l2 20q3 18 20 18h99q35 0 35 25q0 20 -29 20h-66q-31 0 -23 24l35 92q8 18 24 17l27 -3q19 -3 10 -23z" />
    <glyph glyph-name="onesuperior" unicode="&#xb9;" horiz-adv-x="375" 
d="M149 659l148 28q6 1 9.5 -1.5t2.5 -11.5l-42 -338h82q13 0 12 -13l-4 -33q-1 -14 -15 -14h-240q-14 0 -13 14l4 33q1 13 16 13h83l35 277l-84 -13q-8 -2 -11.5 0.5t-2.5 10.5l4 34q1 11 16 14z" />
    <glyph glyph-name="ordmasculine" unicode="&#xba;" horiz-adv-x="364" 
d="M113 477l15 124q11 87 135 87q57 0 89 -20.5t32 -55.5q0 -4 -2 -20l-16 -126q-11 -87 -135 -87q-58 0 -89.5 20.5t-31.5 55.5q0 4 3 22zM294 472l15 121q0 2 0.5 5t0.5 4q0 29 -51 29q-54 0 -58 -34l-15 -118q-1 -4 -1 -13q0 -30 51 -30q52 0 58 36z" />
    <glyph glyph-name="guillemotright" unicode="&#xbb;" horiz-adv-x="617" 
d="M488 254l-115 92q-18 15 -16 29l8 58q1 10 7.5 13.5t12.5 -2.5l167 -137q15 -11 14 -25l-7 -59q-2 -14 -20 -26l-201 -136q-7 -5 -13 -2t-5 13l8 62q3 17 22 29zM259 254l-115 92q-18 15 -16 29l8 58q1 10 7.5 13.5t12.5 -2.5l167 -137q15 -11 14 -25l-7 -59
q-2 -14 -20 -26l-201 -136q-7 -5 -13 -2t-5 13l8 62q3 17 22 29z" />
    <glyph glyph-name="onequarter" unicode="&#xbc;" horiz-adv-x="860" 
d="M729 394l-95 -219h119l27 219q2 14 16 14h47q14 0 12 -14l-47 -380q-1 -14 -15 -14h-48q-14 0 -12 14l13 101h-186q-13 0 -12 14l2 24q2 12 7 25l96 216q6 14 19 14h49q14 0 8 -14zM667 715l-282 -750q-5 -14 -17 -14h-51q-15 0 -10 14l283 750q6 14 17 14h51q14 0 9 -14
zM179 659l148 28q6 1 9.5 -1.5t2.5 -11.5l-42 -338h82q13 0 12 -13l-4 -33q-1 -14 -15 -14h-240q-14 0 -13 14l4 33q1 13 16 13h83l35 277l-84 -13q-8 -2 -11.5 0.5t-2.5 10.5l4 34q1 11 16 14z" />
    <glyph glyph-name="onehalf" unicode="&#xbd;" horiz-adv-x="871" 
d="M688 715l-283 -750q-5 -14 -17 -14h-50q-15 0 -10 14l283 750q6 14 17 14h51q14 0 9 -14zM664 61h177q13 0 12 -14l-4 -33q-1 -14 -15 -14h-238q-13 0 -12 14l14 110q4 38 49 54l126 48q28 10 31 36l4 33q2 14 2 19q0 39 -59 39q-60 0 -66 -47l-3 -24q-1 -15 -15 -15h-46
q-13 0 -12 15l4 35q12 96 144 96q65 0 96 -25t31 -62q0 -8 -2 -24l-4 -38q-7 -62 -68 -86l-112 -43q-25 -11 -27 -23zM179 659l148 28q6 1 9.5 -1.5t2.5 -11.5l-42 -338h82q13 0 12 -13l-4 -33q-1 -14 -15 -14h-240q-14 0 -13 14l4 33q1 13 16 13h83l35 277l-84 -13
q-8 -2 -11.5 0.5t-2.5 10.5l4 34q1 11 16 14z" />
    <glyph glyph-name="threequarters" unicode="&#xbe;" horiz-adv-x="866" 
d="M733 394l-94 -219h119l26 219q2 14 16 14h47q14 0 12 -14l-46 -380q-1 -14 -16 -14h-47q-14 0 -12 14l12 101h-185q-14 0 -13 14l3 24q2 12 7 25l96 216q6 14 19 14h48q14 0 8 -14zM682 715l-282 -750q-5 -14 -17 -14h-51q-14 0 -9 14l282 750q6 14 18 14h50q15 0 9 -14z
M234 517h42q34 0 50.5 10.5t17.5 35.5l1 17v9q0 21 -12 31t-42 10q-32 0 -45 -11t-17 -36l-1 -6q-1 -13 -15 -13h-46q-13 0 -12 13l2 17q12 95 143 95q64 0 93 -23t29 -58q0 -9 -1 -18l-4 -39q-3 -26 -15 -40t-39 -21q42 -16 42 -57q0 -7 -1 -18l-6 -52q-11 -92 -144 -92
q-66 0 -96.5 23t-30.5 58v14l1 17q1 13 16 13h44q13 0 13 -13v-12q0 -41 58 -41q61 0 67 47l4 31q1 5 1 12q0 38 -57 38h-47q-13 0 -12 13l3 32q1 14 16 14z" />
    <glyph glyph-name="questiondown" unicode="&#xbf;" horiz-adv-x="566" 
d="M388 306l-10 -74q-3 -27 -17.5 -47t-26.5 -28t-32 -18l-84 -41q-47 -22 -54 -70l-7 -51q-1 -9 -1 -19q0 -68 113 -68q121 0 132 87l6 43q3 20 20 20h59q19 0 16 -20l-7 -58q-21 -154 -233 -154q-105 0 -154.5 38.5t-49.5 97.5q0 13 1 22l8 63q11 95 104 137l58 26
q48 22 54 64l7 50q3 19 20 19h61q19 0 17 -19zM301 397l9 80q3 19 21 19h61q10 0 13.5 -4t2.5 -15l-9 -79q-3 -20 -21 -20h-62q-17 0 -15 19z" />
    <glyph glyph-name="Agrave" unicode="&#xc0;" horiz-adv-x="538" 
d="M320 680h62q18 0 21 -19l116 -642q3 -19 -16 -19h-62q-18 0 -21 19l-27 155h-211l-66 -155q-8 -19 -24 -19h-58q-20 0 -12 19l272 642q9 19 26 19zM381 252l-33 182q-4 19 -6.5 56t-3.5 64v28q0 -1 -8.5 -31t-18.5 -63.5t-18 -51.5l-79 -184h167zM301 747l-62 112
q-5 7 -1.5 13t13.5 6h60q16 0 24 -18l46 -107q8 -18 -12 -18h-45q-17 0 -23 12z" />
    <glyph glyph-name="Aacute" unicode="&#xc1;" horiz-adv-x="538" 
d="M320 680h62q18 0 21 -19l116 -642q3 -19 -16 -19h-62q-18 0 -21 19l-27 155h-211l-66 -155q-8 -19 -24 -19h-58q-20 0 -12 19l272 642q9 19 26 19zM381 252l-33 182q-4 19 -6.5 56t-3.5 64v28q0 -1 -8.5 -31t-18.5 -63.5t-18 -51.5l-79 -184h167zM492 859l-89 -112
q-8 -12 -26 -12h-48q-19 0 -7 18l72 107q13 18 28 18h63q23 0 7 -19z" />
    <glyph glyph-name="Acircumflex" unicode="&#xc2;" horiz-adv-x="538" 
d="M320 680h62q18 0 21 -19l116 -642q3 -19 -16 -19h-62q-18 0 -21 19l-27 155h-211l-66 -155q-8 -19 -24 -19h-58q-20 0 -12 19l272 642q9 19 26 19zM381 252l-33 182q-4 19 -6.5 56t-3.5 64v28q0 -1 -8.5 -31t-18.5 -63.5t-18 -51.5l-79 -184h167zM360 820l-49 -67
q-12 -18 -28 -18h-46q-10 0 -12.5 5.5t4.5 12.5l88 106q16 19 32 19h35q15 0 27 -19l63 -106q5 -7 1.5 -12.5t-13.5 -5.5h-44q-16 0 -25 18z" />
    <glyph glyph-name="Atilde" unicode="&#xc3;" horiz-adv-x="538" 
d="M320 680h62q18 0 21 -19l116 -642q3 -19 -16 -19h-62q-18 0 -21 19l-27 155h-211l-66 -155q-8 -19 -24 -19h-58q-20 0 -12 19l272 642q9 19 26 19zM381 252l-33 182q-4 19 -6.5 56t-3.5 64v28q0 -1 -8.5 -31t-18.5 -63.5t-18 -51.5l-79 -184h167zM277 805q-11 0 -15 -6
t-7 -22l-4 -17q-4 -17 -22 -17h-30q-19 0 -14 22l7 32q18 80 87 80q31 0 60 -18l42 -28q23 -15 32 -15q12 0 17 7.5t8 29.5l1 8q3 17 22 17h31q19 0 14 -22l-6 -30q-8 -40 -32 -60.5t-56 -20.5t-61 19l-43 28q-20 13 -31 13z" />
    <glyph glyph-name="Adieresis" unicode="&#xc4;" horiz-adv-x="538" 
d="M320 680h62q18 0 21 -19l116 -642q3 -19 -16 -19h-62q-18 0 -21 19l-27 155h-211l-66 -155q-8 -19 -24 -19h-58q-20 0 -12 19l272 642q9 19 26 19zM381 252l-33 182q-4 19 -6.5 56t-3.5 64v28q0 -1 -8.5 -31t-18.5 -63.5t-18 -51.5l-79 -184h167zM340 853l-12 -95
q-3 -19 -20 -19h-35q-19 0 -16 19l11 95q3 20 22 20h34q19 0 16 -20zM461 853l-12 -95q-3 -19 -20 -19h-35q-19 0 -16 19l11 95q3 20 21 20h35q10 0 13.5 -4.5t2.5 -15.5z" />
    <glyph glyph-name="Aring" unicode="&#xc5;" horiz-adv-x="538" 
d="M320 680h62q18 0 21 -19l116 -642q3 -19 -16 -19h-62q-18 0 -21 19l-27 155h-211l-66 -155q-8 -19 -24 -19h-58q-20 0 -12 19l272 642q9 19 26 19zM455 820l-3 -33q-7 -70 -98 -70q-46 0 -70 16t-24 42q0 14 1 21l3 24q9 71 101 71q42 0 66.5 -16.5t24.5 -41.5
q0 -2 -1 -13zM381 252l-33 182q-4 19 -6.5 56t-3.5 64v28q0 -1 -8.5 -31t-18.5 -63.5t-18 -51.5l-79 -184h167zM401 797l1 13v10q0 23 -41 23q-42 0 -47 -33l-1 -13v-7q0 -26 41 -26q42 0 47 33z" />
    <glyph glyph-name="AE" unicode="&#xc6;" horiz-adv-x="837" 
d="M511 680h335q20 0 17 -18l-6 -43q-3 -19 -21 -19h-262l-26 -207h245q20 0 17 -18l-5 -40q-3 -19 -21 -19h-245l-29 -236h273q21 0 18 -18l-6 -43q-3 -19 -21 -19h-346q-22 0 -19 20l19 154h-200l-108 -155q-15 -19 -26 -19h-59q-10 0 -13.5 5t1.5 14l456 642q14 19 32 19
zM430 459l-146 -207h154l33 270q-7 -12 -41 -63z" />
    <glyph glyph-name="Ccedilla" unicode="&#xc7;" horiz-adv-x="559" 
d="M277 -52h34q33 0 54.5 -18.5t21.5 -53.5q0 -44 -26.5 -65.5t-69.5 -21.5h-113q-17 0 -15 19l2 20q3 18 20 18h99q35 0 35 25q0 20 -29 20h-66q-31 0 -23 24l30 81q-145 19 -145 129q0 7 2 25l47 384q19 154 237 154q108 0 157 -36.5t49 -96.5q0 -7 -2 -25l-5 -45
q-3 -20 -20 -20h-59q-19 0 -16 20l4 29q1 6 1 19q0 72 -115 72q-124 0 -135 -87l-43 -351q-1 -7 -1 -19q0 -73 114 -73q126 0 136 87l5 47q1 19 21 19h58q18 0 16 -19l-7 -63q-17 -153 -236 -154z" />
    <glyph glyph-name="Egrave" unicode="&#xc8;" horiz-adv-x="519" 
d="M311 747l-62 112q-5 7 -1.5 13t13.5 6h60q16 0 24 -18l46 -107q8 -18 -12 -18h-45q-17 0 -23 12zM454 0h-353q-20 0 -17 20l79 640q3 20 21 20h342q20 0 17 -19l-6 -45q-3 -19 -21 -19h-262l-25 -202h245q19 0 16 -19l-5 -43q-3 -19 -21 -19h-245l-29 -231h273
q21 0 18 -18l-6 -46q-3 -19 -21 -19z" />
    <glyph glyph-name="Eacute" unicode="&#xc9;" horiz-adv-x="519" 
d="M454 0h-353q-20 0 -17 20l79 640q3 20 21 20h342q20 0 17 -19l-6 -45q-3 -19 -21 -19h-262l-25 -202h245q19 0 16 -19l-5 -43q-3 -19 -21 -19h-245l-29 -231h273q21 0 18 -18l-6 -46q-3 -19 -21 -19zM486 859l-89 -112q-8 -12 -26 -12h-48q-19 0 -7 18l72 107
q13 18 28 18h63q23 0 7 -19z" />
    <glyph glyph-name="Ecircumflex" unicode="&#xca;" horiz-adv-x="519" 
d="M366 820l-49 -67q-12 -18 -28 -18h-46q-10 0 -12.5 5.5t4.5 12.5l88 106q16 19 32 19h35q15 0 27 -19l63 -106q5 -7 1.5 -12.5t-13.5 -5.5h-44q-16 0 -25 18zM454 0h-353q-20 0 -17 20l79 640q3 20 21 20h342q20 0 17 -19l-6 -45q-3 -19 -21 -19h-262l-25 -202h245
q19 0 16 -19l-5 -43q-3 -19 -21 -19h-245l-29 -231h273q21 0 18 -18l-6 -46q-3 -19 -21 -19z" />
    <glyph glyph-name="Edieresis" unicode="&#xcb;" horiz-adv-x="519" 
d="M454 0h-353q-20 0 -17 20l79 640q3 20 21 20h342q20 0 17 -19l-6 -45q-3 -19 -21 -19h-262l-25 -202h245q19 0 16 -19l-5 -43q-3 -19 -21 -19h-245l-29 -231h273q21 0 18 -18l-6 -46q-3 -19 -21 -19zM351 853l-12 -95q-3 -19 -20 -19h-35q-19 0 -16 19l11 95q3 20 22 20
h34q19 0 16 -20zM472 853l-12 -95q-3 -19 -20 -19h-35q-19 0 -16 19l11 95q3 20 21 20h35q10 0 13.5 -4.5t2.5 -15.5z" />
    <glyph glyph-name="Igrave" unicode="&#xcc;" horiz-adv-x="261" 
d="M261 660l-79 -640q-3 -20 -20 -20h-61q-20 0 -17 20l79 640q3 20 21 20h61q19 0 16 -20zM172 747l-62 112q-5 7 -1.5 13t13.5 6h60q16 0 24 -18l46 -107q8 -18 -12 -18h-45q-17 0 -23 12z" />
    <glyph glyph-name="Iacute" unicode="&#xcd;" horiz-adv-x="261" 
d="M261 660l-79 -640q-3 -20 -20 -20h-61q-20 0 -17 20l79 640q3 20 21 20h61q19 0 16 -20zM355 859l-89 -112q-8 -12 -26 -12h-48q-19 0 -7 18l72 107q13 18 28 18h63q23 0 7 -19z" />
    <glyph glyph-name="Icircumflex" unicode="&#xce;" horiz-adv-x="261" 
d="M261 660l-79 -640q-3 -20 -20 -20h-61q-20 0 -17 20l79 640q3 20 21 20h61q19 0 16 -20zM229 820l-49 -67q-12 -18 -28 -18h-46q-10 0 -12.5 5.5t4.5 12.5l88 106q16 19 32 19h35q15 0 27 -19l63 -106q5 -7 1.5 -12.5t-13.5 -5.5h-44q-16 0 -25 18z" />
    <glyph glyph-name="Idieresis" unicode="&#xcf;" horiz-adv-x="261" 
d="M261 660l-79 -640q-3 -20 -20 -20h-61q-20 0 -17 20l79 640q3 20 21 20h61q19 0 16 -20zM210 853l-12 -95q-3 -19 -20 -19h-35q-19 0 -16 19l11 95q3 20 22 20h34q19 0 16 -20zM331 853l-12 -95q-3 -19 -20 -19h-35q-19 0 -16 19l11 95q3 20 21 20h35q10 0 13.5 -4.5
t2.5 -15.5z" />
    <glyph glyph-name="Eth" unicode="&#xd0;" horiz-adv-x="608" 
d="M315 0h-216q-18 0 -15 20l35 287h-62q-20 0 -17 18l4 36q3 18 22 18h62l35 281q3 20 21 20h204q111 0 163 -38t52 -98q0 -13 -2 -27l-44 -363q-19 -154 -242 -154zM383 597h-129l-27 -218h107q18 0 17 -18l-4 -36q-3 -18 -22 -18h-107l-28 -224h130q129 0 140 87l41 332
q2 18 2 21q0 74 -120 74z" />
    <glyph glyph-name="Ntilde" unicode="&#xd1;" horiz-adv-x="618" 
d="M339 805q-11 0 -15 -6t-7 -22l-4 -17q-4 -17 -22 -17h-30q-19 0 -14 22l7 32q18 80 87 80q31 0 60 -18l42 -28q22 -15 32 -15q12 0 17 7.5t8 29.5l1 8q3 17 22 17h31q19 0 14 -22l-6 -30q-8 -40 -32 -60.5t-56 -20.5t-61 19l-43 28q-19 13 -31 13zM615 661l-79 -642
q-3 -19 -20 -19h-52q-14 0 -18 9l-185 412q-14 29 -27 73l-59 -475q-3 -19 -19 -19h-56q-20 0 -17 19l79 642q3 19 21 19h52q13 0 16 -8l190 -421q18 -41 24 -64l58 474q3 19 21 19h55q19 0 16 -19z" />
    <glyph glyph-name="Ograve" unicode="&#xd2;" horiz-adv-x="597" 
d="M337 747l-62 112q-5 7 -1.5 13t13.5 6h60q16 0 24 -18l46 -107q7 -18 -12 -18h-45q-17 0 -23 12zM88 150l47 384q19 154 243 154q109 0 161 -37.5t52 -97.5q0 -15 -1 -23l-47 -384q-19 -154 -244 -154q-110 0 -161.5 37t-51.5 97q0 6 2 24zM446 162l44 351q2 14 2 18
q0 74 -121 74q-129 0 -140 -87l-43 -351q-2 -14 -2 -18q0 -74 121 -74q128 0 139 87z" />
    <glyph glyph-name="Oacute" unicode="&#xd3;" horiz-adv-x="597" 
d="M517 859l-89 -112q-8 -12 -26 -12h-48q-19 0 -7 18l72 107q13 18 28 18h63q23 0 7 -19zM88 150l47 384q19 154 243 154q109 0 161 -37.5t52 -97.5q0 -15 -1 -23l-47 -384q-19 -154 -244 -154q-110 0 -161.5 37t-51.5 97q0 6 2 24zM446 162l44 351q2 14 2 18q0 74 -121 74
q-129 0 -140 -87l-43 -351q-2 -14 -2 -18q0 -74 121 -74q128 0 139 87z" />
    <glyph glyph-name="Ocircumflex" unicode="&#xd4;" horiz-adv-x="597" 
d="M396 820l-49 -67q-12 -18 -28 -18h-46q-10 0 -12.5 5.5t4.5 12.5l88 106q16 19 32 19h35q15 0 27 -19l63 -106q5 -7 1.5 -12.5t-13.5 -5.5h-44q-16 0 -25 18zM88 150l47 384q19 154 243 154q109 0 161 -37.5t52 -97.5q0 -15 -1 -23l-47 -384q-19 -154 -244 -154
q-110 0 -161.5 37t-51.5 97q0 6 2 24zM446 162l44 351q2 14 2 18q0 74 -121 74q-129 0 -140 -87l-43 -351q-2 -14 -2 -18q0 -74 121 -74q128 0 139 87z" />
    <glyph glyph-name="Otilde" unicode="&#xd5;" horiz-adv-x="597" 
d="M88 150l47 384q19 154 243 154q109 0 161 -37.5t52 -97.5q0 -15 -1 -23l-47 -384q-19 -154 -244 -154q-110 0 -161.5 37t-51.5 97q0 6 2 24zM446 162l44 351q2 14 2 18q0 74 -121 74q-129 0 -140 -87l-43 -351q-2 -14 -2 -18q0 -74 121 -74q128 0 139 87zM326 805
q-11 0 -15 -6t-7 -22l-4 -17q-4 -17 -22 -17h-30q-19 0 -14 22l7 32q18 80 87 80q32 0 60 -18l42 -28q22 -15 32 -15q12 0 17 7.5t8 29.5l1 8q3 17 22 17h31q19 0 14 -22l-6 -30q-8 -40 -32 -60.5t-56 -20.5t-61 19l-43 28q-19 13 -31 13z" />
    <glyph glyph-name="Odieresis" unicode="&#xd6;" horiz-adv-x="597" 
d="M88 150l47 384q19 154 243 154q109 0 161 -37.5t52 -97.5q0 -15 -1 -23l-47 -384q-19 -154 -244 -154q-110 0 -161.5 37t-51.5 97q0 6 2 24zM446 162l44 351q2 14 2 18q0 74 -121 74q-129 0 -140 -87l-43 -351q-2 -14 -2 -18q0 -74 121 -74q128 0 139 87zM377 853
l-12 -95q-3 -19 -20 -19h-35q-19 0 -16 19l11 95q3 20 22 20h34q19 0 16 -20zM498 853l-12 -95q-3 -19 -20 -19h-35q-19 0 -16 19l11 95q3 20 21 20h35q10 0 13.5 -4.5t2.5 -15.5z" />
    <glyph glyph-name="multiply" unicode="&#xd7;" horiz-adv-x="543" 
d="M366 149l-78 134l-135 -77q-17 -10 -26 7l-20 37q-10 16 7 26l135 77l-78 135q-9 16 6 26l36 22q16 10 26 -8l78 -135l136 78q16 9 25 -6l21 -37q10 -17 -7 -27l-136 -78l78 -134q10 -16 -7 -26l-36 -21q-15 -10 -25 7z" />
    <glyph glyph-name="Oslash" unicode="&#xd8;" horiz-adv-x="597" 
d="M88 149l47 384q19 154 243 154q79 0 131 -22l15 25q11 20 26 20h24q17 0 5 -20l-30 -49q42 -35 42 -89q0 -15 -1 -23l-47 -384q-19 -154 -244 -154q-79 0 -131 21l-14 -23q-14 -21 -27 -21h-24q-5 0 -7 3t-1 8t4 10l28 47q-41 34 -41 89q0 6 2 24zM446 161l44 351
q2 14 2 18q0 10 -1 14l-275 -452q30 -18 91 -18q128 0 139 87zM186 148q0 -10 1 -14l274 452q-30 18 -90 18q-129 0 -140 -87l-43 -351q-2 -14 -2 -18z" />
    <glyph glyph-name="Ugrave" unicode="&#xd9;" horiz-adv-x="608" 
d="M346 747l-62 112q-5 7 -1.5 13t13.5 6h60q16 0 24 -18l46 -107q8 -18 -12 -18h-45q-17 0 -23 12zM253 660l-60 -484q-2 -24 -2 -27q0 -74 120 -74q129 0 140 87l62 498q3 20 20 20h61q20 0 17 -20l-64 -514q-19 -154 -242 -154q-108 0 -161 38t-53 98q0 10 2 26l63 506
q3 20 20 20h61q19 0 16 -20z" />
    <glyph glyph-name="Uacute" unicode="&#xda;" horiz-adv-x="608" 
d="M253 660l-60 -484q-2 -24 -2 -27q0 -74 120 -74q129 0 140 87l62 498q3 20 20 20h61q20 0 17 -20l-64 -514q-19 -154 -242 -154q-108 0 -161 38t-53 98q0 10 2 26l63 506q3 20 20 20h61q19 0 16 -20zM524 859l-89 -112q-8 -12 -26 -12h-48q-19 0 -7 18l72 107
q13 18 28 18h63q23 0 7 -19z" />
    <glyph glyph-name="Ucircumflex" unicode="&#xdb;" horiz-adv-x="608" 
d="M399 820l-49 -67q-12 -18 -28 -18h-46q-10 0 -12.5 5.5t4.5 12.5l88 106q16 19 32 19h35q15 0 27 -19l63 -106q5 -7 1.5 -12.5t-13.5 -5.5h-44q-16 0 -25 18zM253 660l-60 -484q-2 -24 -2 -27q0 -74 120 -74q129 0 140 87l62 498q3 20 20 20h61q20 0 17 -20l-64 -514
q-19 -154 -242 -154q-108 0 -161 38t-53 98q0 10 2 26l63 506q3 20 20 20h61q19 0 16 -20z" />
    <glyph glyph-name="Udieresis" unicode="&#xdc;" horiz-adv-x="608" 
d="M253 660l-60 -484q-2 -24 -2 -27q0 -74 120 -74q129 0 140 87l62 498q3 20 20 20h61q20 0 17 -20l-64 -514q-19 -154 -242 -154q-108 0 -161 38t-53 98q0 10 2 26l63 506q3 20 20 20h61q19 0 16 -20zM379 853l-12 -95q-3 -19 -20 -19h-35q-19 0 -16 19l11 95q3 20 22 20
h34q19 0 16 -20zM500 853l-12 -95q-3 -19 -20 -19h-35q-19 0 -16 19l11 95q3 20 21 20h35q10 0 13.5 -4.5t2.5 -15.5z" />
    <glyph glyph-name="Yacute" unicode="&#xdd;" horiz-adv-x="529" 
d="M204 661l93 -264q4 -13 10 -45q12 31 21 45l164 264q12 19 25 19h63q23 0 11 -19l-244 -391l-31 -251q-3 -19 -20 -19h-61q-20 0 -17 19l29 240l-148 402q-8 19 16 19h68q16 0 21 -19zM491 859l-89 -112q-8 -12 -26 -12h-48q-19 0 -7 18l72 107q13 18 28 18h63
q23 0 7 -19z" />
    <glyph glyph-name="Thorn" unicode="&#xde;" horiz-adv-x="572" 
d="M260 661l-20 -165h121q109 0 160.5 -38t51.5 -97q0 -14 -1 -20l-12 -94q-19 -152 -243 -152h-126l-10 -76q-3 -19 -20 -19h-61q-20 0 -17 19l79 642q3 19 21 19h61q19 0 16 -19zM354 415h-124l-29 -239h123q130 0 141 88l8 63v13q0 75 -119 75z" />
    <glyph glyph-name="germandbls" unicode="&#xdf;" horiz-adv-x="619" 
d="M266 566l-67 -546q-3 -20 -21 -20h-59q-19 0 -16 20l49 396h-59q-17 0 -16 19l4 36q3 18 21 19l58 4h1l10 77q17 137 224 137q96 0 143 -31.5t47 -86.5q0 -12 -1 -23l-4 -32q-8 -63 -83 -90l-68 -24q-1 0 -7.5 -2.5t-9 -3.5t-8 -4t-8.5 -5t-6.5 -5.5t-5 -8t-1.5 -9.5v-12
q0 -19 38 -37l112 -49q78 -34 78 -91q0 -9 -1 -17l-6 -52q-8 -65 -48.5 -99t-136.5 -34q-83 0 -118 27t-35 78q0 13 1 21l1 13q3 20 22 20h40q18 0 16 -20l-1 -12q-1 -8 -1 -13q0 -51 79 -51q48 0 69 16.5t24 47.5l4 36q1 6 1 16q0 5 -1 9t-3.5 7.5t-4.5 6.5t-6 5.5t-6 4.5
t-7 4t-6.5 3t-6.5 3l-5 2l-105 44q-70 29 -70 91q0 10 1 18l2 16q7 61 82 87l52 18q53 18 56 51l2 21q1 12 1 17q0 60 -107 60q-115 0 -123 -73z" />
    <glyph glyph-name="agrave" unicode="&#xe0;" 
d="M371 20l2 30q-84 -58 -171 -58q-63 0 -96 30t-33 83q0 7 2 23l30 240q17 136 155 136q94 0 162 -60l6 32q4 20 21 20h53q19 0 16 -20l-56 -456q-3 -20 -21 -20h-54q-16 0 -16 20zM198 354l-27 -212q-1 -5 -1 -14q0 -51 68 -51q66 0 142 51l30 239q-61 52 -129 52
q-74 0 -83 -65zM284 577l-63 112q-9 19 13 19h60q17 0 24 -18l45 -107q7 -18 -12 -18h-44q-17 0 -23 12z" />
    <glyph glyph-name="aacute" unicode="&#xe1;" 
d="M371 20l2 30q-84 -58 -171 -58q-63 0 -96 30t-33 83q0 7 2 23l30 240q17 136 155 136q94 0 162 -60l6 32q4 20 21 20h53q19 0 16 -20l-56 -456q-3 -20 -21 -20h-54q-16 0 -16 20zM198 354l-27 -212q-1 -5 -1 -14q0 -51 68 -51q66 0 142 51l30 239q-61 52 -129 52
q-74 0 -83 -65zM452 689l-89 -112q-8 -12 -26 -12h-48q-20 0 -8 18l73 107q13 18 27 18h64q23 0 7 -19z" />
    <glyph glyph-name="acircumflex" unicode="&#xe2;" 
d="M371 20l2 30q-84 -58 -171 -58q-63 0 -96 30t-33 83q0 7 2 23l30 240q17 136 155 136q94 0 162 -60l6 32q4 20 21 20h53q19 0 16 -20l-56 -456q-3 -20 -21 -20h-54q-16 0 -16 20zM198 354l-27 -212q-1 -5 -1 -14q0 -51 68 -51q66 0 142 51l30 239q-61 52 -129 52
q-74 0 -83 -65zM332 650l-49 -67q-12 -18 -29 -18h-46q-10 0 -12 5.5t4 12.5l88 106q16 19 33 19h35q15 0 27 -19l63 -106q5 -7 1 -12.5t-14 -5.5h-44q-15 0 -24 18z" />
    <glyph glyph-name="atilde" unicode="&#xe3;" 
d="M371 20l2 30q-84 -58 -171 -58q-63 0 -96 30t-33 83q0 7 2 23l30 240q17 136 155 136q94 0 162 -60l6 32q4 20 21 20h53q19 0 16 -20l-56 -456q-3 -20 -21 -20h-54q-16 0 -16 20zM198 354l-27 -212q-1 -5 -1 -14q0 -51 68 -51q66 0 142 51l30 239q-61 52 -129 52
q-74 0 -83 -65zM262 628q-11 0 -15 -6t-7 -22l-4 -17q-4 -17 -22 -17h-30q-19 0 -14 22l7 32q18 80 87 80q32 0 60 -18l42 -28q22 -15 32 -15q12 0 17 7.5t8 29.5l1 8q3 17 22 17h31q19 0 14 -22l-6 -30q-8 -40 -32 -60.5t-56 -20.5t-61 19l-43 28q-20 13 -31 13z" />
    <glyph glyph-name="adieresis" unicode="&#xe4;" 
d="M371 20l2 30q-84 -58 -171 -58q-63 0 -96 30t-33 83q0 7 2 23l30 240q17 136 155 136q94 0 162 -60l6 32q4 20 21 20h53q19 0 16 -20l-56 -456q-3 -20 -21 -20h-54q-16 0 -16 20zM198 354l-27 -212q-1 -5 -1 -14q0 -51 68 -51q66 0 142 51l30 239q-61 52 -129 52
q-74 0 -83 -65zM313 685l-12 -95q-3 -19 -20 -19h-35q-19 0 -16 19l11 95q3 19 22 19h34q19 0 16 -19zM434 685l-12 -95q-3 -19 -21 -19h-34q-19 0 -16 19l11 95q3 19 21 19h35q19 0 16 -19z" />
    <glyph glyph-name="aring" unicode="&#xe5;" 
d="M371 20l2 30q-84 -58 -171 -58q-63 0 -96 30t-33 83q0 7 2 23l30 240q17 136 155 136q94 0 162 -60l6 32q4 20 21 20h53q19 0 16 -20l-56 -456q-3 -20 -21 -20h-54q-16 0 -16 20zM198 354l-27 -212q-1 -5 -1 -14q0 -51 68 -51q66 0 142 51l30 239q-61 52 -129 52
q-74 0 -83 -65zM437 653l-3 -33q-7 -70 -98 -70q-46 0 -70 16t-24 42q0 14 1 21l3 24q9 71 101 71q42 0 66.5 -16.5t24.5 -41.5q0 -2 -1 -13zM383 630l1 13v10q0 23 -41 23q-42 0 -47 -33l-1 -13v-7q0 -26 41 -26q42 0 47 33z" />
    <glyph glyph-name="ae" unicode="&#xe6;" horiz-adv-x="787" 
d="M777 367l-14 -122q-1 -18 -20 -18h-272l-12 -90q0 -3 -0.5 -5.5t-1 -4.5t-0.5 -3.5v-2.5q0 -55 94 -55q54 0 77.5 16t29.5 48l3 16q3 19 21 19h49q17 0 16 -19l-2 -19q-7 -65 -52 -100t-148 -35q-133 0 -168 66q-82 -66 -174 -66q-56 0 -96.5 26.5t-40.5 78.5q0 7 1 16
l6 53q6 48 45.5 82t107.5 34h157l10 77q2 14 2 17q0 56 -90 56q-54 0 -77.5 -15.5t-28.5 -48.5l-2 -14q-3 -20 -21 -20h-51q-19 0 -17 20l2 15q9 67 54.5 101t146.5 34q99 0 137 -48q50 48 154 48q176 0 176 -118q0 -13 -1 -19zM226 69q62 0 138 55l11 84h-141
q-63 0 -70 -57l-2 -18l-1 -12q0 -30 16.5 -41t48.5 -11zM487 363l-9 -65h201l9 65v11q0 56 -92 56q-99 0 -109 -67z" />
    <glyph glyph-name="ccedilla" unicode="&#xe7;" horiz-adv-x="485" 
d="M246 -52h34q33 0 54.5 -18.5t21.5 -53.5q0 -44 -26.5 -65.5t-69.5 -21.5h-113q-17 0 -15 19l2 20q3 18 20 18h99q35 0 35 25q0 20 -29 20h-66q-31 0 -23 24l30 80q-127 16 -127 115q0 12 1 19l29 238q8 66 56 101.5t151 35.5q177 0 177 -118q0 -11 -1 -21l-2 -16
q-3 -19 -21 -19h-54q-17 0 -16 18l1 12q1 8 1 15q0 51 -90 51q-55 0 -79 -16.5t-28 -49.5l-27 -214q-2 -16 -2 -22q0 -27 21 -40.5t70 -13.5q54 0 78 16.5t29 49.5l3 20q3 19 20 19h54q18 0 16 -19l-3 -27q-7 -64 -51.5 -99.5t-142.5 -37.5z" />
    <glyph glyph-name="egrave" unicode="&#xe8;" horiz-adv-x="495" 
d="M486 367l-15 -122q-1 -18 -20 -18h-272l-11 -85q-2 -20 -2 -21q0 -55 93 -55q100 0 108 64l2 16q3 19 22 19h50q18 0 16 -19l-2 -17q-8 -67 -53.5 -102t-148.5 -35q-180 0 -180 118q0 13 1 19l29 238q8 66 56 101.5t151 35.5q90 0 133.5 -31.5t43.5 -86.5q0 -13 -1 -19z
M196 363l-8 -65h200l8 60q1 5 1 16q0 56 -93 56q-100 0 -108 -67zM272 577l-63 112q-9 19 13 19h60q17 0 24 -18l45 -107q7 -18 -12 -18h-44q-17 0 -23 12z" />
    <glyph glyph-name="eacute" unicode="&#xe9;" horiz-adv-x="495" 
d="M447 689l-89 -112q-8 -12 -26 -12h-48q-20 0 -8 18l73 107q13 18 27 18h64q23 0 7 -19zM486 367l-15 -122q-1 -18 -20 -18h-272l-11 -85q-2 -20 -2 -21q0 -55 93 -55q100 0 108 64l2 16q3 19 22 19h50q18 0 16 -19l-2 -17q-8 -67 -53.5 -102t-148.5 -35q-180 0 -180 118
q0 13 1 19l29 238q8 66 56 101.5t151 35.5q90 0 133.5 -31.5t43.5 -86.5q0 -13 -1 -19zM196 363l-8 -65h200l8 60q1 5 1 16q0 56 -93 56q-100 0 -108 -67z" />
    <glyph glyph-name="ecircumflex" unicode="&#xea;" horiz-adv-x="495" 
d="M325 650l-49 -67q-12 -18 -29 -18h-46q-10 0 -12 5.5t4 12.5l88 106q16 19 33 19h35q15 0 27 -19l63 -106q5 -7 1 -12.5t-14 -5.5h-44q-15 0 -24 18zM486 367l-15 -122q-1 -18 -20 -18h-272l-11 -85q-2 -20 -2 -21q0 -55 93 -55q100 0 108 64l2 16q3 19 22 19h50
q18 0 16 -19l-2 -17q-8 -67 -53.5 -102t-148.5 -35q-180 0 -180 118q0 13 1 19l29 238q8 66 56 101.5t151 35.5q90 0 133.5 -31.5t43.5 -86.5q0 -13 -1 -19zM196 363l-8 -65h200l8 60q1 5 1 16q0 56 -93 56q-100 0 -108 -67z" />
    <glyph glyph-name="edieresis" unicode="&#xeb;" horiz-adv-x="495" 
d="M301 685l-12 -95q-3 -19 -20 -19h-35q-19 0 -16 19l11 95q3 19 22 19h34q19 0 16 -19zM422 685l-12 -95q-3 -19 -21 -19h-34q-19 0 -16 19l11 95q3 19 21 19h35q19 0 16 -19zM486 367l-15 -122q-1 -18 -20 -18h-272l-11 -85q-2 -20 -2 -21q0 -55 93 -55q100 0 108 64
l2 16q3 19 22 19h50q18 0 16 -19l-2 -17q-8 -67 -53.5 -102t-148.5 -35q-180 0 -180 118q0 13 1 19l29 238q8 66 56 101.5t151 35.5q90 0 133.5 -31.5t43.5 -86.5q0 -13 -1 -19zM196 363l-8 -65h200l8 60q1 5 1 16q0 56 -93 56q-100 0 -108 -67z" />
    <glyph glyph-name="igrave" unicode="&#xec;" horiz-adv-x="237" 
d="M224 476l-56 -457q-3 -19 -21 -19h-58q-19 0 -16 19l56 457q3 20 21 20h58q19 0 16 -20zM139 577l-63 112q-4 7 -0.5 13t13.5 6h60q17 0 24 -18l45 -107q7 -18 -12 -18h-44q-17 0 -23 12z" />
    <glyph glyph-name="iacute" unicode="&#xed;" horiz-adv-x="237" 
d="M322 689l-89 -112q-8 -12 -26 -12h-48q-20 0 -8 18l73 107q13 18 27 18h64q23 0 7 -19zM224 476l-56 -457q-3 -19 -21 -19h-58q-19 0 -16 19l56 457q3 20 21 20h58q19 0 16 -20z" />
    <glyph glyph-name="icircumflex" unicode="&#xee;" horiz-adv-x="237" 
d="M198 650l-49 -67q-12 -18 -29 -18h-46q-10 0 -12 5.5t4 12.5l88 106q16 19 33 19h35q15 0 27 -19l63 -106q5 -7 1 -12.5t-14 -5.5h-44q-15 0 -24 18zM224 476l-56 -457q-3 -19 -21 -19h-58q-19 0 -16 19l56 457q3 20 21 20h58q19 0 16 -20z" />
    <glyph glyph-name="idieresis" unicode="&#xef;" horiz-adv-x="237" 
d="M180 685l-12 -95q-3 -19 -20 -19h-35q-19 0 -16 19l11 95q3 19 22 19h34q19 0 16 -19zM301 685l-12 -95q-3 -19 -21 -19h-34q-19 0 -16 19l11 95q3 19 21 19h35q19 0 16 -19zM224 476l-56 -457q-3 -19 -21 -19h-58q-19 0 -16 19l56 457q3 20 21 20h58q19 0 16 -20z" />
    <glyph glyph-name="eth" unicode="&#xf0;" horiz-adv-x="561" 
d="M350 594l65 28q-21 19 -76 19h-93q-17 0 -16 18l3 30q1 19 22 19h93q106 0 149 -43l51 24q17 8 24 -7l6 -12q8 -15 -12 -24l-46 -22q5 -11 5 -31q0 -14 -1 -21l-55 -444q-17 -136 -209 -136q-93 0 -140 31.5t-47 87.5q0 11 1 17l29 240q17 136 156 136q93 0 159 -58
l14 107v7q0 8 -3 16l-61 -25q-18 -7 -24 7l-5 12q-7 17 11 24zM380 136l29 233q-61 52 -129 52q-75 0 -83 -66l-27 -219q0 -1 -0.5 -5t-0.5 -6q0 -57 98 -57q105 0 113 68z" />
    <glyph glyph-name="ntilde" unicode="&#xf1;" horiz-adv-x="536" 
d="M150 496h54q18 0 17 -19l-2 -32q76 59 170 59q60 0 94.5 -30.5t34.5 -80.5q0 -14 -1 -22l-43 -351q-3 -20 -22 -20h-57q-19 0 -16 20l40 328q2 14 2 19q0 52 -67 52q-71 0 -143 -51l-42 -348q-3 -20 -21 -20h-59q-19 0 -16 20l57 457q3 19 20 19zM276 628q-11 0 -15 -6
t-7 -22l-4 -17q-4 -17 -22 -17h-30q-19 0 -14 22l7 32q18 80 87 80q32 0 60 -18l42 -28q22 -15 32 -15q12 0 17 7.5t8 29.5l1 8q3 17 22 17h31q19 0 14 -22l-6 -30q-8 -40 -32 -60.5t-56 -20.5t-61 19l-43 28q-20 13 -31 13z" />
    <glyph glyph-name="ograve" unicode="&#xf2;" horiz-adv-x="520" 
d="M74 129l29 238q17 137 215 137q92 0 139 -31.5t47 -87.5q0 -12 -1 -18l-29 -238q-17 -137 -214 -137q-93 0 -140 32t-47 88q0 11 1 17zM380 137l28 222v10q0 57 -97 57q-105 0 -113 -67l-28 -222q-1 -4 -1 -11q0 -56 98 -56q105 0 113 67zM278 577l-63 112q-9 19 13 19
h60q17 0 24 -18l45 -107q7 -18 -12 -18h-44q-17 0 -23 12z" />
    <glyph glyph-name="oacute" unicode="&#xf3;" horiz-adv-x="520" 
d="M455 689l-89 -112q-8 -12 -26 -12h-48q-20 0 -8 18l73 107q13 18 27 18h64q23 0 7 -19zM74 129l29 238q17 137 215 137q92 0 139 -31.5t47 -87.5q0 -12 -1 -18l-29 -238q-17 -137 -214 -137q-93 0 -140 32t-47 88q0 11 1 17zM380 137l28 222v10q0 57 -97 57
q-105 0 -113 -67l-28 -222q-1 -4 -1 -11q0 -56 98 -56q105 0 113 67z" />
    <glyph glyph-name="ocircumflex" unicode="&#xf4;" horiz-adv-x="520" 
d="M337 650l-49 -67q-12 -18 -29 -18h-46q-10 0 -12 5.5t4 12.5l88 106q16 19 33 19h35q15 0 27 -19l63 -106q5 -7 1 -12.5t-14 -5.5h-44q-15 0 -24 18zM74 129l29 238q17 137 215 137q92 0 139 -31.5t47 -87.5q0 -12 -1 -18l-29 -238q-17 -137 -214 -137q-93 0 -140 32
t-47 88q0 11 1 17zM380 137l28 222v10q0 57 -97 57q-105 0 -113 -67l-28 -222q-1 -4 -1 -11q0 -56 98 -56q105 0 113 67z" />
    <glyph glyph-name="otilde" unicode="&#xf5;" horiz-adv-x="520" 
d="M74 129l29 238q17 137 215 137q92 0 139 -31.5t47 -87.5q0 -12 -1 -18l-29 -238q-17 -137 -214 -137q-93 0 -140 32t-47 88q0 11 1 17zM380 137l28 222v10q0 57 -97 57q-105 0 -113 -67l-28 -222q-1 -4 -1 -11q0 -56 98 -56q105 0 113 67zM254 628q-11 0 -15 -6t-7 -22
l-4 -17q-4 -17 -22 -17h-30q-19 0 -14 22l7 32q18 80 87 80q32 0 60 -18l42 -28q22 -15 32 -15q12 0 17 7.5t8 29.5l1 8q3 17 22 17h31q19 0 14 -22l-6 -30q-8 -40 -32 -60.5t-56 -20.5t-61 19l-43 28q-19 13 -31 13z" />
    <glyph glyph-name="odieresis" unicode="&#xf6;" horiz-adv-x="520" 
d="M314 685l-12 -95q-3 -19 -20 -19h-35q-19 0 -16 19l11 95q3 19 22 19h34q19 0 16 -19zM435 685l-12 -95q-3 -19 -21 -19h-34q-19 0 -16 19l11 95q3 19 21 19h35q19 0 16 -19zM74 129l29 238q17 137 215 137q92 0 139 -31.5t47 -87.5q0 -12 -1 -18l-29 -238
q-17 -137 -214 -137q-93 0 -140 32t-47 88q0 11 1 17zM380 137l28 222v10q0 57 -97 57q-105 0 -113 -67l-28 -222q-1 -4 -1 -11q0 -56 98 -56q105 0 113 67z" />
    <glyph glyph-name="divide" unicode="&#xf7;" horiz-adv-x="585" 
d="M123 350h406q19 0 19 -18v-43q0 -19 -19 -19h-405q-19 0 -19 19v43q0 18 18 18zM375 180v-80q0 -19 -18 -19h-60q-19 0 -19 19v80q0 19 19 19h60q18 0 18 -19zM375 524v-80q0 -19 -18 -19h-60q-19 0 -19 19v80q0 19 19 19h60q18 0 18 -19z" />
    <glyph glyph-name="oslash" unicode="&#xf8;" horiz-adv-x="520" 
d="M74 129l29 238q17 137 215 137q61 0 106 -16l14 21q13 20 25 20h24q18 0 4 -20l-28 -41q41 -32 41 -83q0 -12 -1 -18l-29 -238q-17 -137 -214 -137q-63 0 -108 16l-13 -19q-14 -20 -27 -20h-22q-8 0 -8 7t4 13l27 40q-40 30 -40 83q0 11 1 17zM380 137l27 215q2 14 2 17
q0 6 -2 16l-207 -306q24 -9 67 -9q105 0 113 67zM169 126q0 -9 1 -13l205 303q-23 10 -64 10q-105 0 -113 -67l-28 -222q-1 -4 -1 -11z" />
    <glyph glyph-name="ugrave" unicode="&#xf9;" horiz-adv-x="530" 
d="M369 19l2 30q-72 -57 -164 -57q-61 0 -95.5 30t-34.5 80q0 11 1 17l44 357q3 20 21 20h58q19 0 16 -20l-41 -333q-1 -6 -1 -16q0 -50 67 -50q66 0 137 50l42 349q3 20 21 20h59q19 0 16 -20l-57 -457q-3 -19 -21 -19h-53q-18 0 -17 19zM282 577l-63 112q-9 19 13 19h60
q17 0 24 -18l45 -107q7 -18 -12 -18h-44q-17 0 -23 12z" />
    <glyph glyph-name="uacute" unicode="&#xfa;" horiz-adv-x="530" 
d="M460 689l-89 -112q-8 -12 -26 -12h-48q-20 0 -8 18l73 107q13 18 27 18h64q23 0 7 -19zM369 19l2 30q-72 -57 -164 -57q-61 0 -95.5 30t-34.5 80q0 11 1 17l44 357q3 20 21 20h58q19 0 16 -20l-41 -333q-1 -6 -1 -16q0 -50 67 -50q66 0 137 50l42 349q3 20 21 20h59
q19 0 16 -20l-57 -457q-3 -19 -21 -19h-53q-18 0 -17 19z" />
    <glyph glyph-name="ucircumflex" unicode="&#xfb;" horiz-adv-x="530" 
d="M336 650l-49 -67q-12 -18 -29 -18h-46q-10 0 -12 5.5t4 12.5l88 106q16 19 33 19h35q15 0 27 -19l63 -106q5 -7 1 -12.5t-14 -5.5h-44q-15 0 -24 18zM369 19l2 30q-72 -57 -164 -57q-61 0 -95.5 30t-34.5 80q0 11 1 17l44 357q3 20 21 20h58q19 0 16 -20l-41 -333
q-1 -6 -1 -16q0 -50 67 -50q66 0 137 50l42 349q3 20 21 20h59q19 0 16 -20l-57 -457q-3 -19 -21 -19h-53q-18 0 -17 19z" />
    <glyph glyph-name="udieresis" unicode="&#xfc;" horiz-adv-x="530" 
d="M318 685l-12 -95q-3 -19 -20 -19h-35q-19 0 -16 19l11 95q3 19 22 19h34q19 0 16 -19zM439 685l-12 -95q-3 -19 -21 -19h-34q-19 0 -16 19l11 95q3 19 21 19h35q19 0 16 -19zM369 19l2 30q-72 -57 -164 -57q-61 0 -95.5 30t-34.5 80q0 11 1 17l44 357q3 20 21 20h58
q19 0 16 -20l-41 -333q-1 -6 -1 -16q0 -50 67 -50q66 0 137 50l42 349q3 20 21 20h59q19 0 16 -20l-57 -457q-3 -19 -21 -19h-53q-18 0 -17 19z" />
    <glyph glyph-name="yacute" unicode="&#xfd;" horiz-adv-x="450" 
d="M170 476l61 -289q8 -45 8 -69q7 27 26 67l134 291q9 20 24 20h54q25 0 16 -20l-307 -661q-10 -19 -23 -19h-45q-24 0 -15 19l78 177l-108 484q-2 9 4 14.5t16 5.5h58q14 0 19 -20zM424 689l-89 -112q-8 -12 -26 -12h-48q-20 0 -8 18l73 107q13 18 27 18h64q23 0 7 -19z
" />
    <glyph glyph-name="thorn" unicode="&#xfe;" 
d="M249 680l-28 -234q78 58 168 58q62 0 95.5 -30t33.5 -83q0 -10 -2 -26l-30 -238q-17 -135 -155 -135q-94 0 -160 56l-28 -233q-3 -19 -20 -19h-59q-20 0 -17 19l107 865q3 19 21 19h58q18 0 16 -19zM393 141l26 210q2 14 2 17q0 53 -68 53q-69 0 -142 -52l-30 -243
q62 -52 129 -52q74 0 83 67z" />
    <glyph glyph-name="ydieresis" unicode="&#xff;" horiz-adv-x="450" 
d="M170 476l61 -289q8 -45 8 -69q7 27 26 67l134 291q9 20 24 20h54q25 0 16 -20l-307 -661q-10 -19 -23 -19h-45q-24 0 -15 19l78 177l-108 484q-2 9 4 14.5t16 5.5h58q14 0 19 -20zM274 685l-12 -95q-3 -19 -20 -19h-35q-19 0 -16 19l11 95q3 19 22 19h34q19 0 16 -19z
M395 685l-12 -95q-3 -19 -21 -19h-34q-19 0 -16 19l11 95q3 19 21 19h35q19 0 16 -19z" />
    <glyph glyph-name="Amacron" unicode="&#x100;" horiz-adv-x="538" 
d="M320 680h62q18 0 21 -19l116 -642q3 -19 -16 -19h-62q-18 0 -21 19l-27 155h-211l-66 -155q-8 -19 -24 -19h-58q-20 0 -12 19l272 642q9 19 26 19zM381 252l-33 182q-4 19 -6.5 56t-3.5 64v28q0 -1 -8.5 -31t-18.5 -63.5t-18 -51.5l-79 -184h167zM234 836h242
q18 0 17 -17l-3 -37q-1 -19 -22 -19h-242q-18 0 -17 19l3 36q1 18 22 18z" />
    <glyph glyph-name="amacron" unicode="&#x101;" 
d="M371 20l2 30q-84 -58 -171 -58q-63 0 -96 30t-33 83q0 7 2 23l30 240q17 136 155 136q94 0 162 -60l6 32q4 20 21 20h53q19 0 16 -20l-56 -456q-3 -20 -21 -20h-54q-16 0 -16 20zM198 354l-27 -212q-1 -5 -1 -14q0 -51 68 -51q66 0 142 51l30 239q-61 52 -129 52
q-74 0 -83 -65zM215 659h242q18 0 17 -17l-4 -37q-1 -18 -22 -18h-242q-18 0 -17 18l4 36q1 18 22 18z" />
    <glyph glyph-name="Abreve" unicode="&#x102;" horiz-adv-x="538" 
d="M320 680h62q18 0 21 -19l116 -642q3 -19 -16 -19h-62q-18 0 -21 19l-27 155h-211l-66 -155q-8 -19 -24 -19h-58q-20 0 -12 19l272 642q9 19 26 19zM381 252l-33 182q-4 19 -6.5 56t-3.5 64v28q0 -1 -8.5 -31t-18.5 -63.5t-18 -51.5l-79 -184h167zM303 871l-2 -18
q-1 -7 -1 -13q0 -44 53 -44q34 0 47 15t17 46l2 14q2 16 19 16h35q18 0 15 -16l-2 -12q-11 -62 -40.5 -91.5t-96.5 -29.5q-57 0 -88 24.5t-31 70.5q0 11 1 20l2 18q1 16 19 16h36q9 0 12.5 -3t2.5 -13z" />
    <glyph glyph-name="abreve" unicode="&#x103;" 
d="M371 20l2 30q-84 -58 -171 -58q-63 0 -96 30t-33 83q0 7 2 23l30 240q17 136 155 136q94 0 162 -60l6 32q4 20 21 20h53q19 0 16 -20l-56 -456q-3 -20 -21 -20h-54q-16 0 -16 20zM198 354l-27 -212q-1 -5 -1 -14q0 -51 68 -51q66 0 142 51l30 239q-61 52 -129 52
q-74 0 -83 -65zM278 684l-2 -21v-11q0 -43 53 -43q33 0 47 15t17 45l1 15q1 16 19 16h36q16 0 15 -16l-2 -12q-8 -61 -39 -91t-98 -30q-57 0 -88.5 24.5t-31.5 70.5q0 3 2 19l2 19q3 16 19 16h35q18 0 15 -16z" />
    <glyph glyph-name="Aogonek" unicode="&#x104;" horiz-adv-x="538" 
d="M320 680h62q18 0 21 -19l116 -642q3 -19 -16 -19h-23q-30 0 -43 -18t-13 -43q0 -35 45 -35h27q10 0 15 -4.5t4 -13.5l-3 -28q-1 -19 -24 -19h-46q-36 0 -63.5 18.5t-27.5 61.5q0 26 14.5 60t50.5 59l-23 136h-211l-66 -155q-8 -19 -24 -19h-58q-20 0 -12 19l272 642
q9 19 26 19zM381 252l-33 182q-10 56 -10 148q-36 -125 -45 -146l-79 -184h167z" />
    <glyph glyph-name="aogonek" unicode="&#x105;" 
d="M430 -161h-30q-39 0 -66 19.5t-27 61.5q0 69 65 108l1 22q-84 -58 -171 -58q-63 0 -96 30t-33 83q0 7 2 23l30 240q17 136 155 136q92 0 162 -60l6 32q4 20 21 20h53q19 0 16 -20l-56 -456q-3 -20 -21 -20h-4q-22 0 -40 -19t-18 -41q0 -36 48 -36h11q10 0 15 -4.5
t4 -13.5l-3 -28q-1 -19 -24 -19zM198 354l-27 -212q-1 -5 -1 -14q0 -51 68 -51q66 0 142 51l30 239q-61 52 -129 52q-74 0 -83 -65z" />
    <glyph glyph-name="Cacute" unicode="&#x106;" horiz-adv-x="559" 
d="M537 209l-7 -63q-17 -154 -238 -154q-108 0 -157 37t-49 96q0 7 2 25l47 384q19 154 237 154q108 0 157 -36.5t49 -96.5q0 -7 -2 -25l-5 -45q-3 -20 -20 -20h-59q-19 0 -16 20l4 29q1 6 1 19q0 72 -115 72q-124 0 -135 -87l-43 -351q-1 -7 -1 -19q0 -73 114 -73
q126 0 136 87l5 47q1 19 21 19h58q18 0 16 -19zM514 859l-89 -112q-8 -12 -26 -12h-48q-19 0 -7 18l72 107q13 18 28 18h63q23 0 7 -19z" />
    <glyph glyph-name="cacute" unicode="&#x107;" horiz-adv-x="485" 
d="M449 689l-89 -112q-8 -12 -26 -12h-48q-20 0 -8 18l73 107q13 18 27 18h64q23 0 7 -19zM310 504q177 0 177 -118q0 -11 -1 -21l-2 -16q-3 -19 -21 -19h-54q-17 0 -16 18l1 12q1 8 1 15q0 51 -90 51q-55 0 -79 -16.5t-28 -49.5l-27 -214q-2 -16 -2 -22q0 -27 21 -40.5
t70 -13.5q54 0 78 16.5t29 49.5l3 20q3 19 20 19h54q18 0 16 -19l-3 -27q-15 -137 -206 -137q-178 0 -178 118q0 12 1 19l29 238q8 66 56 101.5t151 35.5z" />
    <glyph glyph-name="Ccircumflex" unicode="&#x108;" horiz-adv-x="559" 
d="M537 209l-7 -63q-17 -154 -238 -154q-108 0 -157 37t-49 96q0 7 2 25l47 384q19 154 237 154q108 0 157 -36.5t49 -96.5q0 -7 -2 -25l-5 -45q-3 -20 -20 -20h-59q-19 0 -16 20l4 29q1 6 1 19q0 72 -115 72q-124 0 -135 -87l-43 -351q-1 -7 -1 -19q0 -73 114 -73
q126 0 136 87l5 47q1 19 21 19h58q18 0 16 -19zM387 820l-49 -67q-12 -18 -28 -18h-46q-10 0 -12.5 5.5t4.5 12.5l88 106q16 19 32 19h35q15 0 27 -19l63 -106q5 -7 1.5 -12.5t-13.5 -5.5h-44q-16 0 -25 18z" />
    <glyph glyph-name="ccircumflex" unicode="&#x109;" horiz-adv-x="485" 
d="M327 650l-49 -67q-12 -18 -29 -18h-46q-10 0 -12 5.5t4 12.5l88 106q16 19 33 19h35q15 0 27 -19l63 -106q5 -7 1 -12.5t-14 -5.5h-44q-15 0 -24 18zM310 504q177 0 177 -118q0 -11 -1 -21l-2 -16q-3 -19 -21 -19h-54q-17 0 -16 18l1 12q1 8 1 15q0 51 -90 51
q-55 0 -79 -16.5t-28 -49.5l-27 -214q-2 -16 -2 -22q0 -27 21 -40.5t70 -13.5q54 0 78 16.5t29 49.5l3 20q3 19 20 19h54q18 0 16 -19l-3 -27q-15 -137 -206 -137q-178 0 -178 118q0 12 1 19l29 238q8 66 56 101.5t151 35.5z" />
    <glyph glyph-name="Cdotaccent" unicode="&#x10a;" horiz-adv-x="559" 
d="M437 839l-9 -80q-3 -18 -20 -18h-60q-20 0 -17 18l10 80q2 19 20 19h61q18 0 15 -19zM537 209l-7 -63q-17 -154 -238 -154q-108 0 -157 37t-49 96q0 7 2 25l47 384q19 154 237 154q108 0 157 -36.5t49 -96.5q0 -7 -2 -25l-5 -45q-3 -20 -20 -20h-59q-19 0 -16 20l4 29
q1 6 1 19q0 72 -115 72q-124 0 -135 -87l-43 -351q-1 -7 -1 -19q0 -73 114 -73q126 0 136 87l5 47q1 19 21 19h58q18 0 16 -19z" />
    <glyph glyph-name="cdotaccent" unicode="&#x10b;" horiz-adv-x="485" 
d="M310 504q177 0 177 -118q0 -11 -1 -21l-2 -16q-3 -19 -21 -19h-54q-17 0 -16 18l1 12q1 8 1 15q0 51 -90 51q-55 0 -79 -16.5t-28 -49.5l-27 -214q-2 -16 -2 -22q0 -27 21 -40.5t70 -13.5q54 0 78 16.5t29 49.5l3 20q3 19 20 19h54q18 0 16 -19l-3 -27
q-15 -137 -206 -137q-178 0 -178 118q0 12 1 19l29 238q8 66 56 101.5t151 35.5z" />
    <glyph glyph-name="Ccaron" unicode="&#x10c;" horiz-adv-x="559" 
d="M537 209l-7 -63q-17 -154 -238 -154q-108 0 -157 37t-49 96q0 7 2 25l47 384q19 154 237 154q108 0 157 -36.5t49 -96.5q0 -7 -2 -25l-5 -45q-3 -20 -20 -20h-59q-19 0 -16 20l4 29q1 6 1 19q0 72 -115 72q-124 0 -135 -87l-43 -351q-1 -7 -1 -19q0 -73 114 -73
q126 0 136 87l5 47q1 19 21 19h58q18 0 16 -19zM350 859l33 -66l49 66q13 19 29 19h46q10 0 12.5 -5.5t-4.5 -13.5l-88 -106q-15 -18 -32 -18h-35q-16 0 -28 19l-63 105q-5 7 -1 13t14 6h45q12 0 23 -19z" />
    <glyph glyph-name="ccaron" unicode="&#x10d;" horiz-adv-x="485" 
d="M289 689l33 -66l49 66q15 19 29 19h46q10 0 12.5 -5.5t-4.5 -13.5l-89 -106q-16 -18 -32 -18h-34q-16 0 -28 19l-63 105q-4 8 -0.5 13.5t13.5 5.5h45q12 0 23 -19zM310 504q177 0 177 -118q0 -11 -1 -21l-2 -16q-3 -19 -21 -19h-54q-17 0 -16 18l1 12q1 8 1 15
q0 51 -90 51q-55 0 -79 -16.5t-28 -49.5l-27 -214q-2 -16 -2 -22q0 -27 21 -40.5t70 -13.5q54 0 78 16.5t29 49.5l3 20q3 19 20 19h54q18 0 16 -19l-3 -27q-15 -137 -206 -137q-178 0 -178 118q0 12 1 19l29 238q8 66 56 101.5t151 35.5z" />
    <glyph glyph-name="Dcaron" unicode="&#x10e;" horiz-adv-x="608" 
d="M315 0h-216q-18 0 -15 20l79 640q3 20 21 20h204q111 0 163 -38t52 -98q0 -13 -2 -27l-44 -363q-19 -154 -242 -154zM383 597h-129l-64 -514h130q129 0 140 87l41 332q2 18 2 21q0 74 -120 74zM347 859l33 -66l49 66q13 19 29 19h46q10 0 12.5 -5.5t-4.5 -13.5l-88 -106
q-15 -18 -32 -18h-35q-16 0 -28 19l-63 105q-5 7 -1 13t14 6h45q12 0 23 -19z" />
    <glyph glyph-name="dcaron" unicode="&#x10f;" horiz-adv-x="606" 
d="M612 680l4 29q1 19 21 19h44q18 0 15 -19l-4 -34q-7 -57 -56 -124q-10 -13 -26 -10l-32 8q-18 4 -6 25q21 36 28.5 54.5t11.5 51.5zM371 20l1 30q-84 -58 -170 -58q-63 0 -96 30t-33 83q0 7 2 23l30 240q17 136 155 136q92 0 159 -57l28 232q3 20 21 20h59q19 0 16 -20
l-81 -659q-3 -20 -21 -20h-54q-16 0 -16 20zM198 354l-26 -208q-2 -14 -2 -18q0 -51 68 -51q66 0 142 51l30 239q-61 52 -129 52q-76 0 -83 -65z" />
    <glyph glyph-name="Dcroat" unicode="&#x110;" horiz-adv-x="608" 
d="M315 0h-216q-18 0 -15 20l35 287h-62q-20 0 -17 18l4 36q3 18 22 18h62l35 281q3 20 21 20h204q111 0 163 -38t52 -98q0 -13 -2 -27l-44 -363q-19 -154 -242 -154zM383 597h-129l-27 -218h107q18 0 17 -18l-4 -36q-3 -18 -22 -18h-107l-28 -224h130q129 0 140 87l41 332
q2 18 2 21q0 74 -120 74z" />
    <glyph glyph-name="dcroat" unicode="&#x111;" 
d="M371 20l1 30q-84 -58 -170 -58q-63 0 -96 30t-33 83q0 7 2 23l30 240q17 136 155 136q92 0 159 -57l12 105h-121q-18 0 -17 18l3 31q1 18 21 18h122l8 60q3 20 21 20h59q19 0 16 -20l-8 -60h38q20 0 17 -18l-4 -31q-3 -18 -21 -18h-38l-65 -532q-3 -20 -21 -20h-54
q-16 0 -16 20zM198 354l-26 -208q-2 -14 -2 -18q0 -51 68 -51q66 0 142 51l30 239q-61 52 -129 52q-76 0 -83 -65z" />
    <glyph glyph-name="Emacron" unicode="&#x112;" horiz-adv-x="519" 
d="M454 0h-353q-20 0 -17 20l79 640q3 20 21 20h342q20 0 17 -19l-6 -45q-3 -19 -21 -19h-262l-25 -202h245q19 0 16 -19l-5 -43q-3 -19 -21 -19h-245l-29 -231h273q21 0 18 -18l-6 -46q-3 -19 -21 -19zM243 836h242q18 0 17 -17l-3 -37q-1 -19 -22 -19h-242q-18 0 -17 19
l3 36q1 18 22 18z" />
    <glyph glyph-name="emacron" unicode="&#x113;" horiz-adv-x="495" 
d="M486 367l-15 -122q-1 -18 -20 -18h-272l-11 -85q-2 -20 -2 -21q0 -55 93 -55q100 0 108 64l2 16q3 19 22 19h50q18 0 16 -19l-2 -17q-8 -67 -53.5 -102t-148.5 -35q-180 0 -180 118q0 13 1 19l29 238q8 66 56 101.5t151 35.5q90 0 133.5 -31.5t43.5 -86.5q0 -13 -1 -19z
M196 363l-8 -65h200l8 60q1 5 1 16q0 56 -93 56q-100 0 -108 -67zM207 659h242q18 0 17 -17l-4 -37q-1 -18 -22 -18h-242q-18 0 -17 18l4 36q1 18 22 18z" />
    <glyph glyph-name="Ebreve" unicode="&#x114;" horiz-adv-x="519" 
d="M454 0h-353q-20 0 -17 20l79 640q3 20 21 20h342q20 0 17 -19l-6 -45q-3 -19 -21 -19h-262l-25 -202h245q19 0 16 -19l-5 -43q-3 -19 -21 -19h-245l-29 -231h273q21 0 18 -18l-6 -46q-3 -19 -21 -19zM307 871l-2 -18q-1 -7 -1 -13q0 -44 53 -44q34 0 47 15t17 46l2 14
q2 16 19 16h35q18 0 15 -16l-2 -12q-11 -62 -40.5 -91.5t-96.5 -29.5q-57 0 -88 24.5t-31 70.5q0 11 1 20l2 18q1 16 19 16h36q9 0 12.5 -3t2.5 -13z" />
    <glyph glyph-name="ebreve" unicode="&#x115;" horiz-adv-x="495" 
d="M486 367l-15 -122q-1 -18 -20 -18h-272l-11 -85q-2 -20 -2 -21q0 -55 93 -55q100 0 108 64l2 16q3 19 22 19h50q18 0 16 -19l-2 -17q-8 -67 -53.5 -102t-148.5 -35q-180 0 -180 118q0 13 1 19l29 238q8 66 56 101.5t151 35.5q90 0 133.5 -31.5t43.5 -86.5q0 -13 -1 -19z
M196 363l-8 -65h200l8 60q1 5 1 16q0 56 -93 56q-100 0 -108 -67zM271 684l-2 -21v-11q0 -43 53 -43q33 0 47 15t17 45l1 15q1 16 19 16h36q16 0 15 -16l-2 -12q-8 -61 -39 -91t-98 -30q-57 0 -88.5 24.5t-31.5 70.5q0 3 2 19l2 19q3 16 19 16h35q18 0 15 -16z" />
    <glyph glyph-name="Edotaccent" unicode="&#x116;" horiz-adv-x="519" 
d="M413 839l-9 -80q-3 -18 -20 -18h-60q-20 0 -17 18l10 80q2 19 20 19h61q18 0 15 -19zM454 0h-353q-20 0 -17 20l79 640q3 20 21 20h342q20 0 17 -19l-6 -45q-3 -19 -21 -19h-262l-25 -202h245q19 0 16 -19l-5 -43q-3 -19 -21 -19h-245l-29 -231h273q21 0 18 -18l-6 -46
q-3 -19 -21 -19z" />
    <glyph glyph-name="edotaccent" unicode="&#x117;" horiz-adv-x="495" 
d="M486 367l-15 -122q-1 -18 -20 -18h-272l-11 -85q-2 -20 -2 -21q0 -55 93 -55q100 0 108 64l2 16q3 19 22 19h50q18 0 16 -19l-2 -17q-8 -67 -53.5 -102t-148.5 -35q-180 0 -180 118q0 13 1 19l29 238q8 66 56 101.5t151 35.5q90 0 133.5 -31.5t43.5 -86.5q0 -13 -1 -19z
M196 363l-8 -65h200l8 60q1 5 1 16q0 56 -93 56q-100 0 -108 -67z" />
    <glyph glyph-name="Eogonek" unicode="&#x118;" horiz-adv-x="519" 
d="M454 0h-33q-53 -1 -53 -61q0 -35 45 -35h32q10 0 15 -4.5t4 -13.5l-3 -28q-1 -19 -24 -19h-51q-36 0 -63.5 18t-27.5 61q0 50 27 82h-221q-20 0 -17 20l79 640q3 20 21 20h342q20 0 17 -19l-6 -45q-1 -19 -21 -19h-262l-25 -202h245q19 0 16 -19l-5 -43q-1 -19 -21 -19
h-245l-29 -231h273q21 0 18 -18l-6 -46q-3 -19 -21 -19z" />
    <glyph glyph-name="eogonek" unicode="&#x119;" horiz-adv-x="495" 
d="M486 367l-15 -122q-1 -18 -20 -18h-272l-11 -85q-2 -20 -2 -21q0 -55 93 -55q100 0 108 64l2 16q3 19 22 19h50q18 0 16 -19l-2 -17q-7 -62 -53 -101q-17 -14 -25.5 -22t-18 -26.5t-9.5 -38.5q0 -37 47 -37h26q10 0 15 -4.5t4 -13.5l-3 -28q-3 -19 -25 -19h-44
q-38 0 -65.5 19t-27.5 61q0 38 23 75q-28 -2 -46 -2q-180 0 -180 118q0 13 1 19l29 238q8 66 56 101.5t151 35.5q90 0 133.5 -31.5t43.5 -86.5q0 -13 -1 -19zM196 363l-8 -65h200l8 60q1 5 1 16q0 56 -93 56q-100 0 -108 -67z" />
    <glyph glyph-name="Ecaron" unicode="&#x11a;" horiz-adv-x="519" 
d="M454 0h-353q-20 0 -17 20l79 640q3 20 21 20h342q20 0 17 -19l-6 -45q-3 -19 -21 -19h-262l-25 -202h245q19 0 16 -19l-5 -43q-3 -19 -21 -19h-245l-29 -231h273q21 0 18 -18l-6 -46q-3 -19 -21 -19zM327 859l33 -66l49 66q13 19 29 19h46q10 0 12.5 -5.5t-4.5 -13.5
l-88 -106q-15 -18 -32 -18h-35q-16 0 -28 19l-63 105q-5 7 -1 13t14 6h45q12 0 23 -19z" />
    <glyph glyph-name="ecaron" unicode="&#x11b;" horiz-adv-x="495" 
d="M283 689l33 -66l49 66q15 19 29 19h46q10 0 12.5 -5.5t-4.5 -13.5l-89 -106q-16 -18 -32 -18h-34q-16 0 -28 19l-63 105q-4 8 -0.5 13.5t13.5 5.5h45q12 0 23 -19zM486 367l-15 -122q-1 -18 -20 -18h-272l-11 -85q-2 -20 -2 -21q0 -55 93 -55q100 0 108 64l2 16
q3 19 22 19h50q18 0 16 -19l-2 -17q-8 -67 -53.5 -102t-148.5 -35q-180 0 -180 118q0 13 1 19l29 238q8 66 56 101.5t151 35.5q90 0 133.5 -31.5t43.5 -86.5q0 -13 -1 -19zM196 363l-8 -65h200l8 60q1 5 1 16q0 56 -93 56q-100 0 -108 -67z" />
    <glyph glyph-name="Gcircumflex" unicode="&#x11c;" horiz-adv-x="573" 
d="M389 820l-49 -67q-12 -18 -28 -18h-46q-10 0 -12.5 5.5t4.5 12.5l88 106q16 19 32 19h35q15 0 27 -19l63 -106q5 -7 1.5 -12.5t-13.5 -5.5h-44q-16 0 -25 18zM339 340h195q19 0 17 -18l-21 -176q-19 -154 -238 -154q-108 0 -157 37t-49 96q0 9 2 25l47 384
q19 154 237 154q108 0 157 -37t49 -98q0 -6 -2 -24l-4 -39q-1 -19 -21 -19h-58q-18 0 -16 19l3 28q1 6 1 17q0 70 -114 70q-125 0 -136 -87l-43 -351q-2 -14 -2 -20q0 -72 114 -72q125 0 136 86l12 96h-119q-17 0 -16 19l5 46q1 18 21 18z" />
    <glyph glyph-name="gcircumflex" unicode="&#x11d;" 
d="M338 650l-49 -67q-12 -18 -29 -18h-46q-10 0 -12 5.5t4 12.5l88 106q16 19 33 19h35q15 0 27 -19l63 -106q5 -7 1 -12.5t-14 -5.5h-44q-15 0 -24 18zM203 -8q-63 0 -96.5 30.5t-33.5 83.5q0 8 2 22l30 240q17 136 155 136q94 0 162 -60l6 32q4 20 20 20h54q18 0 16 -20
l-66 -543q-17 -137 -215 -137h-138q-21 0 -18 19l5 42q3 19 22 19h138q103 0 111 67l13 105q-81 -56 -167 -56zM198 354l-26 -206q-2 -14 -2 -19q0 -52 68 -52q66 0 142 51l30 239q-61 52 -129 52q-76 0 -83 -65z" />
    <glyph glyph-name="Gbreve" unicode="&#x11e;" horiz-adv-x="573" 
d="M339 340h195q19 0 17 -18l-21 -176q-19 -154 -238 -154q-108 0 -157 37t-49 96q0 9 2 25l47 384q19 154 237 154q108 0 157 -37t49 -98q0 -6 -2 -24l-4 -39q-1 -19 -21 -19h-58q-18 0 -16 19l3 28q1 6 1 17q0 70 -114 70q-125 0 -136 -87l-43 -351q-2 -14 -2 -20
q0 -72 114 -72q125 0 136 86l12 96h-119q-17 0 -16 19l5 46q1 18 21 18zM327 871l-2 -18q-1 -7 -1 -13q0 -44 53 -44q34 0 47 15t17 46l2 14q2 16 19 16h35q18 0 15 -16l-2 -12q-11 -62 -40.5 -91.5t-96.5 -29.5q-57 0 -88 24.5t-31 70.5q0 11 1 20l2 18q1 16 19 16h36
q9 0 12.5 -3t2.5 -13z" />
    <glyph glyph-name="gbreve" unicode="&#x11f;" 
d="M203 -8q-63 0 -96.5 30.5t-33.5 83.5q0 8 2 22l30 240q17 136 155 136q94 0 162 -60l6 32q4 20 20 20h54q18 0 16 -20l-66 -543q-17 -137 -215 -137h-138q-21 0 -18 19l5 42q3 19 22 19h138q103 0 111 67l13 105q-81 -56 -167 -56zM198 354l-26 -206q-2 -14 -2 -19
q0 -52 68 -52q66 0 142 51l30 239q-61 52 -129 52q-76 0 -83 -65zM275 684l-2 -21v-11q0 -43 53 -43q33 0 47 15t17 45l1 15q1 16 19 16h36q16 0 15 -16l-2 -12q-8 -61 -39 -91t-98 -30q-57 0 -88.5 24.5t-31.5 70.5q0 3 2 19l2 19q3 16 19 16h35q18 0 15 -16z" />
    <glyph glyph-name="Gdotaccent" unicode="&#x120;" horiz-adv-x="573" 
d="M426 839l-9 -80q-3 -18 -20 -18h-60q-20 0 -17 18l10 80q2 19 20 19h61q18 0 15 -19zM339 340h195q19 0 17 -18l-21 -176q-19 -154 -238 -154q-108 0 -157 37t-49 96q0 9 2 25l47 384q19 154 237 154q108 0 157 -37t49 -98q0 -6 -2 -24l-4 -39q-1 -19 -21 -19h-58
q-18 0 -16 19l3 28q1 6 1 17q0 70 -114 70q-125 0 -136 -87l-43 -351q-2 -14 -2 -20q0 -72 114 -72q125 0 136 86l12 96h-119q-17 0 -16 19l5 46q1 18 21 18z" />
    <glyph glyph-name="gdotaccent" unicode="&#x121;" 
d="M203 -8q-63 0 -96.5 30.5t-33.5 83.5q0 8 2 22l30 240q17 136 155 136q94 0 162 -60l6 32q4 20 20 20h54q18 0 16 -20l-66 -543q-17 -137 -215 -137h-138q-21 0 -18 19l5 42q3 19 22 19h138q103 0 111 67l13 105q-81 -56 -167 -56zM198 354l-26 -206q-2 -14 -2 -19
q0 -52 68 -52q66 0 142 51l30 239q-61 52 -129 52q-76 0 -83 -65z" />
    <glyph glyph-name="Gcommaaccent" unicode="&#x122;" horiz-adv-x="573" 
d="M243 -98l4 29q1 19 21 19h44q18 0 15 -19l-4 -34q-7 -57 -56 -124q-10 -13 -26 -10l-32 8q-18 4 -6 25q21 36 28.5 54.5t11.5 51.5zM339 340h195q19 0 17 -18l-21 -176q-19 -154 -238 -154q-108 0 -157 37t-49 96q0 9 2 25l47 384q19 154 237 154q108 0 157 -37t49 -98
q0 -6 -2 -24l-4 -39q-1 -19 -21 -19h-58q-18 0 -16 19l3 28q1 6 1 17q0 70 -114 70q-125 0 -136 -87l-43 -351q-2 -14 -2 -20q0 -72 114 -72q125 0 136 86l12 96h-119q-17 0 -16 19l5 46q1 18 21 18z" />
    <glyph glyph-name="gcommaaccent" unicode="&#x123;" 
d="M362 619l-4 -29q-1 -19 -21 -19h-44q-18 0 -15 19l4 34q7 57 56 124q10 13 26 10l32 -8q18 -4 6 -25q-21 -36 -28.5 -54.5t-11.5 -51.5zM203 -8q-63 0 -96.5 30.5t-33.5 83.5q0 8 2 22l30 240q17 136 155 136q94 0 162 -60l6 32q4 20 20 20h54q18 0 16 -20l-66 -543
q-17 -137 -215 -137h-138q-21 0 -18 19l5 42q3 19 22 19h138q103 0 111 67l13 105q-81 -56 -167 -56zM198 354l-26 -206q-2 -14 -2 -19q0 -52 68 -52q66 0 142 51l30 239q-61 52 -129 52q-76 0 -83 -65z" />
    <glyph glyph-name="Hcircumflex" unicode="&#x124;" horiz-adv-x="618" 
d="M261 660l-32 -263h259l32 263q3 20 22 20h61q18 0 15 -20l-79 -640q-3 -20 -19 -20h-61q-20 0 -17 20l36 294h-259l-37 -294q-3 -20 -20 -20h-61q-20 0 -17 20l79 640q3 20 21 20h61q19 0 16 -20zM401 820l-49 -67q-12 -18 -28 -18h-46q-10 0 -12.5 5.5t4.5 12.5l88 106
q16 19 32 19h35q15 0 27 -19l63 -106q5 -7 1.5 -12.5t-13.5 -5.5h-44q-16 0 -25 18z" />
    <glyph glyph-name="hcircumflex" unicode="&#x125;" horiz-adv-x="536" 
d="M249 679l-28 -231q75 56 168 56q60 0 94.5 -30.5t34.5 -80.5q0 -11 -1 -17l-43 -356q-3 -20 -22 -20h-57q-19 0 -16 20l40 333q1 6 1 15q0 51 -67 51q-70 0 -142 -51l-42 -348q-3 -20 -21 -20h-59q-19 0 -16 20l81 659q3 20 21 20h59q18 0 15 -20zM218 820l-49 -67
q-12 -18 -28 -18h-46q-10 0 -12.5 5.5t4.5 12.5l88 106q16 19 32 19h35q15 0 27 -19l63 -106q5 -7 1.5 -12.5t-13.5 -5.5h-44q-16 0 -25 18z" />
    <glyph glyph-name="Hbar" unicode="&#x126;" horiz-adv-x="618" 
d="M261 660l-13 -106h259l13 106q3 20 22 20h61q18 0 15 -20l-13 -106h33q20 0 17 -18l-3 -31q-3 -18 -21 -18h-35l-57 -467q-3 -20 -19 -20h-61q-20 0 -17 20l36 294h-259l-37 -294q-3 -20 -20 -20h-61q-20 0 -17 20l57 467h-34q-19 0 -18 18l4 31q3 18 21 18h36l13 106
q3 20 21 20h61q19 0 16 -20zM229 397h259l11 90h-259z" />
    <glyph glyph-name="hbar" unicode="&#x127;" horiz-adv-x="536" 
d="M249 679l-8 -60h119q21 0 18 -18l-4 -30q-3 -19 -21 -19h-120l-12 -104q75 56 168 56q60 0 94.5 -30.5t34.5 -80.5q0 -11 -1 -17l-43 -356q-3 -20 -22 -20h-57q-19 0 -16 20l40 333q1 6 1 15q0 51 -67 51q-70 0 -142 -51l-42 -348q-3 -20 -21 -20h-59q-19 0 -16 20
l65 532h-40q-21 0 -18 19l4 30q1 10 5.5 14t15.5 4h41l8 60q3 20 21 20h59q18 0 15 -20z" />
    <glyph glyph-name="Itilde" unicode="&#x128;" horiz-adv-x="261" 
d="M261 660l-79 -640q-3 -20 -20 -20h-61q-20 0 -17 20l79 640q3 20 21 20h61q19 0 16 -20zM153 805q-11 0 -15 -6t-7 -22l-4 -17q-4 -17 -22 -17h-30q-19 0 -14 22l7 32q18 80 87 80q31 0 60 -18l42 -28q22 -15 32 -15q12 0 17 7.5t8 29.5l1 8q3 17 22 17h31q19 0 14 -22
l-6 -30q-8 -40 -32 -60.5t-56 -20.5t-61 19l-43 28q-20 13 -31 13z" />
    <glyph glyph-name="itilde" unicode="&#x129;" horiz-adv-x="237" 
d="M224 476l-56 -457q-3 -19 -21 -19h-58q-19 0 -16 19l56 457q3 20 21 20h58q19 0 16 -20zM125 628q-11 0 -15 -6t-7 -22l-4 -17q-4 -17 -22 -17h-30q-19 0 -14 22l7 32q18 80 87 80q31 0 60 -18l42 -28q22 -15 32 -15q12 0 17 7.5t8 29.5l1 8q3 17 22 17h31q19 0 14 -22
l-6 -30q-8 -40 -32 -60.5t-56 -20.5t-61 19l-43 28q-20 13 -31 13z" />
    <glyph glyph-name="Imacron" unicode="&#x12a;" horiz-adv-x="261" 
d="M261 660l-79 -640q-3 -20 -20 -20h-61q-20 0 -17 20l79 640q3 20 21 20h61q19 0 16 -20zM108 836h242q18 0 17 -17l-3 -37q-1 -19 -22 -19h-242q-18 0 -17 19l3 36q1 18 22 18z" />
    <glyph glyph-name="imacron" unicode="&#x12b;" horiz-adv-x="237" 
d="M224 476l-56 -457q-3 -19 -21 -19h-58q-19 0 -16 19l56 457q3 20 21 20h58q19 0 16 -20zM79 659h242q18 0 17 -17l-4 -37q-1 -18 -22 -18h-242q-18 0 -17 18l4 36q1 18 22 18z" />
    <glyph glyph-name="Ibreve" unicode="&#x12c;" horiz-adv-x="261" 
d="M261 660l-79 -640q-3 -20 -20 -20h-61q-20 0 -17 20l79 640q3 20 21 20h61q19 0 16 -20zM171 871l-2 -18q-1 -7 -1 -13q0 -44 53 -44q34 0 47 15t17 46l2 14q2 16 19 16h35q18 0 15 -16l-2 -12q-11 -62 -40.5 -91.5t-96.5 -29.5q-57 0 -88 24.5t-31 70.5q0 11 1 20l2 18
q1 16 19 16h36q9 0 12.5 -3t2.5 -13z" />
    <glyph glyph-name="ibreve" unicode="&#x12d;" horiz-adv-x="237" 
d="M224 476l-56 -457q-3 -19 -21 -19h-58q-19 0 -16 19l56 457q3 20 21 20h58q19 0 16 -20zM141 684l-2 -21v-11q0 -43 53 -43q33 0 47 15t17 45l1 15q1 16 19 16h36q16 0 15 -16l-2 -12q-8 -61 -39 -91t-98 -30q-57 0 -88.5 24.5t-31.5 70.5q0 3 2 19l2 19q3 16 19 16h35
q18 0 15 -16z" />
    <glyph glyph-name="Iogonek" unicode="&#x12e;" horiz-adv-x="261" 
d="M261 660l-79 -640q-3 -20 -20 -20h-13q-29 -1 -45 -19t-16 -42q0 -35 46 -35h27q10 0 15 -4.5t4 -13.5l-3 -28q-1 -19 -24 -19h-46q-34 0 -62.5 18t-28.5 61q0 75 70 120l77 622q3 20 21 20h61q19 0 16 -20z" />
    <glyph glyph-name="iogonek" unicode="&#x12f;" horiz-adv-x="237" 
d="M225 476l-56 -456q-3 -20 -21 -20h-8q-30 0 -47.5 -19.5t-17.5 -43.5q0 -33 46 -33h27q10 0 15 -4.5t4 -13.5l-3 -28q-1 -19 -24 -19h-44q-34 0 -63.5 18t-29.5 61q0 78 72 122l55 436q3 20 20 20h58q20 0 17 -20zM249 679l-11 -90q-3 -19 -20 -19h-59q-19 0 -16 19
l11 90q3 20 21 20h59q18 0 15 -20z" />
    <glyph glyph-name="Idotaccent" unicode="&#x130;" horiz-adv-x="261" 
d="M261 660l-79 -640q-3 -20 -20 -20h-61q-20 0 -17 20l79 640q3 20 21 20h61q19 0 16 -20zM281 839l-9 -80q-3 -18 -20 -18h-60q-20 0 -17 18l10 80q2 19 20 19h61q18 0 15 -19z" />
    <glyph glyph-name="dotlessi" unicode="&#x131;" horiz-adv-x="237" 
d="M224 476l-56 -457q-3 -19 -21 -19h-58q-19 0 -16 19l56 457q3 20 21 20h58q19 0 16 -20z" />
    <glyph glyph-name="IJ" unicode="&#x132;" horiz-adv-x="765" 
d="M261 660l-79 -640q-3 -20 -20 -20h-61q-20 0 -17 20l79 640q3 20 21 20h61q19 0 16 -20zM403 197l-4 -32q-1 -6 -1 -22q0 -68 98 -68q57 0 81.5 21.5t30.5 65.5l62 498q3 20 21 20h61q19 0 16 -20l-63 -514q-9 -71 -56 -112.5t-159 -41.5q-99 0 -144.5 36.5t-45.5 95.5
q0 12 2 30l5 43q3 20 22 20h59q18 0 15 -20z" />
    <glyph glyph-name="ij" unicode="&#x133;" horiz-adv-x="473" 
d="M225 476l-56 -456q-3 -20 -21 -20h-59q-19 0 -16 20l57 456q3 20 20 20h58q20 0 17 -20zM249 679l-11 -90q-3 -19 -20 -19h-59q-19 0 -16 19l11 90q3 20 21 20h59q18 0 15 -20zM486 679l-11 -90q-1 -19 -20 -19h-58q-20 0 -17 19l11 90q3 20 21 20h58q19 0 16 -20z
M461 476l-67 -543q-8 -67 -57.5 -102t-152.5 -35h-11q-20 0 -17 19l5 42q3 19 22 19h7q102 0 110 67l66 533q3 20 21 20h58q19 0 16 -20z" />
    <glyph glyph-name="Jcircumflex" unicode="&#x134;" horiz-adv-x="504" 
d="M142 197l-4 -32q-1 -6 -1 -22q0 -68 98 -68q57 0 81.5 21.5t30.5 65.5l62 498q3 20 21 20h61q19 0 16 -20l-63 -514q-9 -71 -56 -112.5t-159 -41.5q-99 0 -144.5 36.5t-45.5 95.5q0 12 2 30l5 43q3 20 22 20h59q18 0 15 -20zM471 820l-49 -67q-12 -18 -28 -18h-46
q-10 0 -12.5 5.5t4.5 12.5l88 106q16 19 32 19h35q15 0 27 -19l63 -106q5 -7 1.5 -12.5t-13.5 -5.5h-44q-16 0 -25 18z" />
    <glyph glyph-name="jcircumflex" unicode="&#x135;" horiz-adv-x="236" 
d="M223 476l-67 -544q-9 -67 -58 -101.5t-152 -34.5h-11q-20 0 -17 18l5 41q3 19 22 19h7q102 0 110 68l66 534q3 20 21 20h58q19 0 16 -20zM192 650l-49 -67q-12 -18 -29 -18h-46q-10 0 -12 5.5t4 12.5l88 106q16 19 33 19h35q15 0 27 -19l63 -106q5 -7 1 -12.5t-14 -5.5
h-44q-15 0 -24 18z" />
    <glyph glyph-name="Kcommaaccent" unicode="&#x136;" horiz-adv-x="564" 
d="M233 -98l4 29q1 19 21 19h44q18 0 15 -19l-4 -34q-7 -57 -56 -124q-10 -13 -26 -10l-32 8q-18 4 -6 25q21 36 28.5 54.5t11.5 51.5zM329 345l219 -326q5 -7 1.5 -13t-12.5 -6h-78q-13 0 -27 19l-189 283h-27l-35 -283q-3 -19 -20 -19h-61q-20 0 -17 19l79 642q3 19 21 19
h61q19 0 16 -19l-35 -286h23l244 286q17 19 33 19h68q10 0 11.5 -5.5t-5.5 -13.5z" />
    <glyph glyph-name="kcommaaccent" unicode="&#x137;" horiz-adv-x="474" 
d="M203 -98l4 29q1 19 21 19h44q18 0 15 -19l-4 -34q-7 -57 -56 -124q-10 -13 -26 -10l-32 8q-18 4 -6 25q21 36 28.5 54.5t11.5 51.5zM457 0h-64q-15 0 -26 19l-143 223h-29l-27 -223q-3 -19 -21 -19h-59q-19 0 -16 19l81 661q3 19 21 19h59q18 0 15 -19l-44 -366h25
l171 163q19 19 33 19h66q10 0 12 -6.5t-5 -13.5l-202 -195l165 -262q5 -7 1.5 -13t-13.5 -6z" />
    <glyph glyph-name="kgreenlandic" unicode="&#x138;" horiz-adv-x="474" 
d="M457 0h-64q-15 0 -26 19l-143 223h-29l-27 -223q-3 -19 -21 -19h-59q-19 0 -16 19l57 457q3 20 21 20h58q19 0 16 -20l-20 -162h25l171 163q19 19 33 19h66q10 0 12 -6.5t-5 -13.5l-202 -195l165 -262q5 -7 1.5 -13t-13.5 -6z" />
    <glyph glyph-name="Lacute" unicode="&#x139;" horiz-adv-x="485" 
d="M356 859l-89 -112q-8 -12 -26 -12h-48q-19 0 -7 18l72 107q13 18 28 18h63q23 0 7 -19zM261 660l-71 -577h256q20 0 17 -18l-6 -46q-3 -19 -21 -19h-337q-18 0 -15 20l79 640q3 20 21 20h61q19 0 16 -20z" />
    <glyph glyph-name="lacute" unicode="&#x13a;" horiz-adv-x="237" 
d="M343 859l-89 -112q-8 -12 -26 -12h-48q-19 0 -7 18l72 107q13 18 28 18h63q23 0 7 -19zM249 679l-80 -659q-3 -20 -21 -20h-59q-19 0 -16 20l81 659q3 20 21 20h59q18 0 15 -20z" />
    <glyph glyph-name="Lcommaaccent" unicode="&#x13b;" horiz-adv-x="485" 
d="M211 -98l4 29q1 19 21 19h44q18 0 15 -19l-4 -34q-7 -57 -56 -124q-10 -13 -26 -10l-32 8q-18 4 -6 25q21 36 28.5 54.5t11.5 51.5zM261 660l-71 -577h256q20 0 17 -18l-6 -46q-3 -19 -21 -19h-337q-18 0 -15 20l79 640q3 20 21 20h61q19 0 16 -20z" />
    <glyph glyph-name="lcommaaccent" unicode="&#x13c;" horiz-adv-x="237" 
d="M67 -98l4 29q1 19 21 19h44q18 0 15 -19l-4 -34q-7 -57 -56 -124q-10 -13 -26 -10l-32 8q-18 4 -6 25q21 36 28.5 54.5t11.5 51.5zM249 679l-80 -659q-3 -20 -21 -20h-59q-19 0 -16 20l81 659q3 20 21 20h59q18 0 15 -20z" />
    <glyph glyph-name="Lcaron" unicode="&#x13d;" horiz-adv-x="485" 
d="M396 671l4 29q1 19 21 19h44q18 0 15 -19l-4 -34q-7 -57 -56 -124q-10 -13 -26 -10l-32 8q-18 4 -6 25q21 36 28.5 54.5t11.5 51.5zM261 660l-71 -577h256q20 0 17 -18l-6 -46q-3 -19 -21 -19h-337q-18 0 -15 20l79 640q3 20 21 20h61q19 0 16 -20z" />
    <glyph glyph-name="lcaron" unicode="&#x13e;" horiz-adv-x="312" 
d="M318 680l4 29q1 19 21 19h44q18 0 15 -19l-4 -34q-7 -57 -56 -124q-10 -13 -26 -10l-32 8q-18 4 -6 25q21 36 28.5 54.5t11.5 51.5zM249 679l-80 -659q-3 -20 -21 -20h-59q-19 0 -16 20l81 659q3 20 21 20h59q18 0 15 -20z" />
    <glyph glyph-name="Ldot" unicode="&#x13f;" horiz-adv-x="485" 
d="M261 660l-71 -577h256q20 0 17 -18l-6 -46q-3 -19 -21 -19h-337q-18 0 -15 20l79 640q3 20 21 20h61q19 0 16 -20zM460 394l-10 -80q-3 -19 -20 -19h-60q-19 0 -16 19l9 80q1 19 21 19h61q18 0 15 -19z" />
    <glyph glyph-name="ldot" unicode="&#x140;" horiz-adv-x="339" 
d="M249 679l-80 -659q-3 -20 -21 -20h-59q-19 0 -16 20l81 659q3 20 21 20h59q18 0 15 -20zM375 394l-10 -80q-3 -19 -20 -19h-60q-19 0 -16 19l9 80q1 19 21 19h61q18 0 15 -19z" />
    <glyph glyph-name="Lslash" unicode="&#x141;" horiz-adv-x="485" 
d="M261 660l-33 -265l50 19q18 6 23 -10l7 -21q5 -16 -14 -23l-74 -29l-30 -248h256q20 0 17 -18l-6 -46q-3 -19 -21 -19h-337q-18 0 -15 20l33 271l-48 -19q-17 -7 -23 11l-7 20q-6 16 13 24l73 28l38 305q3 20 21 20h61q19 0 16 -20z" />
    <glyph glyph-name="lslash" unicode="&#x142;" horiz-adv-x="237" 
d="M249 679l-35 -285l51 20q20 7 24 -10l6 -21q5 -16 -13 -23l-76 -30l-37 -310q-3 -20 -21 -20h-59q-19 0 -16 20l33 271l-50 -19q-19 -8 -23 11l-5 20q-5 17 13 24l73 28l40 324q3 20 21 20h59q18 0 15 -20z" />
    <glyph glyph-name="Nacute" unicode="&#x143;" horiz-adv-x="618" 
d="M527 859l-89 -112q-8 -12 -26 -12h-48q-19 0 -7 18l72 107q13 18 28 18h63q23 0 7 -19zM615 661l-79 -642q-3 -19 -20 -19h-52q-14 0 -18 9l-185 412q-14 29 -27 73l-59 -475q-3 -19 -19 -19h-56q-20 0 -17 19l79 642q3 19 21 19h52q13 0 16 -8l190 -421q18 -41 24 -64
l58 474q3 19 21 19h55q19 0 16 -19z" />
    <glyph glyph-name="nacute" unicode="&#x144;" horiz-adv-x="536" 
d="M481 689l-89 -112q-8 -12 -26 -12h-48q-20 0 -8 18l73 107q13 18 27 18h64q23 0 7 -19zM150 496h54q18 0 17 -19l-2 -32q76 59 170 59q60 0 94.5 -30.5t34.5 -80.5q0 -14 -1 -22l-43 -351q-3 -20 -22 -20h-57q-19 0 -16 20l40 328q2 14 2 19q0 52 -67 52q-71 0 -143 -51
l-42 -348q-3 -20 -21 -20h-59q-19 0 -16 20l57 457q3 19 20 19z" />
    <glyph glyph-name="Ncommaaccent" unicode="&#x145;" horiz-adv-x="618" 
d="M268 -98l4 29q1 19 21 19h44q18 0 15 -19l-4 -34q-7 -57 -56 -124q-10 -13 -26 -10l-32 8q-18 4 -6 25q21 36 28.5 54.5t11.5 51.5zM615 661l-79 -642q-3 -19 -20 -19h-52q-14 0 -18 9l-185 412q-14 29 -27 73l-59 -475q-3 -19 -19 -19h-56q-20 0 -17 19l79 642
q3 19 21 19h52q13 0 16 -8l190 -421q18 -41 24 -64l58 474q3 19 21 19h55q19 0 16 -19z" />
    <glyph glyph-name="ncommaaccent" unicode="&#x146;" horiz-adv-x="536" 
d="M218 -98l4 29q1 19 21 19h44q18 0 15 -19l-4 -34q-7 -57 -56 -124q-10 -13 -26 -10l-32 8q-18 4 -6 25q21 36 28.5 54.5t11.5 51.5zM150 496h54q18 0 17 -19l-2 -32q76 59 170 59q60 0 94.5 -30.5t34.5 -80.5q0 -14 -1 -22l-43 -351q-3 -20 -22 -20h-57q-19 0 -16 20
l40 328q2 14 2 19q0 52 -67 52q-71 0 -143 -51l-42 -348q-3 -20 -21 -20h-59q-19 0 -16 20l57 457q3 19 20 19z" />
    <glyph glyph-name="Ncaron" unicode="&#x147;" horiz-adv-x="618" 
d="M615 661l-79 -642q-3 -19 -20 -19h-52q-14 0 -18 9l-185 412q-14 29 -27 73l-59 -475q-3 -19 -19 -19h-56q-20 0 -17 19l79 642q3 19 21 19h52q13 0 16 -8l190 -421q18 -41 24 -64l58 474q3 19 21 19h55q19 0 16 -19zM363 859l33 -66l49 66q13 19 29 19h46
q10 0 12.5 -5.5t-4.5 -13.5l-88 -106q-15 -18 -32 -18h-35q-16 0 -28 19l-63 105q-5 7 -1 13t14 6h45q12 0 23 -19z" />
    <glyph glyph-name="ncaron" unicode="&#x148;" horiz-adv-x="536" 
d="M310 689l33 -66l49 66q15 19 29 19h46q10 0 12.5 -5.5t-4.5 -13.5l-89 -106q-16 -18 -32 -18h-34q-16 0 -28 19l-63 105q-4 8 -0.5 13.5t13.5 5.5h45q12 0 23 -19zM150 496h54q18 0 17 -19l-2 -32q76 59 170 59q60 0 94.5 -30.5t34.5 -80.5q0 -14 -1 -22l-43 -351
q-3 -20 -22 -20h-57q-19 0 -16 20l40 328q2 14 2 19q0 52 -67 52q-71 0 -143 -51l-42 -348q-3 -20 -21 -20h-59q-19 0 -16 20l57 457q3 19 20 19z" />
    <glyph glyph-name="napostrophe" unicode="&#x149;" horiz-adv-x="536" 
d="M147 680l4 29q1 19 21 19h44q18 0 15 -19l-4 -34q-7 -57 -56 -124q-10 -13 -26 -10l-32 8q-18 4 -6 25q21 36 28.5 54.5t11.5 51.5zM150 496h54q18 0 17 -19l-2 -32q76 59 170 59q60 0 94.5 -30.5t34.5 -80.5q0 -14 -1 -22l-43 -351q-3 -20 -22 -20h-57q-19 0 -16 20
l40 328q2 14 2 19q0 52 -67 52q-71 0 -143 -51l-42 -348q-3 -20 -21 -20h-59q-19 0 -16 20l57 457q3 19 20 19z" />
    <glyph glyph-name="Eng" unicode="&#x14a;" horiz-adv-x="618" 
d="M615 661l-90 -729q-9 -67 -58.5 -101.5t-152.5 -34.5h-10q-20 0 -17 18l5 41q1 19 21 19h7q105 0 114 68l9 73l-182 406q-14 29 -27 73l-59 -475q-1 -19 -19 -19h-56q-18 0 -17 19l79 642q3 19 21 19h52q13 0 16 -8l190 -421q18 -41 24 -64l58 474q3 19 21 19h55
q19 0 16 -19z" />
    <glyph glyph-name="eng" unicode="&#x14b;" horiz-adv-x="536" 
d="M516 372l-54 -440q-8 -67 -57 -101.5t-153 -34.5h-10q-19 0 -18 18l5 41q3 19 22 19h7q102 0 110 68l50 408q2 12 2 18q0 53 -67 53q-76 0 -142 -52l-43 -350q-3 -19 -21 -19h-58q-19 0 -16 19l56 458q3 19 20 19h54q18 0 17 -19l-2 -32q80 59 170 59q60 0 95 -30.5
t35 -79.5q0 -8 -2 -22z" />
    <glyph glyph-name="Omacron" unicode="&#x14c;" horiz-adv-x="597" 
d="M88 150l47 384q19 154 243 154q109 0 161 -37.5t52 -97.5q0 -15 -1 -23l-47 -384q-19 -154 -244 -154q-110 0 -161.5 37t-51.5 97q0 6 2 24zM446 162l44 351q2 14 2 18q0 74 -121 74q-129 0 -140 -87l-43 -351q-2 -14 -2 -18q0 -74 121 -74q128 0 139 87zM278 836h242
q18 0 17 -17l-3 -37q-1 -19 -22 -19h-242q-18 0 -17 19l3 36q1 18 22 18z" />
    <glyph glyph-name="omacron" unicode="&#x14d;" horiz-adv-x="520" 
d="M218 659h242q18 0 17 -17l-4 -37q-1 -18 -22 -18h-242q-18 0 -17 18l4 36q1 18 22 18zM74 129l29 238q17 137 215 137q92 0 139 -31.5t47 -87.5q0 -12 -1 -18l-29 -238q-17 -137 -214 -137q-93 0 -140 32t-47 88q0 11 1 17zM380 137l28 222v10q0 57 -97 57
q-105 0 -113 -67l-28 -222q-1 -4 -1 -11q0 -56 98 -56q105 0 113 67z" />
    <glyph glyph-name="Obreve" unicode="&#x14e;" horiz-adv-x="597" 
d="M88 150l47 384q19 154 243 154q109 0 161 -37.5t52 -97.5q0 -15 -1 -23l-47 -384q-19 -154 -244 -154q-110 0 -161.5 37t-51.5 97q0 6 2 24zM446 162l44 351q2 14 2 18q0 74 -121 74q-129 0 -140 -87l-43 -351q-2 -14 -2 -18q0 -74 121 -74q128 0 139 87zM347 871l-2 -18
q-1 -7 -1 -13q0 -44 53 -44q34 0 47 15t17 46l2 14q2 16 19 16h35q18 0 15 -16l-2 -12q-11 -62 -40.5 -91.5t-96.5 -29.5q-57 0 -88 24.5t-31 70.5q0 11 1 20l2 18q1 16 19 16h36q9 0 12.5 -3t2.5 -13z" />
    <glyph glyph-name="obreve" unicode="&#x14f;" horiz-adv-x="520" 
d="M74 129l29 238q17 137 215 137q92 0 139 -31.5t47 -87.5q0 -12 -1 -18l-29 -238q-17 -137 -214 -137q-93 0 -140 32t-47 88q0 11 1 17zM380 137l28 222v10q0 57 -97 57q-105 0 -113 -67l-28 -222q-1 -4 -1 -11q0 -56 98 -56q105 0 113 67zM283 684l-2 -21v-11
q0 -43 53 -43q33 0 47 15t17 45l1 15q1 16 19 16h36q16 0 15 -16l-2 -12q-8 -61 -39 -91t-98 -30q-57 0 -88.5 24.5t-31.5 70.5q0 3 2 19l2 19q3 16 19 16h35q18 0 15 -16z" />
    <glyph glyph-name="Ohungarumlaut" unicode="&#x150;" horiz-adv-x="597" 
d="M576 859l-86 -107q-15 -17 -30 -17h-44q-20 0 -7 18l77 106q13 19 31 19h52q23 0 7 -19zM442 859l-72 -106q-13 -18 -28 -18h-43q-20 0 -10 18l62 106q11 19 29 19h51q23 0 11 -19zM88 150l47 384q19 154 243 154q109 0 161 -37.5t52 -97.5q0 -15 -1 -23l-47 -384
q-19 -154 -244 -154q-110 0 -161.5 37t-51.5 97q0 6 2 24zM446 162l44 351q2 14 2 18q0 74 -121 74q-129 0 -140 -87l-43 -351q-2 -14 -2 -18q0 -74 121 -74q128 0 139 87z" />
    <glyph glyph-name="ohungarumlaut" unicode="&#x151;" horiz-adv-x="520" 
d="M516 689l-87 -107q-15 -17 -30 -17h-43q-20 0 -7 18l77 106q13 19 31 19h52q23 0 7 -19zM382 689l-72 -106q-13 -18 -28 -18h-43q-20 0 -10 18l62 106q11 19 29 19h52q22 0 10 -19zM74 129l29 238q17 137 215 137q92 0 139 -31.5t47 -87.5q0 -12 -1 -18l-29 -238
q-17 -137 -214 -137q-93 0 -140 32t-47 88q0 11 1 17zM380 137l28 222v10q0 57 -97 57q-105 0 -113 -67l-28 -222q-1 -4 -1 -11q0 -56 98 -56q105 0 113 67z" />
    <glyph glyph-name="OE" unicode="&#x152;" horiz-adv-x="865" 
d="M88 149l47 386q9 68 63 111t168 43q87 0 141 -33l1 5q3 19 21 19h342q18 0 17 -18l-6 -44q-1 -19 -21 -19h-262l-25 -205h244q20 0 17 -18l-5 -42q-1 -18 -21 -18h-245l-29 -235h273q20 0 17 -18l-5 -44q-3 -19 -21 -19h-353q-20 0 -17 19v4q-55 -31 -132 -31
q-109 0 -160 37t-51 96q0 6 2 24zM446 160l35 284l9 70l1 7v12q0 74 -120 74q-128 0 -139 -88l-44 -353q-1 -7 -1 -19q0 -74 120 -74q128 0 139 87z" />
    <glyph glyph-name="oe" unicode="&#x153;" horiz-adv-x="801" 
d="M559 -8q-104 0 -147 40q-46 -40 -152 -40q-93 0 -140 31.5t-47 87.5q0 11 1 17l30 239q17 137 209 137q107 0 148 -46q51 46 155 46q90 0 133.5 -31t43.5 -86q0 -13 -1 -20l-15 -117q-3 -18 -19 -18h-273l-12 -99q-1 -7 -1 -13q0 -56 93 -56q100 0 108 65l2 16
q3 19 22 19h49q19 0 16 -19l-3 -18q-11 -66 -54.5 -100.5t-145.5 -34.5zM380 136l28 224v10q0 58 -97 58q-104 0 -113 -68l-28 -224v-11q0 -57 97 -57q105 0 113 68zM694 295l8 68q1 4 1 12q0 57 -93 57q-100 0 -108 -69l-9 -68h201z" />
    <glyph glyph-name="Racute" unicode="&#x154;" horiz-adv-x="594" 
d="M213 269l-31 -249q-3 -20 -20 -20h-61q-19 0 -17 20l79 640q3 20 21 20h198q109 0 161 -39.5t52 -102.5q0 -14 -1 -22l-11 -99q-12 -106 -134 -137l87 -260q3 -9 -3 -14.5t-16 -5.5h-61q-12 0 -19 20l-83 249h-141zM379 597h-125l-31 -245h124q131 0 141 82l8 66
q1 7 1 18q0 79 -118 79zM490 859l-89 -112q-8 -12 -26 -12h-48q-19 0 -7 18l72 107q13 18 28 18h63q23 0 7 -19z" />
    <glyph glyph-name="racute" unicode="&#x155;" horiz-adv-x="356" 
d="M387 689l-89 -112q-8 -12 -26 -12h-48q-20 0 -8 18l73 107q13 18 27 18h64q23 0 7 -19zM382 503q21 0 18 -19l-6 -47q-3 -18 -22 -19q-88 -6 -162 -63l-41 -335q-3 -20 -21 -20h-59q-19 0 -16 20l57 457q3 19 20 19h54q18 0 17 -19l-3 -43q79 69 164 69z" />
    <glyph glyph-name="Rcommaaccent" unicode="&#x156;" horiz-adv-x="594" 
d="M247 -98l4 29q1 19 21 19h44q18 0 15 -19l-4 -34q-7 -57 -56 -124q-10 -13 -26 -10l-32 8q-18 4 -6 25q21 36 28.5 54.5t11.5 51.5zM213 269l-31 -249q-3 -20 -20 -20h-61q-19 0 -17 20l79 640q3 20 21 20h198q109 0 161 -39.5t52 -102.5q0 -14 -1 -22l-11 -99
q-12 -106 -134 -137l87 -260q3 -9 -3 -14.5t-16 -5.5h-61q-12 0 -19 20l-83 249h-141zM379 597h-125l-31 -245h124q131 0 141 82l8 66q1 7 1 18q0 79 -118 79z" />
    <glyph glyph-name="rcommaaccent" unicode="&#x157;" horiz-adv-x="356" 
d="M65 -98l4 29q1 19 21 19h44q18 0 15 -19l-4 -34q-7 -57 -56 -124q-10 -13 -26 -10l-32 8q-18 4 -6 25q21 36 28.5 54.5t11.5 51.5zM382 503q21 0 18 -19l-6 -47q-3 -18 -22 -19q-88 -6 -162 -63l-41 -335q-3 -20 -21 -20h-59q-19 0 -16 20l57 457q3 19 20 19h54
q18 0 17 -19l-3 -43q79 69 164 69z" />
    <glyph glyph-name="Rcaron" unicode="&#x158;" horiz-adv-x="594" 
d="M213 269l-31 -249q-3 -20 -20 -20h-61q-19 0 -17 20l79 640q3 20 21 20h198q109 0 161 -39.5t52 -102.5q0 -14 -1 -22l-11 -99q-12 -106 -134 -137l87 -260q3 -9 -3 -14.5t-16 -5.5h-61q-12 0 -19 20l-83 249h-141zM379 597h-125l-31 -245h124q131 0 141 82l8 66
q1 7 1 18q0 79 -118 79zM327 859l33 -66l49 66q13 19 29 19h46q10 0 12.5 -5.5t-4.5 -13.5l-88 -106q-15 -18 -32 -18h-35q-16 0 -28 19l-63 105q-5 7 -1 13t14 6h45q12 0 23 -19z" />
    <glyph glyph-name="rcaron" unicode="&#x159;" horiz-adv-x="356" 
d="M222 689l33 -66l49 66q15 19 29 19h46q10 0 12.5 -5.5t-4.5 -13.5l-89 -106q-16 -18 -32 -18h-34q-16 0 -28 19l-63 105q-4 8 -0.5 13.5t13.5 5.5h45q12 0 23 -19zM382 503q21 0 18 -19l-6 -47q-3 -18 -22 -19q-88 -6 -162 -63l-41 -335q-3 -20 -21 -20h-59q-19 0 -16 20
l57 457q3 19 20 19h54q18 0 17 -19l-3 -43q79 69 164 69z" />
    <glyph glyph-name="Sacute" unicode="&#x15a;" horiz-adv-x="568" 
d="M467 490l4 32q1 8 1 15q0 70 -112 70q-122 0 -131 -84l-3 -26q-1 -7 -1 -13q0 -20 10.5 -30t32.5 -19l170 -68q98 -39 98 -124q0 -15 -1 -23l-8 -74q-17 -154 -240 -154q-109 0 -159.5 37.5t-50.5 97.5q0 13 1 23l6 54q3 20 21 20h59q19 0 16 -20l-5 -41q-1 -9 -1 -19
q0 -71 119 -71q127 0 138 85l7 51q1 7 1 13q0 23 -19 37t-56 29l-142 57q-94 39 -94 118q0 12 1 21l6 50q6 45 26 77t71.5 54.5t133.5 22.5q107 0 155 -37t48 -96q0 -13 -1 -21l-5 -44q-1 -19 -21 -19h-59q-19 0 -16 19zM504 859l-89 -112q-8 -12 -26 -12h-48q-19 0 -7 18
l72 107q13 18 28 18h63q23 0 7 -19z" />
    <glyph glyph-name="sacute" unicode="&#x15b;" horiz-adv-x="468" 
d="M432 689l-89 -112q-8 -12 -26 -12h-48q-20 0 -8 18l73 107q13 18 27 18h64q23 0 7 -19zM376 357l2 17q1 7 1 16q0 45 -88 45q-92 0 -99 -49l-2 -15q-1 -9 -1 -11q0 -31 35 -43l145 -50q38 -13 58 -36.5t20 -51.5q0 -6 -2 -24l-5 -50q-5 -50 -54 -81.5t-147 -31.5
q-88 0 -133.5 30t-45.5 75q0 6 1 16l3 24q3 18 20 18h53q15 0 14 -18l-2 -19q-1 -7 -1 -13q0 -20 25.5 -31.5t69.5 -11.5q103 0 110 51l3 23q1 11 1 17q0 24 -47 41l-138 49q-72 25 -72 94q0 5 1 16l4 34q13 117 191 117q85 0 128 -31.5t43 -77.5q0 -6 -1 -17l-2 -21
q-1 -18 -20 -18h-53q-17 0 -15 18z" />
    <glyph glyph-name="Scircumflex" unicode="&#x15c;" horiz-adv-x="568" 
d="M467 490l4 32q1 8 1 15q0 70 -112 70q-122 0 -131 -84l-3 -26q-1 -7 -1 -13q0 -20 10.5 -30t32.5 -19l170 -68q98 -39 98 -124q0 -15 -1 -23l-8 -74q-17 -154 -240 -154q-109 0 -159.5 37.5t-50.5 97.5q0 13 1 23l6 54q3 20 21 20h59q19 0 16 -20l-5 -41q-1 -9 -1 -19
q0 -71 119 -71q127 0 138 85l7 51q1 7 1 13q0 23 -19 37t-56 29l-142 57q-94 39 -94 118q0 12 1 21l6 50q6 45 26 77t71.5 54.5t133.5 22.5q107 0 155 -37t48 -96q0 -13 -1 -21l-5 -44q-1 -19 -21 -19h-59q-19 0 -16 19zM378 820l-49 -67q-12 -18 -28 -18h-46
q-10 0 -12.5 5.5t4.5 12.5l88 106q16 19 32 19h35q15 0 27 -19l63 -106q5 -7 1.5 -12.5t-13.5 -5.5h-44q-16 0 -25 18z" />
    <glyph glyph-name="scircumflex" unicode="&#x15d;" horiz-adv-x="468" 
d="M308 650l-49 -67q-12 -18 -29 -18h-46q-10 0 -12 5.5t4 12.5l88 106q16 19 33 19h35q15 0 27 -19l63 -106q5 -7 1 -12.5t-14 -5.5h-44q-15 0 -24 18zM376 357l2 17q1 7 1 16q0 45 -88 45q-92 0 -99 -49l-2 -15q-1 -9 -1 -11q0 -31 35 -43l145 -50q38 -13 58 -36.5
t20 -51.5q0 -6 -2 -24l-5 -50q-5 -50 -54 -81.5t-147 -31.5q-88 0 -133.5 30t-45.5 75q0 6 1 16l3 24q3 18 20 18h53q15 0 14 -18l-2 -19q-1 -7 -1 -13q0 -20 25.5 -31.5t69.5 -11.5q103 0 110 51l3 23q1 11 1 17q0 24 -47 41l-138 49q-72 25 -72 94q0 5 1 16l4 34
q13 117 191 117q85 0 128 -31.5t43 -77.5q0 -6 -1 -17l-2 -21q-1 -18 -20 -18h-53q-17 0 -15 18z" />
    <glyph glyph-name="Scedilla" unicode="&#x15e;" horiz-adv-x="568" 
d="M284 -52h34q33 0 54.5 -18.5t21.5 -53.5q0 -44 -26.5 -65.5t-69.5 -21.5h-113q-17 0 -15 19l2 20q3 18 20 18h99q35 0 35 25q0 20 -29 20h-66q-31 0 -23 24l30 80q-84 8 -122.5 43.5t-38.5 88.5q0 13 1 23l6 54q3 20 21 20h59q19 0 16 -20l-5 -41q-1 -9 -1 -19
q0 -71 119 -71q127 0 138 85l7 51q1 7 1 13q0 23 -19 37t-56 29l-142 57q-94 39 -94 118q0 12 1 21l6 50q6 45 26 77t71.5 54.5t133.5 22.5q107 0 155 -37t48 -96q0 -13 -1 -21l-5 -44q-1 -19 -21 -19h-59q-19 0 -16 19l4 32q1 8 1 15q0 70 -112 70q-122 0 -131 -84l-3 -26
q-1 -7 -1 -13q0 -20 10.5 -30t32.5 -19l170 -68q98 -39 98 -124q0 -15 -1 -23l-8 -74q-17 -149 -226 -154z" />
    <glyph glyph-name="scedilla" unicode="&#x15f;" horiz-adv-x="468" 
d="M237 -52h34q33 0 54.5 -18.5t21.5 -53.5q0 -44 -26.5 -65.5t-69.5 -21.5h-113q-17 0 -15 19l2 20q3 18 20 18h99q35 0 35 25q0 20 -29 20h-66q-31 0 -23 24l30 80q-65 7 -98 35.5t-33 66.5q0 6 1 16l3 24q3 18 20 18h53q15 0 14 -18l-2 -19q-1 -7 -1 -13
q0 -20 25.5 -31.5t69.5 -11.5q103 0 110 51l3 23q1 11 1 17q0 24 -47 41l-138 49q-72 25 -72 94q0 5 1 16l4 34q13 117 191 117q85 0 128 -31.5t43 -77.5q0 -6 -1 -17l-2 -21q-1 -18 -20 -18h-53q-17 0 -15 18l2 17q1 7 1 16q0 45 -88 45q-92 0 -99 -49l-2 -15q-1 -9 -1 -11
q0 -31 35 -43l145 -50q38 -13 58 -36.5t20 -51.5q0 -6 -2 -24l-5 -50q-5 -49 -50.5 -79.5t-135.5 -32.5z" />
    <glyph glyph-name="Scaron" unicode="&#x160;" horiz-adv-x="568" 
d="M467 490l4 32q1 8 1 15q0 70 -112 70q-122 0 -131 -84l-3 -26q-1 -7 -1 -13q0 -20 10.5 -30t32.5 -19l170 -68q98 -39 98 -124q0 -15 -1 -23l-8 -74q-17 -154 -240 -154q-109 0 -159.5 37.5t-50.5 97.5q0 13 1 23l6 54q3 20 21 20h59q19 0 16 -20l-5 -41q-1 -9 -1 -19
q0 -71 119 -71q127 0 138 85l7 51q1 7 1 13q0 23 -19 37t-56 29l-142 57q-94 39 -94 118q0 12 1 21l6 50q6 45 26 77t71.5 54.5t133.5 22.5q107 0 155 -37t48 -96q0 -13 -1 -21l-5 -44q-1 -19 -21 -19h-59q-19 0 -16 19zM337 859l33 -66l49 66q13 19 29 19h46
q10 0 12.5 -5.5t-4.5 -13.5l-88 -106q-15 -18 -32 -18h-35q-16 0 -28 19l-63 105q-5 7 -1 13t14 6h45q12 0 23 -19z" />
    <glyph glyph-name="scaron" unicode="&#x161;" horiz-adv-x="468" 
d="M263 689l33 -66l49 66q15 19 29 19h46q10 0 12.5 -5.5t-4.5 -13.5l-89 -106q-16 -18 -32 -18h-34q-16 0 -28 19l-63 105q-4 8 -0.5 13.5t13.5 5.5h45q12 0 23 -19zM376 357l2 17q1 7 1 16q0 45 -88 45q-92 0 -99 -49l-2 -15q-1 -9 -1 -11q0 -31 35 -43l145 -50
q38 -13 58 -36.5t20 -51.5q0 -6 -2 -24l-5 -50q-5 -50 -54 -81.5t-147 -31.5q-88 0 -133.5 30t-45.5 75q0 6 1 16l3 24q3 18 20 18h53q15 0 14 -18l-2 -19q-1 -7 -1 -13q0 -20 25.5 -31.5t69.5 -11.5q103 0 110 51l3 23q1 11 1 17q0 24 -47 41l-138 49q-72 25 -72 94
q0 5 1 16l4 34q13 117 191 117q85 0 128 -31.5t43 -77.5q0 -6 -1 -17l-2 -21q-1 -18 -20 -18h-53q-17 0 -15 18z" />
    <glyph glyph-name="Tcommaaccent" unicode="&#x162;" horiz-adv-x="487" 
d="M187 -98l4 29q1 19 21 19h44q18 0 15 -19l-4 -34q-7 -57 -56 -124q-10 -13 -26 -10l-32 8q-18 4 -6 25q21 36 28.5 54.5t11.5 51.5zM116 680h418q20 0 17 -19l-5 -45q-3 -19 -21 -19h-160l-72 -577q-3 -20 -20 -20h-61q-20 0 -17 20l72 577h-160q-20 0 -17 19l5 45
q3 19 21 19z" />
    <glyph glyph-name="tcommaaccent" unicode="&#x163;" horiz-adv-x="354" 
d="M107 -98l4 29q1 19 21 19h44q18 0 15 -19l-4 -34q-7 -57 -56 -124q-10 -13 -26 -10l-32 8q-18 4 -6 25q21 36 28.5 54.5t11.5 51.5zM241 416l-33 -264q-1 -7 -1 -17q0 -54 93 -54h19q19 0 17 -20l-4 -42q-1 -19 -22 -19h-33q-90 0 -128.5 27.5t-38.5 83.5q0 17 1 26
l34 279h-55q-18 0 -16 20l4 35q1 17 21 19l55 4h1l13 101q3 20 21 20h58q19 0 16 -20l-13 -101h104q18 0 16 -18l-4 -41q-1 -19 -22 -19h-103z" />
    <glyph glyph-name="Tcaron" unicode="&#x164;" horiz-adv-x="487" 
d="M116 680h418q20 0 17 -19l-5 -45q-3 -19 -21 -19h-160l-72 -577q-3 -20 -20 -20h-61q-20 0 -17 20l72 577h-160q-20 0 -17 19l5 45q3 19 21 19zM298 859l33 -66l49 66q13 19 29 19h46q10 0 12.5 -5.5t-4.5 -13.5l-88 -106q-15 -18 -32 -18h-35q-16 0 -28 19l-63 105
q-5 7 -1 13t14 6h45q12 0 23 -19z" />
    <glyph glyph-name="tcaron" unicode="&#x165;" horiz-adv-x="375" 
d="M348 680l4 29q1 19 21 19h44q18 0 15 -19l-4 -34q-7 -57 -56 -124q-10 -13 -26 -10l-32 8q-18 4 -6 25q21 36 28.5 54.5t11.5 51.5zM241 416l-33 -264q-1 -7 -1 -17q0 -54 93 -54h19q19 0 17 -20l-4 -42q-1 -19 -22 -19h-33q-90 0 -128.5 27.5t-38.5 83.5q0 17 1 26
l34 279h-55q-18 0 -16 20l4 35q1 17 21 19l55 4h1l13 101q3 20 21 20h58q19 0 16 -20l-13 -101h104q18 0 16 -18l-4 -41q-1 -19 -22 -19h-103z" />
    <glyph glyph-name="Tbar" unicode="&#x166;" horiz-adv-x="487" 
d="M116 680h418q20 0 17 -19l-5 -45q-3 -19 -21 -19h-160l-20 -160h129q20 0 17 -18l-4 -30q-1 -19 -20 -19h-131l-43 -350q-3 -20 -20 -20h-61q-20 0 -17 20l43 350h-124q-21 0 -18 19l4 30q1 18 21 18h126l20 160h-160q-20 0 -17 19l5 45q3 19 21 19z" />
    <glyph glyph-name="tbar" unicode="&#x167;" horiz-adv-x="354" 
d="M241 416l-11 -87h104q20 0 17 -18l-4 -30q-1 -19 -20 -19h-106l-13 -110q-1 -7 -1 -17q0 -54 93 -54h19q19 0 17 -20l-4 -42q-1 -19 -22 -19h-33q-90 0 -128.5 27.5t-38.5 83.5q0 17 1 26l15 125h-53q-19 0 -18 19l4 30q3 18 21 18h54l11 87h-55q-18 0 -16 20l4 35
q1 17 21 19l55 4h1l13 101q3 20 21 20h58q19 0 16 -20l-13 -101h104q18 0 16 -18l-4 -41q-1 -19 -22 -19h-103z" />
    <glyph glyph-name="Utilde" unicode="&#x168;" horiz-adv-x="608" 
d="M253 660l-60 -484q-2 -24 -2 -27q0 -74 120 -74q129 0 140 87l62 498q3 20 20 20h61q20 0 17 -20l-64 -514q-19 -154 -242 -154q-108 0 -161 38t-53 98q0 10 2 26l63 506q3 20 20 20h61q19 0 16 -20zM329 805q-11 0 -15 -6t-7 -22l-4 -17q-4 -17 -22 -17h-30
q-19 0 -14 22l7 32q18 80 87 80q31 0 60 -18l42 -28q22 -15 32 -15q12 0 17 7.5t8 29.5l1 8q3 17 22 17h31q19 0 14 -22l-6 -30q-8 -40 -32 -60.5t-56 -20.5t-61 19l-43 28q-20 13 -31 13z" />
    <glyph glyph-name="utilde" unicode="&#x169;" horiz-adv-x="530" 
d="M369 19l2 30q-72 -57 -164 -57q-61 0 -95.5 30t-34.5 80q0 11 1 17l44 357q3 20 21 20h58q19 0 16 -20l-41 -333q-1 -6 -1 -16q0 -50 67 -50q66 0 137 50l42 349q3 20 21 20h59q19 0 16 -20l-57 -457q-3 -19 -21 -19h-53q-18 0 -17 19zM265 628q-11 0 -15 -6t-7 -22
l-4 -17q-4 -17 -22 -17h-30q-19 0 -14 22l7 32q18 80 87 80q31 0 60 -18l42 -28q23 -15 32 -15q12 0 17 7.5t8 29.5l1 8q3 17 22 17h31q19 0 14 -22l-6 -30q-8 -40 -32 -60.5t-56 -20.5t-61 19l-43 28q-20 13 -31 13z" />
    <glyph glyph-name="Umacron" unicode="&#x16a;" horiz-adv-x="608" 
d="M253 660l-60 -484q-2 -24 -2 -27q0 -74 120 -74q129 0 140 87l62 498q3 20 20 20h61q20 0 17 -20l-64 -514q-19 -154 -242 -154q-108 0 -161 38t-53 98q0 10 2 26l63 506q3 20 20 20h61q19 0 16 -20zM280 836h242q18 0 17 -17l-3 -37q-1 -19 -22 -19h-242q-18 0 -17 19
l3 36q1 18 22 18z" />
    <glyph glyph-name="umacron" unicode="&#x16b;" horiz-adv-x="530" 
d="M369 19l2 30q-72 -57 -164 -57q-61 0 -95.5 30t-34.5 80q0 11 1 17l44 357q3 20 21 20h58q19 0 16 -20l-41 -333q-1 -6 -1 -16q0 -50 67 -50q66 0 137 50l42 349q3 20 21 20h59q19 0 16 -20l-57 -457q-3 -19 -21 -19h-53q-18 0 -17 19zM215 659h242q18 0 17 -17l-4 -37
q-1 -18 -22 -18h-242q-18 0 -17 18l4 36q1 18 22 18z" />
    <glyph glyph-name="Ubreve" unicode="&#x16c;" horiz-adv-x="608" 
d="M253 660l-60 -484q-2 -24 -2 -27q0 -74 120 -74q129 0 140 87l62 498q3 20 20 20h61q20 0 17 -20l-64 -514q-19 -154 -242 -154q-108 0 -161 38t-53 98q0 10 2 26l63 506q3 20 20 20h61q19 0 16 -20zM346 871l-2 -18q-1 -7 -1 -13q0 -44 53 -44q34 0 47 15t17 46l2 14
q2 16 19 16h35q18 0 15 -16l-2 -12q-11 -62 -40.5 -91.5t-96.5 -29.5q-57 0 -88 24.5t-31 70.5q0 11 1 20l2 18q1 16 19 16h36q9 0 12.5 -3t2.5 -13z" />
    <glyph glyph-name="ubreve" unicode="&#x16d;" horiz-adv-x="530" 
d="M369 19l2 30q-72 -57 -164 -57q-61 0 -95.5 30t-34.5 80q0 11 1 17l44 357q3 20 21 20h58q19 0 16 -20l-41 -333q-1 -6 -1 -16q0 -50 67 -50q66 0 137 50l42 349q3 20 21 20h59q19 0 16 -20l-57 -457q-3 -19 -21 -19h-53q-18 0 -17 19zM281 684l-2 -21v-11q0 -43 53 -43
q33 0 47 15t17 45l1 15q1 16 19 16h36q16 0 15 -16l-2 -12q-8 -61 -39 -91t-98 -30q-57 0 -88.5 24.5t-31.5 70.5q0 3 2 19l2 19q3 16 19 16h35q18 0 15 -16z" />
    <glyph glyph-name="Uring" unicode="&#x16e;" horiz-adv-x="608" 
d="M253 660l-60 -484q-2 -24 -2 -27q0 -74 120 -74q129 0 140 87l62 498q3 20 20 20h61q20 0 17 -20l-64 -514q-19 -154 -242 -154q-108 0 -161 38t-53 98q0 10 2 26l63 506q3 20 20 20h61q19 0 16 -20zM494 820l-3 -33q-7 -70 -98 -70q-46 0 -70 16t-24 42q0 14 1 21l3 24
q9 71 101 71q42 0 66.5 -16.5t24.5 -41.5q0 -2 -1 -13zM440 797l1 13v10q0 23 -41 23q-42 0 -47 -33l-1 -13v-7q0 -26 41 -26q42 0 47 33z" />
    <glyph glyph-name="uring" unicode="&#x16f;" horiz-adv-x="530" 
d="M369 19l2 30q-72 -57 -164 -57q-61 0 -95.5 30t-34.5 80q0 11 1 17l44 357q3 20 21 20h58q19 0 16 -20l-41 -333q-1 -6 -1 -16q0 -50 67 -50q66 0 137 50l42 349q3 20 21 20h59q19 0 16 -20l-57 -457q-3 -19 -21 -19h-53q-18 0 -17 19zM434 653l-3 -33q-7 -70 -98 -70
q-46 0 -70 16t-24 42q0 14 1 21l3 24q9 71 101 71q42 0 66.5 -16.5t24.5 -41.5q0 -2 -1 -13zM380 630l1 13v10q0 23 -41 23q-42 0 -47 -33l-1 -13v-7q0 -26 41 -26q42 0 47 33z" />
    <glyph glyph-name="Uhungarumlaut" unicode="&#x170;" horiz-adv-x="608" 
d="M580 859l-86 -107q-15 -17 -30 -17h-44q-20 0 -7 18l77 106q13 19 31 19h52q23 0 7 -19zM446 859l-72 -106q-13 -18 -28 -18h-43q-20 0 -10 18l62 106q11 19 29 19h51q23 0 11 -19zM253 660l-60 -484q-2 -24 -2 -27q0 -74 120 -74q129 0 140 87l62 498q3 20 20 20h61
q20 0 17 -20l-64 -514q-19 -154 -242 -154q-108 0 -161 38t-53 98q0 10 2 26l63 506q3 20 20 20h61q19 0 16 -20z" />
    <glyph glyph-name="uhungarumlaut" unicode="&#x171;" horiz-adv-x="530" 
d="M369 19l2 30q-72 -57 -164 -57q-61 0 -95.5 30t-34.5 80q0 11 1 17l44 357q3 20 21 20h58q19 0 16 -20l-41 -333q-1 -6 -1 -16q0 -50 67 -50q66 0 137 50l42 349q3 20 21 20h59q19 0 16 -20l-57 -457q-3 -19 -21 -19h-53q-18 0 -17 19zM514 689l-87 -107q-15 -17 -30 -17
h-43q-20 0 -7 18l77 106q13 19 31 19h52q23 0 7 -19zM380 689l-72 -106q-13 -18 -28 -18h-43q-20 0 -10 18l62 106q11 19 29 19h52q22 0 10 -19z" />
    <glyph glyph-name="Uogonek" unicode="&#x172;" horiz-adv-x="608" 
d="M253 660l-60 -484q-2 -24 -2 -27q0 -74 120 -74q129 0 140 87l62 498q1 20 20 20h61q18 0 17 -20l-64 -514q-8 -62 -43 -94q-5 -4 -19.5 -17t-21.5 -20.5t-17 -20t-14 -26.5t-4 -30q0 -19 11 -26.5t37 -7.5h30q10 0 15 -4.5t4 -13.5l-3 -28q-1 -19 -25 -19h-49
q-38 0 -65 18.5t-27 60.5q0 44 25 80q-35 -6 -76 -6q-108 0 -161 38t-53 98q0 10 2 26l63 506q1 20 20 20h61q19 0 16 -20z" />
    <glyph glyph-name="uogonek" unicode="&#x173;" horiz-adv-x="530" 
d="M428 -161h-30q-39 0 -66 19.5t-27 61.5q0 70 66 108v21q-72 -57 -164 -57q-61 0 -95.5 30t-34.5 80q0 11 1 17l44 357q3 20 21 20h58q19 0 16 -20l-41 -333q-1 -6 -1 -16q0 -50 67 -50q66 0 137 50l42 349q3 20 21 20h59q19 0 16 -20l-57 -457q-3 -19 -21 -19h-4
q-21 0 -39.5 -20t-18.5 -42q0 -34 48 -34h11q10 0 15 -4.5t4 -13.5l-3 -28q-1 -19 -24 -19z" />
    <glyph glyph-name="Wcircumflex" unicode="&#x174;" horiz-adv-x="817" 
d="M544 661l53 -416q6 -45 6 -88l3 11q3 11 6.5 23.5t8.5 28t9 25.5l156 416q8 19 25 19h55q19 0 12 -19l-241 -642q-7 -19 -26 -19h-60q-17 0 -20 19l-54 424q-5 40 -5 79q-1 -2 -5 -17t-9.5 -34t-8.5 -29l-160 -423q-7 -19 -25 -19h-60q-18 0 -21 19l-83 642q-3 19 17 19
h62q16 0 19 -19l54 -416q6 -54 6 -78q19 57 27 78l157 416q6 19 25 19h57q17 0 20 -19zM506 820l-49 -67q-12 -18 -28 -18h-46q-10 0 -12.5 5.5t4.5 12.5l88 106q16 19 32 19h35q15 0 27 -19l63 -106q5 -7 1.5 -12.5t-13.5 -5.5h-44q-16 0 -25 18z" />
    <glyph glyph-name="wcircumflex" unicode="&#x175;" horiz-adv-x="681" 
d="M655 496h49q23 0 15 -20l-186 -458q-7 -18 -22 -18h-69q-15 0 -18 18l-38 295q-4 34 -4 49l-18 -49l-121 -295q-8 -18 -22 -18h-68q-9 0 -12 3.5t-5 14.5l-68 458q-3 20 20 20h56q16 0 19 -20l44 -311q4 -30 4 -42q1 7 15 42l125 311q8 20 23 20h59q17 0 19 -20l39 -311
l4 -44q0 1 5.5 17t9.5 27l122 311q8 20 23 20zM414 650l-49 -67q-12 -18 -29 -18h-46q-10 0 -12 5.5t4 12.5l88 106q16 19 33 19h35q15 0 27 -19l63 -106q5 -7 1 -12.5t-14 -5.5h-44q-15 0 -24 18z" />
    <glyph glyph-name="Ycircumflex" unicode="&#x176;" horiz-adv-x="529" 
d="M204 661l93 -264q4 -13 10 -45q12 31 21 45l164 264q12 19 25 19h63q23 0 11 -19l-244 -391l-31 -251q-3 -19 -20 -19h-61q-20 0 -17 19l29 240l-148 402q-8 19 16 19h68q16 0 21 -19zM363 820l-49 -67q-12 -18 -28 -18h-46q-10 0 -12.5 5.5t4.5 12.5l88 106q16 19 32 19
h35q15 0 27 -19l63 -106q5 -7 1.5 -12.5t-13.5 -5.5h-44q-16 0 -25 18z" />
    <glyph glyph-name="ycircumflex" unicode="&#x177;" horiz-adv-x="450" 
d="M170 476l61 -289q8 -45 8 -69q7 27 26 67l134 291q9 20 24 20h54q25 0 16 -20l-307 -661q-10 -19 -23 -19h-45q-24 0 -15 19l78 177l-108 484q-2 9 4 14.5t16 5.5h58q14 0 19 -20zM299 650l-49 -67q-12 -18 -29 -18h-46q-10 0 -12 5.5t4 12.5l88 106q16 19 33 19h35
q15 0 27 -19l63 -106q5 -7 1 -12.5t-14 -5.5h-44q-15 0 -24 18z" />
    <glyph glyph-name="Ydieresis" unicode="&#x178;" horiz-adv-x="529" 
d="M204 661l93 -264q4 -13 10 -45q12 31 21 45l164 264q12 19 25 19h63q23 0 11 -19l-244 -391l-31 -251q-3 -19 -20 -19h-61q-20 0 -17 19l29 240l-148 402q-8 19 16 19h68q16 0 21 -19zM336 853l-12 -95q-3 -19 -20 -19h-35q-19 0 -16 19l11 95q3 20 22 20h34q19 0 16 -20
zM457 853l-12 -95q-3 -19 -20 -19h-35q-19 0 -16 19l11 95q3 20 21 20h35q10 0 13.5 -4.5t2.5 -15.5z" />
    <glyph glyph-name="Zacute" unicode="&#x179;" horiz-adv-x="500" 
d="M163 680h352q20 0 17 -19l-5 -45q-1 -8 -9 -19l-345 -514h285q20 0 17 -18l-6 -46q-3 -19 -20 -19h-386q-21 0 -18 19l6 45q1 9 8 19l345 514h-251q-20 0 -17 19l6 45q3 19 21 19zM470 859l-89 -112q-8 -12 -26 -12h-48q-19 0 -7 18l72 107q13 18 28 18h63q23 0 7 -19z
" />
    <glyph glyph-name="zacute" unicode="&#x17a;" horiz-adv-x="451" 
d="M417 689l-89 -112q-8 -12 -26 -12h-48q-20 0 -8 18l73 107q13 18 27 18h64q23 0 7 -19zM135 496h301q20 0 17 -18l-5 -41q-2 -10 -10 -20l-273 -339h236q20 0 17 -18l-5 -41q-3 -19 -22 -19h-332q-19 0 -16 19l5 41q2 11 10 21l271 336h-204q-20 0 -17 19l5 41
q3 19 22 19z" />
    <glyph glyph-name="Zdotaccent" unicode="&#x17b;" horiz-adv-x="500" 
d="M400 839l-9 -80q-3 -18 -20 -18h-60q-20 0 -17 18l10 80q2 19 20 19h61q18 0 15 -19zM163 680h352q20 0 17 -19l-5 -45q-1 -8 -9 -19l-345 -514h285q20 0 17 -18l-6 -46q-3 -19 -20 -19h-386q-21 0 -18 19l6 45q1 9 8 19l345 514h-251q-20 0 -17 19l6 45q3 19 21 19z" />
    <glyph glyph-name="zdotaccent" unicode="&#x17c;" horiz-adv-x="451" 
d="M135 496h301q20 0 17 -18l-5 -41q-2 -10 -10 -20l-273 -339h236q20 0 17 -18l-5 -41q-3 -19 -22 -19h-332q-19 0 -16 19l5 41q2 11 10 21l271 336h-204q-20 0 -17 19l5 41q3 19 22 19z" />
    <glyph glyph-name="Zcaron" unicode="&#x17d;" horiz-adv-x="500" 
d="M163 680h352q20 0 17 -19l-5 -45q-1 -8 -9 -19l-345 -514h285q20 0 17 -18l-6 -46q-3 -19 -20 -19h-386q-21 0 -18 19l6 45q1 9 8 19l345 514h-251q-20 0 -17 19l6 45q3 19 21 19zM311 859l33 -66l49 66q13 19 29 19h46q10 0 12.5 -5.5t-4.5 -13.5l-88 -106
q-15 -18 -32 -18h-35q-16 0 -28 19l-63 105q-5 7 -1 13t14 6h45q12 0 23 -19z" />
    <glyph glyph-name="zcaron" unicode="&#x17e;" horiz-adv-x="451" 
d="M252 689l33 -66l49 66q15 19 29 19h46q10 0 12.5 -5.5t-4.5 -13.5l-89 -106q-16 -18 -32 -18h-34q-16 0 -28 19l-63 105q-4 8 -0.5 13.5t13.5 5.5h45q12 0 23 -19zM135 496h301q20 0 17 -18l-5 -41q-2 -10 -10 -20l-273 -339h236q20 0 17 -18l-5 -41q-3 -19 -22 -19h-332
q-19 0 -16 19l5 41q2 11 10 21l271 336h-204q-20 0 -17 19l5 41q3 19 22 19z" />
    <glyph glyph-name="longs" unicode="&#x17f;" horiz-adv-x="333" 
d="M269 557l-92 -742q-3 -19 -20 -19h-58q-20 0 -17 19l75 603h-59q-20 0 -17 19l4 34q3 18 21 19l53 4h6l10 73q18 136 212 136h10q20 0 17 -19l-5 -40q-3 -19 -22 -19h-7q-103 0 -111 -68z" />
    <glyph glyph-name="florin" unicode="&#x192;" horiz-adv-x="562" 
d="M564 627h-15q-102 0 -118 -66l-34 -137h86q20 0 17 -19l-5 -40q-3 -19 -21 -19h-94l-100 -422q-32 -137 -219 -137h-18q-19 0 -16 19l5 41q1 20 21 20h14q103 0 119 67l99 412h-78q-17 0 -16 19l4 40q1 19 21 19h86l35 147q32 137 218 137h19q18 0 17 -19l-5 -42
q-3 -20 -22 -20z" />
    <glyph glyph-name="Aringacute" unicode="&#x1fa;" horiz-adv-x="538" 
d="M320 680h62q18 0 21 -19l116 -642q3 -19 -16 -19h-62q-18 0 -21 19l-27 155h-211l-66 -155q-8 -19 -24 -19h-58q-20 0 -12 19l272 642q9 19 26 19zM455 820l-3 -33q-7 -70 -98 -70q-46 0 -70 16t-24 42q0 14 1 21l3 24q7 55 68 68l37 58q11 18 28 18h63q23 0 7 -19
l-50 -63q39 -16 39 -49q0 -2 -1 -13zM381 252l-33 182q-4 19 -6.5 56t-3.5 64v28q0 -1 -8.5 -31t-18.5 -63.5t-18 -51.5l-79 -184h167zM401 797l1 13v10q0 23 -41 23q-42 0 -47 -33l-1 -13v-7q0 -26 41 -26q42 0 47 33z" />
    <glyph glyph-name="aringacute" unicode="&#x1fb;" 
d="M371 20l2 30q-84 -58 -171 -58q-63 0 -96 30t-33 83q0 7 2 23l30 240q17 136 155 136q94 0 162 -60l6 32q4 20 21 20h53q19 0 16 -20l-56 -456q-3 -20 -21 -20h-54q-16 0 -16 20zM198 354l-27 -212q-1 -5 -1 -14q0 -51 68 -51q66 0 142 51l30 239q-61 52 -129 52
q-74 0 -83 -65zM437 653l-3 -33q-7 -70 -98 -70q-46 0 -70 16t-24 42q0 14 1 21l3 24q7 57 73 69l55 80q13 18 27 18h64q23 0 7 -19l-69 -87q35 -17 35 -48q0 -2 -1 -13zM383 630l1 13v10q0 23 -41 23q-42 0 -47 -33l-1 -13v-7q0 -26 41 -26q42 0 47 33z" />
    <glyph glyph-name="AEacute" unicode="&#x1fc;" horiz-adv-x="837" 
d="M511 680h335q20 0 17 -18l-6 -43q-3 -19 -21 -19h-262l-26 -207h245q20 0 17 -18l-5 -40q-3 -19 -21 -19h-245l-29 -236h273q21 0 18 -18l-6 -43q-3 -19 -21 -19h-346q-22 0 -19 20l19 154h-200l-108 -155q-15 -19 -26 -19h-59q-10 0 -13.5 5t1.5 14l456 642q14 19 32 19
zM430 459l-146 -207h154l33 270q-7 -12 -41 -63zM707 859l-89 -112q-8 -12 -26 -12h-48q-19 0 -7 18l72 107q13 18 28 18h63q23 0 7 -19z" />
    <glyph glyph-name="aeacute" unicode="&#x1fd;" horiz-adv-x="787" 
d="M598 689l-89 -112q-8 -12 -26 -12h-48q-20 0 -8 18l73 107q13 18 27 18h64q23 0 7 -19zM777 367l-14 -122q-1 -18 -20 -18h-272l-12 -90q0 -3 -0.5 -5.5t-1 -4.5t-0.5 -3.5v-2.5q0 -55 94 -55q54 0 77.5 16t29.5 48l3 16q3 19 21 19h49q17 0 16 -19l-2 -19
q-7 -65 -52 -100t-148 -35q-133 0 -168 66q-82 -66 -174 -66q-56 0 -96.5 26.5t-40.5 78.5q0 7 1 16l6 53q6 48 45.5 82t107.5 34h157l10 77q2 14 2 17q0 56 -90 56q-54 0 -77.5 -15.5t-28.5 -48.5l-2 -14q-3 -20 -21 -20h-51q-19 0 -17 20l2 15q9 67 54.5 101t146.5 34
q99 0 137 -48q50 48 154 48q176 0 176 -118q0 -13 -1 -19zM226 69q62 0 138 55l11 84h-141q-63 0 -70 -57l-2 -18l-1 -12q0 -30 16.5 -41t48.5 -11zM487 363l-9 -65h201l9 65v11q0 56 -92 56q-99 0 -109 -67z" />
    <glyph glyph-name="Oslashacute" unicode="&#x1fe;" horiz-adv-x="597" 
d="M88 149l47 384q19 154 243 154q79 0 131 -22l15 25q11 20 26 20h24q17 0 5 -20l-30 -49q42 -35 42 -89q0 -15 -1 -23l-47 -384q-19 -154 -244 -154q-79 0 -131 21l-14 -23q-14 -21 -27 -21h-24q-5 0 -7 3t-1 8t4 10l28 47q-41 34 -41 89q0 6 2 24zM446 161l44 351
q2 14 2 18q0 10 -1 14l-275 -452q30 -18 91 -18q128 0 139 87zM186 148q0 -10 1 -14l274 452q-30 18 -90 18q-129 0 -140 -87l-43 -351q-2 -14 -2 -18zM524 859l-89 -112q-8 -12 -26 -12h-48q-19 0 -7 18l72 107q13 18 28 18h63q23 0 7 -19z" />
    <glyph glyph-name="oslashacute" unicode="&#x1ff;" horiz-adv-x="520" 
d="M74 129l29 238q17 137 215 137q61 0 106 -16l14 21q13 20 25 20h24q18 0 4 -20l-28 -41q41 -32 41 -83q0 -12 -1 -18l-29 -238q-17 -137 -214 -137q-63 0 -108 16l-13 -19q-14 -20 -27 -20h-22q-8 0 -8 7t4 13l27 40q-40 30 -40 83q0 11 1 17zM380 137l27 215q2 14 2 17
q0 6 -2 16l-207 -306q24 -9 67 -9q105 0 113 67zM169 126q0 -9 1 -13l205 303q-23 10 -64 10q-105 0 -113 -67l-28 -222q-1 -4 -1 -11zM458 689l-89 -112q-8 -12 -26 -12h-48q-20 0 -8 18l73 107q13 18 27 18h64q23 0 7 -19z" />
    <glyph glyph-name="Scommaaccent" unicode="&#x218;" horiz-adv-x="568" 
d="M242 -98l4 29q1 19 21 19h44q18 0 15 -19l-4 -34q-7 -57 -56 -124q-10 -13 -26 -10l-32 8q-18 4 -6 25q21 36 28.5 54.5t11.5 51.5zM467 490l4 32q1 8 1 15q0 70 -112 70q-122 0 -131 -84l-3 -26q-1 -7 -1 -13q0 -20 10.5 -30t32.5 -19l170 -68q98 -39 98 -124
q0 -15 -1 -23l-8 -74q-17 -154 -240 -154q-109 0 -159.5 37.5t-50.5 97.5q0 13 1 23l6 54q3 20 21 20h59q19 0 16 -20l-5 -41q-1 -9 -1 -19q0 -71 119 -71q127 0 138 85l7 51q1 7 1 13q0 23 -19 37t-56 29l-142 57q-94 39 -94 118q0 12 1 21l6 50q6 45 26 77t71.5 54.5
t133.5 22.5q107 0 155 -37t48 -96q0 -13 -1 -21l-5 -44q-1 -19 -21 -19h-59q-19 0 -16 19z" />
    <glyph glyph-name="scommaaccent" unicode="&#x219;" horiz-adv-x="468" 
d="M195 -97l4 29q1 19 21 19h44q18 0 15 -19l-4 -34q-7 -57 -56 -124q-10 -13 -26 -10l-32 8q-18 4 -6 25q21 36 28.5 54.5t11.5 51.5zM376 357l2 17q1 7 1 16q0 45 -88 45q-92 0 -99 -49l-2 -15q-1 -9 -1 -11q0 -31 35 -43l145 -50q38 -13 58 -36.5t20 -51.5q0 -6 -2 -24
l-5 -50q-5 -50 -54 -81.5t-147 -31.5q-88 0 -133.5 30t-45.5 75q0 6 1 16l3 24q3 18 20 18h53q15 0 14 -18l-2 -19q-1 -7 -1 -13q0 -20 25.5 -31.5t69.5 -11.5q103 0 110 51l3 23q1 11 1 17q0 24 -47 41l-138 49q-72 25 -72 94q0 5 1 16l4 34q13 117 191 117q85 0 128 -31.5
t43 -77.5q0 -6 -1 -17l-2 -21q-1 -18 -20 -18h-53q-17 0 -15 18z" />
    <glyph glyph-name="dotlessj" unicode="&#x237;" horiz-adv-x="236" 
d="M223 476l-67 -544q-9 -67 -58 -101.5t-152 -34.5h-11q-20 0 -17 18l5 41q3 19 22 19h7q102 0 110 68l66 534q3 20 21 20h58q19 0 16 -20z" />
    <glyph glyph-name="circumflex" unicode="&#x2c6;" horiz-adv-x="350" 
d="M254 650l-49 -67q-12 -18 -29 -18h-46q-10 0 -12 5.5t4 12.5l88 106q16 19 33 19h35q15 0 27 -19l63 -106q5 -7 1 -12.5t-14 -5.5h-44q-15 0 -24 18z" />
    <glyph glyph-name="caron" unicode="&#x2c7;" horiz-adv-x="350" 
d="M217 689l33 -66l49 66q15 19 29 19h46q10 0 12.5 -5.5t-4.5 -13.5l-89 -106q-16 -18 -32 -18h-34q-16 0 -28 19l-63 105q-4 8 -0.5 13.5t13.5 5.5h45q12 0 23 -19z" />
    <glyph glyph-name="breve" unicode="&#x2d8;" horiz-adv-x="407" 
d="M187 684l-2 -21v-11q0 -43 53 -43q33 0 47 15t17 45l1 15q1 16 19 16h36q16 0 15 -16l-2 -12q-8 -61 -39 -91t-98 -30q-57 0 -88.5 24.5t-31.5 70.5q0 3 2 19l2 19q3 16 19 16h35q18 0 15 -16z" />
    <glyph glyph-name="dotaccent" unicode="&#x2d9;" horiz-adv-x="244" 
d="M253 676l-9 -79q-3 -19 -21 -19h-60q-19 0 -16 19l9 79q1 19 21 19h61q18 0 15 -19z" />
    <glyph glyph-name="ring" unicode="&#x2da;" horiz-adv-x="366" 
d="M361 653l-3 -33q-7 -70 -98 -70q-46 0 -70 16t-24 42q0 14 1 21l3 24q9 71 101 71q42 0 66.5 -16.5t24.5 -41.5q0 -2 -1 -13zM307 630l1 13v10q0 23 -41 23q-42 0 -47 -33l-1 -13v-7q0 -26 41 -26q42 0 47 33z" />
    <glyph glyph-name="ogonek" unicode="&#x2db;" horiz-adv-x="229" 
d="M162 -177h-68q-35 0 -59.5 19.5t-24.5 52.5q0 74 71 134q18 13 27 8l30 -16q18 -10 4 -23q-32 -31 -40.5 -46t-8.5 -34q0 -23 31 -23h47q20 0 18 -18l-5 -35q-3 -19 -22 -19z" />
    <glyph glyph-name="tilde" unicode="&#x2dc;" horiz-adv-x="416" 
d="M215 628q-11 0 -15 -6t-7 -22l-4 -17q-4 -17 -22 -17h-30q-19 0 -14 22l7 32q18 80 87 80q31 0 60 -18l42 -28q22 -15 32 -15q12 0 17 7.5t8 29.5l1 8q3 17 22 17h31q19 0 14 -22l-6 -30q-8 -40 -32 -60.5t-56 -20.5t-61 19l-43 28q-20 13 -31 13z" />
    <glyph glyph-name="hungarumlaut" unicode="&#x2dd;" horiz-adv-x="382" 
d="M411 689l-87 -107q-15 -17 -30 -17h-43q-20 0 -7 18l77 106q13 19 31 19h52q23 0 7 -19zM277 689l-72 -106q-13 -18 -28 -18h-43q-20 0 -10 18l62 106q11 19 29 19h52q22 0 10 -19z" />
    <glyph glyph-name="Delta" unicode="&#x394;" horiz-adv-x="388" 
d="M109 426h170q23 0 23 -23v-170q0 -24 -23 -24h-170q-24 0 -24 24v170q0 23 24 23z" />
    <glyph glyph-name="Omega" unicode="&#x3a9;" horiz-adv-x="388" 
d="M66 317q0 53 37.5 90.5t89.5 37.5q53 0 90.5 -37.5t37.5 -90.5q0 -52 -37.5 -89.5t-90.5 -37.5t-90 37t-37 90zM84 317q0 -46 31.5 -77.5t77.5 -31.5q45 0 77 31.5t32 77.5q0 45 -32 77t-77 32q-46 0 -77.5 -32t-31.5 -77z" />
    <glyph glyph-name="mu" unicode="&#x3bc;" horiz-adv-x="530" 
d="M371 19l2 31q-76 -58 -163 -58q-43 0 -54 25l-19 -202q-1 -19 -20 -19h-59q-19 0 -16 19l82 661q3 20 21 20h57q20 0 17 -20l-40 -326q-2 -22 -2 -24q0 -52 67 -52t136 51l43 351q3 20 21 20h58q19 0 16 -20l-56 -457q-3 -19 -21 -19h-54q-17 0 -16 19z" />
    <glyph glyph-name="pi" unicode="&#x3c0;" horiz-adv-x="388" 
d="M64 440h257q8 0 11.5 -5t3 -12.5t-5.5 -15.5l-120 -194q-6 -10 -16.5 -10t-16.5 10l-120 194q-5 7 -6 14.5t2 13t11 5.5z" />
    <glyph glyph-name="Wgrave" unicode="&#x1e80;" horiz-adv-x="817" 
d="M544 661l53 -416q6 -45 6 -88l3 11q3 11 6.5 23.5t8.5 28t9 25.5l156 416q8 19 25 19h55q19 0 12 -19l-241 -642q-7 -19 -26 -19h-60q-17 0 -20 19l-54 424q-5 40 -5 79q-1 -2 -5 -17t-9.5 -34t-8.5 -29l-160 -423q-7 -19 -25 -19h-60q-18 0 -21 19l-83 642q-3 19 17 19
h62q16 0 19 -19l54 -416q6 -54 6 -78q19 57 27 78l157 416q6 19 25 19h57q17 0 20 -19zM448 747l-62 112q-5 7 -1.5 13t13.5 6h60q16 0 24 -18l46 -107q8 -18 -12 -18h-45q-17 0 -23 12z" />
    <glyph glyph-name="wgrave" unicode="&#x1e81;" horiz-adv-x="681" 
d="M657 496h49q23 0 15 -20l-186 -458q-7 -18 -22 -18h-69q-15 0 -18 18l-38 295q-4 34 -4 49l-18 -49l-121 -295q-7 -18 -22 -18h-68q-9 0 -12 3.5t-5 14.5l-68 458q-3 20 20 20h56q16 0 19 -20l44 -311q4 -30 4 -42q1 7 15 42l125 311q8 20 23 20h59q17 0 19 -20l39 -311
l4 -44q0 1 5.5 17t9.5 27l122 311q8 20 23 20zM357 577l-63 112q-4 7 -0.5 13t13.5 6h60q17 0 24 -18l45 -107q7 -18 -12 -18h-44q-17 0 -23 12z" />
    <glyph glyph-name="Wacute" unicode="&#x1e82;" horiz-adv-x="817" 
d="M544 661l53 -416q6 -45 6 -88l3 11q3 11 6.5 23.5t8.5 28t9 25.5l156 416q8 19 25 19h55q19 0 12 -19l-241 -642q-7 -19 -26 -19h-60q-17 0 -20 19l-54 424q-5 40 -5 79q-1 -2 -5 -17t-9.5 -34t-8.5 -29l-160 -423q-7 -19 -25 -19h-60q-18 0 -21 19l-83 642q-3 19 17 19
h62q16 0 19 -19l54 -416q6 -54 6 -78q19 57 27 78l157 416q6 19 25 19h57q17 0 20 -19zM636 859l-89 -112q-8 -12 -26 -12h-48q-19 0 -7 18l72 107q13 18 28 18h63q23 0 7 -19z" />
    <glyph glyph-name="wacute" unicode="&#x1e83;" horiz-adv-x="681" 
d="M657 496h49q23 0 15 -20l-186 -458q-7 -18 -22 -18h-69q-15 0 -18 18l-38 295q-4 34 -4 49l-18 -49l-121 -295q-7 -18 -22 -18h-68q-9 0 -12 3.5t-5 14.5l-68 458q-3 20 20 20h56q16 0 19 -20l44 -311q4 -30 4 -42q1 7 15 42l125 311q8 20 23 20h59q17 0 19 -20l39 -311
l4 -44q0 1 5.5 17t9.5 27l122 311q8 20 23 20zM545 689l-89 -112q-8 -12 -26 -12h-48q-20 0 -8 18l73 107q13 18 27 18h64q23 0 7 -19z" />
    <glyph glyph-name="Wdieresis" unicode="&#x1e84;" horiz-adv-x="817" 
d="M544 661l53 -416q6 -45 6 -88l3 11q3 11 6.5 23.5t8.5 28t9 25.5l156 416q8 19 25 19h55q19 0 12 -19l-241 -642q-7 -19 -26 -19h-60q-17 0 -20 19l-54 424q-5 40 -5 79q-1 -2 -5 -17t-9.5 -34t-8.5 -29l-160 -423q-7 -19 -25 -19h-60q-18 0 -21 19l-83 642q-3 19 17 19
h62q16 0 19 -19l54 -416q6 -54 6 -78q19 57 27 78l157 416q6 19 25 19h57q17 0 20 -19zM483 853l-12 -95q-3 -19 -20 -19h-35q-19 0 -16 19l11 95q3 20 22 20h34q19 0 16 -20zM604 853l-12 -95q-3 -19 -20 -19h-35q-19 0 -16 19l11 95q3 20 21 20h35q10 0 13.5 -4.5
t2.5 -15.5z" />
    <glyph glyph-name="wdieresis" unicode="&#x1e85;" horiz-adv-x="681" 
d="M657 496h49q23 0 15 -20l-186 -458q-7 -18 -22 -18h-69q-15 0 -18 18l-38 295q-4 34 -4 49l-18 -49l-121 -295q-7 -18 -22 -18h-68q-9 0 -12 3.5t-5 14.5l-68 458q-3 20 20 20h56q16 0 19 -20l44 -311q4 -30 4 -42q1 7 15 42l125 311q8 20 23 20h59q17 0 19 -20l39 -311
l4 -44q0 1 5.5 17t9.5 27l122 311q8 20 23 20zM392 685l-12 -95q-3 -19 -20 -19h-35q-19 0 -16 19l11 95q3 19 22 19h34q19 0 16 -19zM513 685l-12 -95q-3 -19 -21 -19h-34q-19 0 -16 19l11 95q3 19 21 19h35q19 0 16 -19z" />
    <glyph glyph-name="Ygrave" unicode="&#x1ef2;" horiz-adv-x="529" 
d="M204 661l93 -264q4 -13 10 -45q12 31 21 45l164 264q12 19 25 19h63q23 0 11 -19l-244 -391l-31 -251q-3 -19 -20 -19h-61q-20 0 -17 19l29 240l-148 402q-8 19 16 19h68q16 0 21 -19zM306 747l-62 112q-5 7 -1.5 13t13.5 6h60q16 0 24 -18l46 -107q8 -18 -12 -18h-45
q-17 0 -23 12z" />
    <glyph glyph-name="ygrave" unicode="&#x1ef3;" horiz-adv-x="450" 
d="M170 476l61 -289q8 -45 8 -69q7 27 26 67l134 291q9 20 24 20h54q25 0 16 -20l-307 -661q-10 -19 -23 -19h-45q-24 0 -15 19l78 177l-108 484q-2 9 4 14.5t16 5.5h58q14 0 19 -20zM238 577l-63 112q-9 19 13 19h60q17 0 24 -18l45 -107q7 -18 -12 -18h-44q-17 0 -23 12z
" />
    <glyph glyph-name="endash" unicode="&#x2013;" horiz-adv-x="541" 
d="M121 328h361q19 0 19 -18v-42q0 -18 -19 -18h-361q-19 0 -19 18v42q0 18 19 18z" />
    <glyph glyph-name="emdash" unicode="&#x2014;" horiz-adv-x="850" 
d="M121 328h671q19 0 19 -18v-42q0 -18 -19 -18h-671q-19 0 -19 18v42q0 18 19 18z" />
    <glyph glyph-name="quoteleft" unicode="&#x2018;" horiz-adv-x="258" 
d="M242 601l-8 -64q-3 -19 -21 -19h-60q-19 0 -16 19l9 69q13 103 135 133q18 4 22 -12l10 -41q4 -17 -16 -24q-28 -11 -40 -25t-15 -36z" />
    <glyph glyph-name="quoteright" unicode="&#x2019;" horiz-adv-x="258" 
d="M176 656l8 64q3 19 21 19h60q19 0 16 -19l-9 -69q-13 -103 -135 -133q-18 -4 -22 12l-10 41q-4 17 16 24q28 11 40 25t15 36z" />
    <glyph glyph-name="quotesinglbase" unicode="&#x201a;" horiz-adv-x="258" 
d="M96 35l8 64q3 19 21 19h60q19 0 16 -19l-9 -69q-13 -103 -135 -133q-18 -4 -22 12l-10 41q-4 17 16 24q28 11 40 25t15 36z" />
    <glyph glyph-name="quotedblleft" unicode="&#x201c;" horiz-adv-x="441" 
d="M425 601l-8 -64q-3 -19 -21 -19h-60q-19 0 -16 19l9 69q13 103 135 133q18 4 22 -12l10 -41q4 -17 -16 -24q-28 -11 -40 -25t-15 -36zM242 601l-8 -64q-3 -19 -21 -19h-60q-19 0 -16 19l9 69q13 103 135 133q18 4 22 -12l10 -41q4 -17 -16 -24q-28 -11 -40 -25t-15 -36z
" />
    <glyph glyph-name="quotedblright" unicode="&#x201d;" horiz-adv-x="441" 
d="M359 656l8 64q3 19 21 19h60q19 0 16 -19l-9 -69q-13 -103 -135 -133q-18 -4 -22 12l-10 41q-4 17 16 24q28 11 40 25t15 36zM176 656l8 64q3 19 21 19h60q19 0 16 -19l-9 -69q-13 -103 -135 -133q-18 -4 -22 12l-10 41q-4 17 16 24q28 11 40 25t15 36z" />
    <glyph glyph-name="quotedblbase" unicode="&#x201e;" horiz-adv-x="441" 
d="M279 35l8 64q3 19 21 19h60q19 0 16 -19l-9 -69q-13 -103 -135 -133q-18 -4 -22 12l-10 41q-4 17 16 24q28 11 40 25t15 36zM96 35l8 64q3 19 21 19h60q19 0 16 -19l-9 -69q-13 -103 -135 -133q-18 -4 -22 12l-10 41q-4 17 16 24q28 11 40 25t15 36z" />
    <glyph glyph-name="dagger" unicode="&#x2020;" horiz-adv-x="621" 
d="M441 679l-81 -659q-3 -20 -21 -20h-58q-19 0 -16 20l80 659q3 20 22 20h58q19 0 16 -20zM162 507h119q18 0 17 -18l-4 -43q-1 -19 -21 -19h-120q-20 0 -17 19l5 43q3 18 21 18zM462 507h120q20 0 17 -18l-5 -43q-3 -19 -21 -19h-119q-10 0 -14 4t-3 15l4 43q1 18 21 18z
" />
    <glyph glyph-name="daggerdbl" unicode="&#x2021;" horiz-adv-x="621" 
d="M441 679l-81 -659q-3 -20 -21 -20h-58q-19 0 -16 20l80 659q3 20 22 20h58q19 0 16 -20zM141 489q1 18 21 18h119q18 0 17 -18l-4 -43q-1 -19 -21 -19h-120q-20 0 -17 19zM599 489l-5 -43q-3 -19 -21 -19h-119q-10 0 -14 4t-3 15l4 43q1 18 21 18h120q20 0 17 -18z
M111 252q3 19 22 19h119q20 0 17 -19l-5 -42q-3 -20 -21 -20h-119q-18 0 -17 20zM570 252l-5 -42q-3 -20 -21 -20h-120q-20 0 -17 20l5 42q3 19 21 19h120q20 0 17 -19z" />
    <glyph glyph-name="bullet" unicode="&#x2022;" horiz-adv-x="260" 
d="M220 335l-17 -137q-3 -19 -21 -19h-60q-19 0 -16 19l17 137q3 19 21 19h60q17 0 16 -19z" />
    <glyph glyph-name="ellipsis" unicode="&#x2026;" horiz-adv-x="728" 
d="M176 99l-10 -80q-3 -19 -20 -19h-60q-19 0 -16 19l9 80q1 19 21 19h61q18 0 15 -19zM671 99l-10 -80q-3 -19 -20 -19h-60q-19 0 -16 19l9 80q1 19 21 19h61q18 0 15 -19zM424 99l-10 -80q-3 -19 -20 -19h-60q-19 0 -16 19l9 80q1 19 21 19h61q18 0 15 -19z" />
    <glyph glyph-name="perthousand" unicode="&#x2030;" horiz-adv-x="1157" 
d="M462 96l12 101q6 50 41.5 76.5t112.5 26.5q67 0 101 -23t34 -63q0 -13 -1 -20l-13 -101q-6 -50 -41.5 -76t-111.5 -26q-136 0 -136 87q0 6 2 18zM671 97l10 87q2 14 2 17q0 34 -61 34q-64 0 -69 -40l-11 -88q0 -4 -0.5 -7.5t-1 -6t-0.5 -3.5q0 -35 62 -35q64 0 69 42z
M344 484l10 87q2 14 2 17q0 34 -61 34q-64 0 -69 -40l-11 -88q0 -4 -0.5 -7.5t-1 -6t-0.5 -3.5q0 -35 62 -35q65 0 69 42zM135 483l12 101q6 50 41.5 76.5t112.5 26.5q67 0 101 -23t34 -63q0 -13 -1 -20l-13 -101q-6 -50 -41.5 -76t-111.5 -26q-136 0 -136 87q0 6 2 18z
M1013 97l10 87q2 14 2 17q0 34 -61 34q-64 0 -69 -40l-11 -88q0 -4 -0.5 -7.5t-1 -6t-0.5 -3.5q0 -35 62 -35q65 0 69 42zM804 96l12 101q6 50 41.5 76.5t112.5 26.5q67 0 101 -23t34 -63q0 -13 -1 -20l-13 -101q-6 -50 -41.5 -76t-111.5 -26q-136 0 -136 87q0 6 2 18z
M688 660l-389 -640q-11 -20 -29 -20h-54q-6 0 -8.5 3.5t-2 8t3.5 8.5l388 640q13 20 30 20h54q9 0 10.5 -6t-3.5 -14z" />
    <glyph glyph-name="guilsinglleft" unicode="&#x2039;" horiz-adv-x="388" 
d="M169 244l115 -92q18 -15 16 -29l-8 -58q-1 -10 -7.5 -13.5t-12.5 2.5l-167 137q-15 11 -14 25l7 59q2 14 20 26l201 136q7 5 13 2t5 -13l-8 -62q-3 -17 -22 -29z" />
    <glyph glyph-name="guilsinglright" unicode="&#x203a;" horiz-adv-x="388" 
d="M259 247l-115 92q-18 15 -16 29l8 58q1 10 7.5 13.5t12.5 -2.5l167 -137q15 -11 14 -25l-7 -59q-2 -14 -20 -26l-201 -136q-7 -5 -13 -2t-5 13l8 62q3 17 22 29z" />
    <glyph glyph-name="fraction" unicode="&#x2044;" horiz-adv-x="444" 
d="M504 660l-389 -640q-11 -20 -29 -20h-54q-6 0 -8.5 3.5t-2 8t3.5 8.5l388 640q13 20 30 20h54q9 0 10.5 -6t-3.5 -14z" />
    <glyph glyph-name="Euro" unicode="&#x20ac;" horiz-adv-x="600" 
d="M113 306h53l8 67h-53q-20 0 -17 19l3 25q1 18 21 18h53l13 99q19 154 237 154q108 0 157 -36.5t49 -96.5q0 -7 -2 -25l-5 -45q-3 -20 -20 -20h-59q-19 0 -16 20l4 29q1 6 1 19q0 72 -115 72q-124 0 -135 -87l-11 -83h118q19 0 18 -18l-3 -25q-3 -19 -22 -19h-118l-8 -67
h118q18 0 17 -18l-3 -25q-3 -19 -22 -19h-118l-9 -77q-1 -7 -1 -19q0 -73 114 -73q126 0 136 87l5 47q1 19 21 19h58q18 0 16 -19l-7 -63q-17 -154 -238 -154q-108 0 -157 37t-49 96q0 7 2 25l11 94h-53q-18 0 -17 19l3 25q3 18 22 18z" />
    <glyph glyph-name="afii61289" unicode="&#x2113;" horiz-adv-x="544" 
d="M144 131l9 75q-17 -8 -33.5 -15t-28 -11.5t-12.5 -4.5q-18 -7 -23 9l-14 44q-6 18 12 25q80 32 110 47l29 231q8 68 54.5 110.5t136.5 42.5q85 0 123 -36.5t38 -93.5q0 -17 -1 -26q-5 -46 -31.5 -87.5t-71 -76t-87 -59t-100.5 -52.5l-11 -91q-2 -16 -2 -20q0 -64 90 -64
h104q20 0 17 -18l-5 -41q-3 -19 -21 -19h-105q-177 0 -177 121v10zM287 519l-22 -172q176 93 188 178q1 5 1 18q0 63 -75 63q-44 0 -65 -22t-27 -65z" />
    <glyph glyph-name="trademark" unicode="&#x2122;" horiz-adv-x="905" 
d="M882 664l-47 -376q-1 -16 -17 -16h-47q-15 0 -14 16l30 242q-9 -21 -13 -28l-88 -153q-8 -15 -23 -15h-34q-15 0 -20 15l-53 155q-3 10 -5 29l-31 -245q-1 -16 -16 -16h-45q-15 0 -14 16l46 376q1 16 18 16h44q10 0 13 -9l81 -219l9 -30q6 14 15 29l133 221q5 8 16 8h48
q15 0 14 -16zM158 680h272q16 0 15 -15l-5 -37q-1 -15 -18 -15h-96l-39 -325q-1 -16 -17 -16h-51q-15 0 -14 16l40 325h-95q-9 0 -12.5 3t-2.5 12l5 37q1 15 18 15z" />
    <glyph glyph-name="uni2126" unicode="&#x2126;" horiz-adv-x="388" 
d="M66 317q0 53 37.5 90.5t89.5 37.5q53 0 90.5 -37.5t37.5 -90.5q0 -52 -37.5 -89.5t-90.5 -37.5t-90 37t-37 90zM84 317q0 -46 31.5 -77.5t77.5 -31.5q45 0 77 31.5t32 77.5q0 45 -32 77t-77 32q-46 0 -77.5 -32t-31.5 -77z" />
    <glyph glyph-name="estimated" unicode="&#x212e;" horiz-adv-x="833" 
d="M799 340q0 -16 -18 -16h-559v-199q91 -104 230 -104q140 0 242 111q5 5 11 5q12 0 12 -14q0 -7 -7 -16q-46 -53 -114 -84t-144 -31q-146 0 -247 99.5t-101 248.5q0 144 102 246t246 102q143 0 245 -102t102 -246zM452 659q-138 0 -230 -105v-204h460v202
q-42 49 -102.5 78t-127.5 29z" />
    <glyph glyph-name="partialdiff" unicode="&#x2202;" horiz-adv-x="388" 
d="M86 191v257q0 12 11 14t22 -5l195 -121q9 -6 9 -16t-9 -16l-195 -120q-11 -7 -22 -6t-11 13z" />
    <glyph glyph-name="uni2206" unicode="&#x2206;" horiz-adv-x="388" 
d="M109 426h170q23 0 23 -23v-170q0 -24 -23 -24h-170q-24 0 -24 24v170q0 23 24 23z" />
    <glyph glyph-name="product" unicode="&#x220f;" horiz-adv-x="388" 
d="M323 200h-257q-8 0 -11.5 5t-2.5 12.5t6 15.5l120 194q6 10 16 10t16 -10l120 -194q5 -7 6 -14.5t-2 -13t-11 -5.5z" />
    <glyph glyph-name="summation" unicode="&#x2211;" horiz-adv-x="388" 
d="M301 448v-257q0 -12 -11.5 -13t-21.5 6l-194 120q-10 6 -10 16t10 16l194 121q7 5 14.5 6t13 -3t5.5 -12z" />
    <glyph glyph-name="minus" unicode="&#x2212;" horiz-adv-x="585" 
d="M127 371h405q19 0 19 -19v-42q0 -20 -19 -20h-405q-19 0 -19 20v42q0 19 19 19z" />
    <glyph glyph-name="radical" unicode="&#x221a;" horiz-adv-x="388" 
d="M109 435h170q17 0 24.5 -7.5t7.5 -24.5v-170q0 -18 -7.5 -25.5t-24.5 -7.5h-170q-18 0 -25.5 7.5t-7.5 25.5v170q0 17 7.5 24.5t25.5 7.5zM279 416h-170q-15 0 -15 -13v-170q0 -15 15 -15h170q14 0 14 15v170q0 13 -14 13z" />
    <glyph glyph-name="infinity" unicode="&#x221e;" horiz-adv-x="388" 
d="M50 340l121 121q12 12 23 12q12 0 23 -12l120 -121q12 -12 12 -22q0 -11 -12 -23l-120 -121q-11 -12 -23 -12q-11 0 -23 12l-121 121q-12 12 -12 23q0 10 12 22zM184 448l-120 -121q-5 -5 -5 -10t4 -9l121 -121q5 -5 10 -5q4 0 9 5l121 121q5 5 5 9q0 5 -5 10l-121 121
q-4 4 -9 4q-6 0 -10 -4z" />
    <glyph glyph-name="integral" unicode="&#x222b;" horiz-adv-x="388" 
d="M26 317q0 69 49 118.5t118 49.5t118.5 -49.5t49.5 -118.5t-49.5 -118t-118.5 -49q-70 0 -118.5 48.5t-48.5 118.5z" />
    <glyph glyph-name="approxequal" unicode="&#x2248;" horiz-adv-x="494" 
d="M188 384q-13 0 -16.5 -7t-5.5 -28l-1 -9q-1 -17 -21 -17h-30q-18 0 -16 22l3 36q4 44 26.5 65.5t51.5 21.5q24 0 48 -11l90 -42q30 -14 43 -14q4 0 7 0.5t5 2.5t3 3.5t2 5.5t1.5 6.5t1 9t1.5 10.5l1 7q2 17 20 17h31q17 0 16 -22l-3 -36q-5 -46 -26.5 -67t-48.5 -21
q-30 0 -56 13l-92 43q-20 11 -35 11zM188 212q-13 0 -16.5 -7t-5.5 -28l-1 -9q-1 -17 -21 -17h-30q-18 0 -16 22l3 36q4 44 26.5 65.5t51.5 21.5q24 0 48 -11l90 -42q30 -14 43 -14q4 0 7 0.5t5 2.5t3 3.5t2 5.5t1.5 6.5t1 9t1.5 10.5l1 7q2 17 20 17h31q17 0 16 -22l-3 -36
q-5 -46 -26.5 -67t-48.5 -21q-30 0 -56 13l-92 43q-20 11 -35 11z" />
    <glyph glyph-name="notequal" unicode="&#x2260;" horiz-adv-x="585" 
d="M114 462h208l24 63q8 20 24 20h55q19 0 13 -20l-24 -63h105q19 0 19 -18v-43q0 -19 -19 -19h-135l-42 -110h177q19 0 19 -18v-43q0 -19 -19 -19h-207l-24 -63q-7 -19 -25 -19h-55q-18 0 -12 19l24 63h-106q-19 0 -19 19v43q0 18 19 18h136l42 110h-178q-19 0 -19 19v43
q0 18 19 18z" />
    <glyph glyph-name="lessequal" unicode="&#x2264;" horiz-adv-x="532" 
d="M455 509l-278 -95l278 -95q19 -6 19 -21v-57q0 -24 -19 -17l-354 137q-17 7 -17 20v65q0 14 17 21l354 137q19 7 19 -17v-57q0 -15 -19 -21zM103 172h352q19 0 19 -18v-41q0 -19 -19 -19h-352q-19 0 -19 19v41q0 18 19 18z" />
    <glyph glyph-name="greaterequal" unicode="&#x2265;" horiz-adv-x="532" 
d="M380 414l-278 94q-19 6 -19 22v58q0 25 19 18l354 -136q17 -7 17 -22v-67q0 -14 -17 -21l-354 -137q-19 -7 -19 18v58q0 16 19 22zM102 173h352q19 0 19 -19v-43q0 -19 -19 -19h-352q-19 0 -19 19v43q0 19 19 19z" />
    <glyph glyph-name="lozenge" unicode="&#x25ca;" horiz-adv-x="388" 
d="M57 334l121 121q8 8 16 8q6 0 16 -8l121 -121q8 -10 8 -16q0 -8 -8 -16l-121 -121q-9 -9 -16 -9q-8 0 -16 9l-121 121q-9 8 -9 16q0 7 9 16z" />
    <glyph glyph-name="CR" horiz-adv-x="0" 
 />
    <glyph glyph-name="commaaccent" horiz-adv-x="213" 
d="M82 69l4 29q1 19 21 19h44q18 0 15 -19l-4 -34q-7 -57 -56 -124q-10 -13 -26 -10l-32 8q-18 4 -6 25q21 36 28.5 54.5t11.5 51.5z" />
    <glyph glyph-name="acute.case" horiz-adv-x="212" 
d="M190 859l-89 -112q-8 -12 -26 -12h-48q-19 0 -7 18l72 107q13 18 28 18h63q23 0 7 -19z" />
    <glyph glyph-name="macron.case" horiz-adv-x="212" 
d="M-11 836h242q18 0 17 -17l-3 -37q-1 -19 -22 -19h-242q-18 0 -17 19l3 36q1 18 22 18z" />
    <glyph glyph-name="breve.case" horiz-adv-x="212" 
d="M48 871l-2 -18q-1 -7 -1 -13q0 -44 53 -44q34 0 47 15t17 46l2 14q2 16 19 16h35q18 0 15 -16l-2 -12q-11 -62 -40.5 -91.5t-96.5 -29.5q-57 0 -88 24.5t-31 70.5q0 11 1 20l2 18q1 16 19 16h36q9 0 12.5 -3t2.5 -13z" />
    <glyph glyph-name="caron.case" horiz-adv-x="212" 
d="M62 859l33 -66l49 66q13 19 29 19h46q10 0 12.5 -5.5t-4.5 -13.5l-88 -106q-15 -18 -32 -18h-35q-16 0 -28 19l-63 105q-5 7 -1 13t14 6h45q12 0 23 -19z" />
    <glyph glyph-name="ring.case" horiz-adv-x="212" 
d="M203 820l-3 -33q-7 -70 -98 -70q-46 0 -70 16t-24 42q0 14 1 21l3 24q9 71 101 71q42 0 66.5 -16.5t24.5 -41.5q0 -2 -1 -13zM149 797l1 13v10q0 23 -41 23q-42 0 -47 -33l-1 -13v-7q0 -26 41 -26q42 0 47 33z" />
    <glyph glyph-name="circumflex.case" horiz-adv-x="212" 
d="M115 820l-49 -67q-12 -18 -28 -18h-46q-10 0 -12.5 5.5t4.5 12.5l88 106q16 19 32 19h35q15 0 27 -19l63 -106q5 -7 1.5 -12.5t-13.5 -5.5h-44q-16 0 -25 18z" />
    <glyph glyph-name="tilde.case" horiz-adv-x="212" 
d="M38 805q-11 0 -15 -6t-7 -22l-4 -17q-4 -17 -22 -17h-30q-19 0 -14 22l7 32q18 80 87 80q32 0 60 -18l42 -28q22 -15 32 -15q12 0 17 7.5t8 29.5l1 8q3 17 22 17h31q19 0 14 -22l-6 -30q-8 -40 -32 -60.5t-56 -20.5t-61 19l-43 28q-19 13 -31 13z" />
    <glyph glyph-name="dieresis.case" horiz-adv-x="212" 
d="M87 853l-12 -95q-3 -19 -20 -19h-35q-19 0 -16 19l11 95q3 20 22 20h34q19 0 16 -20zM208 853l-12 -95q-3 -19 -20 -19h-35q-19 0 -16 19l11 95q3 20 21 20h35q10 0 13.5 -4.5t2.5 -15.5z" />
    <glyph glyph-name="dotaccent.case" horiz-adv-x="212" 
d="M159 839l-9 -80q-3 -18 -20 -18h-60q-20 0 -17 18l10 80q2 19 20 19h61q18 0 15 -19z" />
    <glyph glyph-name="grave.case" horiz-adv-x="212" 
d="M98 747l-62 112q-5 7 -1.5 13t13.5 6h60q16 0 24 -18l46 -107q8 -18 -12 -18h-45q-17 0 -23 12z" />
    <glyph glyph-name="hungarumlaut.case" horiz-adv-x="212" 
d="M248 859l-86 -107q-15 -17 -30 -17h-44q-20 0 -7 18l77 106q13 19 31 19h52q23 0 7 -19zM114 859l-72 -106q-13 -18 -28 -18h-43q-20 0 -10 18l62 106q11 19 29 19h51q23 0 11 -19z" />
    <glyph glyph-name="apple" horiz-adv-x="1482" 
d="M715 320q17 0 28.5 -13.5t11.5 -37.5q0 -68 -87 -68v-40l3 -32q-24 -8 -32 -8q-11 0 -11 8v75l-25 -3v-3q0 -79 -68 -79q-21 0 -31 10.5t-10 23.5q0 36 70 53v42q-17 -48 -46 -48q-28 0 -28 31v3q-19 -33 -53 -33q-29 0 -29 30v101l-29 -2v4q0 20 12 20h17l-3 30
q24 8 32 8q11 0 11 -8v-29h47v-3q0 -21 -12 -21h-35v-86q0 -16 13 -16q9 0 19 8t10 18v25l-3 33q24 8 32 8q11 0 11 -9v-66q0 -15 7 -15q8 0 17.5 17.5t8.5 30.5l-2 34q24 8 31 8q11 0 11 -9v-99l25 3v61l-3 36q24 8 32 8q11 0 11 -9v-40q17 48 47 48zM384 289v-49l3 -32
q-24 -8 -31 -8q-11 0 -11 8v66q0 16 -8 16q-6 0 -16 -17.5t-10 -30.5l2 -34q-24 -8 -31 -8q-11 0 -11 8v66q0 16 -8 16q-7 0 -16.5 -17.5t-9.5 -30.5l3 -34q-24 -8 -32 -8q-11 0 -11 8v69l-3 36q24 8 32 8q11 0 11 -9v-40q3 9 7.5 19t15 20t22.5 10q29 0 29 -32v-17
q14 49 45 49q28 0 28 -32zM1217 332l-29 -2v4q0 20 12 20h17l-3 30q24 8 32 8q11 0 11 -8v-29h47v-3q0 -21 -12 -21h-35v-90q0 -15 16 -15q11 0 38.5 5.5t46.5 5.5q17 0 39.5 -6t22.5 -18q0 -14 -9.5 -21t-17.5 -7q-2 0 -26.5 12t-44.5 12q-7 0 -32 -4t-44 -4t-23 12.5
t-5 65.5q0 32 -1 53zM73 529v8h1338v-8h-1338zM73 0v8h1338v-8h-1338zM1075 289v-49l2 -32q-24 -8 -31 -8q-11 0 -11 8v67q0 15 -8 15q-7 0 -16.5 -17.5t-9.5 -30.5l3 -34q-24 -8 -32 -8q-11 0 -11 8v69l-3 36q24 8 32 8q11 0 11 -9v-40q17 49 45 49q29 0 29 -32zM154 258
q-16 -6 -44 -6q2 -22 26 -22q17 0 32 9q8 -5 8 -16q0 -4 -2.5 -8.5t-14 -9.5t-30.5 -5q-28 0 -44 14.5t-16 38.5q0 27 18.5 47.5t50.5 20.5q19 0 30 -9.5t11 -21.5q0 -24 -25 -32zM853 258q-16 -6 -44 -6q2 -22 26 -22q17 0 32 9q8 -5 8 -16q0 -4 -2.5 -8.5t-14 -9.5
t-30.5 -5q-28 0 -44 14.5t-16 38.5q0 27 18.5 47.5t50.5 20.5q19 0 30 -9.5t11 -21.5q0 -24 -25 -32zM1176 258q-16 -6 -44 -6q2 -22 26 -22q17 0 32 9q8 -5 8 -16q0 -4 -2.5 -8.5t-14 -9.5t-30.5 -5q-28 0 -44 14.5t-16 38.5q0 27 18.5 47.5t50.5 20.5q19 0 30 -9.5
t11 -21.5q0 -24 -25 -32zM668 219q45 6 45 51q0 20 -13 20t-22.5 -18.5t-9.5 -29.5v-23zM918 250q11 0 18.5 -7t7.5 -17t-7.5 -16.5t-18.5 -6.5t-18 6.5t-7 16.5t7 17t18 7zM563 194q-41 -9 -41 -32q0 -14 14 -14q25 0 27 46zM109 264q37 0 37 21q0 13 -13 13q-20 0 -24 -34
zM1131 264q37 0 37 21q0 13 -13 13q-20 0 -24 -34zM808 264q37 0 37 21q0 13 -13 13q-20 0 -24 -34z" />
    </font>
</defs>
</svg>
