<?xml version="1.0" encoding="utf-8"?>
<!-- Generator: Adobe Illustrator 16.0.0, SVG Export Plug-In . SVG Version: 6.00 Build 0)  -->
<!DOCTYPE svg PUBLIC "-//W3C//DTD SVG 1.1//EN" "http://www.w3.org/Graphics/SVG/1.1/DTD/svg11.dtd">
<svg version="1.1" id="Capa_1" xmlns="http://www.w3.org/2000/svg" xmlns:xlink="http://www.w3.org/1999/xlink" x="0px" y="0px"
	 width="512px" height="402.311px" viewBox="0 54.844 512 402.311" enable-background="new 0 54.844 512 402.311"
	 xml:space="preserve">
<g>
	<g>
		<path fill="#FFFFFF" d="M302.147,327.845c30.949-13.048,55.381-30.808,73.284-53.287c17.9-22.475,26.853-46.949,26.853-73.426
			c0-26.478-8.952-50.954-26.86-73.43c-17.9-22.475-42.328-40.237-73.281-53.288c-30.953-13.049-64.618-19.57-101.001-19.57
			c-36.381,0-70.046,6.525-101.001,19.57c-30.952,13.049-55.38,30.811-73.283,53.288C8.954,150.182,0,174.655,0,201.133
			c0,22.665,6.772,44.007,20.295,64.007c13.522,19.995,32.094,36.856,55.711,50.567c-1.903,4.576-3.855,8.761-5.856,12.576
			c-2.001,3.809-4.38,7.473-7.145,10.998c-2.762,3.528-4.902,6.288-6.428,8.281c-1.524,2-4,4.816-7.43,8.429
			c-3.43,3.62-5.621,6-6.572,7.14c0-0.191-0.381,0.24-1.144,1.288c-0.763,1.048-1.192,1.521-1.286,1.433
			c-0.096-0.104-0.478,0.373-1.144,1.421c-0.667,1.049-1,1.571-1,1.571l-0.716,1.425c-0.282,0.575-0.476,1.138-0.57,1.714
			c-0.096,0.566-0.144,1.19-0.144,1.854c0,0.665,0.094,1.281,0.288,1.855c0.381,2.473,1.476,4.47,3.286,6.001
			c1.808,1.521,3.759,2.28,5.856,2.28h0.858c9.522-1.333,17.714-2.856,24.57-4.572c29.333-7.616,55.812-19.812,79.43-36.571
			c17.141,3.048,33.904,4.57,50.284,4.57C237.526,347.414,271.196,340.895,302.147,327.845z"/>
		<path fill="#FFFFFF" d="M491.713,338.413C505.241,318.51,512,297.137,512,274.276c0-23.431-7.151-45.349-21.432-65.728
			c-14.287-20.377-33.719-37.333-58.287-50.856c4.377,14.284,6.567,28.76,6.567,43.43c0,25.521-6.373,49.712-19.143,72.571
			c-12.762,22.854-31.048,43.042-54.856,60.568c-22.097,16-47.239,28.282-75.432,36.856c-28.186,8.568-57.616,12.857-88.283,12.857
			c-5.712,0-14.094-0.378-25.14-1.138c38.284,25.137,83.238,37.712,134.854,37.712c16.384,0,33.144-1.526,50.288-4.574
			c23.617,16.768,50.097,28.952,79.428,36.576c6.857,1.719,15.049,3.239,24.572,4.571c2.285,0.191,4.384-0.477,6.288-2.001
			c1.904-1.522,3.144-3.612,3.712-6.276c-0.089-1.144,0-1.771,0.287-1.862c0.281-0.09,0.233-0.713-0.144-1.854
			c-0.376-1.145-0.568-1.716-0.568-1.716l-0.713-1.425c-0.198-0.377-0.521-0.904-1-1.568c-0.476-0.661-0.855-1.144-1.144-1.429
			c-0.28-0.284-0.705-0.763-1.281-1.425c-0.568-0.66-0.951-1.093-1.144-1.284c-0.951-1.144-3.142-3.523-6.568-7.144
			c-3.432-3.616-5.903-6.425-7.428-8.425s-3.668-4.76-6.429-8.288c-2.76-3.521-5.144-7.188-7.145-10.999
			c-1.999-3.809-3.951-8-5.855-12.568C459.625,375.133,478.192,358.324,491.713,338.413z"/>
	</g>
</g>
</svg>
