<?xml version="1.0" encoding="utf-8"?>
<!-- Generator: Adobe Illustrator 16.0.0, SVG Export Plug-In . SVG Version: 6.00 Build 0)  -->
<!DOCTYPE svg PUBLIC "-//W3C//DTD SVG 1.1//EN" "http://www.w3.org/Graphics/SVG/1.1/DTD/svg11.dtd">
<svg version="1.1" id="Capa_1" xmlns="http://www.w3.org/2000/svg" xmlns:xlink="http://www.w3.org/1999/xlink" x="0px" y="0px"
	 width="512px" height="402.287px" viewBox="0 54.856 512 402.287" enable-background="new 0 54.856 512 402.287"
	 xml:space="preserve">
<g>
	<g>
		<path fill="#FFFFFF" d="M466.282,457.144c11.509,0,21.481-3.8,29.959-11.304L351.184,300.777c-3.48,2.492-6.854,4.915-10.04,7.219
			c-10.855,7.998-19.666,14.24-26.432,18.712c-6.765,4.482-15.765,9.051-26.999,13.716c-11.242,4.67-21.716,6.998-31.432,6.998
			h-0.285h-0.284c-9.717,0-20.19-2.327-31.432-6.998c-11.241-4.665-20.241-9.233-26.999-13.716
			c-6.765-4.472-15.57-10.712-26.431-18.712c-3.027-2.219-6.383-4.652-10.013-7.258L15.752,445.84
			c8.477,7.504,18.456,11.304,29.963,11.304H466.282z"/>
		<path fill="#FFFFFF" d="M28.86,209.43C18.006,202.193,8.38,193.905,0,184.57v220.702l127.854-127.854
			C102.275,259.562,69.319,236.925,28.86,209.43z"/>
		<path fill="#FFFFFF" d="M483.429,209.43c-38.916,26.34-71.992,49.016-99.23,68.04L512,405.277V184.57
			C503.806,193.718,494.283,202,483.429,209.43z"/>
		<path fill="#FFFFFF" d="M466.282,54.856H45.717c-14.672,0-25.952,4.955-33.854,14.854C3.954,79.614,0.005,91.999,0.005,106.853
			c0,11.998,5.239,24.998,15.712,39.004c10.474,14,21.618,24.997,33.428,32.996c6.475,4.575,25.999,18.148,58.574,40.716
			c17.585,12.186,32.877,22.807,46.019,31.973c11.201,7.805,20.861,14.563,28.837,20.172c0.916,0.643,2.355,1.672,4.267,3.039
			c2.059,1.479,4.665,3.355,7.879,5.677c6.19,4.477,11.333,8.095,15.428,10.86c4.09,2.766,9.045,5.854,14.859,9.284
			c5.809,3.425,11.288,6.001,16.43,7.714c5.143,1.713,9.904,2.572,14.285,2.572h0.284h0.285c4.378,0,9.141-0.859,14.286-2.572
			c5.142-1.713,10.616-4.283,16.429-7.714c5.809-3.431,10.758-6.525,14.86-9.284c4.096-2.766,9.238-6.383,15.429-10.86
			c3.208-2.321,5.813-4.199,7.873-5.673c1.912-1.371,3.351-2.395,4.271-3.043c6.214-4.323,15.896-11.055,28.914-20.093
			c23.687-16.458,58.571-40.682,104.801-72.768c13.903-9.711,25.52-21.43,34.854-35.14c9.319-13.71,13.991-28.092,13.991-43.14
			c0-12.572-4.529-23.33-13.569-32.29C489.38,59.333,478.663,54.856,466.282,54.856z"/>
	</g>
</g>
</svg>
