<?xml version="1.0" encoding="utf-8"?>
<!-- Generator: Adobe Illustrator 16.0.0, SVG Export Plug-In . SVG Version: 6.00 Build 0)  -->
<!DOCTYPE svg PUBLIC "-//W3C//DTD SVG 1.1//EN" "http://www.w3.org/Graphics/SVG/1.1/DTD/svg11.dtd">
<svg version="1.1" id="Capa_1" xmlns="http://www.w3.org/2000/svg" xmlns:xlink="http://www.w3.org/1999/xlink" x="0px" y="0px"
	 width="512.001px" height="443.737px" viewBox="0 34.132 512.001 443.737" enable-background="new 0 34.132 512.001 443.737"
	 xml:space="preserve">
<g>
	<path fill="#FFFFFF" d="M499.464,46.668c-8.354-8.354-18.395-12.536-30.133-12.536H42.667c-11.733,0-21.774,4.182-30.135,12.536
		C4.176,55.025,0,65.066,0,76.8v290.135c0,11.736,4.176,21.776,12.532,30.136c8.36,8.355,18.402,12.529,30.135,12.529h145.069
		c0,6.754-1.423,13.693-4.269,20.8c-2.843,7.111-5.688,13.331-8.533,18.662c-2.841,5.338-4.264,9.244-4.264,11.731
		c0,4.621,1.688,8.63,5.066,11.999c3.376,3.382,7.377,5.076,12,5.076h136.533c4.623,0,8.624-1.693,12.001-5.076
		c3.381-3.368,5.068-7.377,5.068-11.999c0-2.306-1.425-6.175-4.27-11.596c-2.845-5.419-5.689-11.737-8.531-18.93
		c-2.845-7.201-4.268-14.09-4.268-20.668h145.069c11.731,0,21.771-4.174,30.126-12.529c8.358-8.358,12.536-18.397,12.536-30.136
		V76.8C512.004,65.066,507.822,55.025,499.464,46.668z M477.866,298.668c0,2.312-0.843,4.309-2.532,6
		c-1.69,1.685-3.69,2.528-6.003,2.528H42.667c-2.31,0-4.311-0.844-5.999-2.528c-1.688-1.697-2.533-3.688-2.533-6V76.8
		c0-2.312,0.843-4.311,2.533-6c1.689-1.686,3.69-2.533,5.999-2.533h426.671c2.308,0,4.313,0.844,5.996,2.533
		c1.689,1.69,2.532,3.688,2.532,6V298.668L477.866,298.668z"/>
</g>
</svg>
