<?xml version="1.0" encoding="utf-8"?>
<!-- Generator: Adobe Illustrator 16.0.0, SVG Export Plug-In . SVG Version: 6.00 Build 0)  -->
<!DOCTYPE svg PUBLIC "-//W3C//DTD SVG 1.1//EN" "http://www.w3.org/Graphics/SVG/1.1/DTD/svg11.dtd">
<svg version="1.1" id="Capa_1" xmlns="http://www.w3.org/2000/svg" xmlns:xlink="http://www.w3.org/1999/xlink" x="0px" y="0px"
	 width="512.001px" height="500.821px" viewBox="0 5.59 512.001 500.821" enable-background="new 0 5.59 512.001 500.821"
	 xml:space="preserve">
<g>
	<path fill="#FFFFFF" d="M426.541,367.961L320.247,261.668l86.274-86.275c28.013,6.504,58.622-0.958,80.494-22.826
		c23.934-23.913,30.499-58.302,20.446-88.377l-40.619,40.598c-14.369,14.413-38.09,13.964-53.051-0.997
		c-14.9-14.922-15.367-38.642-1.019-53.03l40.598-40.598c-30.012-10.116-64.382-3.508-88.355,20.447
		c-21.829,21.808-29.267,52.413-22.744,80.472l-86.275,86.253L169.761,111.1c6.504-28.034-0.998-58.644-22.805-80.494
		C123.043,6.672,88.676,0.085,58.601,10.138l40.598,40.619c14.391,14.37,13.964,38.111-1.019,53.051
		c-14.922,14.922-38.6,15.367-53.03,1.019L4.549,64.211c-10.074,30.032-3.487,64.446,20.489,88.377
		c21.786,21.85,52.392,29.266,80.472,22.783l86.232,86.211L85.47,367.854c-19.342-1.339-39.108,5.079-53.838,19.895
		c-27.165,27.122-27.165,71.118,0,98.283c27.079,27.101,71.097,27.101,98.219,0c14.772-14.772,21.17-34.56,19.937-53.902
		l106.209-106.251l106.294,106.294c-1.318,19.342,5.122,39.13,19.895,53.881c27.101,27.144,71.139,27.144,98.261,0
		c27.122-27.122,27.122-71.118,0-98.262C465.671,373.023,445.883,366.604,426.541,367.961z M90.161,472.196l-35.347-9.436
		l-9.415-35.348l25.826-25.868l35.347,9.458l9.458,35.325L90.161,472.196z M457.146,462.825l-35.325,9.414l-25.868-25.868
		l9.436-35.325l35.348-9.458l25.89,25.868L457.146,462.825z"/>
</g>
</svg>
