<?xml version="1.0" encoding="utf-8"?>
<!-- Generator: Adobe Illustrator 16.0.0, SVG Export Plug-In . SVG Version: 6.00 Build 0)  -->
<!DOCTYPE svg PUBLIC "-//W3C//DTD SVG 1.1//EN" "http://www.w3.org/Graphics/SVG/1.1/DTD/svg11.dtd">
<svg version="1.1" id="Capa_1" xmlns="http://www.w3.org/2000/svg" xmlns:xlink="http://www.w3.org/1999/xlink" x="0px" y="0px"
	 width="298.139px" height="512px" viewBox="106.93 0 298.139 512" enable-background="new 106.93 0 298.139 512"
	 xml:space="preserve">
<g>
	<g>
		<path fill="#FFFFFF" d="M296.962,459.906c0-7.096-1.31-13.817-3.921-20.163c-2.614-6.35-6.351-11.856-11.203-16.527
			c-4.854-4.668-10.456-8.402-16.805-11.2c-6.348-2.803-13.069-4.203-20.165-4.203c-7.095,0-13.817,1.4-20.165,4.203
			c-6.349,2.801-11.856,6.535-16.524,11.2c-4.668,4.671-8.309,10.177-10.923,16.527c-2.614,6.349-3.921,13.067-3.921,20.163
			s1.307,13.819,3.921,20.165c2.614,6.351,6.255,11.856,10.923,16.525c4.668,4.67,10.176,8.404,16.524,11.202
			c6.348,2.804,13.07,4.201,20.165,4.201s13.817-1.397,20.165-4.201c6.351-2.801,11.953-6.535,16.805-11.202
			c4.854-4.669,8.589-10.174,11.203-16.525C295.654,473.723,296.962,467.001,296.962,459.906z M248.789,384.846h-4.481
			c-11.95-1.494-21.752-6.908-29.408-16.244c-7.655-9.333-10.923-19.979-9.803-31.929c2.241-20.536,7.375-40.424,15.404-59.655
			c8.029-19.233,18.392-36.318,31.088-51.255c4.107-5.228,8.588-9.989,13.442-14.284c4.857-4.294,9.71-8.496,14.563-12.604
			c12.324-10.456,21.756-19.792,28.288-28.007s9.803-18.298,9.803-30.248c0-10.456-2.147-19.045-6.441-25.767
			c-4.292-6.722-9.522-12.043-15.685-15.964c-6.162-3.921-12.604-6.722-19.325-8.402c-6.722-1.681-12.696-2.521-17.925-2.521h-1.12
			c-10.456,0-19.045,1.4-25.767,4.201s-12.417,6.722-17.084,11.763c-4.668,5.042-8.589,11.11-11.763,18.205
			s-6.442,14.75-9.803,22.966c-4.481,11.577-9.896,19.699-16.244,24.367c-6.349,4.668-12.697,7.375-19.045,8.122
			c-7.095,1.494-14.377,0.934-21.846-1.68c-7.469-2.988-13.443-7.282-17.925-12.884c-4.108-4.854-7.282-11.109-9.522-18.765
			c-2.241-7.656-1.494-17.085,2.241-28.288c2.24-7.095,6.162-17.271,11.763-30.528c5.601-13.257,14.097-26.234,25.487-38.93
			c11.39-12.697,26.047-23.713,43.972-33.049c17.925-9.335,40.331-13.817,67.216-13.443c17.926,0.374,35.57,3.641,52.935,9.803
			c17.365,6.162,32.956,15.217,46.772,27.167c13.82,11.95,25.021,26.607,33.612,43.972c8.589,17.364,12.881,37.25,12.881,59.656
			c0,16.431-2.238,30.995-6.723,43.692c-4.48,12.696-10.176,24.086-17.084,34.169c-6.908,10.083-14.377,18.858-22.405,26.327
			s-15.404,14.19-22.126,20.166c-3.734,3.36-7.282,6.442-10.646,9.243c-3.361,2.803-5.973,5.51-7.839,8.121
			c-6.723,8.219-12.417,17.832-17.085,28.852c-4.671,11.016-7.563,22.499-8.683,34.449c-1.12,11.576-5.882,21.005-14.282,28.287
			C269.793,381.205,259.992,384.846,248.789,384.846z"/>
	</g>
</g>
</svg>
